[
  [
    {
      "absoluteTicks": 0,
      "channel": 15,
      "type": "meta",
      "metaType": 3,
      "subType": "trackName",
      "text": "Celesta",
      "time": 0.0
    },
    {
      "absoluteTicks": 8160,
      "channel": 13,
      "type": "noteOn",
      "note": 103,
      "velocity": 63,
      "vel": 0.503937,
      "time": 8.225790000032903
    },
    {
      "absoluteTicks": 8160,
      "channel": 13,
      "type": "noteOn",
      "note": 95,
      "velocity": 63,
      "vel": 0.503937,
      "time": 8.225790000032903
    },
    {
      "absoluteTicks": 8160,
      "channel": 13,
      "type": "noteOn",
      "note": 88,
      "velocity": 67,
      "vel": 0.535433,
      "time": 8.225790000032903
    },
    {
      "absoluteTicks": 8280,
      "channel": 13,
      "type": "noteOff",
      "note": 103,
      "velocity": 63,
      "rel": 0.503937,
      "time": 8.346757500033387
    },
    {
      "absoluteTicks": 8280,
      "channel": 13,
      "type": "noteOff",
      "note": 95,
      "velocity": 63,
      "rel": 0.503937,
      "time": 8.346757500033387
    },
    {
      "absoluteTicks": 8280,
      "channel": 13,
      "type": "noteOff",
      "note": 88,
      "velocity": 67,
      "rel": 0.535433,
      "time": 8.346757500033387
    },
    {
      "absoluteTicks": 8400,
      "channel": 13,
      "type": "noteOn",
      "note": 100,
      "velocity": 68,
      "vel": 0.543307,
      "time": 8.467725000033871
    },
    {
      "absoluteTicks": 8400,
      "channel": 13,
      "type": "noteOn",
      "note": 91,
      "velocity": 87,
      "vel": 0.692913,
      "time": 8.467725000033871
    },
    {
      "absoluteTicks": 8400,
      "channel": 13,
      "type": "noteOn",
      "note": 83,
      "velocity": 87,
      "vel": 0.692913,
      "time": 8.467725000033871
    },
    {
      "absoluteTicks": 8520,
      "channel": 13,
      "type": "noteOff",
      "note": 100,
      "velocity": 68,
      "rel": 0.543307,
      "time": 8.588692500034355
    },
    {
      "absoluteTicks": 8520,
      "channel": 13,
      "type": "noteOff",
      "note": 91,
      "velocity": 87,
      "rel": 0.692913,
      "time": 8.588692500034355
    },
    {
      "absoluteTicks": 8520,
      "channel": 13,
      "type": "noteOff",
      "note": 83,
      "velocity": 87,
      "rel": 0.692913,
      "time": 8.588692500034355
    },
    {
      "absoluteTicks": 8640,
      "channel": 13,
      "type": "noteOn",
      "note": 103,
      "velocity": 87,
      "vel": 0.692913,
      "time": 8.70966000003484
    },
    {
      "absoluteTicks": 8640,
      "channel": 13,
      "type": "noteOn",
      "note": 95,
      "velocity": 87,
      "vel": 0.692913,
      "time": 8.70966000003484
    },
    {
      "absoluteTicks": 8640,
      "channel": 13,
      "type": "noteOn",
      "note": 88,
      "velocity": 69,
      "vel": 0.551181,
      "time": 8.70966000003484
    },
    {
      "absoluteTicks": 8880,
      "channel": 13,
      "type": "noteOff",
      "note": 103,
      "velocity": 87,
      "rel": 0.692913,
      "time": 8.951595000035807
    },
    {
      "absoluteTicks": 8880,
      "channel": 13,
      "type": "noteOff",
      "note": 95,
      "velocity": 87,
      "rel": 0.692913,
      "time": 8.951595000035807
    },
    {
      "absoluteTicks": 8880,
      "channel": 13,
      "type": "noteOff",
      "note": 88,
      "velocity": 69,
      "rel": 0.551181,
      "time": 8.951595000035807
    },
    {
      "absoluteTicks": 9120,
      "channel": 13,
      "type": "noteOn",
      "note": 102,
      "velocity": 79,
      "vel": 0.629921,
      "time": 9.193530000036775
    },
    {
      "absoluteTicks": 9120,
      "channel": 13,
      "type": "noteOn",
      "note": 93,
      "velocity": 79,
      "vel": 0.629921,
      "time": 9.193530000036775
    },
    {
      "absoluteTicks": 9120,
      "channel": 13,
      "type": "noteOn",
      "note": 88,
      "velocity": 76,
      "vel": 0.606299,
      "time": 9.193530000036775
    },
    {
      "absoluteTicks": 9120,
      "channel": 13,
      "type": "noteOn",
      "note": 84,
      "velocity": 76,
      "vel": 0.606299,
      "time": 9.193530000036775
    },
    {
      "absoluteTicks": 9360,
      "channel": 13,
      "type": "noteOff",
      "note": 102,
      "velocity": 79,
      "rel": 0.629921,
      "time": 9.435465000037741
    },
    {
      "absoluteTicks": 9360,
      "channel": 13,
      "type": "noteOff",
      "note": 93,
      "velocity": 79,
      "rel": 0.629921,
      "time": 9.435465000037741
    },
    {
      "absoluteTicks": 9360,
      "channel": 13,
      "type": "noteOff",
      "note": 88,
      "velocity": 76,
      "rel": 0.606299,
      "time": 9.435465000037741
    },
    {
      "absoluteTicks": 9360,
      "channel": 13,
      "type": "noteOff",
      "note": 84,
      "velocity": 76,
      "rel": 0.606299,
      "time": 9.435465000037741
    },
    {
      "absoluteTicks": 9600,
      "channel": 13,
      "type": "noteOn",
      "note": 99,
      "velocity": 75,
      "vel": 0.598425,
      "time": 9.677400000038709
    },
    {
      "absoluteTicks": 9600,
      "channel": 13,
      "type": "noteOn",
      "note": 90,
      "velocity": 75,
      "vel": 0.598425,
      "time": 9.677400000038709
    },
    {
      "absoluteTicks": 9600,
      "channel": 13,
      "type": "noteOn",
      "note": 84,
      "velocity": 72,
      "vel": 0.574803,
      "time": 9.677400000038709
    },
    {
      "absoluteTicks": 9600,
      "channel": 13,
      "type": "noteOn",
      "note": 81,
      "velocity": 72,
      "vel": 0.574803,
      "time": 9.677400000038709
    },
    {
      "absoluteTicks": 9840,
      "channel": 13,
      "type": "noteOff",
      "note": 99,
      "velocity": 75,
      "rel": 0.598425,
      "time": 9.919335000039677
    },
    {
      "absoluteTicks": 9840,
      "channel": 13,
      "type": "noteOff",
      "note": 90,
      "velocity": 75,
      "rel": 0.598425,
      "time": 9.919335000039677
    },
    {
      "absoluteTicks": 9840,
      "channel": 13,
      "type": "noteOff",
      "note": 84,
      "velocity": 72,
      "rel": 0.574803,
      "time": 9.919335000039677
    },
    {
      "absoluteTicks": 9840,
      "channel": 13,
      "type": "noteOff",
      "note": 81,
      "velocity": 72,
      "rel": 0.574803,
      "time": 9.919335000039677
    },
    {
      "absoluteTicks": 10080,
      "channel": 13,
      "type": "noteOn",
      "note": 100,
      "velocity": 79,
      "vel": 0.629921,
      "time": 10.161270000040645
    },
    {
      "absoluteTicks": 10080,
      "channel": 13,
      "type": "noteOn",
      "note": 91,
      "velocity": 79,
      "vel": 0.629921,
      "time": 10.161270000040645
    },
    {
      "absoluteTicks": 10080,
      "channel": 13,
      "type": "noteOn",
      "note": 85,
      "velocity": 83,
      "vel": 0.661417,
      "time": 10.161270000040645
    },
    {
      "absoluteTicks": 10080,
      "channel": 13,
      "type": "noteOn",
      "note": 82,
      "velocity": 83,
      "vel": 0.661417,
      "time": 10.161270000040645
    },
    {
      "absoluteTicks": 10320,
      "channel": 13,
      "type": "noteOff",
      "note": 100,
      "velocity": 79,
      "rel": 0.629921,
      "time": 10.403205000041613
    },
    {
      "absoluteTicks": 10320,
      "channel": 13,
      "type": "noteOff",
      "note": 91,
      "velocity": 79,
      "rel": 0.629921,
      "time": 10.403205000041613
    },
    {
      "absoluteTicks": 10320,
      "channel": 13,
      "type": "noteOff",
      "note": 85,
      "velocity": 83,
      "rel": 0.661417,
      "time": 10.403205000041613
    },
    {
      "absoluteTicks": 10320,
      "channel": 13,
      "type": "noteOff",
      "note": 82,
      "velocity": 83,
      "rel": 0.661417,
      "time": 10.403205000041613
    },
    {
      "absoluteTicks": 10560,
      "channel": 13,
      "type": "noteOn",
      "note": 98,
      "velocity": 77,
      "vel": 0.614173,
      "time": 10.64514000004258
    },
    {
      "absoluteTicks": 10560,
      "channel": 13,
      "type": "noteOn",
      "note": 92,
      "velocity": 77,
      "vel": 0.614173,
      "time": 10.64514000004258
    },
    {
      "absoluteTicks": 10560,
      "channel": 13,
      "type": "noteOn",
      "note": 89,
      "velocity": 88,
      "vel": 0.700787,
      "time": 10.64514000004258
    },
    {
      "absoluteTicks": 10560,
      "channel": 13,
      "type": "noteOn",
      "note": 83,
      "velocity": 88,
      "vel": 0.700787,
      "time": 10.64514000004258
    },
    {
      "absoluteTicks": 10680,
      "channel": 13,
      "type": "noteOff",
      "note": 98,
      "velocity": 77,
      "rel": 0.614173,
      "time": 10.766107500043065
    },
    {
      "absoluteTicks": 10680,
      "channel": 13,
      "type": "noteOff",
      "note": 92,
      "velocity": 77,
      "rel": 0.614173,
      "time": 10.766107500043065
    },
    {
      "absoluteTicks": 10680,
      "channel": 13,
      "type": "noteOff",
      "note": 89,
      "velocity": 88,
      "rel": 0.700787,
      "time": 10.766107500043065
    },
    {
      "absoluteTicks": 10680,
      "channel": 13,
      "type": "noteOff",
      "note": 83,
      "velocity": 88,
      "rel": 0.700787,
      "time": 10.766107500043065
    },
    {
      "absoluteTicks": 10800,
      "channel": 13,
      "type": "noteOn",
      "note": 98,
      "velocity": 75,
      "vel": 0.598425,
      "time": 10.887075000043549
    },
    {
      "absoluteTicks": 10800,
      "channel": 13,
      "type": "noteOn",
      "note": 92,
      "velocity": 75,
      "vel": 0.598425,
      "time": 10.887075000043549
    },
    {
      "absoluteTicks": 10800,
      "channel": 13,
      "type": "noteOn",
      "note": 89,
      "velocity": 83,
      "vel": 0.661417,
      "time": 10.887075000043549
    },
    {
      "absoluteTicks": 10800,
      "channel": 13,
      "type": "noteOn",
      "note": 83,
      "velocity": 83,
      "vel": 0.661417,
      "time": 10.887075000043549
    },
    {
      "absoluteTicks": 10920,
      "channel": 13,
      "type": "noteOff",
      "note": 98,
      "velocity": 75,
      "rel": 0.598425,
      "time": 11.008042500044033
    },
    {
      "absoluteTicks": 10920,
      "channel": 13,
      "type": "noteOff",
      "note": 92,
      "velocity": 75,
      "rel": 0.598425,
      "time": 11.008042500044033
    },
    {
      "absoluteTicks": 10920,
      "channel": 13,
      "type": "noteOff",
      "note": 89,
      "velocity": 83,
      "rel": 0.661417,
      "time": 11.008042500044033
    },
    {
      "absoluteTicks": 10920,
      "channel": 13,
      "type": "noteOff",
      "note": 83,
      "velocity": 83,
      "rel": 0.661417,
      "time": 11.008042500044033
    },
    {
      "absoluteTicks": 11040,
      "channel": 13,
      "type": "noteOn",
      "note": 98,
      "velocity": 79,
      "vel": 0.629921,
      "time": 11.129010000044516
    },
    {
      "absoluteTicks": 11040,
      "channel": 13,
      "type": "noteOn",
      "note": 92,
      "velocity": 79,
      "vel": 0.629921,
      "time": 11.129010000044516
    },
    {
      "absoluteTicks": 11040,
      "channel": 13,
      "type": "noteOn",
      "note": 89,
      "velocity": 77,
      "vel": 0.614173,
      "time": 11.129010000044516
    },
    {
      "absoluteTicks": 11040,
      "channel": 13,
      "type": "noteOn",
      "note": 83,
      "velocity": 77,
      "vel": 0.614173,
      "time": 11.129010000044516
    },
    {
      "absoluteTicks": 11280,
      "channel": 13,
      "type": "noteOff",
      "note": 98,
      "velocity": 79,
      "rel": 0.629921,
      "time": 11.370945000045484
    },
    {
      "absoluteTicks": 11280,
      "channel": 13,
      "type": "noteOff",
      "note": 92,
      "velocity": 79,
      "rel": 0.629921,
      "time": 11.370945000045484
    },
    {
      "absoluteTicks": 11280,
      "channel": 13,
      "type": "noteOff",
      "note": 89,
      "velocity": 77,
      "rel": 0.614173,
      "time": 11.370945000045484
    },
    {
      "absoluteTicks": 11280,
      "channel": 13,
      "type": "noteOff",
      "note": 83,
      "velocity": 77,
      "rel": 0.614173,
      "time": 11.370945000045484
    },
    {
      "absoluteTicks": 11520,
      "channel": 13,
      "type": "noteOn",
      "note": 97,
      "velocity": 75,
      "vel": 0.598425,
      "time": 11.612880000046452
    },
    {
      "absoluteTicks": 11520,
      "channel": 13,
      "type": "noteOn",
      "note": 91,
      "velocity": 75,
      "vel": 0.598425,
      "time": 11.612880000046452
    },
    {
      "absoluteTicks": 11520,
      "channel": 13,
      "type": "noteOn",
      "note": 88,
      "velocity": 75,
      "vel": 0.598425,
      "time": 11.612880000046452
    },
    {
      "absoluteTicks": 11520,
      "channel": 13,
      "type": "noteOn",
      "note": 82,
      "velocity": 75,
      "vel": 0.598425,
      "time": 11.612880000046452
    },
    {
      "absoluteTicks": 11640,
      "channel": 13,
      "type": "noteOff",
      "note": 97,
      "velocity": 75,
      "rel": 0.598425,
      "time": 11.733847500046936
    },
    {
      "absoluteTicks": 11640,
      "channel": 13,
      "type": "noteOff",
      "note": 91,
      "velocity": 75,
      "rel": 0.598425,
      "time": 11.733847500046936
    },
    {
      "absoluteTicks": 11640,
      "channel": 13,
      "type": "noteOff",
      "note": 88,
      "velocity": 75,
      "rel": 0.598425,
      "time": 11.733847500046936
    },
    {
      "absoluteTicks": 11640,
      "channel": 13,
      "type": "noteOff",
      "note": 82,
      "velocity": 75,
      "rel": 0.598425,
      "time": 11.733847500046936
    },
    {
      "absoluteTicks": 11760,
      "channel": 13,
      "type": "noteOn",
      "note": 97,
      "velocity": 78,
      "vel": 0.622047,
      "time": 11.85481500004742
    },
    {
      "absoluteTicks": 11760,
      "channel": 13,
      "type": "noteOn",
      "note": 91,
      "velocity": 78,
      "vel": 0.622047,
      "time": 11.85481500004742
    },
    {
      "absoluteTicks": 11760,
      "channel": 13,
      "type": "noteOn",
      "note": 88,
      "velocity": 78,
      "vel": 0.622047,
      "time": 11.85481500004742
    },
    {
      "absoluteTicks": 11760,
      "channel": 13,
      "type": "noteOn",
      "note": 82,
      "velocity": 78,
      "vel": 0.622047,
      "time": 11.85481500004742
    },
    {
      "absoluteTicks": 11880,
      "channel": 13,
      "type": "noteOff",
      "note": 97,
      "velocity": 78,
      "rel": 0.622047,
      "time": 11.975782500047902
    },
    {
      "absoluteTicks": 11880,
      "channel": 13,
      "type": "noteOff",
      "note": 91,
      "velocity": 78,
      "rel": 0.622047,
      "time": 11.975782500047902
    },
    {
      "absoluteTicks": 11880,
      "channel": 13,
      "type": "noteOff",
      "note": 88,
      "velocity": 78,
      "rel": 0.622047,
      "time": 11.975782500047902
    },
    {
      "absoluteTicks": 11880,
      "channel": 13,
      "type": "noteOff",
      "note": 82,
      "velocity": 78,
      "rel": 0.622047,
      "time": 11.975782500047902
    },
    {
      "absoluteTicks": 12000,
      "channel": 13,
      "type": "noteOn",
      "note": 97,
      "velocity": 74,
      "vel": 0.590551,
      "time": 12.096750000048386
    },
    {
      "absoluteTicks": 12000,
      "channel": 13,
      "type": "noteOn",
      "note": 91,
      "velocity": 74,
      "vel": 0.590551,
      "time": 12.096750000048386
    },
    {
      "absoluteTicks": 12000,
      "channel": 13,
      "type": "noteOn",
      "note": 88,
      "velocity": 77,
      "vel": 0.614173,
      "time": 12.096750000048386
    },
    {
      "absoluteTicks": 12000,
      "channel": 13,
      "type": "noteOn",
      "note": 82,
      "velocity": 77,
      "vel": 0.614173,
      "time": 12.096750000048386
    },
    {
      "absoluteTicks": 12240,
      "channel": 13,
      "type": "noteOff",
      "note": 97,
      "velocity": 74,
      "rel": 0.590551,
      "time": 12.338685000049354
    },
    {
      "absoluteTicks": 12240,
      "channel": 13,
      "type": "noteOff",
      "note": 91,
      "velocity": 74,
      "rel": 0.590551,
      "time": 12.338685000049354
    },
    {
      "absoluteTicks": 12240,
      "channel": 13,
      "type": "noteOff",
      "note": 88,
      "velocity": 77,
      "rel": 0.614173,
      "time": 12.338685000049354
    },
    {
      "absoluteTicks": 12240,
      "channel": 13,
      "type": "noteOff",
      "note": 82,
      "velocity": 77,
      "rel": 0.614173,
      "time": 12.338685000049354
    },
    {
      "absoluteTicks": 12480,
      "channel": 13,
      "type": "noteOn",
      "note": 96,
      "velocity": 75,
      "vel": 0.598425,
      "time": 12.580620000050322
    },
    {
      "absoluteTicks": 12480,
      "channel": 13,
      "type": "noteOn",
      "note": 90,
      "velocity": 75,
      "vel": 0.598425,
      "time": 12.580620000050322
    },
    {
      "absoluteTicks": 12480,
      "channel": 13,
      "type": "noteOn",
      "note": 87,
      "velocity": 75,
      "vel": 0.598425,
      "time": 12.580620000050322
    },
    {
      "absoluteTicks": 12480,
      "channel": 13,
      "type": "noteOn",
      "note": 81,
      "velocity": 75,
      "vel": 0.598425,
      "time": 12.580620000050322
    },
    {
      "absoluteTicks": 12600,
      "channel": 13,
      "type": "noteOff",
      "note": 96,
      "velocity": 75,
      "rel": 0.598425,
      "time": 12.701587500050806
    },
    {
      "absoluteTicks": 12600,
      "channel": 13,
      "type": "noteOff",
      "note": 90,
      "velocity": 75,
      "rel": 0.598425,
      "time": 12.701587500050806
    },
    {
      "absoluteTicks": 12600,
      "channel": 13,
      "type": "noteOff",
      "note": 87,
      "velocity": 75,
      "rel": 0.598425,
      "time": 12.701587500050806
    },
    {
      "absoluteTicks": 12600,
      "channel": 13,
      "type": "noteOff",
      "note": 81,
      "velocity": 75,
      "rel": 0.598425,
      "time": 12.701587500050806
    },
    {
      "absoluteTicks": 12720,
      "channel": 13,
      "type": "noteOn",
      "note": 96,
      "velocity": 79,
      "vel": 0.629921,
      "time": 12.82255500005129
    },
    {
      "absoluteTicks": 12720,
      "channel": 13,
      "type": "noteOn",
      "note": 90,
      "velocity": 79,
      "vel": 0.629921,
      "time": 12.82255500005129
    },
    {
      "absoluteTicks": 12720,
      "channel": 13,
      "type": "noteOn",
      "note": 87,
      "velocity": 74,
      "vel": 0.590551,
      "time": 12.82255500005129
    },
    {
      "absoluteTicks": 12720,
      "channel": 13,
      "type": "noteOn",
      "note": 81,
      "velocity": 74,
      "vel": 0.590551,
      "time": 12.82255500005129
    },
    {
      "absoluteTicks": 12840,
      "channel": 13,
      "type": "noteOff",
      "note": 96,
      "velocity": 79,
      "rel": 0.629921,
      "time": 12.943522500051774
    },
    {
      "absoluteTicks": 12840,
      "channel": 13,
      "type": "noteOff",
      "note": 90,
      "velocity": 79,
      "rel": 0.629921,
      "time": 12.943522500051774
    },
    {
      "absoluteTicks": 12840,
      "channel": 13,
      "type": "noteOff",
      "note": 87,
      "velocity": 74,
      "rel": 0.590551,
      "time": 12.943522500051774
    },
    {
      "absoluteTicks": 12840,
      "channel": 13,
      "type": "noteOff",
      "note": 81,
      "velocity": 74,
      "rel": 0.590551,
      "time": 12.943522500051774
    },
    {
      "absoluteTicks": 12960,
      "channel": 13,
      "type": "noteOn",
      "note": 96,
      "velocity": 76,
      "vel": 0.606299,
      "time": 13.064490000052258
    },
    {
      "absoluteTicks": 12960,
      "channel": 13,
      "type": "noteOn",
      "note": 90,
      "velocity": 76,
      "vel": 0.606299,
      "time": 13.064490000052258
    },
    {
      "absoluteTicks": 12960,
      "channel": 13,
      "type": "noteOn",
      "note": 87,
      "velocity": 76,
      "vel": 0.606299,
      "time": 13.064490000052258
    },
    {
      "absoluteTicks": 12960,
      "channel": 13,
      "type": "noteOn",
      "note": 81,
      "velocity": 76,
      "vel": 0.606299,
      "time": 13.064490000052258
    },
    {
      "absoluteTicks": 13200,
      "channel": 13,
      "type": "noteOff",
      "note": 96,
      "velocity": 76,
      "rel": 0.606299,
      "time": 13.306425000053226
    },
    {
      "absoluteTicks": 13200,
      "channel": 13,
      "type": "noteOff",
      "note": 90,
      "velocity": 76,
      "rel": 0.606299,
      "time": 13.306425000053226
    },
    {
      "absoluteTicks": 13200,
      "channel": 13,
      "type": "noteOff",
      "note": 87,
      "velocity": 76,
      "rel": 0.606299,
      "time": 13.306425000053226
    },
    {
      "absoluteTicks": 13200,
      "channel": 13,
      "type": "noteOff",
      "note": 81,
      "velocity": 76,
      "rel": 0.606299,
      "time": 13.306425000053226
    },
    {
      "absoluteTicks": 13440,
      "channel": 13,
      "type": "noteOn",
      "note": 95,
      "velocity": 74,
      "vel": 0.590551,
      "time": 13.548360000054194
    },
    {
      "absoluteTicks": 13440,
      "channel": 13,
      "type": "noteOn",
      "note": 88,
      "velocity": 80,
      "vel": 0.637795,
      "time": 13.548360000054194
    },
    {
      "absoluteTicks": 13440,
      "channel": 13,
      "type": "noteOn",
      "note": 79,
      "velocity": 80,
      "vel": 0.637795,
      "time": 13.548360000054194
    },
    {
      "absoluteTicks": 13560,
      "channel": 13,
      "type": "noteOff",
      "note": 95,
      "velocity": 74,
      "rel": 0.590551,
      "time": 13.669327500054678
    },
    {
      "absoluteTicks": 13560,
      "channel": 13,
      "type": "noteOff",
      "note": 88,
      "velocity": 80,
      "rel": 0.637795,
      "time": 13.669327500054678
    },
    {
      "absoluteTicks": 13560,
      "channel": 13,
      "type": "noteOff",
      "note": 79,
      "velocity": 80,
      "rel": 0.637795,
      "time": 13.669327500054678
    },
    {
      "absoluteTicks": 13680,
      "channel": 13,
      "type": "noteOn",
      "note": 100,
      "velocity": 91,
      "vel": 0.724409,
      "time": 13.790295000055162
    },
    {
      "absoluteTicks": 13680,
      "channel": 13,
      "type": "noteOn",
      "note": 91,
      "velocity": 91,
      "vel": 0.724409,
      "time": 13.790295000055162
    },
    {
      "absoluteTicks": 13680,
      "channel": 13,
      "type": "noteOn",
      "note": 83,
      "velocity": 68,
      "vel": 0.543307,
      "time": 13.790295000055162
    },
    {
      "absoluteTicks": 13800,
      "channel": 13,
      "type": "noteOff",
      "note": 100,
      "velocity": 91,
      "rel": 0.724409,
      "time": 13.911262500055646
    },
    {
      "absoluteTicks": 13800,
      "channel": 13,
      "type": "noteOff",
      "note": 91,
      "velocity": 91,
      "rel": 0.724409,
      "time": 13.911262500055646
    },
    {
      "absoluteTicks": 13800,
      "channel": 13,
      "type": "noteOff",
      "note": 83,
      "velocity": 68,
      "rel": 0.543307,
      "time": 13.911262500055646
    },
    {
      "absoluteTicks": 13920,
      "channel": 13,
      "type": "noteOn",
      "note": 96,
      "velocity": 72,
      "vel": 0.574803,
      "time": 14.03223000005613
    },
    {
      "absoluteTicks": 13920,
      "channel": 13,
      "type": "noteOn",
      "note": 88,
      "velocity": 88,
      "vel": 0.700787,
      "time": 14.03223000005613
    },
    {
      "absoluteTicks": 13920,
      "channel": 13,
      "type": "noteOn",
      "note": 81,
      "velocity": 88,
      "vel": 0.700787,
      "time": 14.03223000005613
    },
    {
      "absoluteTicks": 14040,
      "channel": 13,
      "type": "noteOff",
      "note": 96,
      "velocity": 72,
      "rel": 0.574803,
      "time": 14.153197500056613
    },
    {
      "absoluteTicks": 14040,
      "channel": 13,
      "type": "noteOff",
      "note": 88,
      "velocity": 88,
      "rel": 0.700787,
      "time": 14.153197500056613
    },
    {
      "absoluteTicks": 14040,
      "channel": 13,
      "type": "noteOff",
      "note": 81,
      "velocity": 88,
      "rel": 0.700787,
      "time": 14.153197500056613
    },
    {
      "absoluteTicks": 14160,
      "channel": 13,
      "type": "noteOn",
      "note": 100,
      "velocity": 88,
      "vel": 0.700787,
      "time": 14.274165000057097
    },
    {
      "absoluteTicks": 14160,
      "channel": 13,
      "type": "noteOn",
      "note": 90,
      "velocity": 88,
      "vel": 0.700787,
      "time": 14.274165000057097
    },
    {
      "absoluteTicks": 14160,
      "channel": 13,
      "type": "noteOn",
      "note": 84,
      "velocity": 70,
      "vel": 0.559055,
      "time": 14.274165000057097
    },
    {
      "absoluteTicks": 14280,
      "channel": 13,
      "type": "noteOff",
      "note": 100,
      "velocity": 88,
      "rel": 0.700787,
      "time": 14.395132500057581
    },
    {
      "absoluteTicks": 14280,
      "channel": 13,
      "type": "noteOff",
      "note": 90,
      "velocity": 88,
      "rel": 0.700787,
      "time": 14.395132500057581
    },
    {
      "absoluteTicks": 14280,
      "channel": 13,
      "type": "noteOff",
      "note": 84,
      "velocity": 70,
      "rel": 0.559055,
      "time": 14.395132500057581
    },
    {
      "absoluteTicks": 14400,
      "channel": 13,
      "type": "noteOn",
      "note": 95,
      "velocity": 67,
      "vel": 0.535433,
      "time": 14.516100000058065
    },
    {
      "absoluteTicks": 14400,
      "channel": 13,
      "type": "noteOn",
      "note": 88,
      "velocity": 84,
      "vel": 0.669291,
      "time": 14.516100000058065
    },
    {
      "absoluteTicks": 14400,
      "channel": 13,
      "type": "noteOn",
      "note": 79,
      "velocity": 84,
      "vel": 0.669291,
      "time": 14.516100000058065
    },
    {
      "absoluteTicks": 14640,
      "channel": 13,
      "type": "noteOff",
      "note": 95,
      "velocity": 67,
      "rel": 0.535433,
      "time": 14.758035000059031
    },
    {
      "absoluteTicks": 14640,
      "channel": 13,
      "type": "noteOff",
      "note": 88,
      "velocity": 84,
      "rel": 0.669291,
      "time": 14.758035000059031
    },
    {
      "absoluteTicks": 14640,
      "channel": 13,
      "type": "noteOff",
      "note": 79,
      "velocity": 84,
      "rel": 0.669291,
      "time": 14.758035000059031
    },
    {
      "absoluteTicks": 15840,
      "channel": 13,
      "type": "noteOn",
      "note": 91,
      "velocity": 67,
      "vel": 0.535433,
      "time": 15.967710000063871
    },
    {
      "absoluteTicks": 15840,
      "channel": 13,
      "type": "noteOn",
      "note": 84,
      "velocity": 67,
      "vel": 0.535433,
      "time": 15.967710000063871
    },
    {
      "absoluteTicks": 15840,
      "channel": 13,
      "type": "noteOn",
      "note": 76,
      "velocity": 72,
      "vel": 0.574803,
      "time": 15.967710000063871
    },
    {
      "absoluteTicks": 15960,
      "channel": 13,
      "type": "noteOff",
      "note": 91,
      "velocity": 67,
      "rel": 0.535433,
      "time": 16.088677500064353
    },
    {
      "absoluteTicks": 15960,
      "channel": 13,
      "type": "noteOff",
      "note": 84,
      "velocity": 67,
      "rel": 0.535433,
      "time": 16.088677500064353
    },
    {
      "absoluteTicks": 15960,
      "channel": 13,
      "type": "noteOff",
      "note": 76,
      "velocity": 72,
      "rel": 0.574803,
      "time": 16.088677500064353
    },
    {
      "absoluteTicks": 16080,
      "channel": 13,
      "type": "noteOn",
      "note": 88,
      "velocity": 70,
      "vel": 0.559055,
      "time": 16.20964500006484
    },
    {
      "absoluteTicks": 16080,
      "channel": 13,
      "type": "noteOn",
      "note": 79,
      "velocity": 85,
      "vel": 0.677165,
      "time": 16.20964500006484
    },
    {
      "absoluteTicks": 16200,
      "channel": 13,
      "type": "noteOff",
      "note": 88,
      "velocity": 70,
      "rel": 0.559055,
      "time": 16.33061250006532
    },
    {
      "absoluteTicks": 16200,
      "channel": 13,
      "type": "noteOff",
      "note": 79,
      "velocity": 85,
      "rel": 0.677165,
      "time": 16.33061250006532
    },
    {
      "absoluteTicks": 16320,
      "channel": 13,
      "type": "noteOn",
      "note": 91,
      "velocity": 89,
      "vel": 0.708661,
      "time": 16.451580000065807
    },
    {
      "absoluteTicks": 16320,
      "channel": 13,
      "type": "noteOn",
      "note": 84,
      "velocity": 89,
      "vel": 0.708661,
      "time": 16.451580000065807
    },
    {
      "absoluteTicks": 16320,
      "channel": 13,
      "type": "noteOn",
      "note": 76,
      "velocity": 74,
      "vel": 0.590551,
      "time": 16.451580000065807
    },
    {
      "absoluteTicks": 16560,
      "channel": 13,
      "type": "noteOff",
      "note": 91,
      "velocity": 89,
      "rel": 0.708661,
      "time": 16.693515000066775
    },
    {
      "absoluteTicks": 16560,
      "channel": 13,
      "type": "noteOff",
      "note": 84,
      "velocity": 89,
      "rel": 0.708661,
      "time": 16.693515000066775
    },
    {
      "absoluteTicks": 16560,
      "channel": 13,
      "type": "noteOff",
      "note": 76,
      "velocity": 74,
      "rel": 0.590551,
      "time": 16.693515000066775
    },
    {
      "absoluteTicks": 16800,
      "channel": 13,
      "type": "noteOn",
      "note": 90,
      "velocity": 81,
      "vel": 0.645669,
      "time": 16.935450000067743
    },
    {
      "absoluteTicks": 16800,
      "channel": 13,
      "type": "noteOn",
      "note": 84,
      "velocity": 81,
      "vel": 0.645669,
      "time": 16.935450000067743
    },
    {
      "absoluteTicks": 16800,
      "channel": 13,
      "type": "noteOn",
      "note": 75,
      "velocity": 81,
      "vel": 0.645669,
      "time": 16.935450000067743
    },
    {
      "absoluteTicks": 17040,
      "channel": 13,
      "type": "noteOff",
      "note": 90,
      "velocity": 81,
      "rel": 0.645669,
      "time": 17.17738500006871
    },
    {
      "absoluteTicks": 17040,
      "channel": 13,
      "type": "noteOff",
      "note": 84,
      "velocity": 81,
      "rel": 0.645669,
      "time": 17.17738500006871
    },
    {
      "absoluteTicks": 17040,
      "channel": 13,
      "type": "noteOff",
      "note": 75,
      "velocity": 81,
      "rel": 0.645669,
      "time": 17.17738500006871
    },
    {
      "absoluteTicks": 17280,
      "channel": 13,
      "type": "noteOn",
      "note": 96,
      "velocity": 96,
      "vel": 0.755906,
      "time": 17.41932000006968
    },
    {
      "absoluteTicks": 17280,
      "channel": 13,
      "type": "noteOn",
      "note": 90,
      "velocity": 96,
      "vel": 0.755906,
      "time": 17.41932000006968
    },
    {
      "absoluteTicks": 17280,
      "channel": 13,
      "type": "noteOn",
      "note": 87,
      "velocity": 96,
      "vel": 0.755906,
      "time": 17.41932000006968
    },
    {
      "absoluteTicks": 17280,
      "channel": 13,
      "type": "noteOn",
      "note": 81,
      "velocity": 101,
      "vel": 0.795276,
      "time": 17.41932000006968
    },
    {
      "absoluteTicks": 17520,
      "channel": 13,
      "type": "noteOff",
      "note": 96,
      "velocity": 96,
      "rel": 0.755906,
      "time": 17.661255000070646
    },
    {
      "absoluteTicks": 17520,
      "channel": 13,
      "type": "noteOff",
      "note": 90,
      "velocity": 96,
      "rel": 0.755906,
      "time": 17.661255000070646
    },
    {
      "absoluteTicks": 17520,
      "channel": 13,
      "type": "noteOff",
      "note": 87,
      "velocity": 96,
      "rel": 0.755906,
      "time": 17.661255000070646
    },
    {
      "absoluteTicks": 17520,
      "channel": 13,
      "type": "noteOff",
      "note": 81,
      "velocity": 101,
      "rel": 0.795276,
      "time": 17.661255000070646
    },
    {
      "absoluteTicks": 17760,
      "channel": 13,
      "type": "noteOn",
      "note": 95,
      "velocity": 86,
      "vel": 0.685039,
      "time": 17.903190000071614
    },
    {
      "absoluteTicks": 17760,
      "channel": 13,
      "type": "noteOn",
      "note": 91,
      "velocity": 86,
      "vel": 0.685039,
      "time": 17.903190000071614
    },
    {
      "absoluteTicks": 17760,
      "channel": 13,
      "type": "noteOn",
      "note": 88,
      "velocity": 86,
      "vel": 0.685039,
      "time": 17.903190000071614
    },
    {
      "absoluteTicks": 17760,
      "channel": 13,
      "type": "noteOn",
      "note": 79,
      "velocity": 86,
      "vel": 0.685039,
      "time": 17.903190000071614
    },
    {
      "absoluteTicks": 18000,
      "channel": 13,
      "type": "noteOff",
      "note": 95,
      "velocity": 86,
      "rel": 0.685039,
      "time": 18.145125000072582
    },
    {
      "absoluteTicks": 18000,
      "channel": 13,
      "type": "noteOff",
      "note": 91,
      "velocity": 86,
      "rel": 0.685039,
      "time": 18.145125000072582
    },
    {
      "absoluteTicks": 18000,
      "channel": 13,
      "type": "noteOff",
      "note": 88,
      "velocity": 86,
      "rel": 0.685039,
      "time": 18.145125000072582
    },
    {
      "absoluteTicks": 18000,
      "channel": 13,
      "type": "noteOff",
      "note": 79,
      "velocity": 86,
      "rel": 0.685039,
      "time": 18.145125000072582
    },
    {
      "absoluteTicks": 18240,
      "channel": 13,
      "type": "noteOn",
      "note": 103,
      "velocity": 118,
      "vel": 0.929134,
      "time": 18.38706000007355
    },
    {
      "absoluteTicks": 18240,
      "channel": 13,
      "type": "noteOn",
      "note": 97,
      "velocity": 118,
      "vel": 0.929134,
      "time": 18.38706000007355
    },
    {
      "absoluteTicks": 18240,
      "channel": 13,
      "type": "noteOn",
      "note": 94,
      "velocity": 121,
      "vel": 0.952756,
      "time": 18.38706000007355
    },
    {
      "absoluteTicks": 18240,
      "channel": 13,
      "type": "noteOn",
      "note": 88,
      "velocity": 121,
      "vel": 0.952756,
      "time": 18.38706000007355
    },
    {
      "absoluteTicks": 18360,
      "channel": 13,
      "type": "noteOff",
      "note": 103,
      "velocity": 118,
      "rel": 0.929134,
      "time": 18.508027500074032
    },
    {
      "absoluteTicks": 18360,
      "channel": 13,
      "type": "noteOff",
      "note": 97,
      "velocity": 118,
      "rel": 0.929134,
      "time": 18.508027500074032
    },
    {
      "absoluteTicks": 18360,
      "channel": 13,
      "type": "noteOff",
      "note": 94,
      "velocity": 121,
      "rel": 0.952756,
      "time": 18.508027500074032
    },
    {
      "absoluteTicks": 18360,
      "channel": 13,
      "type": "noteOff",
      "note": 88,
      "velocity": 121,
      "rel": 0.952756,
      "time": 18.508027500074032
    },
    {
      "absoluteTicks": 18480,
      "channel": 13,
      "type": "noteOn",
      "note": 103,
      "velocity": 103,
      "vel": 0.811024,
      "time": 18.628995000074514
    },
    {
      "absoluteTicks": 18480,
      "channel": 13,
      "type": "noteOn",
      "note": 97,
      "velocity": 103,
      "vel": 0.811024,
      "time": 18.628995000074514
    },
    {
      "absoluteTicks": 18480,
      "channel": 13,
      "type": "noteOn",
      "note": 94,
      "velocity": 101,
      "vel": 0.795276,
      "time": 18.628995000074514
    },
    {
      "absoluteTicks": 18480,
      "channel": 13,
      "type": "noteOn",
      "note": 88,
      "velocity": 101,
      "vel": 0.795276,
      "time": 18.628995000074514
    },
    {
      "absoluteTicks": 18600,
      "channel": 13,
      "type": "noteOff",
      "note": 103,
      "velocity": 103,
      "rel": 0.811024,
      "time": 18.749962500075
    },
    {
      "absoluteTicks": 18600,
      "channel": 13,
      "type": "noteOff",
      "note": 97,
      "velocity": 103,
      "rel": 0.811024,
      "time": 18.749962500075
    },
    {
      "absoluteTicks": 18600,
      "channel": 13,
      "type": "noteOff",
      "note": 94,
      "velocity": 101,
      "rel": 0.795276,
      "time": 18.749962500075
    },
    {
      "absoluteTicks": 18600,
      "channel": 13,
      "type": "noteOff",
      "note": 88,
      "velocity": 101,
      "rel": 0.795276,
      "time": 18.749962500075
    },
    {
      "absoluteTicks": 18720,
      "channel": 13,
      "type": "noteOn",
      "note": 103,
      "velocity": 93,
      "vel": 0.740157,
      "time": 18.870930000075482
    },
    {
      "absoluteTicks": 18720,
      "channel": 13,
      "type": "noteOn",
      "note": 97,
      "velocity": 93,
      "vel": 0.740157,
      "time": 18.870930000075482
    },
    {
      "absoluteTicks": 18720,
      "channel": 13,
      "type": "noteOn",
      "note": 94,
      "velocity": 100,
      "vel": 0.787402,
      "time": 18.870930000075482
    },
    {
      "absoluteTicks": 18720,
      "channel": 13,
      "type": "noteOn",
      "note": 88,
      "velocity": 100,
      "vel": 0.787402,
      "time": 18.870930000075482
    },
    {
      "absoluteTicks": 18960,
      "channel": 13,
      "type": "noteOff",
      "note": 103,
      "velocity": 93,
      "rel": 0.740157,
      "time": 19.11286500007645
    },
    {
      "absoluteTicks": 18960,
      "channel": 13,
      "type": "noteOff",
      "note": 97,
      "velocity": 93,
      "rel": 0.740157,
      "time": 19.11286500007645
    },
    {
      "absoluteTicks": 18960,
      "channel": 13,
      "type": "noteOff",
      "note": 94,
      "velocity": 100,
      "rel": 0.787402,
      "time": 19.11286500007645
    },
    {
      "absoluteTicks": 18960,
      "channel": 13,
      "type": "noteOff",
      "note": 88,
      "velocity": 100,
      "rel": 0.787402,
      "time": 19.11286500007645
    },
    {
      "absoluteTicks": 19200,
      "channel": 13,
      "type": "noteOn",
      "note": 102,
      "velocity": 94,
      "vel": 0.748031,
      "time": 19.354800000077418
    },
    {
      "absoluteTicks": 19200,
      "channel": 13,
      "type": "noteOn",
      "note": 98,
      "velocity": 94,
      "vel": 0.748031,
      "time": 19.354800000077418
    },
    {
      "absoluteTicks": 19200,
      "channel": 13,
      "type": "noteOn",
      "note": 95,
      "velocity": 94,
      "vel": 0.748031,
      "time": 19.354800000077418
    },
    {
      "absoluteTicks": 19200,
      "channel": 13,
      "type": "noteOn",
      "note": 92,
      "velocity": 88,
      "vel": 0.700787,
      "time": 19.354800000077418
    },
    {
      "absoluteTicks": 19200,
      "channel": 13,
      "type": "noteOn",
      "note": 90,
      "velocity": 88,
      "vel": 0.700787,
      "time": 19.354800000077418
    },
    {
      "absoluteTicks": 19200,
      "channel": 13,
      "type": "noteOn",
      "note": 86,
      "velocity": 88,
      "vel": 0.700787,
      "time": 19.354800000077418
    },
    {
      "absoluteTicks": 19320,
      "channel": 13,
      "type": "noteOff",
      "note": 102,
      "velocity": 94,
      "rel": 0.748031,
      "time": 19.475767500077904
    },
    {
      "absoluteTicks": 19320,
      "channel": 13,
      "type": "noteOff",
      "note": 98,
      "velocity": 94,
      "rel": 0.748031,
      "time": 19.475767500077904
    },
    {
      "absoluteTicks": 19320,
      "channel": 13,
      "type": "noteOff",
      "note": 95,
      "velocity": 94,
      "rel": 0.748031,
      "time": 19.475767500077904
    },
    {
      "absoluteTicks": 19320,
      "channel": 13,
      "type": "noteOff",
      "note": 92,
      "velocity": 88,
      "rel": 0.700787,
      "time": 19.475767500077904
    },
    {
      "absoluteTicks": 19320,
      "channel": 13,
      "type": "noteOff",
      "note": 90,
      "velocity": 88,
      "rel": 0.700787,
      "time": 19.475767500077904
    },
    {
      "absoluteTicks": 19320,
      "channel": 13,
      "type": "noteOff",
      "note": 86,
      "velocity": 88,
      "rel": 0.700787,
      "time": 19.475767500077904
    },
    {
      "absoluteTicks": 19440,
      "channel": 13,
      "type": "noteOn",
      "note": 102,
      "velocity": 92,
      "vel": 0.732283,
      "time": 19.596735000078386
    },
    {
      "absoluteTicks": 19440,
      "channel": 13,
      "type": "noteOn",
      "note": 98,
      "velocity": 92,
      "vel": 0.732283,
      "time": 19.596735000078386
    },
    {
      "absoluteTicks": 19440,
      "channel": 13,
      "type": "noteOn",
      "note": 95,
      "velocity": 92,
      "vel": 0.732283,
      "time": 19.596735000078386
    },
    {
      "absoluteTicks": 19440,
      "channel": 13,
      "type": "noteOn",
      "note": 92,
      "velocity": 98,
      "vel": 0.771654,
      "time": 19.596735000078386
    },
    {
      "absoluteTicks": 19440,
      "channel": 13,
      "type": "noteOn",
      "note": 90,
      "velocity": 98,
      "vel": 0.771654,
      "time": 19.596735000078386
    },
    {
      "absoluteTicks": 19440,
      "channel": 13,
      "type": "noteOn",
      "note": 86,
      "velocity": 98,
      "vel": 0.771654,
      "time": 19.596735000078386
    },
    {
      "absoluteTicks": 19560,
      "channel": 13,
      "type": "noteOff",
      "note": 102,
      "velocity": 92,
      "rel": 0.732283,
      "time": 19.71770250007887
    },
    {
      "absoluteTicks": 19560,
      "channel": 13,
      "type": "noteOff",
      "note": 98,
      "velocity": 92,
      "rel": 0.732283,
      "time": 19.71770250007887
    },
    {
      "absoluteTicks": 19560,
      "channel": 13,
      "type": "noteOff",
      "note": 95,
      "velocity": 92,
      "rel": 0.732283,
      "time": 19.71770250007887
    },
    {
      "absoluteTicks": 19560,
      "channel": 13,
      "type": "noteOff",
      "note": 92,
      "velocity": 98,
      "rel": 0.771654,
      "time": 19.71770250007887
    },
    {
      "absoluteTicks": 19560,
      "channel": 13,
      "type": "noteOff",
      "note": 90,
      "velocity": 98,
      "rel": 0.771654,
      "time": 19.71770250007887
    },
    {
      "absoluteTicks": 19560,
      "channel": 13,
      "type": "noteOff",
      "note": 86,
      "velocity": 98,
      "rel": 0.771654,
      "time": 19.71770250007887
    },
    {
      "absoluteTicks": 19680,
      "channel": 13,
      "type": "noteOn",
      "note": 102,
      "velocity": 93,
      "vel": 0.740157,
      "time": 19.838670000079354
    },
    {
      "absoluteTicks": 19680,
      "channel": 13,
      "type": "noteOn",
      "note": 98,
      "velocity": 93,
      "vel": 0.740157,
      "time": 19.838670000079354
    },
    {
      "absoluteTicks": 19680,
      "channel": 13,
      "type": "noteOn",
      "note": 95,
      "velocity": 93,
      "vel": 0.740157,
      "time": 19.838670000079354
    },
    {
      "absoluteTicks": 19680,
      "channel": 13,
      "type": "noteOn",
      "note": 92,
      "velocity": 94,
      "vel": 0.748031,
      "time": 19.838670000079354
    },
    {
      "absoluteTicks": 19680,
      "channel": 13,
      "type": "noteOn",
      "note": 90,
      "velocity": 94,
      "vel": 0.748031,
      "time": 19.838670000079354
    },
    {
      "absoluteTicks": 19680,
      "channel": 13,
      "type": "noteOn",
      "note": 86,
      "velocity": 94,
      "vel": 0.748031,
      "time": 19.838670000079354
    },
    {
      "absoluteTicks": 19920,
      "channel": 13,
      "type": "noteOff",
      "note": 102,
      "velocity": 93,
      "rel": 0.740157,
      "time": 20.080605000080322
    },
    {
      "absoluteTicks": 19920,
      "channel": 13,
      "type": "noteOff",
      "note": 98,
      "velocity": 93,
      "rel": 0.740157,
      "time": 20.080605000080322
    },
    {
      "absoluteTicks": 19920,
      "channel": 13,
      "type": "noteOff",
      "note": 95,
      "velocity": 93,
      "rel": 0.740157,
      "time": 20.080605000080322
    },
    {
      "absoluteTicks": 19920,
      "channel": 13,
      "type": "noteOff",
      "note": 92,
      "velocity": 94,
      "rel": 0.748031,
      "time": 20.080605000080322
    },
    {
      "absoluteTicks": 19920,
      "channel": 13,
      "type": "noteOff",
      "note": 90,
      "velocity": 94,
      "rel": 0.748031,
      "time": 20.080605000080322
    },
    {
      "absoluteTicks": 19920,
      "channel": 13,
      "type": "noteOff",
      "note": 86,
      "velocity": 94,
      "rel": 0.748031,
      "time": 20.080605000080322
    },
    {
      "absoluteTicks": 20160,
      "channel": 13,
      "type": "noteOn",
      "note": 100,
      "velocity": 97,
      "vel": 0.76378,
      "time": 20.32254000008129
    },
    {
      "absoluteTicks": 20160,
      "channel": 13,
      "type": "noteOn",
      "note": 94,
      "velocity": 97,
      "vel": 0.76378,
      "time": 20.32254000008129
    },
    {
      "absoluteTicks": 20160,
      "channel": 13,
      "type": "noteOn",
      "note": 90,
      "velocity": 93,
      "vel": 0.740157,
      "time": 20.32254000008129
    },
    {
      "absoluteTicks": 20160,
      "channel": 13,
      "type": "noteOn",
      "note": 85,
      "velocity": 93,
      "vel": 0.740157,
      "time": 20.32254000008129
    },
    {
      "absoluteTicks": 20280,
      "channel": 13,
      "type": "noteOff",
      "note": 100,
      "velocity": 97,
      "rel": 0.76378,
      "time": 20.443507500081775
    },
    {
      "absoluteTicks": 20280,
      "channel": 13,
      "type": "noteOff",
      "note": 94,
      "velocity": 97,
      "rel": 0.76378,
      "time": 20.443507500081775
    },
    {
      "absoluteTicks": 20280,
      "channel": 13,
      "type": "noteOff",
      "note": 90,
      "velocity": 93,
      "rel": 0.740157,
      "time": 20.443507500081775
    },
    {
      "absoluteTicks": 20280,
      "channel": 13,
      "type": "noteOff",
      "note": 85,
      "velocity": 93,
      "rel": 0.740157,
      "time": 20.443507500081775
    },
    {
      "absoluteTicks": 20400,
      "channel": 13,
      "type": "noteOn",
      "note": 100,
      "velocity": 93,
      "vel": 0.740157,
      "time": 20.564475000082258
    },
    {
      "absoluteTicks": 20400,
      "channel": 13,
      "type": "noteOn",
      "note": 94,
      "velocity": 93,
      "vel": 0.740157,
      "time": 20.564475000082258
    },
    {
      "absoluteTicks": 20400,
      "channel": 13,
      "type": "noteOn",
      "note": 90,
      "velocity": 96,
      "vel": 0.755906,
      "time": 20.564475000082258
    },
    {
      "absoluteTicks": 20400,
      "channel": 13,
      "type": "noteOn",
      "note": 85,
      "velocity": 96,
      "vel": 0.755906,
      "time": 20.564475000082258
    },
    {
      "absoluteTicks": 20520,
      "channel": 13,
      "type": "noteOff",
      "note": 100,
      "velocity": 93,
      "rel": 0.740157,
      "time": 20.685442500082743
    },
    {
      "absoluteTicks": 20520,
      "channel": 13,
      "type": "noteOff",
      "note": 94,
      "velocity": 93,
      "rel": 0.740157,
      "time": 20.685442500082743
    },
    {
      "absoluteTicks": 20520,
      "channel": 13,
      "type": "noteOff",
      "note": 90,
      "velocity": 96,
      "rel": 0.755906,
      "time": 20.685442500082743
    },
    {
      "absoluteTicks": 20520,
      "channel": 13,
      "type": "noteOff",
      "note": 85,
      "velocity": 96,
      "rel": 0.755906,
      "time": 20.685442500082743
    },
    {
      "absoluteTicks": 20640,
      "channel": 13,
      "type": "noteOn",
      "note": 100,
      "velocity": 98,
      "vel": 0.771654,
      "time": 20.806410000083225
    },
    {
      "absoluteTicks": 20640,
      "channel": 13,
      "type": "noteOn",
      "note": 94,
      "velocity": 98,
      "vel": 0.771654,
      "time": 20.806410000083225
    },
    {
      "absoluteTicks": 20640,
      "channel": 13,
      "type": "noteOn",
      "note": 90,
      "velocity": 93,
      "vel": 0.740157,
      "time": 20.806410000083225
    },
    {
      "absoluteTicks": 20640,
      "channel": 13,
      "type": "noteOn",
      "note": 85,
      "velocity": 93,
      "vel": 0.740157,
      "time": 20.806410000083225
    },
    {
      "absoluteTicks": 20880,
      "channel": 13,
      "type": "noteOff",
      "note": 100,
      "velocity": 98,
      "rel": 0.771654,
      "time": 21.048345000084193
    },
    {
      "absoluteTicks": 20880,
      "channel": 13,
      "type": "noteOff",
      "note": 94,
      "velocity": 98,
      "rel": 0.771654,
      "time": 21.048345000084193
    },
    {
      "absoluteTicks": 20880,
      "channel": 13,
      "type": "noteOff",
      "note": 90,
      "velocity": 93,
      "rel": 0.740157,
      "time": 21.048345000084193
    },
    {
      "absoluteTicks": 20880,
      "channel": 13,
      "type": "noteOff",
      "note": 85,
      "velocity": 93,
      "rel": 0.740157,
      "time": 21.048345000084193
    },
    {
      "absoluteTicks": 21120,
      "channel": 13,
      "type": "noteOn",
      "note": 99,
      "velocity": 93,
      "vel": 0.740157,
      "time": 21.29028000008516
    },
    {
      "absoluteTicks": 21120,
      "channel": 13,
      "type": "noteOn",
      "note": 95,
      "velocity": 93,
      "vel": 0.740157,
      "time": 21.29028000008516
    },
    {
      "absoluteTicks": 21120,
      "channel": 13,
      "type": "noteOn",
      "note": 90,
      "velocity": 99,
      "vel": 0.779528,
      "time": 21.29028000008516
    },
    {
      "absoluteTicks": 21120,
      "channel": 13,
      "type": "noteOn",
      "note": 83,
      "velocity": 99,
      "vel": 0.779528,
      "time": 21.29028000008516
    },
    {
      "absoluteTicks": 21240,
      "channel": 13,
      "type": "noteOff",
      "note": 99,
      "velocity": 93,
      "rel": 0.740157,
      "time": 21.411247500085643
    },
    {
      "absoluteTicks": 21240,
      "channel": 13,
      "type": "noteOff",
      "note": 95,
      "velocity": 93,
      "rel": 0.740157,
      "time": 21.411247500085643
    },
    {
      "absoluteTicks": 21240,
      "channel": 13,
      "type": "noteOff",
      "note": 90,
      "velocity": 99,
      "rel": 0.779528,
      "time": 21.411247500085643
    },
    {
      "absoluteTicks": 21240,
      "channel": 13,
      "type": "noteOff",
      "note": 83,
      "velocity": 99,
      "rel": 0.779528,
      "time": 21.411247500085643
    },
    {
      "absoluteTicks": 21360,
      "channel": 13,
      "type": "noteOn",
      "note": 102,
      "velocity": 101,
      "vel": 0.795276,
      "time": 21.53221500008613
    },
    {
      "absoluteTicks": 21360,
      "channel": 13,
      "type": "noteOn",
      "note": 87,
      "velocity": 87,
      "vel": 0.692913,
      "time": 21.53221500008613
    },
    {
      "absoluteTicks": 21480,
      "channel": 13,
      "type": "noteOff",
      "note": 102,
      "velocity": 101,
      "rel": 0.795276,
      "time": 21.65318250008661
    },
    {
      "absoluteTicks": 21480,
      "channel": 13,
      "type": "noteOff",
      "note": 87,
      "velocity": 87,
      "rel": 0.692913,
      "time": 21.65318250008661
    },
    {
      "absoluteTicks": 21600,
      "channel": 13,
      "type": "noteOn",
      "note": 100,
      "velocity": 90,
      "vel": 0.716535,
      "time": 21.774150000087097
    },
    {
      "absoluteTicks": 21600,
      "channel": 13,
      "type": "noteOn",
      "note": 94,
      "velocity": 90,
      "vel": 0.716535,
      "time": 21.774150000087097
    },
    {
      "absoluteTicks": 21600,
      "channel": 13,
      "type": "noteOn",
      "note": 90,
      "velocity": 105,
      "vel": 0.826772,
      "time": 21.774150000087097
    },
    {
      "absoluteTicks": 21720,
      "channel": 13,
      "type": "noteOff",
      "note": 100,
      "velocity": 90,
      "rel": 0.716535,
      "time": 21.89511750008758
    },
    {
      "absoluteTicks": 21720,
      "channel": 13,
      "type": "noteOff",
      "note": 94,
      "velocity": 90,
      "rel": 0.716535,
      "time": 21.89511750008758
    },
    {
      "absoluteTicks": 21720,
      "channel": 13,
      "type": "noteOff",
      "note": 90,
      "velocity": 105,
      "rel": 0.826772,
      "time": 21.89511750008758
    },
    {
      "absoluteTicks": 21840,
      "channel": 13,
      "type": "noteOn",
      "note": 102,
      "velocity": 99,
      "vel": 0.779528,
      "time": 22.016085000088065
    },
    {
      "absoluteTicks": 21840,
      "channel": 13,
      "type": "noteOn",
      "note": 78,
      "velocity": 71,
      "vel": 0.566929,
      "time": 22.016085000088065
    },
    {
      "absoluteTicks": 21960,
      "channel": 13,
      "type": "noteOff",
      "note": 102,
      "velocity": 99,
      "rel": 0.779528,
      "time": 22.137052500088547
    },
    {
      "absoluteTicks": 21960,
      "channel": 13,
      "type": "noteOff",
      "note": 78,
      "velocity": 71,
      "rel": 0.566929,
      "time": 22.137052500088547
    },
    {
      "absoluteTicks": 22080,
      "channel": 13,
      "type": "noteOn",
      "note": 99,
      "velocity": 86,
      "vel": 0.685039,
      "time": 22.258020000089033
    },
    {
      "absoluteTicks": 22080,
      "channel": 13,
      "type": "noteOn",
      "note": 95,
      "velocity": 86,
      "vel": 0.685039,
      "time": 22.258020000089033
    },
    {
      "absoluteTicks": 22080,
      "channel": 13,
      "type": "noteOn",
      "note": 90,
      "velocity": 116,
      "vel": 0.913386,
      "time": 22.258020000089033
    },
    {
      "absoluteTicks": 22080,
      "channel": 13,
      "type": "noteOn",
      "note": 83,
      "velocity": 116,
      "vel": 0.913386,
      "time": 22.258020000089033
    },
    {
      "absoluteTicks": 22320,
      "channel": 13,
      "type": "noteOff",
      "note": 99,
      "velocity": 86,
      "rel": 0.685039,
      "time": 22.49995500009
    },
    {
      "absoluteTicks": 22320,
      "channel": 13,
      "type": "noteOff",
      "note": 95,
      "velocity": 86,
      "rel": 0.685039,
      "time": 22.49995500009
    },
    {
      "absoluteTicks": 22320,
      "channel": 13,
      "type": "noteOff",
      "note": 90,
      "velocity": 116,
      "rel": 0.913386,
      "time": 22.49995500009
    },
    {
      "absoluteTicks": 22320,
      "channel": 13,
      "type": "noteOff",
      "note": 83,
      "velocity": 116,
      "rel": 0.913386,
      "time": 22.49995500009
    },
    {
      "absoluteTicks": 23520,
      "channel": 13,
      "type": "noteOn",
      "note": 103,
      "velocity": 72,
      "vel": 0.574803,
      "time": 23.70963000009484
    },
    {
      "absoluteTicks": 23520,
      "channel": 13,
      "type": "noteOn",
      "note": 95,
      "velocity": 72,
      "vel": 0.574803,
      "time": 23.70963000009484
    },
    {
      "absoluteTicks": 23520,
      "channel": 13,
      "type": "noteOn",
      "note": 88,
      "velocity": 71,
      "vel": 0.566929,
      "time": 23.70963000009484
    },
    {
      "absoluteTicks": 23640,
      "channel": 13,
      "type": "noteOff",
      "note": 103,
      "velocity": 72,
      "rel": 0.574803,
      "time": 23.830597500095323
    },
    {
      "absoluteTicks": 23640,
      "channel": 13,
      "type": "noteOff",
      "note": 95,
      "velocity": 72,
      "rel": 0.574803,
      "time": 23.830597500095323
    },
    {
      "absoluteTicks": 23640,
      "channel": 13,
      "type": "noteOff",
      "note": 88,
      "velocity": 71,
      "rel": 0.566929,
      "time": 23.830597500095323
    },
    {
      "absoluteTicks": 23760,
      "channel": 13,
      "type": "noteOn",
      "note": 100,
      "velocity": 74,
      "vel": 0.590551,
      "time": 23.951565000095805
    },
    {
      "absoluteTicks": 23760,
      "channel": 13,
      "type": "noteOn",
      "note": 91,
      "velocity": 86,
      "vel": 0.685039,
      "time": 23.951565000095805
    },
    {
      "absoluteTicks": 23760,
      "channel": 13,
      "type": "noteOn",
      "note": 83,
      "velocity": 86,
      "vel": 0.685039,
      "time": 23.951565000095805
    },
    {
      "absoluteTicks": 23880,
      "channel": 13,
      "type": "noteOff",
      "note": 100,
      "velocity": 74,
      "rel": 0.590551,
      "time": 24.07253250009629
    },
    {
      "absoluteTicks": 23880,
      "channel": 13,
      "type": "noteOff",
      "note": 91,
      "velocity": 86,
      "rel": 0.685039,
      "time": 24.07253250009629
    },
    {
      "absoluteTicks": 23880,
      "channel": 13,
      "type": "noteOff",
      "note": 83,
      "velocity": 86,
      "rel": 0.685039,
      "time": 24.07253250009629
    },
    {
      "absoluteTicks": 24000,
      "channel": 13,
      "type": "noteOn",
      "note": 103,
      "velocity": 84,
      "vel": 0.669291,
      "time": 24.193500000096773
    },
    {
      "absoluteTicks": 24000,
      "channel": 13,
      "type": "noteOn",
      "note": 95,
      "velocity": 84,
      "vel": 0.669291,
      "time": 24.193500000096773
    },
    {
      "absoluteTicks": 24000,
      "channel": 13,
      "type": "noteOn",
      "note": 88,
      "velocity": 72,
      "vel": 0.574803,
      "time": 24.193500000096773
    },
    {
      "absoluteTicks": 24240,
      "channel": 13,
      "type": "noteOff",
      "note": 103,
      "velocity": 84,
      "rel": 0.669291,
      "time": 24.43543500009774
    },
    {
      "absoluteTicks": 24240,
      "channel": 13,
      "type": "noteOff",
      "note": 95,
      "velocity": 84,
      "rel": 0.669291,
      "time": 24.43543500009774
    },
    {
      "absoluteTicks": 24240,
      "channel": 13,
      "type": "noteOff",
      "note": 88,
      "velocity": 72,
      "rel": 0.574803,
      "time": 24.43543500009774
    },
    {
      "absoluteTicks": 24480,
      "channel": 13,
      "type": "noteOn",
      "note": 102,
      "velocity": 72,
      "vel": 0.574803,
      "time": 24.67737000009871
    },
    {
      "absoluteTicks": 24480,
      "channel": 13,
      "type": "noteOn",
      "note": 93,
      "velocity": 72,
      "vel": 0.574803,
      "time": 24.67737000009871
    },
    {
      "absoluteTicks": 24480,
      "channel": 13,
      "type": "noteOn",
      "note": 88,
      "velocity": 79,
      "vel": 0.629921,
      "time": 24.67737000009871
    },
    {
      "absoluteTicks": 24480,
      "channel": 13,
      "type": "noteOn",
      "note": 84,
      "velocity": 79,
      "vel": 0.629921,
      "time": 24.67737000009871
    },
    {
      "absoluteTicks": 24720,
      "channel": 13,
      "type": "noteOff",
      "note": 102,
      "velocity": 72,
      "rel": 0.574803,
      "time": 24.919305000099676
    },
    {
      "absoluteTicks": 24720,
      "channel": 13,
      "type": "noteOff",
      "note": 93,
      "velocity": 72,
      "rel": 0.574803,
      "time": 24.919305000099676
    },
    {
      "absoluteTicks": 24720,
      "channel": 13,
      "type": "noteOff",
      "note": 88,
      "velocity": 79,
      "rel": 0.629921,
      "time": 24.919305000099676
    },
    {
      "absoluteTicks": 24720,
      "channel": 13,
      "type": "noteOff",
      "note": 84,
      "velocity": 79,
      "rel": 0.629921,
      "time": 24.919305000099676
    },
    {
      "absoluteTicks": 24960,
      "channel": 13,
      "type": "noteOn",
      "note": 99,
      "velocity": 71,
      "vel": 0.566929,
      "time": 25.161240000100644
    },
    {
      "absoluteTicks": 24960,
      "channel": 13,
      "type": "noteOn",
      "note": 90,
      "velocity": 71,
      "vel": 0.566929,
      "time": 25.161240000100644
    },
    {
      "absoluteTicks": 24960,
      "channel": 13,
      "type": "noteOn",
      "note": 84,
      "velocity": 66,
      "vel": 0.527559,
      "time": 25.161240000100644
    },
    {
      "absoluteTicks": 24960,
      "channel": 13,
      "type": "noteOn",
      "note": 81,
      "velocity": 66,
      "vel": 0.527559,
      "time": 25.161240000100644
    },
    {
      "absoluteTicks": 25200,
      "channel": 13,
      "type": "noteOff",
      "note": 99,
      "velocity": 71,
      "rel": 0.566929,
      "time": 25.403175000101612
    },
    {
      "absoluteTicks": 25200,
      "channel": 13,
      "type": "noteOff",
      "note": 90,
      "velocity": 71,
      "rel": 0.566929,
      "time": 25.403175000101612
    },
    {
      "absoluteTicks": 25200,
      "channel": 13,
      "type": "noteOff",
      "note": 84,
      "velocity": 66,
      "rel": 0.527559,
      "time": 25.403175000101612
    },
    {
      "absoluteTicks": 25200,
      "channel": 13,
      "type": "noteOff",
      "note": 81,
      "velocity": 66,
      "rel": 0.527559,
      "time": 25.403175000101612
    },
    {
      "absoluteTicks": 25440,
      "channel": 13,
      "type": "noteOn",
      "note": 100,
      "velocity": 86,
      "vel": 0.685039,
      "time": 25.64511000010258
    },
    {
      "absoluteTicks": 25440,
      "channel": 13,
      "type": "noteOn",
      "note": 91,
      "velocity": 86,
      "vel": 0.685039,
      "time": 25.64511000010258
    },
    {
      "absoluteTicks": 25440,
      "channel": 13,
      "type": "noteOn",
      "note": 85,
      "velocity": 76,
      "vel": 0.606299,
      "time": 25.64511000010258
    },
    {
      "absoluteTicks": 25440,
      "channel": 13,
      "type": "noteOn",
      "note": 82,
      "velocity": 76,
      "vel": 0.606299,
      "time": 25.64511000010258
    },
    {
      "absoluteTicks": 25680,
      "channel": 13,
      "type": "noteOff",
      "note": 100,
      "velocity": 86,
      "rel": 0.685039,
      "time": 25.887045000103548
    },
    {
      "absoluteTicks": 25680,
      "channel": 13,
      "type": "noteOff",
      "note": 91,
      "velocity": 86,
      "rel": 0.685039,
      "time": 25.887045000103548
    },
    {
      "absoluteTicks": 25680,
      "channel": 13,
      "type": "noteOff",
      "note": 85,
      "velocity": 76,
      "rel": 0.606299,
      "time": 25.887045000103548
    },
    {
      "absoluteTicks": 25680,
      "channel": 13,
      "type": "noteOff",
      "note": 82,
      "velocity": 76,
      "rel": 0.606299,
      "time": 25.887045000103548
    },
    {
      "absoluteTicks": 25920,
      "channel": 13,
      "type": "noteOn",
      "note": 98,
      "velocity": 76,
      "vel": 0.606299,
      "time": 26.128980000104516
    },
    {
      "absoluteTicks": 25920,
      "channel": 13,
      "type": "noteOn",
      "note": 92,
      "velocity": 76,
      "vel": 0.606299,
      "time": 26.128980000104516
    },
    {
      "absoluteTicks": 25920,
      "channel": 13,
      "type": "noteOn",
      "note": 89,
      "velocity": 87,
      "vel": 0.692913,
      "time": 26.128980000104516
    },
    {
      "absoluteTicks": 25920,
      "channel": 13,
      "type": "noteOn",
      "note": 83,
      "velocity": 87,
      "vel": 0.692913,
      "time": 26.128980000104516
    },
    {
      "absoluteTicks": 26040,
      "channel": 13,
      "type": "noteOff",
      "note": 98,
      "velocity": 76,
      "rel": 0.606299,
      "time": 26.249947500105
    },
    {
      "absoluteTicks": 26040,
      "channel": 13,
      "type": "noteOff",
      "note": 92,
      "velocity": 76,
      "rel": 0.606299,
      "time": 26.249947500105
    },
    {
      "absoluteTicks": 26040,
      "channel": 13,
      "type": "noteOff",
      "note": 89,
      "velocity": 87,
      "rel": 0.692913,
      "time": 26.249947500105
    },
    {
      "absoluteTicks": 26040,
      "channel": 13,
      "type": "noteOff",
      "note": 83,
      "velocity": 87,
      "rel": 0.692913,
      "time": 26.249947500105
    },
    {
      "absoluteTicks": 26160,
      "channel": 13,
      "type": "noteOn",
      "note": 98,
      "velocity": 76,
      "vel": 0.606299,
      "time": 26.370915000105484
    },
    {
      "absoluteTicks": 26160,
      "channel": 13,
      "type": "noteOn",
      "note": 92,
      "velocity": 76,
      "vel": 0.606299,
      "time": 26.370915000105484
    },
    {
      "absoluteTicks": 26160,
      "channel": 13,
      "type": "noteOn",
      "note": 89,
      "velocity": 80,
      "vel": 0.637795,
      "time": 26.370915000105484
    },
    {
      "absoluteTicks": 26160,
      "channel": 13,
      "type": "noteOn",
      "note": 83,
      "velocity": 80,
      "vel": 0.637795,
      "time": 26.370915000105484
    },
    {
      "absoluteTicks": 26280,
      "channel": 13,
      "type": "noteOff",
      "note": 98,
      "velocity": 76,
      "rel": 0.606299,
      "time": 26.49188250010597
    },
    {
      "absoluteTicks": 26280,
      "channel": 13,
      "type": "noteOff",
      "note": 92,
      "velocity": 76,
      "rel": 0.606299,
      "time": 26.49188250010597
    },
    {
      "absoluteTicks": 26280,
      "channel": 13,
      "type": "noteOff",
      "note": 89,
      "velocity": 80,
      "rel": 0.637795,
      "time": 26.49188250010597
    },
    {
      "absoluteTicks": 26280,
      "channel": 13,
      "type": "noteOff",
      "note": 83,
      "velocity": 80,
      "rel": 0.637795,
      "time": 26.49188250010597
    },
    {
      "absoluteTicks": 26400,
      "channel": 13,
      "type": "noteOn",
      "note": 98,
      "velocity": 79,
      "vel": 0.629921,
      "time": 26.61285000010645
    },
    {
      "absoluteTicks": 26400,
      "channel": 13,
      "type": "noteOn",
      "note": 92,
      "velocity": 79,
      "vel": 0.629921,
      "time": 26.61285000010645
    },
    {
      "absoluteTicks": 26400,
      "channel": 13,
      "type": "noteOn",
      "note": 89,
      "velocity": 78,
      "vel": 0.622047,
      "time": 26.61285000010645
    },
    {
      "absoluteTicks": 26400,
      "channel": 13,
      "type": "noteOn",
      "note": 83,
      "velocity": 78,
      "vel": 0.622047,
      "time": 26.61285000010645
    },
    {
      "absoluteTicks": 26640,
      "channel": 13,
      "type": "noteOff",
      "note": 98,
      "velocity": 79,
      "rel": 0.629921,
      "time": 26.85478500010742
    },
    {
      "absoluteTicks": 26640,
      "channel": 13,
      "type": "noteOff",
      "note": 92,
      "velocity": 79,
      "rel": 0.629921,
      "time": 26.85478500010742
    },
    {
      "absoluteTicks": 26640,
      "channel": 13,
      "type": "noteOff",
      "note": 89,
      "velocity": 78,
      "rel": 0.622047,
      "time": 26.85478500010742
    },
    {
      "absoluteTicks": 26640,
      "channel": 13,
      "type": "noteOff",
      "note": 83,
      "velocity": 78,
      "rel": 0.622047,
      "time": 26.85478500010742
    },
    {
      "absoluteTicks": 26880,
      "channel": 13,
      "type": "noteOn",
      "note": 97,
      "velocity": 75,
      "vel": 0.598425,
      "time": 27.096720000108387
    },
    {
      "absoluteTicks": 26880,
      "channel": 13,
      "type": "noteOn",
      "note": 91,
      "velocity": 75,
      "vel": 0.598425,
      "time": 27.096720000108387
    },
    {
      "absoluteTicks": 26880,
      "channel": 13,
      "type": "noteOn",
      "note": 88,
      "velocity": 77,
      "vel": 0.614173,
      "time": 27.096720000108387
    },
    {
      "absoluteTicks": 26880,
      "channel": 13,
      "type": "noteOn",
      "note": 82,
      "velocity": 77,
      "vel": 0.614173,
      "time": 27.096720000108387
    },
    {
      "absoluteTicks": 27000,
      "channel": 13,
      "type": "noteOff",
      "note": 97,
      "velocity": 75,
      "rel": 0.598425,
      "time": 27.21768750010887
    },
    {
      "absoluteTicks": 27000,
      "channel": 13,
      "type": "noteOff",
      "note": 91,
      "velocity": 75,
      "rel": 0.598425,
      "time": 27.21768750010887
    },
    {
      "absoluteTicks": 27000,
      "channel": 13,
      "type": "noteOff",
      "note": 88,
      "velocity": 77,
      "rel": 0.614173,
      "time": 27.21768750010887
    },
    {
      "absoluteTicks": 27000,
      "channel": 13,
      "type": "noteOff",
      "note": 82,
      "velocity": 77,
      "rel": 0.614173,
      "time": 27.21768750010887
    },
    {
      "absoluteTicks": 27120,
      "channel": 13,
      "type": "noteOn",
      "note": 97,
      "velocity": 81,
      "vel": 0.645669,
      "time": 27.338655000109355
    },
    {
      "absoluteTicks": 27120,
      "channel": 13,
      "type": "noteOn",
      "note": 91,
      "velocity": 81,
      "vel": 0.645669,
      "time": 27.338655000109355
    },
    {
      "absoluteTicks": 27120,
      "channel": 13,
      "type": "noteOn",
      "note": 88,
      "velocity": 81,
      "vel": 0.645669,
      "time": 27.338655000109355
    },
    {
      "absoluteTicks": 27120,
      "channel": 13,
      "type": "noteOn",
      "note": 82,
      "velocity": 81,
      "vel": 0.645669,
      "time": 27.338655000109355
    },
    {
      "absoluteTicks": 27240,
      "channel": 13,
      "type": "noteOff",
      "note": 97,
      "velocity": 81,
      "rel": 0.645669,
      "time": 27.459622500109838
    },
    {
      "absoluteTicks": 27240,
      "channel": 13,
      "type": "noteOff",
      "note": 91,
      "velocity": 81,
      "rel": 0.645669,
      "time": 27.459622500109838
    },
    {
      "absoluteTicks": 27240,
      "channel": 13,
      "type": "noteOff",
      "note": 88,
      "velocity": 81,
      "rel": 0.645669,
      "time": 27.459622500109838
    },
    {
      "absoluteTicks": 27240,
      "channel": 13,
      "type": "noteOff",
      "note": 82,
      "velocity": 81,
      "rel": 0.645669,
      "time": 27.459622500109838
    },
    {
      "absoluteTicks": 27360,
      "channel": 13,
      "type": "noteOn",
      "note": 97,
      "velocity": 77,
      "vel": 0.614173,
      "time": 27.580590000110323
    },
    {
      "absoluteTicks": 27360,
      "channel": 13,
      "type": "noteOn",
      "note": 91,
      "velocity": 77,
      "vel": 0.614173,
      "time": 27.580590000110323
    },
    {
      "absoluteTicks": 27360,
      "channel": 13,
      "type": "noteOn",
      "note": 88,
      "velocity": 79,
      "vel": 0.629921,
      "time": 27.580590000110323
    },
    {
      "absoluteTicks": 27360,
      "channel": 13,
      "type": "noteOn",
      "note": 82,
      "velocity": 79,
      "vel": 0.629921,
      "time": 27.580590000110323
    },
    {
      "absoluteTicks": 27600,
      "channel": 13,
      "type": "noteOff",
      "note": 97,
      "velocity": 77,
      "rel": 0.614173,
      "time": 27.82252500011129
    },
    {
      "absoluteTicks": 27600,
      "channel": 13,
      "type": "noteOff",
      "note": 91,
      "velocity": 77,
      "rel": 0.614173,
      "time": 27.82252500011129
    },
    {
      "absoluteTicks": 27600,
      "channel": 13,
      "type": "noteOff",
      "note": 88,
      "velocity": 79,
      "rel": 0.629921,
      "time": 27.82252500011129
    },
    {
      "absoluteTicks": 27600,
      "channel": 13,
      "type": "noteOff",
      "note": 82,
      "velocity": 79,
      "rel": 0.629921,
      "time": 27.82252500011129
    },
    {
      "absoluteTicks": 27840,
      "channel": 13,
      "type": "noteOn",
      "note": 96,
      "velocity": 74,
      "vel": 0.590551,
      "time": 28.06446000011226
    },
    {
      "absoluteTicks": 27840,
      "channel": 13,
      "type": "noteOn",
      "note": 90,
      "velocity": 74,
      "vel": 0.590551,
      "time": 28.06446000011226
    },
    {
      "absoluteTicks": 27840,
      "channel": 13,
      "type": "noteOn",
      "note": 87,
      "velocity": 75,
      "vel": 0.598425,
      "time": 28.06446000011226
    },
    {
      "absoluteTicks": 27840,
      "channel": 13,
      "type": "noteOn",
      "note": 81,
      "velocity": 75,
      "vel": 0.598425,
      "time": 28.06446000011226
    },
    {
      "absoluteTicks": 27960,
      "channel": 13,
      "type": "noteOff",
      "note": 96,
      "velocity": 74,
      "rel": 0.590551,
      "time": 28.18542750011274
    },
    {
      "absoluteTicks": 27960,
      "channel": 13,
      "type": "noteOff",
      "note": 90,
      "velocity": 74,
      "rel": 0.590551,
      "time": 28.18542750011274
    },
    {
      "absoluteTicks": 27960,
      "channel": 13,
      "type": "noteOff",
      "note": 87,
      "velocity": 75,
      "rel": 0.598425,
      "time": 28.18542750011274
    },
    {
      "absoluteTicks": 27960,
      "channel": 13,
      "type": "noteOff",
      "note": 81,
      "velocity": 75,
      "rel": 0.598425,
      "time": 28.18542750011274
    },
    {
      "absoluteTicks": 28080,
      "channel": 13,
      "type": "noteOn",
      "note": 96,
      "velocity": 74,
      "vel": 0.590551,
      "time": 28.306395000113227
    },
    {
      "absoluteTicks": 28080,
      "channel": 13,
      "type": "noteOn",
      "note": 90,
      "velocity": 74,
      "vel": 0.590551,
      "time": 28.306395000113227
    },
    {
      "absoluteTicks": 28080,
      "channel": 13,
      "type": "noteOn",
      "note": 87,
      "velocity": 78,
      "vel": 0.622047,
      "time": 28.306395000113227
    },
    {
      "absoluteTicks": 28080,
      "channel": 13,
      "type": "noteOn",
      "note": 81,
      "velocity": 78,
      "vel": 0.622047,
      "time": 28.306395000113227
    },
    {
      "absoluteTicks": 28200,
      "channel": 13,
      "type": "noteOff",
      "note": 96,
      "velocity": 74,
      "rel": 0.590551,
      "time": 28.42736250011371
    },
    {
      "absoluteTicks": 28200,
      "channel": 13,
      "type": "noteOff",
      "note": 90,
      "velocity": 74,
      "rel": 0.590551,
      "time": 28.42736250011371
    },
    {
      "absoluteTicks": 28200,
      "channel": 13,
      "type": "noteOff",
      "note": 87,
      "velocity": 78,
      "rel": 0.622047,
      "time": 28.42736250011371
    },
    {
      "absoluteTicks": 28200,
      "channel": 13,
      "type": "noteOff",
      "note": 81,
      "velocity": 78,
      "rel": 0.622047,
      "time": 28.42736250011371
    },
    {
      "absoluteTicks": 28320,
      "channel": 13,
      "type": "noteOn",
      "note": 96,
      "velocity": 82,
      "vel": 0.653543,
      "time": 28.548330000114195
    },
    {
      "absoluteTicks": 28320,
      "channel": 13,
      "type": "noteOn",
      "note": 90,
      "velocity": 82,
      "vel": 0.653543,
      "time": 28.548330000114195
    },
    {
      "absoluteTicks": 28320,
      "channel": 13,
      "type": "noteOn",
      "note": 87,
      "velocity": 81,
      "vel": 0.645669,
      "time": 28.548330000114195
    },
    {
      "absoluteTicks": 28320,
      "channel": 13,
      "type": "noteOn",
      "note": 81,
      "velocity": 81,
      "vel": 0.645669,
      "time": 28.548330000114195
    },
    {
      "absoluteTicks": 28560,
      "channel": 13,
      "type": "noteOff",
      "note": 96,
      "velocity": 82,
      "rel": 0.653543,
      "time": 28.790265000115163
    },
    {
      "absoluteTicks": 28560,
      "channel": 13,
      "type": "noteOff",
      "note": 90,
      "velocity": 82,
      "rel": 0.653543,
      "time": 28.790265000115163
    },
    {
      "absoluteTicks": 28560,
      "channel": 13,
      "type": "noteOff",
      "note": 87,
      "velocity": 81,
      "rel": 0.645669,
      "time": 28.790265000115163
    },
    {
      "absoluteTicks": 28560,
      "channel": 13,
      "type": "noteOff",
      "note": 81,
      "velocity": 81,
      "rel": 0.645669,
      "time": 28.790265000115163
    },
    {
      "absoluteTicks": 28800,
      "channel": 13,
      "type": "noteOn",
      "note": 95,
      "velocity": 79,
      "vel": 0.629921,
      "time": 29.03220000011613
    },
    {
      "absoluteTicks": 28800,
      "channel": 13,
      "type": "noteOn",
      "note": 88,
      "velocity": 80,
      "vel": 0.637795,
      "time": 29.03220000011613
    },
    {
      "absoluteTicks": 28800,
      "channel": 13,
      "type": "noteOn",
      "note": 79,
      "velocity": 80,
      "vel": 0.637795,
      "time": 29.03220000011613
    },
    {
      "absoluteTicks": 28920,
      "channel": 13,
      "type": "noteOff",
      "note": 95,
      "velocity": 79,
      "rel": 0.629921,
      "time": 29.153167500116613
    },
    {
      "absoluteTicks": 28920,
      "channel": 13,
      "type": "noteOff",
      "note": 88,
      "velocity": 80,
      "rel": 0.637795,
      "time": 29.153167500116613
    },
    {
      "absoluteTicks": 28920,
      "channel": 13,
      "type": "noteOff",
      "note": 79,
      "velocity": 80,
      "rel": 0.637795,
      "time": 29.153167500116613
    },
    {
      "absoluteTicks": 29040,
      "channel": 13,
      "type": "noteOn",
      "note": 100,
      "velocity": 85,
      "vel": 0.677165,
      "time": 29.274135000117095
    },
    {
      "absoluteTicks": 29040,
      "channel": 13,
      "type": "noteOn",
      "note": 91,
      "velocity": 85,
      "vel": 0.677165,
      "time": 29.274135000117095
    },
    {
      "absoluteTicks": 29040,
      "channel": 13,
      "type": "noteOn",
      "note": 83,
      "velocity": 67,
      "vel": 0.535433,
      "time": 29.274135000117095
    },
    {
      "absoluteTicks": 29160,
      "channel": 13,
      "type": "noteOff",
      "note": 100,
      "velocity": 85,
      "rel": 0.677165,
      "time": 29.39510250011758
    },
    {
      "absoluteTicks": 29160,
      "channel": 13,
      "type": "noteOff",
      "note": 91,
      "velocity": 85,
      "rel": 0.677165,
      "time": 29.39510250011758
    },
    {
      "absoluteTicks": 29160,
      "channel": 13,
      "type": "noteOff",
      "note": 83,
      "velocity": 67,
      "rel": 0.535433,
      "time": 29.39510250011758
    },
    {
      "absoluteTicks": 29280,
      "channel": 13,
      "type": "noteOn",
      "note": 96,
      "velocity": 70,
      "vel": 0.559055,
      "time": 29.516070000118063
    },
    {
      "absoluteTicks": 29280,
      "channel": 13,
      "type": "noteOn",
      "note": 88,
      "velocity": 86,
      "vel": 0.685039,
      "time": 29.516070000118063
    },
    {
      "absoluteTicks": 29280,
      "channel": 13,
      "type": "noteOn",
      "note": 81,
      "velocity": 86,
      "vel": 0.685039,
      "time": 29.516070000118063
    },
    {
      "absoluteTicks": 29400,
      "channel": 13,
      "type": "noteOff",
      "note": 96,
      "velocity": 70,
      "rel": 0.559055,
      "time": 29.63703750011855
    },
    {
      "absoluteTicks": 29400,
      "channel": 13,
      "type": "noteOff",
      "note": 88,
      "velocity": 86,
      "rel": 0.685039,
      "time": 29.63703750011855
    },
    {
      "absoluteTicks": 29400,
      "channel": 13,
      "type": "noteOff",
      "note": 81,
      "velocity": 86,
      "rel": 0.685039,
      "time": 29.63703750011855
    },
    {
      "absoluteTicks": 29520,
      "channel": 13,
      "type": "noteOn",
      "note": 100,
      "velocity": 88,
      "vel": 0.700787,
      "time": 29.75800500011903
    },
    {
      "absoluteTicks": 29520,
      "channel": 13,
      "type": "noteOn",
      "note": 90,
      "velocity": 88,
      "vel": 0.700787,
      "time": 29.75800500011903
    },
    {
      "absoluteTicks": 29520,
      "channel": 13,
      "type": "noteOn",
      "note": 84,
      "velocity": 68,
      "vel": 0.543307,
      "time": 29.75800500011903
    },
    {
      "absoluteTicks": 29640,
      "channel": 13,
      "type": "noteOff",
      "note": 100,
      "velocity": 88,
      "rel": 0.700787,
      "time": 29.878972500119517
    },
    {
      "absoluteTicks": 29640,
      "channel": 13,
      "type": "noteOff",
      "note": 90,
      "velocity": 88,
      "rel": 0.700787,
      "time": 29.878972500119517
    },
    {
      "absoluteTicks": 29640,
      "channel": 13,
      "type": "noteOff",
      "note": 84,
      "velocity": 68,
      "rel": 0.543307,
      "time": 29.878972500119517
    },
    {
      "absoluteTicks": 29760,
      "channel": 13,
      "type": "noteOn",
      "note": 95,
      "velocity": 67,
      "vel": 0.535433,
      "time": 29.99994000012
    },
    {
      "absoluteTicks": 29760,
      "channel": 13,
      "type": "noteOn",
      "note": 88,
      "velocity": 88,
      "vel": 0.700787,
      "time": 29.99994000012
    },
    {
      "absoluteTicks": 29760,
      "channel": 13,
      "type": "noteOn",
      "note": 79,
      "velocity": 88,
      "vel": 0.700787,
      "time": 29.99994000012
    },
    {
      "absoluteTicks": 30000,
      "channel": 13,
      "type": "noteOff",
      "note": 95,
      "velocity": 67,
      "rel": 0.535433,
      "time": 30.241875000120967
    },
    {
      "absoluteTicks": 30000,
      "channel": 13,
      "type": "noteOff",
      "note": 88,
      "velocity": 88,
      "rel": 0.700787,
      "time": 30.241875000120967
    },
    {
      "absoluteTicks": 30000,
      "channel": 13,
      "type": "noteOff",
      "note": 79,
      "velocity": 88,
      "rel": 0.700787,
      "time": 30.241875000120967
    },
    {
      "absoluteTicks": 31200,
      "channel": 13,
      "type": "noteOn",
      "note": 100,
      "velocity": 75,
      "vel": 0.598425,
      "time": 31.451550000125806
    },
    {
      "absoluteTicks": 31200,
      "channel": 13,
      "type": "noteOn",
      "note": 94,
      "velocity": 75,
      "vel": 0.598425,
      "time": 31.451550000125806
    },
    {
      "absoluteTicks": 31200,
      "channel": 13,
      "type": "noteOn",
      "note": 85,
      "velocity": 66,
      "vel": 0.527559,
      "time": 31.451550000125806
    },
    {
      "absoluteTicks": 31200,
      "channel": 13,
      "type": "noteOn",
      "note": 78,
      "velocity": 66,
      "vel": 0.527559,
      "time": 31.451550000125806
    },
    {
      "absoluteTicks": 31320,
      "channel": 13,
      "type": "noteOff",
      "note": 100,
      "velocity": 75,
      "rel": 0.598425,
      "time": 31.572517500126292
    },
    {
      "absoluteTicks": 31320,
      "channel": 13,
      "type": "noteOff",
      "note": 94,
      "velocity": 75,
      "rel": 0.598425,
      "time": 31.572517500126292
    },
    {
      "absoluteTicks": 31320,
      "channel": 13,
      "type": "noteOff",
      "note": 85,
      "velocity": 66,
      "rel": 0.527559,
      "time": 31.572517500126292
    },
    {
      "absoluteTicks": 31320,
      "channel": 13,
      "type": "noteOff",
      "note": 78,
      "velocity": 66,
      "rel": 0.527559,
      "time": 31.572517500126292
    },
    {
      "absoluteTicks": 31440,
      "channel": 13,
      "type": "noteOn",
      "note": 97,
      "velocity": 69,
      "vel": 0.551181,
      "time": 31.693485000126774
    },
    {
      "absoluteTicks": 31440,
      "channel": 13,
      "type": "noteOn",
      "note": 90,
      "velocity": 69,
      "vel": 0.551181,
      "time": 31.693485000126774
    },
    {
      "absoluteTicks": 31440,
      "channel": 13,
      "type": "noteOn",
      "note": 88,
      "velocity": 85,
      "vel": 0.677165,
      "time": 31.693485000126774
    },
    {
      "absoluteTicks": 31440,
      "channel": 13,
      "type": "noteOn",
      "note": 82,
      "velocity": 85,
      "vel": 0.677165,
      "time": 31.693485000126774
    },
    {
      "absoluteTicks": 31560,
      "channel": 13,
      "type": "noteOff",
      "note": 97,
      "velocity": 69,
      "rel": 0.551181,
      "time": 31.81445250012726
    },
    {
      "absoluteTicks": 31560,
      "channel": 13,
      "type": "noteOff",
      "note": 90,
      "velocity": 69,
      "rel": 0.551181,
      "time": 31.81445250012726
    },
    {
      "absoluteTicks": 31560,
      "channel": 13,
      "type": "noteOff",
      "note": 88,
      "velocity": 85,
      "rel": 0.677165,
      "time": 31.81445250012726
    },
    {
      "absoluteTicks": 31560,
      "channel": 13,
      "type": "noteOff",
      "note": 82,
      "velocity": 85,
      "rel": 0.677165,
      "time": 31.81445250012726
    },
    {
      "absoluteTicks": 31680,
      "channel": 13,
      "type": "noteOn",
      "note": 100,
      "velocity": 84,
      "vel": 0.669291,
      "time": 31.935420000127742
    },
    {
      "absoluteTicks": 31680,
      "channel": 13,
      "type": "noteOn",
      "note": 94,
      "velocity": 84,
      "vel": 0.669291,
      "time": 31.935420000127742
    },
    {
      "absoluteTicks": 31680,
      "channel": 13,
      "type": "noteOn",
      "note": 85,
      "velocity": 75,
      "vel": 0.598425,
      "time": 31.935420000127742
    },
    {
      "absoluteTicks": 31680,
      "channel": 13,
      "type": "noteOn",
      "note": 78,
      "velocity": 75,
      "vel": 0.598425,
      "time": 31.935420000127742
    },
    {
      "absoluteTicks": 31920,
      "channel": 13,
      "type": "noteOff",
      "note": 100,
      "velocity": 84,
      "rel": 0.669291,
      "time": 32.177355000128706
    },
    {
      "absoluteTicks": 31920,
      "channel": 13,
      "type": "noteOff",
      "note": 94,
      "velocity": 84,
      "rel": 0.669291,
      "time": 32.177355000128706
    },
    {
      "absoluteTicks": 31920,
      "channel": 13,
      "type": "noteOff",
      "note": 85,
      "velocity": 75,
      "rel": 0.598425,
      "time": 32.177355000128706
    },
    {
      "absoluteTicks": 31920,
      "channel": 13,
      "type": "noteOff",
      "note": 78,
      "velocity": 75,
      "rel": 0.598425,
      "time": 32.177355000128706
    },
    {
      "absoluteTicks": 32160,
      "channel": 13,
      "type": "noteOn",
      "note": 99,
      "velocity": 74,
      "vel": 0.590551,
      "time": 32.41929000012968
    },
    {
      "absoluteTicks": 32160,
      "channel": 13,
      "type": "noteOn",
      "note": 95,
      "velocity": 74,
      "vel": 0.590551,
      "time": 32.41929000012968
    },
    {
      "absoluteTicks": 32160,
      "channel": 13,
      "type": "noteOn",
      "note": 90,
      "velocity": 86,
      "vel": 0.685039,
      "time": 32.41929000012968
    },
    {
      "absoluteTicks": 32160,
      "channel": 13,
      "type": "noteOn",
      "note": 83,
      "velocity": 86,
      "vel": 0.685039,
      "time": 32.41929000012968
    },
    {
      "absoluteTicks": 32400,
      "channel": 13,
      "type": "noteOff",
      "note": 99,
      "velocity": 74,
      "rel": 0.590551,
      "time": 32.66122500013064
    },
    {
      "absoluteTicks": 32400,
      "channel": 13,
      "type": "noteOff",
      "note": 95,
      "velocity": 74,
      "rel": 0.590551,
      "time": 32.66122500013064
    },
    {
      "absoluteTicks": 32400,
      "channel": 13,
      "type": "noteOff",
      "note": 90,
      "velocity": 86,
      "rel": 0.685039,
      "time": 32.66122500013064
    },
    {
      "absoluteTicks": 32400,
      "channel": 13,
      "type": "noteOff",
      "note": 83,
      "velocity": 86,
      "rel": 0.685039,
      "time": 32.66122500013064
    },
    {
      "absoluteTicks": 33120,
      "channel": 13,
      "type": "noteOn",
      "note": 98,
      "velocity": 71,
      "vel": 0.566929,
      "time": 33.38703000013355
    },
    {
      "absoluteTicks": 33120,
      "channel": 13,
      "type": "noteOn",
      "note": 92,
      "velocity": 71,
      "vel": 0.566929,
      "time": 33.38703000013355
    },
    {
      "absoluteTicks": 33120,
      "channel": 13,
      "type": "noteOn",
      "note": 83,
      "velocity": 72,
      "vel": 0.574803,
      "time": 33.38703000013355
    },
    {
      "absoluteTicks": 33120,
      "channel": 13,
      "type": "noteOn",
      "note": 76,
      "velocity": 72,
      "vel": 0.574803,
      "time": 33.38703000013355
    },
    {
      "absoluteTicks": 33240,
      "channel": 13,
      "type": "noteOff",
      "note": 98,
      "velocity": 71,
      "rel": 0.566929,
      "time": 33.50799750013403
    },
    {
      "absoluteTicks": 33240,
      "channel": 13,
      "type": "noteOff",
      "note": 92,
      "velocity": 71,
      "rel": 0.566929,
      "time": 33.50799750013403
    },
    {
      "absoluteTicks": 33240,
      "channel": 13,
      "type": "noteOff",
      "note": 83,
      "velocity": 72,
      "rel": 0.574803,
      "time": 33.50799750013403
    },
    {
      "absoluteTicks": 33240,
      "channel": 13,
      "type": "noteOff",
      "note": 76,
      "velocity": 72,
      "rel": 0.574803,
      "time": 33.50799750013403
    },
    {
      "absoluteTicks": 33360,
      "channel": 13,
      "type": "noteOn",
      "note": 95,
      "velocity": 76,
      "vel": 0.606299,
      "time": 33.628965000134514
    },
    {
      "absoluteTicks": 33360,
      "channel": 13,
      "type": "noteOn",
      "note": 88,
      "velocity": 76,
      "vel": 0.606299,
      "time": 33.628965000134514
    },
    {
      "absoluteTicks": 33360,
      "channel": 13,
      "type": "noteOn",
      "note": 86,
      "velocity": 88,
      "vel": 0.700787,
      "time": 33.628965000134514
    },
    {
      "absoluteTicks": 33360,
      "channel": 13,
      "type": "noteOn",
      "note": 80,
      "velocity": 88,
      "vel": 0.700787,
      "time": 33.628965000134514
    },
    {
      "absoluteTicks": 33480,
      "channel": 13,
      "type": "noteOff",
      "note": 95,
      "velocity": 76,
      "rel": 0.606299,
      "time": 33.749932500135
    },
    {
      "absoluteTicks": 33480,
      "channel": 13,
      "type": "noteOff",
      "note": 88,
      "velocity": 76,
      "rel": 0.606299,
      "time": 33.749932500135
    },
    {
      "absoluteTicks": 33480,
      "channel": 13,
      "type": "noteOff",
      "note": 86,
      "velocity": 88,
      "rel": 0.700787,
      "time": 33.749932500135
    },
    {
      "absoluteTicks": 33480,
      "channel": 13,
      "type": "noteOff",
      "note": 80,
      "velocity": 88,
      "rel": 0.700787,
      "time": 33.749932500135
    },
    {
      "absoluteTicks": 33600,
      "channel": 13,
      "type": "noteOn",
      "note": 98,
      "velocity": 83,
      "vel": 0.661417,
      "time": 33.870900000135485
    },
    {
      "absoluteTicks": 33600,
      "channel": 13,
      "type": "noteOn",
      "note": 92,
      "velocity": 83,
      "vel": 0.661417,
      "time": 33.870900000135485
    },
    {
      "absoluteTicks": 33600,
      "channel": 13,
      "type": "noteOn",
      "note": 83,
      "velocity": 72,
      "vel": 0.574803,
      "time": 33.870900000135485
    },
    {
      "absoluteTicks": 33600,
      "channel": 13,
      "type": "noteOn",
      "note": 76,
      "velocity": 72,
      "vel": 0.574803,
      "time": 33.870900000135485
    },
    {
      "absoluteTicks": 33840,
      "channel": 13,
      "type": "noteOff",
      "note": 98,
      "velocity": 83,
      "rel": 0.661417,
      "time": 34.11283500013645
    },
    {
      "absoluteTicks": 33840,
      "channel": 13,
      "type": "noteOff",
      "note": 92,
      "velocity": 83,
      "rel": 0.661417,
      "time": 34.11283500013645
    },
    {
      "absoluteTicks": 33840,
      "channel": 13,
      "type": "noteOff",
      "note": 83,
      "velocity": 72,
      "rel": 0.574803,
      "time": 34.11283500013645
    },
    {
      "absoluteTicks": 33840,
      "channel": 13,
      "type": "noteOff",
      "note": 76,
      "velocity": 72,
      "rel": 0.574803,
      "time": 34.11283500013645
    },
    {
      "absoluteTicks": 34080,
      "channel": 13,
      "type": "noteOn",
      "note": 97,
      "velocity": 80,
      "vel": 0.637795,
      "time": 34.35477000013742
    },
    {
      "absoluteTicks": 34080,
      "channel": 13,
      "type": "noteOn",
      "note": 93,
      "velocity": 80,
      "vel": 0.637795,
      "time": 34.35477000013742
    },
    {
      "absoluteTicks": 34080,
      "channel": 13,
      "type": "noteOn",
      "note": 88,
      "velocity": 90,
      "vel": 0.716535,
      "time": 34.35477000013742
    },
    {
      "absoluteTicks": 34080,
      "channel": 13,
      "type": "noteOn",
      "note": 81,
      "velocity": 90,
      "vel": 0.716535,
      "time": 34.35477000013742
    },
    {
      "absoluteTicks": 34320,
      "channel": 13,
      "type": "noteOff",
      "note": 97,
      "velocity": 80,
      "rel": 0.637795,
      "time": 34.596705000138385
    },
    {
      "absoluteTicks": 34320,
      "channel": 13,
      "type": "noteOff",
      "note": 93,
      "velocity": 80,
      "rel": 0.637795,
      "time": 34.596705000138385
    },
    {
      "absoluteTicks": 34320,
      "channel": 13,
      "type": "noteOff",
      "note": 88,
      "velocity": 90,
      "rel": 0.716535,
      "time": 34.596705000138385
    },
    {
      "absoluteTicks": 34320,
      "channel": 13,
      "type": "noteOff",
      "note": 81,
      "velocity": 90,
      "rel": 0.716535,
      "time": 34.596705000138385
    },
    {
      "absoluteTicks": 35040,
      "channel": 13,
      "type": "noteOn",
      "note": 96,
      "velocity": 73,
      "vel": 0.582677,
      "time": 35.32251000014129
    },
    {
      "absoluteTicks": 35040,
      "channel": 13,
      "type": "noteOn",
      "note": 90,
      "velocity": 73,
      "vel": 0.582677,
      "time": 35.32251000014129
    },
    {
      "absoluteTicks": 35040,
      "channel": 13,
      "type": "noteOn",
      "note": 81,
      "velocity": 69,
      "vel": 0.551181,
      "time": 35.32251000014129
    },
    {
      "absoluteTicks": 35040,
      "channel": 13,
      "type": "noteOn",
      "note": 74,
      "velocity": 69,
      "vel": 0.551181,
      "time": 35.32251000014129
    },
    {
      "absoluteTicks": 35160,
      "channel": 13,
      "type": "noteOff",
      "note": 96,
      "velocity": 73,
      "rel": 0.582677,
      "time": 35.443477500141775
    },
    {
      "absoluteTicks": 35160,
      "channel": 13,
      "type": "noteOff",
      "note": 90,
      "velocity": 73,
      "rel": 0.582677,
      "time": 35.443477500141775
    },
    {
      "absoluteTicks": 35160,
      "channel": 13,
      "type": "noteOff",
      "note": 81,
      "velocity": 69,
      "rel": 0.551181,
      "time": 35.443477500141775
    },
    {
      "absoluteTicks": 35160,
      "channel": 13,
      "type": "noteOff",
      "note": 74,
      "velocity": 69,
      "rel": 0.551181,
      "time": 35.443477500141775
    },
    {
      "absoluteTicks": 35280,
      "channel": 13,
      "type": "noteOn",
      "note": 93,
      "velocity": 70,
      "vel": 0.559055,
      "time": 35.56444500014226
    },
    {
      "absoluteTicks": 35280,
      "channel": 13,
      "type": "noteOn",
      "note": 86,
      "velocity": 70,
      "vel": 0.559055,
      "time": 35.56444500014226
    },
    {
      "absoluteTicks": 35280,
      "channel": 13,
      "type": "noteOn",
      "note": 84,
      "velocity": 84,
      "vel": 0.669291,
      "time": 35.56444500014226
    },
    {
      "absoluteTicks": 35280,
      "channel": 13,
      "type": "noteOn",
      "note": 78,
      "velocity": 84,
      "vel": 0.669291,
      "time": 35.56444500014226
    },
    {
      "absoluteTicks": 35400,
      "channel": 13,
      "type": "noteOff",
      "note": 93,
      "velocity": 70,
      "rel": 0.559055,
      "time": 35.68541250014274
    },
    {
      "absoluteTicks": 35400,
      "channel": 13,
      "type": "noteOff",
      "note": 86,
      "velocity": 70,
      "rel": 0.559055,
      "time": 35.68541250014274
    },
    {
      "absoluteTicks": 35400,
      "channel": 13,
      "type": "noteOff",
      "note": 84,
      "velocity": 84,
      "rel": 0.669291,
      "time": 35.68541250014274
    },
    {
      "absoluteTicks": 35400,
      "channel": 13,
      "type": "noteOff",
      "note": 78,
      "velocity": 84,
      "rel": 0.669291,
      "time": 35.68541250014274
    },
    {
      "absoluteTicks": 35520,
      "channel": 13,
      "type": "noteOn",
      "note": 96,
      "velocity": 85,
      "vel": 0.677165,
      "time": 35.80638000014323
    },
    {
      "absoluteTicks": 35520,
      "channel": 13,
      "type": "noteOn",
      "note": 90,
      "velocity": 85,
      "vel": 0.677165,
      "time": 35.80638000014323
    },
    {
      "absoluteTicks": 35520,
      "channel": 13,
      "type": "noteOn",
      "note": 81,
      "velocity": 72,
      "vel": 0.574803,
      "time": 35.80638000014323
    },
    {
      "absoluteTicks": 35520,
      "channel": 13,
      "type": "noteOn",
      "note": 74,
      "velocity": 72,
      "vel": 0.574803,
      "time": 35.80638000014323
    },
    {
      "absoluteTicks": 35760,
      "channel": 13,
      "type": "noteOff",
      "note": 96,
      "velocity": 85,
      "rel": 0.677165,
      "time": 36.04831500014419
    },
    {
      "absoluteTicks": 35760,
      "channel": 13,
      "type": "noteOff",
      "note": 90,
      "velocity": 85,
      "rel": 0.677165,
      "time": 36.04831500014419
    },
    {
      "absoluteTicks": 35760,
      "channel": 13,
      "type": "noteOff",
      "note": 81,
      "velocity": 72,
      "rel": 0.574803,
      "time": 36.04831500014419
    },
    {
      "absoluteTicks": 35760,
      "channel": 13,
      "type": "noteOff",
      "note": 74,
      "velocity": 72,
      "rel": 0.574803,
      "time": 36.04831500014419
    },
    {
      "absoluteTicks": 36000,
      "channel": 13,
      "type": "noteOn",
      "note": 95,
      "velocity": 76,
      "vel": 0.606299,
      "time": 36.290250000145164
    },
    {
      "absoluteTicks": 36000,
      "channel": 13,
      "type": "noteOn",
      "note": 91,
      "velocity": 76,
      "vel": 0.606299,
      "time": 36.290250000145164
    },
    {
      "absoluteTicks": 36000,
      "channel": 13,
      "type": "noteOn",
      "note": 86,
      "velocity": 87,
      "vel": 0.692913,
      "time": 36.290250000145164
    },
    {
      "absoluteTicks": 36000,
      "channel": 13,
      "type": "noteOn",
      "note": 79,
      "velocity": 87,
      "vel": 0.692913,
      "time": 36.290250000145164
    },
    {
      "absoluteTicks": 36240,
      "channel": 13,
      "type": "noteOff",
      "note": 95,
      "velocity": 76,
      "rel": 0.606299,
      "time": 36.53218500014613
    },
    {
      "absoluteTicks": 36240,
      "channel": 13,
      "type": "noteOff",
      "note": 91,
      "velocity": 76,
      "rel": 0.606299,
      "time": 36.53218500014613
    },
    {
      "absoluteTicks": 36240,
      "channel": 13,
      "type": "noteOff",
      "note": 86,
      "velocity": 87,
      "rel": 0.692913,
      "time": 36.53218500014613
    },
    {
      "absoluteTicks": 36240,
      "channel": 13,
      "type": "noteOff",
      "note": 79,
      "velocity": 87,
      "rel": 0.692913,
      "time": 36.53218500014613
    },
    {
      "absoluteTicks": 36960,
      "channel": 13,
      "type": "noteOn",
      "note": 95,
      "velocity": 71,
      "vel": 0.566929,
      "time": 37.25799000014903
    },
    {
      "absoluteTicks": 36960,
      "channel": 13,
      "type": "noteOn",
      "note": 93,
      "velocity": 68,
      "vel": 0.543307,
      "time": 37.25799000014903
    },
    {
      "absoluteTicks": 37080,
      "channel": 13,
      "type": "noteOn",
      "note": 99,
      "velocity": 88,
      "vel": 0.700787,
      "time": 37.37895750014952
    },
    {
      "absoluteTicks": 37080,
      "channel": 13,
      "type": "noteOn",
      "note": 90,
      "velocity": 69,
      "vel": 0.551181,
      "time": 37.37895750014952
    },
    {
      "absoluteTicks": 37080,
      "channel": 13,
      "type": "noteOff",
      "note": 95,
      "velocity": 71,
      "rel": 0.566929,
      "time": 37.37895750014952
    },
    {
      "absoluteTicks": 37080,
      "channel": 13,
      "type": "noteOff",
      "note": 93,
      "velocity": 68,
      "rel": 0.543307,
      "time": 37.37895750014952
    },
    {
      "absoluteTicks": 37200,
      "channel": 13,
      "type": "noteOn",
      "note": 102,
      "velocity": 86,
      "vel": 0.685039,
      "time": 37.49992500015
    },
    {
      "absoluteTicks": 37200,
      "channel": 13,
      "type": "noteOn",
      "note": 87,
      "velocity": 70,
      "vel": 0.559055,
      "time": 37.49992500015
    },
    {
      "absoluteTicks": 37200,
      "channel": 13,
      "type": "noteOff",
      "note": 99,
      "velocity": 88,
      "rel": 0.700787,
      "time": 37.49992500015
    },
    {
      "absoluteTicks": 37200,
      "channel": 13,
      "type": "noteOff",
      "note": 90,
      "velocity": 69,
      "rel": 0.551181,
      "time": 37.49992500015
    },
    {
      "absoluteTicks": 37320,
      "channel": 13,
      "type": "noteOn",
      "note": 107,
      "velocity": 92,
      "vel": 0.732283,
      "time": 37.62089250015048
    },
    {
      "absoluteTicks": 37320,
      "channel": 13,
      "type": "noteOn",
      "note": 83,
      "velocity": 71,
      "vel": 0.566929,
      "time": 37.62089250015048
    },
    {
      "absoluteTicks": 37320,
      "channel": 13,
      "type": "noteOff",
      "note": 102,
      "velocity": 86,
      "rel": 0.685039,
      "time": 37.62089250015048
    },
    {
      "absoluteTicks": 37320,
      "channel": 13,
      "type": "noteOff",
      "note": 87,
      "velocity": 70,
      "rel": 0.559055,
      "time": 37.62089250015048
    },
    {
      "absoluteTicks": 37440,
      "channel": 13,
      "type": "noteOn",
      "note": 100,
      "velocity": 64,
      "vel": 0.511811,
      "time": 37.741860000150965
    },
    {
      "absoluteTicks": 37440,
      "channel": 13,
      "type": "noteOn",
      "note": 95,
      "velocity": 64,
      "vel": 0.511811,
      "time": 37.741860000150965
    },
    {
      "absoluteTicks": 37440,
      "channel": 13,
      "type": "noteOn",
      "note": 91,
      "velocity": 97,
      "vel": 0.76378,
      "time": 37.741860000150965
    },
    {
      "absoluteTicks": 37440,
      "channel": 13,
      "type": "noteOn",
      "note": 88,
      "velocity": 97,
      "vel": 0.76378,
      "time": 37.741860000150965
    },
    {
      "absoluteTicks": 37440,
      "channel": 13,
      "type": "noteOff",
      "note": 107,
      "velocity": 92,
      "rel": 0.732283,
      "time": 37.741860000150965
    },
    {
      "absoluteTicks": 37440,
      "channel": 13,
      "type": "noteOff",
      "note": 83,
      "velocity": 71,
      "rel": 0.566929,
      "time": 37.741860000150965
    },
    {
      "absoluteTicks": 37893,
      "channel": 13,
      "type": "noteOff",
      "note": 100,
      "velocity": 64,
      "rel": 0.511811,
      "time": 38.199268117592794
    },
    {
      "absoluteTicks": 37893,
      "channel": 13,
      "type": "noteOff",
      "note": 95,
      "velocity": 64,
      "rel": 0.511811,
      "time": 38.199268117592794
    },
    {
      "absoluteTicks": 37893,
      "channel": 13,
      "type": "noteOff",
      "note": 91,
      "velocity": 97,
      "rel": 0.76378,
      "time": 38.199268117592794
    },
    {
      "absoluteTicks": 37893,
      "channel": 13,
      "type": "noteOff",
      "note": 88,
      "velocity": 97,
      "rel": 0.76378,
      "time": 38.199268117592794
    },
    {
      "absoluteTicks": 38400,
      "channel": 13,
      "type": "noteOn",
      "note": 85,
      "velocity": 72,
      "vel": 0.574803,
      "time": 38.709600000154836
    },
    {
      "absoluteTicks": 38400,
      "channel": 13,
      "type": "noteOn",
      "note": 79,
      "velocity": 72,
      "vel": 0.574803,
      "time": 38.709600000154836
    },
    {
      "absoluteTicks": 38400,
      "channel": 13,
      "type": "noteOn",
      "note": 76,
      "velocity": 72,
      "vel": 0.574803,
      "time": 38.709600000154836
    },
    {
      "absoluteTicks": 38640,
      "channel": 13,
      "type": "noteOn",
      "note": 97,
      "velocity": 98,
      "vel": 0.771654,
      "time": 38.95153500015581
    },
    {
      "absoluteTicks": 38640,
      "channel": 13,
      "type": "noteOn",
      "note": 91,
      "velocity": 98,
      "vel": 0.771654,
      "time": 38.95153500015581
    },
    {
      "absoluteTicks": 38640,
      "channel": 13,
      "type": "noteOn",
      "note": 88,
      "velocity": 98,
      "vel": 0.771654,
      "time": 38.95153500015581
    },
    {
      "absoluteTicks": 38640,
      "channel": 13,
      "type": "noteOff",
      "note": 85,
      "velocity": 72,
      "rel": 0.574803,
      "time": 38.95153500015581
    },
    {
      "absoluteTicks": 38640,
      "channel": 13,
      "type": "noteOff",
      "note": 79,
      "velocity": 72,
      "rel": 0.574803,
      "time": 38.95153500015581
    },
    {
      "absoluteTicks": 38640,
      "channel": 13,
      "type": "noteOff",
      "note": 76,
      "velocity": 72,
      "rel": 0.574803,
      "time": 38.95153500015581
    },
    {
      "absoluteTicks": 38880,
      "channel": 13,
      "type": "noteOn",
      "note": 87,
      "velocity": 64,
      "vel": 0.511811,
      "time": 39.19347000015677
    },
    {
      "absoluteTicks": 38880,
      "channel": 13,
      "type": "noteOn",
      "note": 81,
      "velocity": 64,
      "vel": 0.511811,
      "time": 39.19347000015677
    },
    {
      "absoluteTicks": 38880,
      "channel": 13,
      "type": "noteOn",
      "note": 78,
      "velocity": 64,
      "vel": 0.511811,
      "time": 39.19347000015677
    },
    {
      "absoluteTicks": 38880,
      "channel": 13,
      "type": "noteOff",
      "note": 97,
      "velocity": 98,
      "rel": 0.771654,
      "time": 39.19347000015677
    },
    {
      "absoluteTicks": 38880,
      "channel": 13,
      "type": "noteOff",
      "note": 91,
      "velocity": 98,
      "rel": 0.771654,
      "time": 39.19347000015677
    },
    {
      "absoluteTicks": 38880,
      "channel": 13,
      "type": "noteOff",
      "note": 88,
      "velocity": 98,
      "rel": 0.771654,
      "time": 39.19347000015677
    },
    {
      "absoluteTicks": 39120,
      "channel": 13,
      "type": "noteOn",
      "note": 99,
      "velocity": 98,
      "vel": 0.771654,
      "time": 39.43540500015774
    },
    {
      "absoluteTicks": 39120,
      "channel": 13,
      "type": "noteOn",
      "note": 93,
      "velocity": 98,
      "vel": 0.771654,
      "time": 39.43540500015774
    },
    {
      "absoluteTicks": 39120,
      "channel": 13,
      "type": "noteOn",
      "note": 90,
      "velocity": 98,
      "vel": 0.771654,
      "time": 39.43540500015774
    },
    {
      "absoluteTicks": 39120,
      "channel": 13,
      "type": "noteOff",
      "note": 87,
      "velocity": 64,
      "rel": 0.511811,
      "time": 39.43540500015774
    },
    {
      "absoluteTicks": 39120,
      "channel": 13,
      "type": "noteOff",
      "note": 81,
      "velocity": 64,
      "rel": 0.511811,
      "time": 39.43540500015774
    },
    {
      "absoluteTicks": 39120,
      "channel": 13,
      "type": "noteOff",
      "note": 78,
      "velocity": 64,
      "rel": 0.511811,
      "time": 39.43540500015774
    },
    {
      "absoluteTicks": 39360,
      "channel": 13,
      "type": "noteOn",
      "note": 88,
      "velocity": 60,
      "vel": 0.472441,
      "time": 39.67734000015871
    },
    {
      "absoluteTicks": 39360,
      "channel": 13,
      "type": "noteOn",
      "note": 85,
      "velocity": 60,
      "vel": 0.472441,
      "time": 39.67734000015871
    },
    {
      "absoluteTicks": 39360,
      "channel": 13,
      "type": "noteOn",
      "note": 79,
      "velocity": 60,
      "vel": 0.472441,
      "time": 39.67734000015871
    },
    {
      "absoluteTicks": 39360,
      "channel": 13,
      "type": "noteOff",
      "note": 99,
      "velocity": 98,
      "rel": 0.771654,
      "time": 39.67734000015871
    },
    {
      "absoluteTicks": 39360,
      "channel": 13,
      "type": "noteOff",
      "note": 93,
      "velocity": 98,
      "rel": 0.771654,
      "time": 39.67734000015871
    },
    {
      "absoluteTicks": 39360,
      "channel": 13,
      "type": "noteOff",
      "note": 90,
      "velocity": 98,
      "rel": 0.771654,
      "time": 39.67734000015871
    },
    {
      "absoluteTicks": 39600,
      "channel": 13,
      "type": "noteOn",
      "note": 100,
      "velocity": 97,
      "vel": 0.76378,
      "time": 39.91927500015968
    },
    {
      "absoluteTicks": 39600,
      "channel": 13,
      "type": "noteOn",
      "note": 97,
      "velocity": 97,
      "vel": 0.76378,
      "time": 39.91927500015968
    },
    {
      "absoluteTicks": 39600,
      "channel": 13,
      "type": "noteOn",
      "note": 91,
      "velocity": 97,
      "vel": 0.76378,
      "time": 39.91927500015968
    },
    {
      "absoluteTicks": 39600,
      "channel": 13,
      "type": "noteOff",
      "note": 88,
      "velocity": 60,
      "rel": 0.472441,
      "time": 39.91927500015968
    },
    {
      "absoluteTicks": 39600,
      "channel": 13,
      "type": "noteOff",
      "note": 85,
      "velocity": 60,
      "rel": 0.472441,
      "time": 39.91927500015968
    },
    {
      "absoluteTicks": 39600,
      "channel": 13,
      "type": "noteOff",
      "note": 79,
      "velocity": 60,
      "rel": 0.472441,
      "time": 39.91927500015968
    },
    {
      "absoluteTicks": 39840,
      "channel": 13,
      "type": "noteOn",
      "note": 90,
      "velocity": 61,
      "vel": 0.480315,
      "time": 40.161210000160644
    },
    {
      "absoluteTicks": 39840,
      "channel": 13,
      "type": "noteOn",
      "note": 87,
      "velocity": 61,
      "vel": 0.480315,
      "time": 40.161210000160644
    },
    {
      "absoluteTicks": 39840,
      "channel": 13,
      "type": "noteOn",
      "note": 81,
      "velocity": 61,
      "vel": 0.480315,
      "time": 40.161210000160644
    },
    {
      "absoluteTicks": 39840,
      "channel": 13,
      "type": "noteOff",
      "note": 100,
      "velocity": 97,
      "rel": 0.76378,
      "time": 40.161210000160644
    },
    {
      "absoluteTicks": 39840,
      "channel": 13,
      "type": "noteOff",
      "note": 97,
      "velocity": 97,
      "rel": 0.76378,
      "time": 40.161210000160644
    },
    {
      "absoluteTicks": 39840,
      "channel": 13,
      "type": "noteOff",
      "note": 91,
      "velocity": 97,
      "rel": 0.76378,
      "time": 40.161210000160644
    },
    {
      "absoluteTicks": 40080,
      "channel": 13,
      "type": "noteOn",
      "note": 102,
      "velocity": 98,
      "vel": 0.771654,
      "time": 40.403145000161615
    },
    {
      "absoluteTicks": 40080,
      "channel": 13,
      "type": "noteOn",
      "note": 99,
      "velocity": 98,
      "vel": 0.771654,
      "time": 40.403145000161615
    },
    {
      "absoluteTicks": 40080,
      "channel": 13,
      "type": "noteOn",
      "note": 93,
      "velocity": 98,
      "vel": 0.771654,
      "time": 40.403145000161615
    },
    {
      "absoluteTicks": 40080,
      "channel": 13,
      "type": "noteOff",
      "note": 90,
      "velocity": 61,
      "rel": 0.480315,
      "time": 40.403145000161615
    },
    {
      "absoluteTicks": 40080,
      "channel": 13,
      "type": "noteOff",
      "note": 87,
      "velocity": 61,
      "rel": 0.480315,
      "time": 40.403145000161615
    },
    {
      "absoluteTicks": 40080,
      "channel": 13,
      "type": "noteOff",
      "note": 81,
      "velocity": 61,
      "rel": 0.480315,
      "time": 40.403145000161615
    },
    {
      "absoluteTicks": 40320,
      "channel": 13,
      "type": "noteOn",
      "note": 91,
      "velocity": 62,
      "vel": 0.488189,
      "time": 40.64508000016258
    },
    {
      "absoluteTicks": 40320,
      "channel": 13,
      "type": "noteOn",
      "note": 88,
      "velocity": 62,
      "vel": 0.488189,
      "time": 40.64508000016258
    },
    {
      "absoluteTicks": 40320,
      "channel": 13,
      "type": "noteOn",
      "note": 83,
      "velocity": 62,
      "vel": 0.488189,
      "time": 40.64508000016258
    },
    {
      "absoluteTicks": 40320,
      "channel": 13,
      "type": "noteOff",
      "note": 102,
      "velocity": 98,
      "rel": 0.771654,
      "time": 40.64508000016258
    },
    {
      "absoluteTicks": 40320,
      "channel": 13,
      "type": "noteOff",
      "note": 99,
      "velocity": 98,
      "rel": 0.771654,
      "time": 40.64508000016258
    },
    {
      "absoluteTicks": 40320,
      "channel": 13,
      "type": "noteOff",
      "note": 93,
      "velocity": 98,
      "rel": 0.771654,
      "time": 40.64508000016258
    },
    {
      "absoluteTicks": 40560,
      "channel": 13,
      "type": "noteOn",
      "note": 103,
      "velocity": 94,
      "vel": 0.748031,
      "time": 40.88701500016355
    },
    {
      "absoluteTicks": 40560,
      "channel": 13,
      "type": "noteOn",
      "note": 100,
      "velocity": 94,
      "vel": 0.748031,
      "time": 40.88701500016355
    },
    {
      "absoluteTicks": 40560,
      "channel": 13,
      "type": "noteOn",
      "note": 95,
      "velocity": 94,
      "vel": 0.748031,
      "time": 40.88701500016355
    },
    {
      "absoluteTicks": 40560,
      "channel": 13,
      "type": "noteOff",
      "note": 91,
      "velocity": 62,
      "rel": 0.488189,
      "time": 40.88701500016355
    },
    {
      "absoluteTicks": 40560,
      "channel": 13,
      "type": "noteOff",
      "note": 88,
      "velocity": 62,
      "rel": 0.488189,
      "time": 40.88701500016355
    },
    {
      "absoluteTicks": 40560,
      "channel": 13,
      "type": "noteOff",
      "note": 83,
      "velocity": 62,
      "rel": 0.488189,
      "time": 40.88701500016355
    },
    {
      "absoluteTicks": 40800,
      "channel": 13,
      "type": "noteOn",
      "note": 88,
      "velocity": 63,
      "vel": 0.503937,
      "time": 41.128950000164515
    },
    {
      "absoluteTicks": 40800,
      "channel": 13,
      "type": "noteOn",
      "note": 85,
      "velocity": 63,
      "vel": 0.503937,
      "time": 41.128950000164515
    },
    {
      "absoluteTicks": 40800,
      "channel": 13,
      "type": "noteOn",
      "note": 79,
      "velocity": 63,
      "vel": 0.503937,
      "time": 41.128950000164515
    },
    {
      "absoluteTicks": 40800,
      "channel": 13,
      "type": "noteOff",
      "note": 103,
      "velocity": 94,
      "rel": 0.748031,
      "time": 41.128950000164515
    },
    {
      "absoluteTicks": 40800,
      "channel": 13,
      "type": "noteOff",
      "note": 100,
      "velocity": 94,
      "rel": 0.748031,
      "time": 41.128950000164515
    },
    {
      "absoluteTicks": 40800,
      "channel": 13,
      "type": "noteOff",
      "note": 95,
      "velocity": 94,
      "rel": 0.748031,
      "time": 41.128950000164515
    },
    {
      "absoluteTicks": 41040,
      "channel": 13,
      "type": "noteOn",
      "note": 100,
      "velocity": 94,
      "vel": 0.748031,
      "time": 41.37088500016549
    },
    {
      "absoluteTicks": 41040,
      "channel": 13,
      "type": "noteOn",
      "note": 97,
      "velocity": 94,
      "vel": 0.748031,
      "time": 41.37088500016549
    },
    {
      "absoluteTicks": 41040,
      "channel": 13,
      "type": "noteOn",
      "note": 91,
      "velocity": 94,
      "vel": 0.748031,
      "time": 41.37088500016549
    },
    {
      "absoluteTicks": 41040,
      "channel": 13,
      "type": "noteOff",
      "note": 88,
      "velocity": 63,
      "rel": 0.503937,
      "time": 41.37088500016549
    },
    {
      "absoluteTicks": 41040,
      "channel": 13,
      "type": "noteOff",
      "note": 85,
      "velocity": 63,
      "rel": 0.503937,
      "time": 41.37088500016549
    },
    {
      "absoluteTicks": 41040,
      "channel": 13,
      "type": "noteOff",
      "note": 79,
      "velocity": 63,
      "rel": 0.503937,
      "time": 41.37088500016549
    },
    {
      "absoluteTicks": 41280,
      "channel": 13,
      "type": "noteOn",
      "note": 87,
      "velocity": 58,
      "vel": 0.456693,
      "time": 41.61282000016645
    },
    {
      "absoluteTicks": 41280,
      "channel": 13,
      "type": "noteOn",
      "note": 83,
      "velocity": 58,
      "vel": 0.456693,
      "time": 41.61282000016645
    },
    {
      "absoluteTicks": 41280,
      "channel": 13,
      "type": "noteOn",
      "note": 78,
      "velocity": 58,
      "vel": 0.456693,
      "time": 41.61282000016645
    },
    {
      "absoluteTicks": 41280,
      "channel": 13,
      "type": "noteOff",
      "note": 100,
      "velocity": 94,
      "rel": 0.748031,
      "time": 41.61282000016645
    },
    {
      "absoluteTicks": 41280,
      "channel": 13,
      "type": "noteOff",
      "note": 97,
      "velocity": 94,
      "rel": 0.748031,
      "time": 41.61282000016645
    },
    {
      "absoluteTicks": 41280,
      "channel": 13,
      "type": "noteOff",
      "note": 91,
      "velocity": 94,
      "rel": 0.748031,
      "time": 41.61282000016645
    },
    {
      "absoluteTicks": 41520,
      "channel": 13,
      "type": "noteOn",
      "note": 99,
      "velocity": 101,
      "vel": 0.795276,
      "time": 41.85475500016742
    },
    {
      "absoluteTicks": 41520,
      "channel": 13,
      "type": "noteOn",
      "note": 95,
      "velocity": 101,
      "vel": 0.795276,
      "time": 41.85475500016742
    },
    {
      "absoluteTicks": 41520,
      "channel": 13,
      "type": "noteOn",
      "note": 90,
      "velocity": 101,
      "vel": 0.795276,
      "time": 41.85475500016742
    },
    {
      "absoluteTicks": 41520,
      "channel": 13,
      "type": "noteOff",
      "note": 87,
      "velocity": 58,
      "rel": 0.456693,
      "time": 41.85475500016742
    },
    {
      "absoluteTicks": 41520,
      "channel": 13,
      "type": "noteOff",
      "note": 83,
      "velocity": 58,
      "rel": 0.456693,
      "time": 41.85475500016742
    },
    {
      "absoluteTicks": 41520,
      "channel": 13,
      "type": "noteOff",
      "note": 78,
      "velocity": 58,
      "rel": 0.456693,
      "time": 41.85475500016742
    },
    {
      "absoluteTicks": 41760,
      "channel": 13,
      "type": "noteOff",
      "note": 99,
      "velocity": 101,
      "rel": 0.795276,
      "time": 42.09669000016839
    },
    {
      "absoluteTicks": 41760,
      "channel": 13,
      "type": "noteOff",
      "note": 95,
      "velocity": 101,
      "rel": 0.795276,
      "time": 42.09669000016839
    },
    {
      "absoluteTicks": 41760,
      "channel": 13,
      "type": "noteOff",
      "note": 90,
      "velocity": 101,
      "rel": 0.795276,
      "time": 42.09669000016839
    },
    {
      "absoluteTicks": 46080,
      "channel": 13,
      "type": "noteOn",
      "note": 85,
      "velocity": 70,
      "vel": 0.559055,
      "time": 46.45152000018581
    },
    {
      "absoluteTicks": 46080,
      "channel": 13,
      "type": "noteOn",
      "note": 79,
      "velocity": 70,
      "vel": 0.559055,
      "time": 46.45152000018581
    },
    {
      "absoluteTicks": 46080,
      "channel": 13,
      "type": "noteOn",
      "note": 76,
      "velocity": 70,
      "vel": 0.559055,
      "time": 46.45152000018581
    },
    {
      "absoluteTicks": 46320,
      "channel": 13,
      "type": "noteOn",
      "note": 97,
      "velocity": 103,
      "vel": 0.811024,
      "time": 46.69345500018677
    },
    {
      "absoluteTicks": 46320,
      "channel": 13,
      "type": "noteOn",
      "note": 91,
      "velocity": 103,
      "vel": 0.811024,
      "time": 46.69345500018677
    },
    {
      "absoluteTicks": 46320,
      "channel": 13,
      "type": "noteOn",
      "note": 88,
      "velocity": 103,
      "vel": 0.811024,
      "time": 46.69345500018677
    },
    {
      "absoluteTicks": 46320,
      "channel": 13,
      "type": "noteOff",
      "note": 85,
      "velocity": 70,
      "rel": 0.559055,
      "time": 46.69345500018677
    },
    {
      "absoluteTicks": 46320,
      "channel": 13,
      "type": "noteOff",
      "note": 79,
      "velocity": 70,
      "rel": 0.559055,
      "time": 46.69345500018677
    },
    {
      "absoluteTicks": 46320,
      "channel": 13,
      "type": "noteOff",
      "note": 76,
      "velocity": 70,
      "rel": 0.559055,
      "time": 46.69345500018677
    },
    {
      "absoluteTicks": 46560,
      "channel": 13,
      "type": "noteOn",
      "note": 87,
      "velocity": 67,
      "vel": 0.535433,
      "time": 46.935390000187745
    },
    {
      "absoluteTicks": 46560,
      "channel": 13,
      "type": "noteOn",
      "note": 81,
      "velocity": 67,
      "vel": 0.535433,
      "time": 46.935390000187745
    },
    {
      "absoluteTicks": 46560,
      "channel": 13,
      "type": "noteOn",
      "note": 78,
      "velocity": 67,
      "vel": 0.535433,
      "time": 46.935390000187745
    },
    {
      "absoluteTicks": 46560,
      "channel": 13,
      "type": "noteOff",
      "note": 97,
      "velocity": 103,
      "rel": 0.811024,
      "time": 46.935390000187745
    },
    {
      "absoluteTicks": 46560,
      "channel": 13,
      "type": "noteOff",
      "note": 91,
      "velocity": 103,
      "rel": 0.811024,
      "time": 46.935390000187745
    },
    {
      "absoluteTicks": 46560,
      "channel": 13,
      "type": "noteOff",
      "note": 88,
      "velocity": 103,
      "rel": 0.811024,
      "time": 46.935390000187745
    },
    {
      "absoluteTicks": 46800,
      "channel": 13,
      "type": "noteOn",
      "note": 99,
      "velocity": 98,
      "vel": 0.771654,
      "time": 47.17732500018871
    },
    {
      "absoluteTicks": 46800,
      "channel": 13,
      "type": "noteOn",
      "note": 93,
      "velocity": 98,
      "vel": 0.771654,
      "time": 47.17732500018871
    },
    {
      "absoluteTicks": 46800,
      "channel": 13,
      "type": "noteOn",
      "note": 90,
      "velocity": 98,
      "vel": 0.771654,
      "time": 47.17732500018871
    },
    {
      "absoluteTicks": 46800,
      "channel": 13,
      "type": "noteOff",
      "note": 87,
      "velocity": 67,
      "rel": 0.535433,
      "time": 47.17732500018871
    },
    {
      "absoluteTicks": 46800,
      "channel": 13,
      "type": "noteOff",
      "note": 81,
      "velocity": 67,
      "rel": 0.535433,
      "time": 47.17732500018871
    },
    {
      "absoluteTicks": 46800,
      "channel": 13,
      "type": "noteOff",
      "note": 78,
      "velocity": 67,
      "rel": 0.535433,
      "time": 47.17732500018871
    },
    {
      "absoluteTicks": 47040,
      "channel": 13,
      "type": "noteOn",
      "note": 88,
      "velocity": 63,
      "vel": 0.503937,
      "time": 47.41926000018968
    },
    {
      "absoluteTicks": 47040,
      "channel": 13,
      "type": "noteOn",
      "note": 85,
      "velocity": 63,
      "vel": 0.503937,
      "time": 47.41926000018968
    },
    {
      "absoluteTicks": 47040,
      "channel": 13,
      "type": "noteOn",
      "note": 79,
      "velocity": 63,
      "vel": 0.503937,
      "time": 47.41926000018968
    },
    {
      "absoluteTicks": 47040,
      "channel": 13,
      "type": "noteOff",
      "note": 99,
      "velocity": 98,
      "rel": 0.771654,
      "time": 47.41926000018968
    },
    {
      "absoluteTicks": 47040,
      "channel": 13,
      "type": "noteOff",
      "note": 93,
      "velocity": 98,
      "rel": 0.771654,
      "time": 47.41926000018968
    },
    {
      "absoluteTicks": 47040,
      "channel": 13,
      "type": "noteOff",
      "note": 90,
      "velocity": 98,
      "rel": 0.771654,
      "time": 47.41926000018968
    },
    {
      "absoluteTicks": 47280,
      "channel": 13,
      "type": "noteOn",
      "note": 100,
      "velocity": 98,
      "vel": 0.771654,
      "time": 47.661195000190645
    },
    {
      "absoluteTicks": 47280,
      "channel": 13,
      "type": "noteOn",
      "note": 97,
      "velocity": 98,
      "vel": 0.771654,
      "time": 47.661195000190645
    },
    {
      "absoluteTicks": 47280,
      "channel": 13,
      "type": "noteOn",
      "note": 91,
      "velocity": 98,
      "vel": 0.771654,
      "time": 47.661195000190645
    },
    {
      "absoluteTicks": 47280,
      "channel": 13,
      "type": "noteOff",
      "note": 88,
      "velocity": 63,
      "rel": 0.503937,
      "time": 47.661195000190645
    },
    {
      "absoluteTicks": 47280,
      "channel": 13,
      "type": "noteOff",
      "note": 85,
      "velocity": 63,
      "rel": 0.503937,
      "time": 47.661195000190645
    },
    {
      "absoluteTicks": 47280,
      "channel": 13,
      "type": "noteOff",
      "note": 79,
      "velocity": 63,
      "rel": 0.503937,
      "time": 47.661195000190645
    },
    {
      "absoluteTicks": 47520,
      "channel": 13,
      "type": "noteOn",
      "note": 90,
      "velocity": 66,
      "vel": 0.527559,
      "time": 47.90313000019161
    },
    {
      "absoluteTicks": 47520,
      "channel": 13,
      "type": "noteOn",
      "note": 87,
      "velocity": 66,
      "vel": 0.527559,
      "time": 47.90313000019161
    },
    {
      "absoluteTicks": 47520,
      "channel": 13,
      "type": "noteOn",
      "note": 81,
      "velocity": 66,
      "vel": 0.527559,
      "time": 47.90313000019161
    },
    {
      "absoluteTicks": 47520,
      "channel": 13,
      "type": "noteOff",
      "note": 100,
      "velocity": 98,
      "rel": 0.771654,
      "time": 47.90313000019161
    },
    {
      "absoluteTicks": 47520,
      "channel": 13,
      "type": "noteOff",
      "note": 97,
      "velocity": 98,
      "rel": 0.771654,
      "time": 47.90313000019161
    },
    {
      "absoluteTicks": 47520,
      "channel": 13,
      "type": "noteOff",
      "note": 91,
      "velocity": 98,
      "rel": 0.771654,
      "time": 47.90313000019161
    },
    {
      "absoluteTicks": 47760,
      "channel": 13,
      "type": "noteOn",
      "note": 102,
      "velocity": 96,
      "vel": 0.755906,
      "time": 48.14506500019258
    },
    {
      "absoluteTicks": 47760,
      "channel": 13,
      "type": "noteOn",
      "note": 99,
      "velocity": 96,
      "vel": 0.755906,
      "time": 48.14506500019258
    },
    {
      "absoluteTicks": 47760,
      "channel": 13,
      "type": "noteOn",
      "note": 93,
      "velocity": 96,
      "vel": 0.755906,
      "time": 48.14506500019258
    },
    {
      "absoluteTicks": 47760,
      "channel": 13,
      "type": "noteOff",
      "note": 90,
      "velocity": 66,
      "rel": 0.527559,
      "time": 48.14506500019258
    },
    {
      "absoluteTicks": 47760,
      "channel": 13,
      "type": "noteOff",
      "note": 87,
      "velocity": 66,
      "rel": 0.527559,
      "time": 48.14506500019258
    },
    {
      "absoluteTicks": 47760,
      "channel": 13,
      "type": "noteOff",
      "note": 81,
      "velocity": 66,
      "rel": 0.527559,
      "time": 48.14506500019258
    },
    {
      "absoluteTicks": 48000,
      "channel": 13,
      "type": "noteOn",
      "note": 91,
      "velocity": 61,
      "vel": 0.480315,
      "time": 48.387000000193545
    },
    {
      "absoluteTicks": 48000,
      "channel": 13,
      "type": "noteOn",
      "note": 88,
      "velocity": 61,
      "vel": 0.480315,
      "time": 48.387000000193545
    },
    {
      "absoluteTicks": 48000,
      "channel": 13,
      "type": "noteOn",
      "note": 83,
      "velocity": 61,
      "vel": 0.480315,
      "time": 48.387000000193545
    },
    {
      "absoluteTicks": 48000,
      "channel": 13,
      "type": "noteOff",
      "note": 102,
      "velocity": 96,
      "rel": 0.755906,
      "time": 48.387000000193545
    },
    {
      "absoluteTicks": 48000,
      "channel": 13,
      "type": "noteOff",
      "note": 99,
      "velocity": 96,
      "rel": 0.755906,
      "time": 48.387000000193545
    },
    {
      "absoluteTicks": 48000,
      "channel": 13,
      "type": "noteOff",
      "note": 93,
      "velocity": 96,
      "rel": 0.755906,
      "time": 48.387000000193545
    },
    {
      "absoluteTicks": 48240,
      "channel": 13,
      "type": "noteOn",
      "note": 103,
      "velocity": 101,
      "vel": 0.795276,
      "time": 48.62893500019452
    },
    {
      "absoluteTicks": 48240,
      "channel": 13,
      "type": "noteOn",
      "note": 100,
      "velocity": 101,
      "vel": 0.795276,
      "time": 48.62893500019452
    },
    {
      "absoluteTicks": 48240,
      "channel": 13,
      "type": "noteOn",
      "note": 95,
      "velocity": 101,
      "vel": 0.795276,
      "time": 48.62893500019452
    },
    {
      "absoluteTicks": 48240,
      "channel": 13,
      "type": "noteOff",
      "note": 91,
      "velocity": 61,
      "rel": 0.480315,
      "time": 48.62893500019452
    },
    {
      "absoluteTicks": 48240,
      "channel": 13,
      "type": "noteOff",
      "note": 88,
      "velocity": 61,
      "rel": 0.480315,
      "time": 48.62893500019452
    },
    {
      "absoluteTicks": 48240,
      "channel": 13,
      "type": "noteOff",
      "note": 83,
      "velocity": 61,
      "rel": 0.480315,
      "time": 48.62893500019452
    },
    {
      "absoluteTicks": 48480,
      "channel": 13,
      "type": "noteOn",
      "note": 88,
      "velocity": 59,
      "vel": 0.464567,
      "time": 48.87087000019548
    },
    {
      "absoluteTicks": 48480,
      "channel": 13,
      "type": "noteOn",
      "note": 85,
      "velocity": 59,
      "vel": 0.464567,
      "time": 48.87087000019548
    },
    {
      "absoluteTicks": 48480,
      "channel": 13,
      "type": "noteOn",
      "note": 79,
      "velocity": 59,
      "vel": 0.464567,
      "time": 48.87087000019548
    },
    {
      "absoluteTicks": 48480,
      "channel": 13,
      "type": "noteOff",
      "note": 103,
      "velocity": 101,
      "rel": 0.795276,
      "time": 48.87087000019548
    },
    {
      "absoluteTicks": 48480,
      "channel": 13,
      "type": "noteOff",
      "note": 100,
      "velocity": 101,
      "rel": 0.795276,
      "time": 48.87087000019548
    },
    {
      "absoluteTicks": 48480,
      "channel": 13,
      "type": "noteOff",
      "note": 95,
      "velocity": 101,
      "rel": 0.795276,
      "time": 48.87087000019548
    },
    {
      "absoluteTicks": 48720,
      "channel": 13,
      "type": "noteOn",
      "note": 100,
      "velocity": 97,
      "vel": 0.76378,
      "time": 49.11280500019645
    },
    {
      "absoluteTicks": 48720,
      "channel": 13,
      "type": "noteOn",
      "note": 97,
      "velocity": 97,
      "vel": 0.76378,
      "time": 49.11280500019645
    },
    {
      "absoluteTicks": 48720,
      "channel": 13,
      "type": "noteOn",
      "note": 91,
      "velocity": 97,
      "vel": 0.76378,
      "time": 49.11280500019645
    },
    {
      "absoluteTicks": 48720,
      "channel": 13,
      "type": "noteOff",
      "note": 88,
      "velocity": 59,
      "rel": 0.464567,
      "time": 49.11280500019645
    },
    {
      "absoluteTicks": 48720,
      "channel": 13,
      "type": "noteOff",
      "note": 85,
      "velocity": 59,
      "rel": 0.464567,
      "time": 49.11280500019645
    },
    {
      "absoluteTicks": 48720,
      "channel": 13,
      "type": "noteOff",
      "note": 79,
      "velocity": 59,
      "rel": 0.464567,
      "time": 49.11280500019645
    },
    {
      "absoluteTicks": 48960,
      "channel": 13,
      "type": "noteOn",
      "note": 87,
      "velocity": 63,
      "vel": 0.503937,
      "time": 49.35474000019742
    },
    {
      "absoluteTicks": 48960,
      "channel": 13,
      "type": "noteOn",
      "note": 83,
      "velocity": 63,
      "vel": 0.503937,
      "time": 49.35474000019742
    },
    {
      "absoluteTicks": 48960,
      "channel": 13,
      "type": "noteOn",
      "note": 78,
      "velocity": 63,
      "vel": 0.503937,
      "time": 49.35474000019742
    },
    {
      "absoluteTicks": 48960,
      "channel": 13,
      "type": "noteOff",
      "note": 100,
      "velocity": 97,
      "rel": 0.76378,
      "time": 49.35474000019742
    },
    {
      "absoluteTicks": 48960,
      "channel": 13,
      "type": "noteOff",
      "note": 97,
      "velocity": 97,
      "rel": 0.76378,
      "time": 49.35474000019742
    },
    {
      "absoluteTicks": 48960,
      "channel": 13,
      "type": "noteOff",
      "note": 91,
      "velocity": 97,
      "rel": 0.76378,
      "time": 49.35474000019742
    },
    {
      "absoluteTicks": 49200,
      "channel": 13,
      "type": "noteOn",
      "note": 99,
      "velocity": 101,
      "vel": 0.795276,
      "time": 49.59667500019839
    },
    {
      "absoluteTicks": 49200,
      "channel": 13,
      "type": "noteOn",
      "note": 95,
      "velocity": 101,
      "vel": 0.795276,
      "time": 49.59667500019839
    },
    {
      "absoluteTicks": 49200,
      "channel": 13,
      "type": "noteOn",
      "note": 90,
      "velocity": 101,
      "vel": 0.795276,
      "time": 49.59667500019839
    },
    {
      "absoluteTicks": 49200,
      "channel": 13,
      "type": "noteOff",
      "note": 87,
      "velocity": 63,
      "rel": 0.503937,
      "time": 49.59667500019839
    },
    {
      "absoluteTicks": 49200,
      "channel": 13,
      "type": "noteOff",
      "note": 83,
      "velocity": 63,
      "rel": 0.503937,
      "time": 49.59667500019839
    },
    {
      "absoluteTicks": 49200,
      "channel": 13,
      "type": "noteOff",
      "note": 78,
      "velocity": 63,
      "rel": 0.503937,
      "time": 49.59667500019839
    },
    {
      "absoluteTicks": 49440,
      "channel": 13,
      "type": "noteOff",
      "note": 99,
      "velocity": 101,
      "rel": 0.795276,
      "time": 49.83861000019935
    },
    {
      "absoluteTicks": 49440,
      "channel": 13,
      "type": "noteOff",
      "note": 95,
      "velocity": 101,
      "rel": 0.795276,
      "time": 49.83861000019935
    },
    {
      "absoluteTicks": 49440,
      "channel": 13,
      "type": "noteOff",
      "note": 90,
      "velocity": 101,
      "rel": 0.795276,
      "time": 49.83861000019935
    },
    {
      "absoluteTicks": 53760,
      "channel": 13,
      "type": "noteOn",
      "note": 85,
      "velocity": 73,
      "vel": 0.582677,
      "time": 54.193440000216775
    },
    {
      "absoluteTicks": 53760,
      "channel": 13,
      "type": "noteOn",
      "note": 79,
      "velocity": 73,
      "vel": 0.582677,
      "time": 54.193440000216775
    },
    {
      "absoluteTicks": 53760,
      "channel": 13,
      "type": "noteOn",
      "note": 76,
      "velocity": 73,
      "vel": 0.582677,
      "time": 54.193440000216775
    },
    {
      "absoluteTicks": 54000,
      "channel": 13,
      "type": "noteOn",
      "note": 97,
      "velocity": 97,
      "vel": 0.76378,
      "time": 54.43537500021774
    },
    {
      "absoluteTicks": 54000,
      "channel": 13,
      "type": "noteOn",
      "note": 91,
      "velocity": 97,
      "vel": 0.76378,
      "time": 54.43537500021774
    },
    {
      "absoluteTicks": 54000,
      "channel": 13,
      "type": "noteOn",
      "note": 88,
      "velocity": 97,
      "vel": 0.76378,
      "time": 54.43537500021774
    },
    {
      "absoluteTicks": 54000,
      "channel": 13,
      "type": "noteOff",
      "note": 85,
      "velocity": 73,
      "rel": 0.582677,
      "time": 54.43537500021774
    },
    {
      "absoluteTicks": 54000,
      "channel": 13,
      "type": "noteOff",
      "note": 79,
      "velocity": 73,
      "rel": 0.582677,
      "time": 54.43537500021774
    },
    {
      "absoluteTicks": 54000,
      "channel": 13,
      "type": "noteOff",
      "note": 76,
      "velocity": 73,
      "rel": 0.582677,
      "time": 54.43537500021774
    },
    {
      "absoluteTicks": 54240,
      "channel": 13,
      "type": "noteOn",
      "note": 87,
      "velocity": 64,
      "vel": 0.511811,
      "time": 54.67731000021871
    },
    {
      "absoluteTicks": 54240,
      "channel": 13,
      "type": "noteOn",
      "note": 81,
      "velocity": 64,
      "vel": 0.511811,
      "time": 54.67731000021871
    },
    {
      "absoluteTicks": 54240,
      "channel": 13,
      "type": "noteOn",
      "note": 78,
      "velocity": 64,
      "vel": 0.511811,
      "time": 54.67731000021871
    },
    {
      "absoluteTicks": 54240,
      "channel": 13,
      "type": "noteOff",
      "note": 97,
      "velocity": 97,
      "rel": 0.76378,
      "time": 54.67731000021871
    },
    {
      "absoluteTicks": 54240,
      "channel": 13,
      "type": "noteOff",
      "note": 91,
      "velocity": 97,
      "rel": 0.76378,
      "time": 54.67731000021871
    },
    {
      "absoluteTicks": 54240,
      "channel": 13,
      "type": "noteOff",
      "note": 88,
      "velocity": 97,
      "rel": 0.76378,
      "time": 54.67731000021871
    },
    {
      "absoluteTicks": 54480,
      "channel": 13,
      "type": "noteOn",
      "note": 99,
      "velocity": 103,
      "vel": 0.811024,
      "time": 54.919245000219675
    },
    {
      "absoluteTicks": 54480,
      "channel": 13,
      "type": "noteOn",
      "note": 93,
      "velocity": 103,
      "vel": 0.811024,
      "time": 54.919245000219675
    },
    {
      "absoluteTicks": 54480,
      "channel": 13,
      "type": "noteOn",
      "note": 90,
      "velocity": 103,
      "vel": 0.811024,
      "time": 54.919245000219675
    },
    {
      "absoluteTicks": 54480,
      "channel": 13,
      "type": "noteOff",
      "note": 87,
      "velocity": 64,
      "rel": 0.511811,
      "time": 54.919245000219675
    },
    {
      "absoluteTicks": 54480,
      "channel": 13,
      "type": "noteOff",
      "note": 81,
      "velocity": 64,
      "rel": 0.511811,
      "time": 54.919245000219675
    },
    {
      "absoluteTicks": 54480,
      "channel": 13,
      "type": "noteOff",
      "note": 78,
      "velocity": 64,
      "rel": 0.511811,
      "time": 54.919245000219675
    },
    {
      "absoluteTicks": 54720,
      "channel": 13,
      "type": "noteOn",
      "note": 88,
      "velocity": 65,
      "vel": 0.519685,
      "time": 55.16118000022065
    },
    {
      "absoluteTicks": 54720,
      "channel": 13,
      "type": "noteOn",
      "note": 85,
      "velocity": 65,
      "vel": 0.519685,
      "time": 55.16118000022065
    },
    {
      "absoluteTicks": 54720,
      "channel": 13,
      "type": "noteOn",
      "note": 79,
      "velocity": 65,
      "vel": 0.519685,
      "time": 55.16118000022065
    },
    {
      "absoluteTicks": 54720,
      "channel": 13,
      "type": "noteOff",
      "note": 99,
      "velocity": 103,
      "rel": 0.811024,
      "time": 55.16118000022065
    },
    {
      "absoluteTicks": 54720,
      "channel": 13,
      "type": "noteOff",
      "note": 93,
      "velocity": 103,
      "rel": 0.811024,
      "time": 55.16118000022065
    },
    {
      "absoluteTicks": 54720,
      "channel": 13,
      "type": "noteOff",
      "note": 90,
      "velocity": 103,
      "rel": 0.811024,
      "time": 55.16118000022065
    },
    {
      "absoluteTicks": 54960,
      "channel": 13,
      "type": "noteOn",
      "note": 100,
      "velocity": 100,
      "vel": 0.787402,
      "time": 55.40311500022161
    },
    {
      "absoluteTicks": 54960,
      "channel": 13,
      "type": "noteOn",
      "note": 97,
      "velocity": 100,
      "vel": 0.787402,
      "time": 55.40311500022161
    },
    {
      "absoluteTicks": 54960,
      "channel": 13,
      "type": "noteOn",
      "note": 91,
      "velocity": 100,
      "vel": 0.787402,
      "time": 55.40311500022161
    },
    {
      "absoluteTicks": 54960,
      "channel": 13,
      "type": "noteOff",
      "note": 88,
      "velocity": 65,
      "rel": 0.519685,
      "time": 55.40311500022161
    },
    {
      "absoluteTicks": 54960,
      "channel": 13,
      "type": "noteOff",
      "note": 85,
      "velocity": 65,
      "rel": 0.519685,
      "time": 55.40311500022161
    },
    {
      "absoluteTicks": 54960,
      "channel": 13,
      "type": "noteOff",
      "note": 79,
      "velocity": 65,
      "rel": 0.519685,
      "time": 55.40311500022161
    },
    {
      "absoluteTicks": 55200,
      "channel": 13,
      "type": "noteOff",
      "note": 100,
      "velocity": 100,
      "rel": 0.787402,
      "time": 55.64505000022258
    },
    {
      "absoluteTicks": 55200,
      "channel": 13,
      "type": "noteOff",
      "note": 97,
      "velocity": 100,
      "rel": 0.787402,
      "time": 55.64505000022258
    },
    {
      "absoluteTicks": 55200,
      "channel": 13,
      "type": "noteOff",
      "note": 91,
      "velocity": 100,
      "rel": 0.787402,
      "time": 55.64505000022258
    },
    {
      "absoluteTicks": 55680,
      "channel": 13,
      "type": "noteOn",
      "note": 87,
      "velocity": 72,
      "vel": 0.574803,
      "time": 56.12892000022452
    },
    {
      "absoluteTicks": 55680,
      "channel": 13,
      "type": "noteOn",
      "note": 81,
      "velocity": 72,
      "vel": 0.574803,
      "time": 56.12892000022452
    },
    {
      "absoluteTicks": 55680,
      "channel": 13,
      "type": "noteOn",
      "note": 78,
      "velocity": 72,
      "vel": 0.574803,
      "time": 56.12892000022452
    },
    {
      "absoluteTicks": 55920,
      "channel": 13,
      "type": "noteOn",
      "note": 99,
      "velocity": 104,
      "vel": 0.818898,
      "time": 56.37085500022548
    },
    {
      "absoluteTicks": 55920,
      "channel": 13,
      "type": "noteOn",
      "note": 93,
      "velocity": 104,
      "vel": 0.818898,
      "time": 56.37085500022548
    },
    {
      "absoluteTicks": 55920,
      "channel": 13,
      "type": "noteOn",
      "note": 90,
      "velocity": 104,
      "vel": 0.818898,
      "time": 56.37085500022548
    },
    {
      "absoluteTicks": 55920,
      "channel": 13,
      "type": "noteOff",
      "note": 87,
      "velocity": 72,
      "rel": 0.574803,
      "time": 56.37085500022548
    },
    {
      "absoluteTicks": 55920,
      "channel": 13,
      "type": "noteOff",
      "note": 81,
      "velocity": 72,
      "rel": 0.574803,
      "time": 56.37085500022548
    },
    {
      "absoluteTicks": 55920,
      "channel": 13,
      "type": "noteOff",
      "note": 78,
      "velocity": 72,
      "rel": 0.574803,
      "time": 56.37085500022548
    },
    {
      "absoluteTicks": 56160,
      "channel": 13,
      "type": "noteOn",
      "note": 88,
      "velocity": 64,
      "vel": 0.511811,
      "time": 56.612790000226454
    },
    {
      "absoluteTicks": 56160,
      "channel": 13,
      "type": "noteOn",
      "note": 85,
      "velocity": 64,
      "vel": 0.511811,
      "time": 56.612790000226454
    },
    {
      "absoluteTicks": 56160,
      "channel": 13,
      "type": "noteOn",
      "note": 79,
      "velocity": 64,
      "vel": 0.511811,
      "time": 56.612790000226454
    },
    {
      "absoluteTicks": 56160,
      "channel": 13,
      "type": "noteOff",
      "note": 99,
      "velocity": 104,
      "rel": 0.818898,
      "time": 56.612790000226454
    },
    {
      "absoluteTicks": 56160,
      "channel": 13,
      "type": "noteOff",
      "note": 93,
      "velocity": 104,
      "rel": 0.818898,
      "time": 56.612790000226454
    },
    {
      "absoluteTicks": 56160,
      "channel": 13,
      "type": "noteOff",
      "note": 90,
      "velocity": 104,
      "rel": 0.818898,
      "time": 56.612790000226454
    },
    {
      "absoluteTicks": 56400,
      "channel": 13,
      "type": "noteOn",
      "note": 100,
      "velocity": 104,
      "vel": 0.818898,
      "time": 56.85472500022742
    },
    {
      "absoluteTicks": 56400,
      "channel": 13,
      "type": "noteOn",
      "note": 97,
      "velocity": 104,
      "vel": 0.818898,
      "time": 56.85472500022742
    },
    {
      "absoluteTicks": 56400,
      "channel": 13,
      "type": "noteOn",
      "note": 91,
      "velocity": 104,
      "vel": 0.818898,
      "time": 56.85472500022742
    },
    {
      "absoluteTicks": 56400,
      "channel": 13,
      "type": "noteOff",
      "note": 88,
      "velocity": 64,
      "rel": 0.511811,
      "time": 56.85472500022742
    },
    {
      "absoluteTicks": 56400,
      "channel": 13,
      "type": "noteOff",
      "note": 85,
      "velocity": 64,
      "rel": 0.511811,
      "time": 56.85472500022742
    },
    {
      "absoluteTicks": 56400,
      "channel": 13,
      "type": "noteOff",
      "note": 79,
      "velocity": 64,
      "rel": 0.511811,
      "time": 56.85472500022742
    },
    {
      "absoluteTicks": 56640,
      "channel": 13,
      "type": "noteOn",
      "note": 90,
      "velocity": 63,
      "vel": 0.496063,
      "time": 57.09666000022839
    },
    {
      "absoluteTicks": 56640,
      "channel": 13,
      "type": "noteOn",
      "note": 87,
      "velocity": 63,
      "vel": 0.496063,
      "time": 57.09666000022839
    },
    {
      "absoluteTicks": 56640,
      "channel": 13,
      "type": "noteOn",
      "note": 81,
      "velocity": 63,
      "vel": 0.496063,
      "time": 57.09666000022839
    },
    {
      "absoluteTicks": 56640,
      "channel": 13,
      "type": "noteOff",
      "note": 100,
      "velocity": 104,
      "rel": 0.818898,
      "time": 57.09666000022839
    },
    {
      "absoluteTicks": 56640,
      "channel": 13,
      "type": "noteOff",
      "note": 97,
      "velocity": 104,
      "rel": 0.818898,
      "time": 57.09666000022839
    },
    {
      "absoluteTicks": 56640,
      "channel": 13,
      "type": "noteOff",
      "note": 91,
      "velocity": 104,
      "rel": 0.818898,
      "time": 57.09666000022839
    },
    {
      "absoluteTicks": 56880,
      "channel": 13,
      "type": "noteOn",
      "note": 102,
      "velocity": 94,
      "vel": 0.748031,
      "time": 57.338595000229354
    },
    {
      "absoluteTicks": 56880,
      "channel": 13,
      "type": "noteOn",
      "note": 99,
      "velocity": 94,
      "vel": 0.748031,
      "time": 57.338595000229354
    },
    {
      "absoluteTicks": 56880,
      "channel": 13,
      "type": "noteOn",
      "note": 93,
      "velocity": 94,
      "vel": 0.748031,
      "time": 57.338595000229354
    },
    {
      "absoluteTicks": 56880,
      "channel": 13,
      "type": "noteOff",
      "note": 90,
      "velocity": 63,
      "rel": 0.496063,
      "time": 57.338595000229354
    },
    {
      "absoluteTicks": 56880,
      "channel": 13,
      "type": "noteOff",
      "note": 87,
      "velocity": 63,
      "rel": 0.496063,
      "time": 57.338595000229354
    },
    {
      "absoluteTicks": 56880,
      "channel": 13,
      "type": "noteOff",
      "note": 81,
      "velocity": 63,
      "rel": 0.496063,
      "time": 57.338595000229354
    },
    {
      "absoluteTicks": 57120,
      "channel": 13,
      "type": "noteOff",
      "note": 102,
      "velocity": 94,
      "rel": 0.748031,
      "time": 57.580530000230326
    },
    {
      "absoluteTicks": 57120,
      "channel": 13,
      "type": "noteOff",
      "note": 99,
      "velocity": 94,
      "rel": 0.748031,
      "time": 57.580530000230326
    },
    {
      "absoluteTicks": 57120,
      "channel": 13,
      "type": "noteOff",
      "note": 93,
      "velocity": 94,
      "rel": 0.748031,
      "time": 57.580530000230326
    },
    {
      "absoluteTicks": 57600,
      "channel": 13,
      "type": "noteOn",
      "note": 88,
      "velocity": 70,
      "vel": 0.559055,
      "time": 58.06440000023226
    },
    {
      "absoluteTicks": 57600,
      "channel": 13,
      "type": "noteOn",
      "note": 85,
      "velocity": 70,
      "vel": 0.559055,
      "time": 58.06440000023226
    },
    {
      "absoluteTicks": 57600,
      "channel": 13,
      "type": "noteOn",
      "note": 79,
      "velocity": 70,
      "vel": 0.559055,
      "time": 58.06440000023226
    },
    {
      "absoluteTicks": 57840,
      "channel": 13,
      "type": "noteOn",
      "note": 100,
      "velocity": 102,
      "vel": 0.80315,
      "time": 58.306335000233226
    },
    {
      "absoluteTicks": 57840,
      "channel": 13,
      "type": "noteOn",
      "note": 97,
      "velocity": 102,
      "vel": 0.80315,
      "time": 58.306335000233226
    },
    {
      "absoluteTicks": 57840,
      "channel": 13,
      "type": "noteOn",
      "note": 91,
      "velocity": 102,
      "vel": 0.80315,
      "time": 58.306335000233226
    },
    {
      "absoluteTicks": 57840,
      "channel": 13,
      "type": "noteOff",
      "note": 88,
      "velocity": 70,
      "rel": 0.559055,
      "time": 58.306335000233226
    },
    {
      "absoluteTicks": 57840,
      "channel": 13,
      "type": "noteOff",
      "note": 85,
      "velocity": 70,
      "rel": 0.559055,
      "time": 58.306335000233226
    },
    {
      "absoluteTicks": 57840,
      "channel": 13,
      "type": "noteOff",
      "note": 79,
      "velocity": 70,
      "rel": 0.559055,
      "time": 58.306335000233226
    },
    {
      "absoluteTicks": 58080,
      "channel": 13,
      "type": "noteOn",
      "note": 90,
      "velocity": 63,
      "vel": 0.496063,
      "time": 58.54827000023419
    },
    {
      "absoluteTicks": 58080,
      "channel": 13,
      "type": "noteOn",
      "note": 87,
      "velocity": 63,
      "vel": 0.496063,
      "time": 58.54827000023419
    },
    {
      "absoluteTicks": 58080,
      "channel": 13,
      "type": "noteOn",
      "note": 81,
      "velocity": 63,
      "vel": 0.496063,
      "time": 58.54827000023419
    },
    {
      "absoluteTicks": 58080,
      "channel": 13,
      "type": "noteOff",
      "note": 100,
      "velocity": 102,
      "rel": 0.80315,
      "time": 58.54827000023419
    },
    {
      "absoluteTicks": 58080,
      "channel": 13,
      "type": "noteOff",
      "note": 97,
      "velocity": 102,
      "rel": 0.80315,
      "time": 58.54827000023419
    },
    {
      "absoluteTicks": 58080,
      "channel": 13,
      "type": "noteOff",
      "note": 91,
      "velocity": 102,
      "rel": 0.80315,
      "time": 58.54827000023419
    },
    {
      "absoluteTicks": 58320,
      "channel": 13,
      "type": "noteOn",
      "note": 102,
      "velocity": 97,
      "vel": 0.76378,
      "time": 58.79020500023516
    },
    {
      "absoluteTicks": 58320,
      "channel": 13,
      "type": "noteOn",
      "note": 99,
      "velocity": 97,
      "vel": 0.76378,
      "time": 58.79020500023516
    },
    {
      "absoluteTicks": 58320,
      "channel": 13,
      "type": "noteOn",
      "note": 93,
      "velocity": 97,
      "vel": 0.76378,
      "time": 58.79020500023516
    },
    {
      "absoluteTicks": 58320,
      "channel": 13,
      "type": "noteOff",
      "note": 90,
      "velocity": 63,
      "rel": 0.496063,
      "time": 58.79020500023516
    },
    {
      "absoluteTicks": 58320,
      "channel": 13,
      "type": "noteOff",
      "note": 87,
      "velocity": 63,
      "rel": 0.496063,
      "time": 58.79020500023516
    },
    {
      "absoluteTicks": 58320,
      "channel": 13,
      "type": "noteOff",
      "note": 81,
      "velocity": 63,
      "rel": 0.496063,
      "time": 58.79020500023516
    },
    {
      "absoluteTicks": 58560,
      "channel": 13,
      "type": "noteOn",
      "note": 91,
      "velocity": 68,
      "vel": 0.543307,
      "time": 59.032140000236126
    },
    {
      "absoluteTicks": 58560,
      "channel": 13,
      "type": "noteOn",
      "note": 88,
      "velocity": 68,
      "vel": 0.543307,
      "time": 59.032140000236126
    },
    {
      "absoluteTicks": 58560,
      "channel": 13,
      "type": "noteOn",
      "note": 83,
      "velocity": 68,
      "vel": 0.543307,
      "time": 59.032140000236126
    },
    {
      "absoluteTicks": 58560,
      "channel": 13,
      "type": "noteOff",
      "note": 102,
      "velocity": 97,
      "rel": 0.76378,
      "time": 59.032140000236126
    },
    {
      "absoluteTicks": 58560,
      "channel": 13,
      "type": "noteOff",
      "note": 99,
      "velocity": 97,
      "rel": 0.76378,
      "time": 59.032140000236126
    },
    {
      "absoluteTicks": 58560,
      "channel": 13,
      "type": "noteOff",
      "note": 93,
      "velocity": 97,
      "rel": 0.76378,
      "time": 59.032140000236126
    },
    {
      "absoluteTicks": 58800,
      "channel": 13,
      "type": "noteOn",
      "note": 103,
      "velocity": 98,
      "vel": 0.771654,
      "time": 59.2740750002371
    },
    {
      "absoluteTicks": 58800,
      "channel": 13,
      "type": "noteOn",
      "note": 100,
      "velocity": 98,
      "vel": 0.771654,
      "time": 59.2740750002371
    },
    {
      "absoluteTicks": 58800,
      "channel": 13,
      "type": "noteOn",
      "note": 95,
      "velocity": 98,
      "vel": 0.771654,
      "time": 59.2740750002371
    },
    {
      "absoluteTicks": 58800,
      "channel": 13,
      "type": "noteOff",
      "note": 91,
      "velocity": 68,
      "rel": 0.543307,
      "time": 59.2740750002371
    },
    {
      "absoluteTicks": 58800,
      "channel": 13,
      "type": "noteOff",
      "note": 88,
      "velocity": 68,
      "rel": 0.543307,
      "time": 59.2740750002371
    },
    {
      "absoluteTicks": 58800,
      "channel": 13,
      "type": "noteOff",
      "note": 83,
      "velocity": 68,
      "rel": 0.543307,
      "time": 59.2740750002371
    },
    {
      "absoluteTicks": 59040,
      "channel": 13,
      "type": "noteOff",
      "note": 103,
      "velocity": 98,
      "rel": 0.771654,
      "time": 59.51601000023806
    },
    {
      "absoluteTicks": 59040,
      "channel": 13,
      "type": "noteOff",
      "note": 100,
      "velocity": 98,
      "rel": 0.771654,
      "time": 59.51601000023806
    },
    {
      "absoluteTicks": 59040,
      "channel": 13,
      "type": "noteOff",
      "note": 95,
      "velocity": 98,
      "rel": 0.771654,
      "time": 59.51601000023806
    },
    {
      "absoluteTicks": 59280,
      "channel": 13,
      "type": "noteOn",
      "note": 103,
      "velocity": 72,
      "vel": 0.574803,
      "time": 59.75794500023903
    },
    {
      "absoluteTicks": 59280,
      "channel": 13,
      "type": "noteOn",
      "note": 100,
      "velocity": 72,
      "vel": 0.574803,
      "time": 59.75794500023903
    },
    {
      "absoluteTicks": 59280,
      "channel": 13,
      "type": "noteOn",
      "note": 95,
      "velocity": 72,
      "vel": 0.574803,
      "time": 59.75794500023903
    },
    {
      "absoluteTicks": 59280,
      "channel": 13,
      "type": "noteOn",
      "note": 91,
      "velocity": 70,
      "vel": 0.559055,
      "time": 59.75794500023903
    },
    {
      "absoluteTicks": 59280,
      "channel": 13,
      "type": "noteOn",
      "note": 88,
      "velocity": 70,
      "vel": 0.559055,
      "time": 59.75794500023903
    },
    {
      "absoluteTicks": 59280,
      "channel": 13,
      "type": "noteOn",
      "note": 83,
      "velocity": 70,
      "vel": 0.559055,
      "time": 59.75794500023903
    },
    {
      "absoluteTicks": 59520,
      "channel": 13,
      "type": "noteOn",
      "note": 105,
      "velocity": 84,
      "vel": 0.669291,
      "time": 59.99988000024
    },
    {
      "absoluteTicks": 59520,
      "channel": 13,
      "type": "noteOn",
      "note": 100,
      "velocity": 84,
      "vel": 0.669291,
      "time": 59.99988000024
    },
    {
      "absoluteTicks": 59520,
      "channel": 13,
      "type": "noteOn",
      "note": 96,
      "velocity": 84,
      "vel": 0.669291,
      "time": 59.99988000024
    },
    {
      "absoluteTicks": 59520,
      "channel": 13,
      "type": "noteOn",
      "note": 93,
      "velocity": 87,
      "vel": 0.692913,
      "time": 59.99988000024
    },
    {
      "absoluteTicks": 59520,
      "channel": 13,
      "type": "noteOn",
      "note": 88,
      "velocity": 87,
      "vel": 0.692913,
      "time": 59.99988000024
    },
    {
      "absoluteTicks": 59520,
      "channel": 13,
      "type": "noteOn",
      "note": 84,
      "velocity": 87,
      "vel": 0.692913,
      "time": 59.99988000024
    },
    {
      "absoluteTicks": 59520,
      "channel": 13,
      "type": "noteOff",
      "note": 103,
      "velocity": 72,
      "rel": 0.574803,
      "time": 59.99988000024
    },
    {
      "absoluteTicks": 59520,
      "channel": 13,
      "type": "noteOff",
      "note": 100,
      "velocity": 72,
      "rel": 0.574803,
      "time": 59.99988000024
    },
    {
      "absoluteTicks": 59520,
      "channel": 13,
      "type": "noteOff",
      "note": 95,
      "velocity": 72,
      "rel": 0.574803,
      "time": 59.99988000024
    },
    {
      "absoluteTicks": 59520,
      "channel": 13,
      "type": "noteOff",
      "note": 91,
      "velocity": 70,
      "rel": 0.559055,
      "time": 59.99988000024
    },
    {
      "absoluteTicks": 59520,
      "channel": 13,
      "type": "noteOff",
      "note": 88,
      "velocity": 70,
      "rel": 0.559055,
      "time": 59.99988000024
    },
    {
      "absoluteTicks": 59520,
      "channel": 13,
      "type": "noteOff",
      "note": 83,
      "velocity": 70,
      "rel": 0.559055,
      "time": 59.99988000024
    },
    {
      "absoluteTicks": 59760,
      "channel": 13,
      "type": "noteOn",
      "note": 105,
      "velocity": 79,
      "vel": 0.629921,
      "time": 60.24181500024097
    },
    {
      "absoluteTicks": 59760,
      "channel": 13,
      "type": "noteOn",
      "note": 100,
      "velocity": 79,
      "vel": 0.629921,
      "time": 60.24181500024097
    },
    {
      "absoluteTicks": 59760,
      "channel": 13,
      "type": "noteOn",
      "note": 96,
      "velocity": 79,
      "vel": 0.629921,
      "time": 60.24181500024097
    },
    {
      "absoluteTicks": 59760,
      "channel": 13,
      "type": "noteOn",
      "note": 93,
      "velocity": 77,
      "vel": 0.614173,
      "time": 60.24181500024097
    },
    {
      "absoluteTicks": 59760,
      "channel": 13,
      "type": "noteOn",
      "note": 88,
      "velocity": 77,
      "vel": 0.614173,
      "time": 60.24181500024097
    },
    {
      "absoluteTicks": 59760,
      "channel": 13,
      "type": "noteOn",
      "note": 84,
      "velocity": 77,
      "vel": 0.614173,
      "time": 60.24181500024097
    },
    {
      "absoluteTicks": 59760,
      "channel": 13,
      "type": "noteOff",
      "note": 105,
      "velocity": 84,
      "rel": 0.669291,
      "time": 60.24181500024097
    },
    {
      "absoluteTicks": 59760,
      "channel": 13,
      "type": "noteOff",
      "note": 100,
      "velocity": 84,
      "rel": 0.669291,
      "time": 60.24181500024097
    },
    {
      "absoluteTicks": 59760,
      "channel": 13,
      "type": "noteOff",
      "note": 96,
      "velocity": 84,
      "rel": 0.669291,
      "time": 60.24181500024097
    },
    {
      "absoluteTicks": 59760,
      "channel": 13,
      "type": "noteOff",
      "note": 93,
      "velocity": 87,
      "rel": 0.692913,
      "time": 60.24181500024097
    },
    {
      "absoluteTicks": 59760,
      "channel": 13,
      "type": "noteOff",
      "note": 88,
      "velocity": 87,
      "rel": 0.692913,
      "time": 60.24181500024097
    },
    {
      "absoluteTicks": 59760,
      "channel": 13,
      "type": "noteOff",
      "note": 84,
      "velocity": 87,
      "rel": 0.692913,
      "time": 60.24181500024097
    },
    {
      "absoluteTicks": 60000,
      "channel": 13,
      "type": "noteOff",
      "note": 105,
      "velocity": 79,
      "rel": 0.629921,
      "time": 60.48375000024193
    },
    {
      "absoluteTicks": 60000,
      "channel": 13,
      "type": "noteOff",
      "note": 100,
      "velocity": 79,
      "rel": 0.629921,
      "time": 60.48375000024193
    },
    {
      "absoluteTicks": 60000,
      "channel": 13,
      "type": "noteOff",
      "note": 96,
      "velocity": 79,
      "rel": 0.629921,
      "time": 60.48375000024193
    },
    {
      "absoluteTicks": 60000,
      "channel": 13,
      "type": "noteOff",
      "note": 93,
      "velocity": 77,
      "rel": 0.614173,
      "time": 60.48375000024193
    },
    {
      "absoluteTicks": 60000,
      "channel": 13,
      "type": "noteOff",
      "note": 88,
      "velocity": 77,
      "rel": 0.614173,
      "time": 60.48375000024193
    },
    {
      "absoluteTicks": 60000,
      "channel": 13,
      "type": "noteOff",
      "note": 84,
      "velocity": 77,
      "rel": 0.614173,
      "time": 60.48375000024193
    },
    {
      "absoluteTicks": 60240,
      "channel": 13,
      "type": "noteOn",
      "note": 105,
      "velocity": 70,
      "vel": 0.559055,
      "time": 60.725685000242905
    },
    {
      "absoluteTicks": 60240,
      "channel": 13,
      "type": "noteOn",
      "note": 100,
      "velocity": 70,
      "vel": 0.559055,
      "time": 60.725685000242905
    },
    {
      "absoluteTicks": 60240,
      "channel": 13,
      "type": "noteOn",
      "note": 96,
      "velocity": 70,
      "vel": 0.559055,
      "time": 60.725685000242905
    },
    {
      "absoluteTicks": 60240,
      "channel": 13,
      "type": "noteOn",
      "note": 93,
      "velocity": 69,
      "vel": 0.551181,
      "time": 60.725685000242905
    },
    {
      "absoluteTicks": 60240,
      "channel": 13,
      "type": "noteOn",
      "note": 88,
      "velocity": 69,
      "vel": 0.551181,
      "time": 60.725685000242905
    },
    {
      "absoluteTicks": 60240,
      "channel": 13,
      "type": "noteOn",
      "note": 84,
      "velocity": 69,
      "vel": 0.551181,
      "time": 60.725685000242905
    },
    {
      "absoluteTicks": 60480,
      "channel": 13,
      "type": "noteOn",
      "note": 107,
      "velocity": 81,
      "vel": 0.645669,
      "time": 60.96762000024387
    },
    {
      "absoluteTicks": 60480,
      "channel": 13,
      "type": "noteOn",
      "note": 102,
      "velocity": 81,
      "vel": 0.645669,
      "time": 60.96762000024387
    },
    {
      "absoluteTicks": 60480,
      "channel": 13,
      "type": "noteOn",
      "note": 99,
      "velocity": 81,
      "vel": 0.645669,
      "time": 60.96762000024387
    },
    {
      "absoluteTicks": 60480,
      "channel": 13,
      "type": "noteOn",
      "note": 95,
      "velocity": 81,
      "vel": 0.645669,
      "time": 60.96762000024387
    },
    {
      "absoluteTicks": 60480,
      "channel": 13,
      "type": "noteOn",
      "note": 90,
      "velocity": 74,
      "vel": 0.590551,
      "time": 60.96762000024387
    },
    {
      "absoluteTicks": 60480,
      "channel": 13,
      "type": "noteOn",
      "note": 87,
      "velocity": 74,
      "vel": 0.590551,
      "time": 60.96762000024387
    },
    {
      "absoluteTicks": 60480,
      "channel": 13,
      "type": "noteOn",
      "note": 83,
      "velocity": 74,
      "vel": 0.590551,
      "time": 60.96762000024387
    },
    {
      "absoluteTicks": 60480,
      "channel": 13,
      "type": "noteOff",
      "note": 105,
      "velocity": 70,
      "rel": 0.559055,
      "time": 60.96762000024387
    },
    {
      "absoluteTicks": 60480,
      "channel": 13,
      "type": "noteOff",
      "note": 100,
      "velocity": 70,
      "rel": 0.559055,
      "time": 60.96762000024387
    },
    {
      "absoluteTicks": 60480,
      "channel": 13,
      "type": "noteOff",
      "note": 96,
      "velocity": 70,
      "rel": 0.559055,
      "time": 60.96762000024387
    },
    {
      "absoluteTicks": 60480,
      "channel": 13,
      "type": "noteOff",
      "note": 93,
      "velocity": 69,
      "rel": 0.551181,
      "time": 60.96762000024387
    },
    {
      "absoluteTicks": 60480,
      "channel": 13,
      "type": "noteOff",
      "note": 88,
      "velocity": 69,
      "rel": 0.551181,
      "time": 60.96762000024387
    },
    {
      "absoluteTicks": 60480,
      "channel": 13,
      "type": "noteOff",
      "note": 84,
      "velocity": 69,
      "rel": 0.551181,
      "time": 60.96762000024387
    },
    {
      "absoluteTicks": 60960,
      "channel": 13,
      "type": "noteOn",
      "note": 74,
      "velocity": 56,
      "vel": 0.440945,
      "time": 61.605917505902745
    },
    {
      "absoluteTicks": 60960,
      "channel": 13,
      "type": "noteOff",
      "note": 107,
      "velocity": 81,
      "rel": 0.645669,
      "time": 61.605917505902745
    },
    {
      "absoluteTicks": 60960,
      "channel": 13,
      "type": "noteOff",
      "note": 102,
      "velocity": 81,
      "rel": 0.645669,
      "time": 61.605917505902745
    },
    {
      "absoluteTicks": 60960,
      "channel": 13,
      "type": "noteOff",
      "note": 99,
      "velocity": 81,
      "rel": 0.645669,
      "time": 61.605917505902745
    },
    {
      "absoluteTicks": 60960,
      "channel": 13,
      "type": "noteOff",
      "note": 95,
      "velocity": 81,
      "rel": 0.645669,
      "time": 61.605917505902745
    },
    {
      "absoluteTicks": 60960,
      "channel": 13,
      "type": "noteOff",
      "note": 90,
      "velocity": 74,
      "rel": 0.590551,
      "time": 61.605917505902745
    },
    {
      "absoluteTicks": 60960,
      "channel": 13,
      "type": "noteOff",
      "note": 87,
      "velocity": 74,
      "rel": 0.590551,
      "time": 61.605917505902745
    },
    {
      "absoluteTicks": 60960,
      "channel": 13,
      "type": "noteOff",
      "note": 83,
      "velocity": 74,
      "rel": 0.590551,
      "time": 61.605917505902745
    },
    {
      "absoluteTicks": 61020,
      "channel": 13,
      "type": "noteOn",
      "note": 78,
      "velocity": 84,
      "vel": 0.669291,
      "time": 61.68570469411011
    },
    {
      "absoluteTicks": 61020,
      "channel": 13,
      "type": "noteOff",
      "note": 74,
      "velocity": 56,
      "rel": 0.440945,
      "time": 61.68570469411011
    },
    {
      "absoluteTicks": 61080,
      "channel": 13,
      "type": "noteOn",
      "note": 81,
      "velocity": 85,
      "vel": 0.677165,
      "time": 61.75514913212451
    },
    {
      "absoluteTicks": 61080,
      "channel": 13,
      "type": "noteOff",
      "note": 78,
      "velocity": 84,
      "rel": 0.669291,
      "time": 61.75514913212451
    },
    {
      "absoluteTicks": 61140,
      "channel": 13,
      "type": "noteOn",
      "note": 84,
      "velocity": 85,
      "vel": 0.677165,
      "time": 61.824593570138916
    },
    {
      "absoluteTicks": 61140,
      "channel": 13,
      "type": "noteOff",
      "note": 81,
      "velocity": 85,
      "rel": 0.677165,
      "time": 61.824593570138916
    },
    {
      "absoluteTicks": 61200,
      "channel": 13,
      "type": "noteOn",
      "note": 86,
      "velocity": 87,
      "vel": 0.692913,
      "time": 61.894038008153316
    },
    {
      "absoluteTicks": 61200,
      "channel": 13,
      "type": "noteOff",
      "note": 84,
      "velocity": 85,
      "rel": 0.677165,
      "time": 61.894038008153316
    },
    {
      "absoluteTicks": 61260,
      "channel": 13,
      "type": "noteOn",
      "note": 90,
      "velocity": 89,
      "vel": 0.708661,
      "time": 61.963482446167724
    },
    {
      "absoluteTicks": 61260,
      "channel": 13,
      "type": "noteOff",
      "note": 86,
      "velocity": 87,
      "rel": 0.692913,
      "time": 61.963482446167724
    },
    {
      "absoluteTicks": 61320,
      "channel": 13,
      "type": "noteOn",
      "note": 93,
      "velocity": 89,
      "vel": 0.708661,
      "time": 62.032926884182125
    },
    {
      "absoluteTicks": 61320,
      "channel": 13,
      "type": "noteOff",
      "note": 90,
      "velocity": 89,
      "rel": 0.708661,
      "time": 62.032926884182125
    },
    {
      "absoluteTicks": 61380,
      "channel": 13,
      "type": "noteOn",
      "note": 96,
      "velocity": 87,
      "vel": 0.692913,
      "time": 62.10237132219653
    },
    {
      "absoluteTicks": 61380,
      "channel": 13,
      "type": "noteOff",
      "note": 93,
      "velocity": 89,
      "rel": 0.708661,
      "time": 62.10237132219653
    },
    {
      "absoluteTicks": 61436,
      "channel": 13,
      "type": "noteOff",
      "note": 96,
      "velocity": 87,
      "rel": 0.692913,
      "time": 62.16747576061279
    },
    {
      "absoluteTicks": 61440,
      "channel": 13,
      "type": "noteOn",
      "note": 75,
      "velocity": 59,
      "vel": 0.464567,
      "time": 62.17181576021093
    },
    {
      "absoluteTicks": 61500,
      "channel": 13,
      "type": "noteOn",
      "note": 78,
      "velocity": 81,
      "vel": 0.645669,
      "time": 62.24126019822534
    },
    {
      "absoluteTicks": 61500,
      "channel": 13,
      "type": "noteOff",
      "note": 75,
      "velocity": 59,
      "rel": 0.464567,
      "time": 62.24126019822534
    },
    {
      "absoluteTicks": 61560,
      "channel": 13,
      "type": "noteOn",
      "note": 81,
      "velocity": 88,
      "vel": 0.700787,
      "time": 62.31070463623974
    },
    {
      "absoluteTicks": 61560,
      "channel": 13,
      "type": "noteOff",
      "note": 78,
      "velocity": 81,
      "rel": 0.645669,
      "time": 62.31070463623974
    },
    {
      "absoluteTicks": 61620,
      "channel": 13,
      "type": "noteOn",
      "note": 83,
      "velocity": 86,
      "vel": 0.685039,
      "time": 62.38014907425415
    },
    {
      "absoluteTicks": 61620,
      "channel": 13,
      "type": "noteOff",
      "note": 81,
      "velocity": 88,
      "rel": 0.700787,
      "time": 62.38014907425415
    },
    {
      "absoluteTicks": 61680,
      "channel": 13,
      "type": "noteOn",
      "note": 87,
      "velocity": 91,
      "vel": 0.724409,
      "time": 62.44959351226855
    },
    {
      "absoluteTicks": 61680,
      "channel": 13,
      "type": "noteOff",
      "note": 83,
      "velocity": 86,
      "rel": 0.685039,
      "time": 62.44959351226855
    },
    {
      "absoluteTicks": 61740,
      "channel": 13,
      "type": "noteOn",
      "note": 90,
      "velocity": 84,
      "vel": 0.669291,
      "time": 62.51903795028296
    },
    {
      "absoluteTicks": 61740,
      "channel": 13,
      "type": "noteOff",
      "note": 87,
      "velocity": 91,
      "rel": 0.724409,
      "time": 62.51903795028296
    },
    {
      "absoluteTicks": 61800,
      "channel": 13,
      "type": "noteOn",
      "note": 93,
      "velocity": 84,
      "vel": 0.669291,
      "time": 62.58848238829736
    },
    {
      "absoluteTicks": 61800,
      "channel": 13,
      "type": "noteOff",
      "note": 90,
      "velocity": 84,
      "rel": 0.669291,
      "time": 62.58848238829736
    },
    {
      "absoluteTicks": 61860,
      "channel": 13,
      "type": "noteOn",
      "note": 95,
      "velocity": 89,
      "vel": 0.708661,
      "time": 62.657926826311765
    },
    {
      "absoluteTicks": 61860,
      "channel": 13,
      "type": "noteOff",
      "note": 93,
      "velocity": 84,
      "rel": 0.669291,
      "time": 62.657926826311765
    },
    {
      "absoluteTicks": 61916,
      "channel": 13,
      "type": "noteOff",
      "note": 95,
      "velocity": 89,
      "rel": 0.708661,
      "time": 62.723031264728014
    },
    {
      "absoluteTicks": 61920,
      "channel": 13,
      "type": "noteOn",
      "note": 74,
      "velocity": 56,
      "vel": 0.440945,
      "time": 62.727371264326166
    },
    {
      "absoluteTicks": 61980,
      "channel": 13,
      "type": "noteOn",
      "note": 78,
      "velocity": 86,
      "vel": 0.685039,
      "time": 62.79681570234057
    },
    {
      "absoluteTicks": 61980,
      "channel": 13,
      "type": "noteOff",
      "note": 74,
      "velocity": 56,
      "rel": 0.440945,
      "time": 62.79681570234057
    },
    {
      "absoluteTicks": 62040,
      "channel": 13,
      "type": "noteOn",
      "note": 81,
      "velocity": 84,
      "vel": 0.669291,
      "time": 62.866260140354974
    },
    {
      "absoluteTicks": 62040,
      "channel": 13,
      "type": "noteOff",
      "note": 78,
      "velocity": 86,
      "rel": 0.685039,
      "time": 62.866260140354974
    },
    {
      "absoluteTicks": 62100,
      "channel": 13,
      "type": "noteOn",
      "note": 84,
      "velocity": 87,
      "vel": 0.692913,
      "time": 62.935704578369375
    },
    {
      "absoluteTicks": 62100,
      "channel": 13,
      "type": "noteOff",
      "note": 81,
      "velocity": 84,
      "rel": 0.669291,
      "time": 62.935704578369375
    },
    {
      "absoluteTicks": 62160,
      "channel": 13,
      "type": "noteOn",
      "note": 86,
      "velocity": 88,
      "vel": 0.700787,
      "time": 63.00514901638378
    },
    {
      "absoluteTicks": 62160,
      "channel": 13,
      "type": "noteOff",
      "note": 84,
      "velocity": 87,
      "rel": 0.692913,
      "time": 63.00514901638378
    },
    {
      "absoluteTicks": 62220,
      "channel": 13,
      "type": "noteOn",
      "note": 90,
      "velocity": 92,
      "vel": 0.732283,
      "time": 63.07459345439818
    },
    {
      "absoluteTicks": 62220,
      "channel": 13,
      "type": "noteOff",
      "note": 86,
      "velocity": 88,
      "rel": 0.700787,
      "time": 63.07459345439818
    },
    {
      "absoluteTicks": 62280,
      "channel": 13,
      "type": "noteOn",
      "note": 93,
      "velocity": 87,
      "vel": 0.692913,
      "time": 63.14403789241259
    },
    {
      "absoluteTicks": 62280,
      "channel": 13,
      "type": "noteOff",
      "note": 90,
      "velocity": 92,
      "rel": 0.732283,
      "time": 63.14403789241259
    },
    {
      "absoluteTicks": 62340,
      "channel": 13,
      "type": "noteOn",
      "note": 96,
      "velocity": 85,
      "vel": 0.677165,
      "time": 63.21348233042699
    },
    {
      "absoluteTicks": 62340,
      "channel": 13,
      "type": "noteOff",
      "note": 93,
      "velocity": 87,
      "rel": 0.692913,
      "time": 63.21348233042699
    },
    {
      "absoluteTicks": 62396,
      "channel": 13,
      "type": "noteOff",
      "note": 96,
      "velocity": 85,
      "rel": 0.677165,
      "time": 63.27858676884325
    },
    {
      "absoluteTicks": 62400,
      "channel": 13,
      "type": "noteOn",
      "note": 75,
      "velocity": 59,
      "vel": 0.464567,
      "time": 63.2829267684414
    },
    {
      "absoluteTicks": 62460,
      "channel": 13,
      "type": "noteOn",
      "note": 78,
      "velocity": 82,
      "vel": 0.653543,
      "time": 63.3523712064558
    },
    {
      "absoluteTicks": 62460,
      "channel": 13,
      "type": "noteOff",
      "note": 75,
      "velocity": 59,
      "rel": 0.464567,
      "time": 63.3523712064558
    },
    {
      "absoluteTicks": 62520,
      "channel": 13,
      "type": "noteOn",
      "note": 81,
      "velocity": 84,
      "vel": 0.669291,
      "time": 63.42181564447021
    },
    {
      "absoluteTicks": 62520,
      "channel": 13,
      "type": "noteOff",
      "note": 78,
      "velocity": 82,
      "rel": 0.653543,
      "time": 63.42181564447021
    },
    {
      "absoluteTicks": 62580,
      "channel": 13,
      "type": "noteOn",
      "note": 83,
      "velocity": 85,
      "vel": 0.677165,
      "time": 63.49126008248461
    },
    {
      "absoluteTicks": 62580,
      "channel": 13,
      "type": "noteOff",
      "note": 81,
      "velocity": 84,
      "rel": 0.669291,
      "time": 63.49126008248461
    },
    {
      "absoluteTicks": 62640,
      "channel": 13,
      "type": "noteOn",
      "note": 87,
      "velocity": 87,
      "vel": 0.692913,
      "time": 63.560704520499016
    },
    {
      "absoluteTicks": 62640,
      "channel": 13,
      "type": "noteOff",
      "note": 83,
      "velocity": 85,
      "rel": 0.677165,
      "time": 63.560704520499016
    },
    {
      "absoluteTicks": 62700,
      "channel": 13,
      "type": "noteOn",
      "note": 90,
      "velocity": 87,
      "vel": 0.692913,
      "time": 63.630148958513416
    },
    {
      "absoluteTicks": 62700,
      "channel": 13,
      "type": "noteOff",
      "note": 87,
      "velocity": 87,
      "rel": 0.692913,
      "time": 63.630148958513416
    },
    {
      "absoluteTicks": 62760,
      "channel": 13,
      "type": "noteOn",
      "note": 93,
      "velocity": 88,
      "vel": 0.700787,
      "time": 63.69959339652782
    },
    {
      "absoluteTicks": 62760,
      "channel": 13,
      "type": "noteOff",
      "note": 90,
      "velocity": 87,
      "rel": 0.692913,
      "time": 63.69959339652782
    },
    {
      "absoluteTicks": 62820,
      "channel": 13,
      "type": "noteOn",
      "note": 95,
      "velocity": 89,
      "vel": 0.708661,
      "time": 63.769037834542225
    },
    {
      "absoluteTicks": 62820,
      "channel": 13,
      "type": "noteOff",
      "note": 93,
      "velocity": 88,
      "rel": 0.700787,
      "time": 63.769037834542225
    },
    {
      "absoluteTicks": 62876,
      "channel": 13,
      "type": "noteOff",
      "note": 95,
      "velocity": 89,
      "rel": 0.708661,
      "time": 63.83414227295848
    },
    {
      "absoluteTicks": 62880,
      "channel": 13,
      "type": "noteOn",
      "note": 77,
      "velocity": 58,
      "vel": 0.456693,
      "time": 63.838482272556625
    },
    {
      "absoluteTicks": 62940,
      "channel": 13,
      "type": "noteOn",
      "note": 81,
      "velocity": 87,
      "vel": 0.692913,
      "time": 63.90792671057103
    },
    {
      "absoluteTicks": 62940,
      "channel": 13,
      "type": "noteOff",
      "note": 77,
      "velocity": 58,
      "rel": 0.456693,
      "time": 63.90792671057103
    },
    {
      "absoluteTicks": 63000,
      "channel": 13,
      "type": "noteOn",
      "note": 84,
      "velocity": 87,
      "vel": 0.692913,
      "time": 63.97737114858543
    },
    {
      "absoluteTicks": 63000,
      "channel": 13,
      "type": "noteOff",
      "note": 81,
      "velocity": 87,
      "rel": 0.692913,
      "time": 63.97737114858543
    },
    {
      "absoluteTicks": 63060,
      "channel": 13,
      "type": "noteOn",
      "note": 88,
      "velocity": 93,
      "vel": 0.740157,
      "time": 64.04681558659983
    },
    {
      "absoluteTicks": 63060,
      "channel": 13,
      "type": "noteOff",
      "note": 84,
      "velocity": 87,
      "rel": 0.692913,
      "time": 64.04681558659983
    },
    {
      "absoluteTicks": 63120,
      "channel": 13,
      "type": "noteOn",
      "note": 89,
      "velocity": 82,
      "vel": 0.653543,
      "time": 64.11626002461425
    },
    {
      "absoluteTicks": 63120,
      "channel": 13,
      "type": "noteOff",
      "note": 88,
      "velocity": 93,
      "rel": 0.740157,
      "time": 64.11626002461425
    },
    {
      "absoluteTicks": 63180,
      "channel": 13,
      "type": "noteOn",
      "note": 93,
      "velocity": 89,
      "vel": 0.708661,
      "time": 64.18570446262865
    },
    {
      "absoluteTicks": 63180,
      "channel": 13,
      "type": "noteOff",
      "note": 89,
      "velocity": 82,
      "rel": 0.653543,
      "time": 64.18570446262865
    },
    {
      "absoluteTicks": 63240,
      "channel": 13,
      "type": "noteOn",
      "note": 96,
      "velocity": 88,
      "vel": 0.700787,
      "time": 64.25514890064305
    },
    {
      "absoluteTicks": 63240,
      "channel": 13,
      "type": "noteOff",
      "note": 93,
      "velocity": 89,
      "rel": 0.708661,
      "time": 64.25514890064305
    },
    {
      "absoluteTicks": 63300,
      "channel": 13,
      "type": "noteOn",
      "note": 100,
      "velocity": 88,
      "vel": 0.700787,
      "time": 64.32459333865745
    },
    {
      "absoluteTicks": 63300,
      "channel": 13,
      "type": "noteOff",
      "note": 96,
      "velocity": 88,
      "rel": 0.700787,
      "time": 64.32459333865745
    },
    {
      "absoluteTicks": 63356,
      "channel": 13,
      "type": "noteOff",
      "note": 100,
      "velocity": 88,
      "rel": 0.700787,
      "time": 64.3896977770737
    },
    {
      "absoluteTicks": 63360,
      "channel": 13,
      "type": "noteOn",
      "note": 78,
      "velocity": 59,
      "vel": 0.464567,
      "time": 64.39403777667187
    },
    {
      "absoluteTicks": 63420,
      "channel": 13,
      "type": "noteOn",
      "note": 81,
      "velocity": 88,
      "vel": 0.700787,
      "time": 64.46348221468627
    },
    {
      "absoluteTicks": 63420,
      "channel": 13,
      "type": "noteOff",
      "note": 78,
      "velocity": 59,
      "rel": 0.464567,
      "time": 64.46348221468627
    },
    {
      "absoluteTicks": 63480,
      "channel": 13,
      "type": "noteOn",
      "note": 84,
      "velocity": 82,
      "vel": 0.653543,
      "time": 64.53292665270067
    },
    {
      "absoluteTicks": 63480,
      "channel": 13,
      "type": "noteOff",
      "note": 81,
      "velocity": 88,
      "rel": 0.700787,
      "time": 64.53292665270067
    },
    {
      "absoluteTicks": 63540,
      "channel": 13,
      "type": "noteOn",
      "note": 87,
      "velocity": 90,
      "vel": 0.716535,
      "time": 64.60237109071507
    },
    {
      "absoluteTicks": 63540,
      "channel": 13,
      "type": "noteOff",
      "note": 84,
      "velocity": 82,
      "rel": 0.653543,
      "time": 64.60237109071507
    },
    {
      "absoluteTicks": 63600,
      "channel": 13,
      "type": "noteOn",
      "note": 90,
      "velocity": 81,
      "vel": 0.645669,
      "time": 64.67181552872947
    },
    {
      "absoluteTicks": 63600,
      "channel": 13,
      "type": "noteOff",
      "note": 87,
      "velocity": 90,
      "rel": 0.716535,
      "time": 64.67181552872947
    },
    {
      "absoluteTicks": 63660,
      "channel": 13,
      "type": "noteOn",
      "note": 93,
      "velocity": 88,
      "vel": 0.700787,
      "time": 64.74125996674388
    },
    {
      "absoluteTicks": 63660,
      "channel": 13,
      "type": "noteOff",
      "note": 90,
      "velocity": 81,
      "rel": 0.645669,
      "time": 64.74125996674388
    },
    {
      "absoluteTicks": 63720,
      "channel": 13,
      "type": "noteOn",
      "note": 96,
      "velocity": 83,
      "vel": 0.661417,
      "time": 64.81070440475828
    },
    {
      "absoluteTicks": 63720,
      "channel": 13,
      "type": "noteOff",
      "note": 93,
      "velocity": 88,
      "rel": 0.700787,
      "time": 64.81070440475828
    },
    {
      "absoluteTicks": 63780,
      "channel": 13,
      "type": "noteOn",
      "note": 99,
      "velocity": 86,
      "vel": 0.685039,
      "time": 64.88014884277268
    },
    {
      "absoluteTicks": 63780,
      "channel": 13,
      "type": "noteOff",
      "note": 96,
      "velocity": 83,
      "rel": 0.661417,
      "time": 64.88014884277268
    },
    {
      "absoluteTicks": 63836,
      "channel": 13,
      "type": "noteOff",
      "note": 99,
      "velocity": 86,
      "rel": 0.685039,
      "time": 64.94525328118894
    },
    {
      "absoluteTicks": 63840,
      "channel": 13,
      "type": "noteOn",
      "note": 77,
      "velocity": 61,
      "vel": 0.480315,
      "time": 64.94959328078708
    },
    {
      "absoluteTicks": 63900,
      "channel": 13,
      "type": "noteOn",
      "note": 81,
      "velocity": 84,
      "vel": 0.669291,
      "time": 65.0190377188015
    },
    {
      "absoluteTicks": 63900,
      "channel": 13,
      "type": "noteOff",
      "note": 77,
      "velocity": 61,
      "rel": 0.480315,
      "time": 65.0190377188015
    },
    {
      "absoluteTicks": 63960,
      "channel": 13,
      "type": "noteOn",
      "note": 84,
      "velocity": 88,
      "vel": 0.700787,
      "time": 65.0884821568159
    },
    {
      "absoluteTicks": 63960,
      "channel": 13,
      "type": "noteOff",
      "note": 81,
      "velocity": 84,
      "rel": 0.669291,
      "time": 65.0884821568159
    },
    {
      "absoluteTicks": 64020,
      "channel": 13,
      "type": "noteOn",
      "note": 88,
      "velocity": 88,
      "vel": 0.700787,
      "time": 65.1579265948303
    },
    {
      "absoluteTicks": 64020,
      "channel": 13,
      "type": "noteOff",
      "note": 84,
      "velocity": 88,
      "rel": 0.700787,
      "time": 65.1579265948303
    },
    {
      "absoluteTicks": 64080,
      "channel": 13,
      "type": "noteOn",
      "note": 89,
      "velocity": 86,
      "vel": 0.685039,
      "time": 65.2273710328447
    },
    {
      "absoluteTicks": 64080,
      "channel": 13,
      "type": "noteOff",
      "note": 88,
      "velocity": 88,
      "rel": 0.700787,
      "time": 65.2273710328447
    },
    {
      "absoluteTicks": 64140,
      "channel": 13,
      "type": "noteOn",
      "note": 93,
      "velocity": 89,
      "vel": 0.708661,
      "time": 65.29681547085912
    },
    {
      "absoluteTicks": 64140,
      "channel": 13,
      "type": "noteOff",
      "note": 89,
      "velocity": 86,
      "rel": 0.685039,
      "time": 65.29681547085912
    },
    {
      "absoluteTicks": 64200,
      "channel": 13,
      "type": "noteOn",
      "note": 96,
      "velocity": 89,
      "vel": 0.708661,
      "time": 65.36625990887352
    },
    {
      "absoluteTicks": 64200,
      "channel": 13,
      "type": "noteOff",
      "note": 93,
      "velocity": 89,
      "rel": 0.708661,
      "time": 65.36625990887352
    },
    {
      "absoluteTicks": 64260,
      "channel": 13,
      "type": "noteOn",
      "note": 100,
      "velocity": 88,
      "vel": 0.700787,
      "time": 65.43570434688792
    },
    {
      "absoluteTicks": 64260,
      "channel": 13,
      "type": "noteOff",
      "note": 96,
      "velocity": 89,
      "rel": 0.708661,
      "time": 65.43570434688792
    },
    {
      "absoluteTicks": 64316,
      "channel": 13,
      "type": "noteOff",
      "note": 100,
      "velocity": 88,
      "rel": 0.700787,
      "time": 65.50080878530417
    },
    {
      "absoluteTicks": 64320,
      "channel": 13,
      "type": "noteOn",
      "note": 78,
      "velocity": 61,
      "vel": 0.480315,
      "time": 65.50514878490232
    },
    {
      "absoluteTicks": 64380,
      "channel": 13,
      "type": "noteOn",
      "note": 81,
      "velocity": 83,
      "vel": 0.661417,
      "time": 65.57459322291672
    },
    {
      "absoluteTicks": 64380,
      "channel": 13,
      "type": "noteOff",
      "note": 78,
      "velocity": 61,
      "rel": 0.480315,
      "time": 65.57459322291672
    },
    {
      "absoluteTicks": 64440,
      "channel": 13,
      "type": "noteOn",
      "note": 84,
      "velocity": 86,
      "vel": 0.685039,
      "time": 65.64403766093113
    },
    {
      "absoluteTicks": 64440,
      "channel": 13,
      "type": "noteOff",
      "note": 81,
      "velocity": 83,
      "rel": 0.661417,
      "time": 65.64403766093113
    },
    {
      "absoluteTicks": 64500,
      "channel": 13,
      "type": "noteOn",
      "note": 87,
      "velocity": 87,
      "vel": 0.692913,
      "time": 65.71348209894553
    },
    {
      "absoluteTicks": 64500,
      "channel": 13,
      "type": "noteOff",
      "note": 84,
      "velocity": 86,
      "rel": 0.685039,
      "time": 65.71348209894553
    },
    {
      "absoluteTicks": 64560,
      "channel": 13,
      "type": "noteOn",
      "note": 90,
      "velocity": 90,
      "vel": 0.716535,
      "time": 65.78292653695993
    },
    {
      "absoluteTicks": 64560,
      "channel": 13,
      "type": "noteOff",
      "note": 87,
      "velocity": 87,
      "rel": 0.692913,
      "time": 65.78292653695993
    },
    {
      "absoluteTicks": 64620,
      "channel": 13,
      "type": "noteOn",
      "note": 93,
      "velocity": 90,
      "vel": 0.716535,
      "time": 65.85237097497433
    },
    {
      "absoluteTicks": 64620,
      "channel": 13,
      "type": "noteOff",
      "note": 90,
      "velocity": 90,
      "rel": 0.716535,
      "time": 65.85237097497433
    },
    {
      "absoluteTicks": 64680,
      "channel": 13,
      "type": "noteOn",
      "note": 96,
      "velocity": 87,
      "vel": 0.692913,
      "time": 65.92181541298875
    },
    {
      "absoluteTicks": 64680,
      "channel": 13,
      "type": "noteOff",
      "note": 93,
      "velocity": 90,
      "rel": 0.716535,
      "time": 65.92181541298875
    },
    {
      "absoluteTicks": 64740,
      "channel": 13,
      "type": "noteOn",
      "note": 99,
      "velocity": 88,
      "vel": 0.700787,
      "time": 65.99125985100315
    },
    {
      "absoluteTicks": 64740,
      "channel": 13,
      "type": "noteOff",
      "note": 96,
      "velocity": 87,
      "rel": 0.692913,
      "time": 65.99125985100315
    },
    {
      "absoluteTicks": 64796,
      "channel": 13,
      "type": "noteOff",
      "note": 99,
      "velocity": 88,
      "rel": 0.700787,
      "time": 66.0563642894194
    },
    {
      "absoluteTicks": 64800,
      "channel": 13,
      "type": "noteOn",
      "note": 81,
      "velocity": 60,
      "vel": 0.472441,
      "time": 66.06070428901755
    },
    {
      "absoluteTicks": 64860,
      "channel": 13,
      "type": "noteOn",
      "note": 84,
      "velocity": 81,
      "vel": 0.645669,
      "time": 66.13014872703195
    },
    {
      "absoluteTicks": 64860,
      "channel": 13,
      "type": "noteOff",
      "note": 81,
      "velocity": 60,
      "rel": 0.472441,
      "time": 66.13014872703195
    },
    {
      "absoluteTicks": 64920,
      "channel": 13,
      "type": "noteOn",
      "note": 87,
      "velocity": 88,
      "vel": 0.700787,
      "time": 66.19959316504637
    },
    {
      "absoluteTicks": 64920,
      "channel": 13,
      "type": "noteOff",
      "note": 84,
      "velocity": 81,
      "rel": 0.645669,
      "time": 66.19959316504637
    },
    {
      "absoluteTicks": 64980,
      "channel": 13,
      "type": "noteOn",
      "note": 91,
      "velocity": 90,
      "vel": 0.716535,
      "time": 66.26903760306077
    },
    {
      "absoluteTicks": 64980,
      "channel": 13,
      "type": "noteOff",
      "note": 87,
      "velocity": 88,
      "rel": 0.700787,
      "time": 66.26903760306077
    },
    {
      "absoluteTicks": 65040,
      "channel": 13,
      "type": "noteOn",
      "note": 93,
      "velocity": 85,
      "vel": 0.677165,
      "time": 66.33848204107517
    },
    {
      "absoluteTicks": 65040,
      "channel": 13,
      "type": "noteOff",
      "note": 91,
      "velocity": 90,
      "rel": 0.716535,
      "time": 66.33848204107517
    },
    {
      "absoluteTicks": 65100,
      "channel": 13,
      "type": "noteOn",
      "note": 96,
      "velocity": 89,
      "vel": 0.708661,
      "time": 66.40792647908957
    },
    {
      "absoluteTicks": 65100,
      "channel": 13,
      "type": "noteOff",
      "note": 93,
      "velocity": 85,
      "rel": 0.677165,
      "time": 66.40792647908957
    },
    {
      "absoluteTicks": 65160,
      "channel": 13,
      "type": "noteOn",
      "note": 99,
      "velocity": 85,
      "vel": 0.677165,
      "time": 66.47737091710397
    },
    {
      "absoluteTicks": 65160,
      "channel": 13,
      "type": "noteOff",
      "note": 96,
      "velocity": 89,
      "rel": 0.708661,
      "time": 66.47737091710397
    },
    {
      "absoluteTicks": 65220,
      "channel": 13,
      "type": "noteOn",
      "note": 103,
      "velocity": 87,
      "vel": 0.692913,
      "time": 66.54681535511838
    },
    {
      "absoluteTicks": 65220,
      "channel": 13,
      "type": "noteOff",
      "note": 99,
      "velocity": 85,
      "rel": 0.677165,
      "time": 66.54681535511838
    },
    {
      "absoluteTicks": 65276,
      "channel": 13,
      "type": "noteOff",
      "note": 103,
      "velocity": 87,
      "rel": 0.692913,
      "time": 66.61191979353464
    },
    {
      "absoluteTicks": 65280,
      "channel": 13,
      "type": "noteOn",
      "note": 83,
      "velocity": 54,
      "vel": 0.425197,
      "time": 66.61625979313278
    },
    {
      "absoluteTicks": 65358,
      "channel": 13,
      "type": "noteOn",
      "note": 87,
      "velocity": 88,
      "vel": 0.700787,
      "time": 66.70740534024894
    },
    {
      "absoluteTicks": 65358,
      "channel": 13,
      "type": "noteOff",
      "note": 83,
      "velocity": 54,
      "rel": 0.425197,
      "time": 66.70740534024894
    },
    {
      "absoluteTicks": 65437,
      "channel": 13,
      "type": "noteOn",
      "note": 90,
      "velocity": 85,
      "vel": 0.677165,
      "time": 66.7985519984761
    },
    {
      "absoluteTicks": 65437,
      "channel": 13,
      "type": "noteOff",
      "note": 87,
      "velocity": 88,
      "rel": 0.700787,
      "time": 66.7985508873651
    },
    {
      "absoluteTicks": 65520,
      "channel": 13,
      "type": "noteOn",
      "note": 95,
      "velocity": 93,
      "vel": 0.740157,
      "time": 66.8940375451904
    },
    {
      "absoluteTicks": 65520,
      "channel": 13,
      "type": "noteOff",
      "note": 90,
      "velocity": 85,
      "rel": 0.677165,
      "time": 66.8940386563014
    },
    {
      "absoluteTicks": 65598,
      "channel": 13,
      "type": "noteOn",
      "note": 99,
      "velocity": 89,
      "vel": 0.708661,
      "time": 66.98518309230656
    },
    {
      "absoluteTicks": 65598,
      "channel": 13,
      "type": "noteOff",
      "note": 95,
      "velocity": 93,
      "rel": 0.740157,
      "time": 66.98518309230656
    },
    {
      "absoluteTicks": 65677,
      "channel": 13,
      "type": "noteOn",
      "note": 102,
      "velocity": 86,
      "vel": 0.685039,
      "time": 67.07632975053372
    },
    {
      "absoluteTicks": 65677,
      "channel": 13,
      "type": "noteOff",
      "note": 99,
      "velocity": 89,
      "rel": 0.708661,
      "time": 67.07632863942271
    },
    {
      "absoluteTicks": 65752,
      "channel": 13,
      "type": "noteOff",
      "note": 102,
      "velocity": 86,
      "rel": 0.685039,
      "time": 67.16313529805171
    },
    {
      "absoluteTicks": 65760,
      "channel": 13,
      "type": "noteOn",
      "note": 81,
      "velocity": 59,
      "vel": 0.464567,
      "time": 67.17181529724802
    },
    {
      "absoluteTicks": 65820,
      "channel": 13,
      "type": "noteOn",
      "note": 84,
      "velocity": 82,
      "vel": 0.653543,
      "time": 67.24125973526242
    },
    {
      "absoluteTicks": 65820,
      "channel": 13,
      "type": "noteOff",
      "note": 81,
      "velocity": 59,
      "rel": 0.464567,
      "time": 67.24125973526242
    },
    {
      "absoluteTicks": 65880,
      "channel": 13,
      "type": "noteOn",
      "note": 87,
      "velocity": 85,
      "vel": 0.677165,
      "time": 67.31070417327682
    },
    {
      "absoluteTicks": 65880,
      "channel": 13,
      "type": "noteOff",
      "note": 84,
      "velocity": 82,
      "rel": 0.653543,
      "time": 67.31070417327682
    },
    {
      "absoluteTicks": 65940,
      "channel": 13,
      "type": "noteOn",
      "note": 91,
      "velocity": 92,
      "vel": 0.732283,
      "time": 67.38014861129122
    },
    {
      "absoluteTicks": 65940,
      "channel": 13,
      "type": "noteOff",
      "note": 87,
      "velocity": 85,
      "rel": 0.677165,
      "time": 67.38014861129122
    },
    {
      "absoluteTicks": 66000,
      "channel": 13,
      "type": "noteOn",
      "note": 93,
      "velocity": 87,
      "vel": 0.692913,
      "time": 67.44959304930563
    },
    {
      "absoluteTicks": 66000,
      "channel": 13,
      "type": "noteOff",
      "note": 91,
      "velocity": 92,
      "rel": 0.732283,
      "time": 67.44959304930563
    },
    {
      "absoluteTicks": 66060,
      "channel": 13,
      "type": "noteOn",
      "note": 96,
      "velocity": 90,
      "vel": 0.716535,
      "time": 67.51903748732003
    },
    {
      "absoluteTicks": 66060,
      "channel": 13,
      "type": "noteOff",
      "note": 93,
      "velocity": 87,
      "rel": 0.692913,
      "time": 67.51903748732003
    },
    {
      "absoluteTicks": 66120,
      "channel": 13,
      "type": "noteOn",
      "note": 99,
      "velocity": 92,
      "vel": 0.732283,
      "time": 67.58848192533443
    },
    {
      "absoluteTicks": 66120,
      "channel": 13,
      "type": "noteOff",
      "note": 96,
      "velocity": 90,
      "rel": 0.716535,
      "time": 67.58848192533443
    },
    {
      "absoluteTicks": 66180,
      "channel": 13,
      "type": "noteOn",
      "note": 103,
      "velocity": 85,
      "vel": 0.677165,
      "time": 67.65792636334884
    },
    {
      "absoluteTicks": 66180,
      "channel": 13,
      "type": "noteOff",
      "note": 99,
      "velocity": 92,
      "rel": 0.732283,
      "time": 67.65792636334884
    },
    {
      "absoluteTicks": 66236,
      "channel": 13,
      "type": "noteOff",
      "note": 103,
      "velocity": 85,
      "rel": 0.677165,
      "time": 67.72303080176509
    },
    {
      "absoluteTicks": 66240,
      "channel": 13,
      "type": "noteOn",
      "note": 83,
      "velocity": 57,
      "vel": 0.448819,
      "time": 67.72737080136325
    },
    {
      "absoluteTicks": 66318,
      "channel": 13,
      "type": "noteOn",
      "note": 87,
      "velocity": 81,
      "vel": 0.645669,
      "time": 67.81851634847939
    },
    {
      "absoluteTicks": 66318,
      "channel": 13,
      "type": "noteOff",
      "note": 83,
      "velocity": 57,
      "rel": 0.448819,
      "time": 67.81851634847939
    },
    {
      "absoluteTicks": 66397,
      "channel": 13,
      "type": "noteOn",
      "note": 90,
      "velocity": 83,
      "vel": 0.661417,
      "time": 67.90966300670655
    },
    {
      "absoluteTicks": 66397,
      "channel": 13,
      "type": "noteOff",
      "note": 87,
      "velocity": 81,
      "rel": 0.645669,
      "time": 67.90966189559555
    },
    {
      "absoluteTicks": 66480,
      "channel": 13,
      "type": "noteOn",
      "note": 95,
      "velocity": 93,
      "vel": 0.740157,
      "time": 68.00514855342087
    },
    {
      "absoluteTicks": 66480,
      "channel": 13,
      "type": "noteOff",
      "note": 90,
      "velocity": 83,
      "rel": 0.661417,
      "time": 68.00514966453187
    },
    {
      "absoluteTicks": 66558,
      "channel": 13,
      "type": "noteOn",
      "note": 99,
      "velocity": 88,
      "vel": 0.700787,
      "time": 68.09629410053701
    },
    {
      "absoluteTicks": 66558,
      "channel": 13,
      "type": "noteOff",
      "note": 95,
      "velocity": 93,
      "rel": 0.740157,
      "time": 68.09629410053701
    },
    {
      "absoluteTicks": 66637,
      "channel": 13,
      "type": "noteOn",
      "note": 102,
      "velocity": 84,
      "vel": 0.669291,
      "time": 68.18744075876417
    },
    {
      "absoluteTicks": 66637,
      "channel": 13,
      "type": "noteOff",
      "note": 99,
      "velocity": 88,
      "rel": 0.700787,
      "time": 68.18743964765316
    },
    {
      "absoluteTicks": 66712,
      "channel": 13,
      "type": "noteOff",
      "note": 102,
      "velocity": 84,
      "rel": 0.669291,
      "time": 68.27424630628218
    },
    {
      "absoluteTicks": 66720,
      "channel": 13,
      "type": "noteOn",
      "note": 86,
      "velocity": 60,
      "vel": 0.472441,
      "time": 68.28292630547848
    },
    {
      "absoluteTicks": 66780,
      "channel": 13,
      "type": "noteOn",
      "note": 90,
      "velocity": 83,
      "vel": 0.661417,
      "time": 68.35237074349288
    },
    {
      "absoluteTicks": 66780,
      "channel": 13,
      "type": "noteOff",
      "note": 86,
      "velocity": 60,
      "rel": 0.472441,
      "time": 68.35237074349288
    },
    {
      "absoluteTicks": 66840,
      "channel": 13,
      "type": "noteOn",
      "note": 93,
      "velocity": 88,
      "vel": 0.700787,
      "time": 68.42181518150728
    },
    {
      "absoluteTicks": 66840,
      "channel": 13,
      "type": "noteOff",
      "note": 90,
      "velocity": 83,
      "rel": 0.661417,
      "time": 68.42181518150728
    },
    {
      "absoluteTicks": 66900,
      "channel": 13,
      "type": "noteOn",
      "note": 96,
      "velocity": 91,
      "vel": 0.724409,
      "time": 68.49125961952168
    },
    {
      "absoluteTicks": 66900,
      "channel": 13,
      "type": "noteOff",
      "note": 93,
      "velocity": 88,
      "rel": 0.700787,
      "time": 68.49125961952168
    },
    {
      "absoluteTicks": 66960,
      "channel": 13,
      "type": "noteOn",
      "note": 98,
      "velocity": 85,
      "vel": 0.677165,
      "time": 68.56070405753609
    },
    {
      "absoluteTicks": 66960,
      "channel": 13,
      "type": "noteOff",
      "note": 96,
      "velocity": 91,
      "rel": 0.724409,
      "time": 68.56070405753609
    },
    {
      "absoluteTicks": 67020,
      "channel": 13,
      "type": "noteOn",
      "note": 102,
      "velocity": 87,
      "vel": 0.692913,
      "time": 68.6301484955505
    },
    {
      "absoluteTicks": 67020,
      "channel": 13,
      "type": "noteOff",
      "note": 98,
      "velocity": 85,
      "rel": 0.677165,
      "time": 68.6301484955505
    },
    {
      "absoluteTicks": 67080,
      "channel": 13,
      "type": "noteOn",
      "note": 105,
      "velocity": 87,
      "vel": 0.692913,
      "time": 68.6995929335649
    },
    {
      "absoluteTicks": 67080,
      "channel": 13,
      "type": "noteOff",
      "note": 102,
      "velocity": 87,
      "rel": 0.692913,
      "time": 68.6995929335649
    },
    {
      "absoluteTicks": 67140,
      "channel": 13,
      "type": "noteOn",
      "note": 108,
      "velocity": 89,
      "vel": 0.708661,
      "time": 68.7690373715793
    },
    {
      "absoluteTicks": 67140,
      "channel": 13,
      "type": "noteOff",
      "note": 105,
      "velocity": 87,
      "rel": 0.692913,
      "time": 68.7690373715793
    },
    {
      "absoluteTicks": 67196,
      "channel": 13,
      "type": "noteOff",
      "note": 108,
      "velocity": 89,
      "rel": 0.708661,
      "time": 68.83414180999556
    },
    {
      "absoluteTicks": 67200,
      "channel": 13,
      "type": "noteOn",
      "note": 87,
      "velocity": 60,
      "vel": 0.472441,
      "time": 68.8384818095937
    },
    {
      "absoluteTicks": 67260,
      "channel": 13,
      "type": "noteOn",
      "note": 90,
      "velocity": 82,
      "vel": 0.653543,
      "time": 68.90792624760812
    },
    {
      "absoluteTicks": 67260,
      "channel": 13,
      "type": "noteOff",
      "note": 87,
      "velocity": 60,
      "rel": 0.472441,
      "time": 68.90792624760812
    },
    {
      "absoluteTicks": 67320,
      "channel": 13,
      "type": "noteOn",
      "note": 93,
      "velocity": 89,
      "vel": 0.708661,
      "time": 68.97737068562252
    },
    {
      "absoluteTicks": 67320,
      "channel": 13,
      "type": "noteOff",
      "note": 90,
      "velocity": 82,
      "rel": 0.653543,
      "time": 68.97737068562252
    },
    {
      "absoluteTicks": 67380,
      "channel": 13,
      "type": "noteOn",
      "note": 95,
      "velocity": 85,
      "vel": 0.677165,
      "time": 69.04681512363692
    },
    {
      "absoluteTicks": 67380,
      "channel": 13,
      "type": "noteOff",
      "note": 93,
      "velocity": 89,
      "rel": 0.708661,
      "time": 69.04681512363692
    },
    {
      "absoluteTicks": 67440,
      "channel": 13,
      "type": "noteOn",
      "note": 99,
      "velocity": 90,
      "vel": 0.716535,
      "time": 69.11625956165132
    },
    {
      "absoluteTicks": 67440,
      "channel": 13,
      "type": "noteOff",
      "note": 95,
      "velocity": 85,
      "rel": 0.677165,
      "time": 69.11625956165132
    },
    {
      "absoluteTicks": 67500,
      "channel": 13,
      "type": "noteOn",
      "note": 102,
      "velocity": 89,
      "vel": 0.708661,
      "time": 69.18570399966573
    },
    {
      "absoluteTicks": 67500,
      "channel": 13,
      "type": "noteOff",
      "note": 99,
      "velocity": 90,
      "rel": 0.716535,
      "time": 69.18570399966573
    },
    {
      "absoluteTicks": 67560,
      "channel": 13,
      "type": "noteOn",
      "note": 105,
      "velocity": 90,
      "vel": 0.716535,
      "time": 69.25514843768013
    },
    {
      "absoluteTicks": 67560,
      "channel": 13,
      "type": "noteOff",
      "note": 102,
      "velocity": 89,
      "rel": 0.708661,
      "time": 69.25514843768013
    },
    {
      "absoluteTicks": 67620,
      "channel": 13,
      "type": "noteOn",
      "note": 107,
      "velocity": 85,
      "vel": 0.677165,
      "time": 69.32459287569453
    },
    {
      "absoluteTicks": 67620,
      "channel": 13,
      "type": "noteOff",
      "note": 105,
      "velocity": 90,
      "rel": 0.716535,
      "time": 69.32459287569453
    },
    {
      "absoluteTicks": 67676,
      "channel": 13,
      "type": "noteOff",
      "note": 107,
      "velocity": 85,
      "rel": 0.677165,
      "time": 69.38969731411079
    },
    {
      "absoluteTicks": 67680,
      "channel": 13,
      "type": "noteOn",
      "note": 86,
      "velocity": 56,
      "vel": 0.440945,
      "time": 69.39403731370894
    },
    {
      "absoluteTicks": 67740,
      "channel": 13,
      "type": "noteOn",
      "note": 90,
      "velocity": 85,
      "vel": 0.677165,
      "time": 69.46348175172335
    },
    {
      "absoluteTicks": 67740,
      "channel": 13,
      "type": "noteOff",
      "note": 86,
      "velocity": 56,
      "rel": 0.440945,
      "time": 69.46348175172335
    },
    {
      "absoluteTicks": 67800,
      "channel": 13,
      "type": "noteOn",
      "note": 93,
      "velocity": 81,
      "vel": 0.645669,
      "time": 69.53292618973775
    },
    {
      "absoluteTicks": 67800,
      "channel": 13,
      "type": "noteOff",
      "note": 90,
      "velocity": 85,
      "rel": 0.677165,
      "time": 69.53292618973775
    },
    {
      "absoluteTicks": 67860,
      "channel": 13,
      "type": "noteOn",
      "note": 96,
      "velocity": 88,
      "vel": 0.700787,
      "time": 69.60237062775215
    },
    {
      "absoluteTicks": 67860,
      "channel": 13,
      "type": "noteOff",
      "note": 93,
      "velocity": 81,
      "rel": 0.645669,
      "time": 69.60237062775215
    },
    {
      "absoluteTicks": 67920,
      "channel": 13,
      "type": "noteOn",
      "note": 98,
      "velocity": 88,
      "vel": 0.700787,
      "time": 69.67181506576655
    },
    {
      "absoluteTicks": 67920,
      "channel": 13,
      "type": "noteOff",
      "note": 96,
      "velocity": 88,
      "rel": 0.700787,
      "time": 69.67181506576655
    },
    {
      "absoluteTicks": 67980,
      "channel": 13,
      "type": "noteOn",
      "note": 102,
      "velocity": 87,
      "vel": 0.692913,
      "time": 69.74125950378095
    },
    {
      "absoluteTicks": 67980,
      "channel": 13,
      "type": "noteOff",
      "note": 98,
      "velocity": 88,
      "rel": 0.700787,
      "time": 69.74125950378095
    },
    {
      "absoluteTicks": 68040,
      "channel": 13,
      "type": "noteOn",
      "note": 105,
      "velocity": 88,
      "vel": 0.700787,
      "time": 69.81070394179537
    },
    {
      "absoluteTicks": 68040,
      "channel": 13,
      "type": "noteOff",
      "note": 102,
      "velocity": 87,
      "rel": 0.692913,
      "time": 69.81070394179537
    },
    {
      "absoluteTicks": 68100,
      "channel": 13,
      "type": "noteOn",
      "note": 108,
      "velocity": 88,
      "vel": 0.700787,
      "time": 69.88014837980977
    },
    {
      "absoluteTicks": 68100,
      "channel": 13,
      "type": "noteOff",
      "note": 105,
      "velocity": 88,
      "rel": 0.700787,
      "time": 69.88014837980977
    },
    {
      "absoluteTicks": 68156,
      "channel": 13,
      "type": "noteOff",
      "note": 108,
      "velocity": 88,
      "rel": 0.700787,
      "time": 69.94525281822602
    },
    {
      "absoluteTicks": 68160,
      "channel": 13,
      "type": "noteOn",
      "note": 87,
      "velocity": 59,
      "vel": 0.464567,
      "time": 69.94959281782417
    },
    {
      "absoluteTicks": 68220,
      "channel": 13,
      "type": "noteOn",
      "note": 90,
      "velocity": 83,
      "vel": 0.661417,
      "time": 70.01903725583857
    },
    {
      "absoluteTicks": 68220,
      "channel": 13,
      "type": "noteOff",
      "note": 87,
      "velocity": 59,
      "rel": 0.464567,
      "time": 70.01903725583857
    },
    {
      "absoluteTicks": 68280,
      "channel": 13,
      "type": "noteOn",
      "note": 93,
      "velocity": 86,
      "vel": 0.685039,
      "time": 70.08848169385298
    },
    {
      "absoluteTicks": 68280,
      "channel": 13,
      "type": "noteOff",
      "note": 90,
      "velocity": 83,
      "rel": 0.661417,
      "time": 70.08848169385298
    },
    {
      "absoluteTicks": 68340,
      "channel": 13,
      "type": "noteOn",
      "note": 95,
      "velocity": 88,
      "vel": 0.700787,
      "time": 70.15792613186738
    },
    {
      "absoluteTicks": 68340,
      "channel": 13,
      "type": "noteOff",
      "note": 93,
      "velocity": 86,
      "rel": 0.685039,
      "time": 70.15792613186738
    },
    {
      "absoluteTicks": 68400,
      "channel": 13,
      "type": "noteOn",
      "note": 99,
      "velocity": 86,
      "vel": 0.685039,
      "time": 70.22737056988178
    },
    {
      "absoluteTicks": 68400,
      "channel": 13,
      "type": "noteOff",
      "note": 95,
      "velocity": 88,
      "rel": 0.700787,
      "time": 70.22737056988178
    },
    {
      "absoluteTicks": 68460,
      "channel": 13,
      "type": "noteOn",
      "note": 102,
      "velocity": 87,
      "vel": 0.692913,
      "time": 70.29681500789619
    },
    {
      "absoluteTicks": 68460,
      "channel": 13,
      "type": "noteOff",
      "note": 99,
      "velocity": 86,
      "rel": 0.685039,
      "time": 70.29681500789619
    },
    {
      "absoluteTicks": 68520,
      "channel": 13,
      "type": "noteOn",
      "note": 105,
      "velocity": 87,
      "vel": 0.692913,
      "time": 70.3662594459106
    },
    {
      "absoluteTicks": 68520,
      "channel": 13,
      "type": "noteOff",
      "note": 102,
      "velocity": 87,
      "rel": 0.692913,
      "time": 70.3662594459106
    },
    {
      "absoluteTicks": 68580,
      "channel": 13,
      "type": "noteOn",
      "note": 107,
      "velocity": 84,
      "vel": 0.669291,
      "time": 70.435703883925
    },
    {
      "absoluteTicks": 68580,
      "channel": 13,
      "type": "noteOff",
      "note": 105,
      "velocity": 87,
      "rel": 0.692913,
      "time": 70.435703883925
    },
    {
      "absoluteTicks": 68636,
      "channel": 13,
      "type": "noteOff",
      "note": 107,
      "velocity": 84,
      "rel": 0.669291,
      "time": 70.50080832234126
    },
    {
      "absoluteTicks": 69600,
      "channel": 13,
      "type": "noteOn",
      "note": 103,
      "velocity": 88,
      "vel": 0.700787,
      "time": 71.48901832194133
    },
    {
      "absoluteTicks": 69600,
      "channel": 13,
      "type": "noteOn",
      "note": 95,
      "velocity": 88,
      "vel": 0.700787,
      "time": 71.48901832194133
    },
    {
      "absoluteTicks": 69600,
      "channel": 13,
      "type": "noteOn",
      "note": 88,
      "velocity": 83,
      "vel": 0.661417,
      "time": 71.48901832194133
    },
    {
      "absoluteTicks": 69720,
      "channel": 13,
      "type": "noteOff",
      "note": 103,
      "velocity": 88,
      "rel": 0.700787,
      "time": 71.60998582194182
    },
    {
      "absoluteTicks": 69720,
      "channel": 13,
      "type": "noteOff",
      "note": 95,
      "velocity": 88,
      "rel": 0.700787,
      "time": 71.60998582194182
    },
    {
      "absoluteTicks": 69720,
      "channel": 13,
      "type": "noteOff",
      "note": 88,
      "velocity": 83,
      "rel": 0.661417,
      "time": 71.60998582194182
    },
    {
      "absoluteTicks": 69840,
      "channel": 13,
      "type": "noteOn",
      "note": 100,
      "velocity": 84,
      "vel": 0.669291,
      "time": 71.73095332194231
    },
    {
      "absoluteTicks": 69840,
      "channel": 13,
      "type": "noteOn",
      "note": 91,
      "velocity": 103,
      "vel": 0.811024,
      "time": 71.73095332194231
    },
    {
      "absoluteTicks": 69840,
      "channel": 13,
      "type": "noteOn",
      "note": 83,
      "velocity": 103,
      "vel": 0.811024,
      "time": 71.73095332194231
    },
    {
      "absoluteTicks": 69960,
      "channel": 13,
      "type": "noteOff",
      "note": 100,
      "velocity": 84,
      "rel": 0.669291,
      "time": 71.85192082194278
    },
    {
      "absoluteTicks": 69960,
      "channel": 13,
      "type": "noteOff",
      "note": 91,
      "velocity": 103,
      "rel": 0.811024,
      "time": 71.85192082194278
    },
    {
      "absoluteTicks": 69960,
      "channel": 13,
      "type": "noteOff",
      "note": 83,
      "velocity": 103,
      "rel": 0.811024,
      "time": 71.85192082194278
    },
    {
      "absoluteTicks": 70080,
      "channel": 13,
      "type": "noteOn",
      "note": 103,
      "velocity": 100,
      "vel": 0.787402,
      "time": 71.97288832194327
    },
    {
      "absoluteTicks": 70080,
      "channel": 13,
      "type": "noteOn",
      "note": 95,
      "velocity": 100,
      "vel": 0.787402,
      "time": 71.97288832194327
    },
    {
      "absoluteTicks": 70080,
      "channel": 13,
      "type": "noteOn",
      "note": 88,
      "velocity": 88,
      "vel": 0.700787,
      "time": 71.97288832194327
    },
    {
      "absoluteTicks": 70320,
      "channel": 13,
      "type": "noteOff",
      "note": 103,
      "velocity": 100,
      "rel": 0.787402,
      "time": 72.21482332194424
    },
    {
      "absoluteTicks": 70320,
      "channel": 13,
      "type": "noteOff",
      "note": 95,
      "velocity": 100,
      "rel": 0.787402,
      "time": 72.21482332194424
    },
    {
      "absoluteTicks": 70320,
      "channel": 13,
      "type": "noteOff",
      "note": 88,
      "velocity": 88,
      "rel": 0.700787,
      "time": 72.21482332194424
    },
    {
      "absoluteTicks": 70560,
      "channel": 13,
      "type": "noteOn",
      "note": 102,
      "velocity": 93,
      "vel": 0.740157,
      "time": 72.4567583219452
    },
    {
      "absoluteTicks": 70560,
      "channel": 13,
      "type": "noteOn",
      "note": 93,
      "velocity": 93,
      "vel": 0.740157,
      "time": 72.4567583219452
    },
    {
      "absoluteTicks": 70560,
      "channel": 13,
      "type": "noteOn",
      "note": 88,
      "velocity": 97,
      "vel": 0.76378,
      "time": 72.4567583219452
    },
    {
      "absoluteTicks": 70560,
      "channel": 13,
      "type": "noteOn",
      "note": 84,
      "velocity": 97,
      "vel": 0.76378,
      "time": 72.4567583219452
    },
    {
      "absoluteTicks": 70800,
      "channel": 13,
      "type": "noteOff",
      "note": 102,
      "velocity": 93,
      "rel": 0.740157,
      "time": 72.69869332194618
    },
    {
      "absoluteTicks": 70800,
      "channel": 13,
      "type": "noteOff",
      "note": 93,
      "velocity": 93,
      "rel": 0.740157,
      "time": 72.69869332194618
    },
    {
      "absoluteTicks": 70800,
      "channel": 13,
      "type": "noteOff",
      "note": 88,
      "velocity": 97,
      "rel": 0.76378,
      "time": 72.69869332194618
    },
    {
      "absoluteTicks": 70800,
      "channel": 13,
      "type": "noteOff",
      "note": 84,
      "velocity": 97,
      "rel": 0.76378,
      "time": 72.69869332194618
    },
    {
      "absoluteTicks": 71040,
      "channel": 13,
      "type": "noteOn",
      "note": 99,
      "velocity": 88,
      "vel": 0.700787,
      "time": 72.94062832194714
    },
    {
      "absoluteTicks": 71040,
      "channel": 13,
      "type": "noteOn",
      "note": 90,
      "velocity": 88,
      "vel": 0.700787,
      "time": 72.94062832194714
    },
    {
      "absoluteTicks": 71040,
      "channel": 13,
      "type": "noteOn",
      "note": 84,
      "velocity": 86,
      "vel": 0.685039,
      "time": 72.94062832194714
    },
    {
      "absoluteTicks": 71040,
      "channel": 13,
      "type": "noteOn",
      "note": 81,
      "velocity": 86,
      "vel": 0.685039,
      "time": 72.94062832194714
    },
    {
      "absoluteTicks": 71280,
      "channel": 13,
      "type": "noteOff",
      "note": 99,
      "velocity": 88,
      "rel": 0.700787,
      "time": 73.18256332194811
    },
    {
      "absoluteTicks": 71280,
      "channel": 13,
      "type": "noteOff",
      "note": 90,
      "velocity": 88,
      "rel": 0.700787,
      "time": 73.18256332194811
    },
    {
      "absoluteTicks": 71280,
      "channel": 13,
      "type": "noteOff",
      "note": 84,
      "velocity": 86,
      "rel": 0.685039,
      "time": 73.18256332194811
    },
    {
      "absoluteTicks": 71280,
      "channel": 13,
      "type": "noteOff",
      "note": 81,
      "velocity": 86,
      "rel": 0.685039,
      "time": 73.18256332194811
    },
    {
      "absoluteTicks": 71520,
      "channel": 13,
      "type": "noteOn",
      "note": 100,
      "velocity": 99,
      "vel": 0.779528,
      "time": 73.42449832194907
    },
    {
      "absoluteTicks": 71520,
      "channel": 13,
      "type": "noteOn",
      "note": 91,
      "velocity": 99,
      "vel": 0.779528,
      "time": 73.42449832194907
    },
    {
      "absoluteTicks": 71520,
      "channel": 13,
      "type": "noteOn",
      "note": 85,
      "velocity": 97,
      "vel": 0.76378,
      "time": 73.42449832194907
    },
    {
      "absoluteTicks": 71520,
      "channel": 13,
      "type": "noteOn",
      "note": 82,
      "velocity": 97,
      "vel": 0.76378,
      "time": 73.42449832194907
    },
    {
      "absoluteTicks": 71760,
      "channel": 13,
      "type": "noteOff",
      "note": 100,
      "velocity": 99,
      "rel": 0.779528,
      "time": 73.66643332195005
    },
    {
      "absoluteTicks": 71760,
      "channel": 13,
      "type": "noteOff",
      "note": 91,
      "velocity": 99,
      "rel": 0.779528,
      "time": 73.66643332195005
    },
    {
      "absoluteTicks": 71760,
      "channel": 13,
      "type": "noteOff",
      "note": 85,
      "velocity": 97,
      "rel": 0.76378,
      "time": 73.66643332195005
    },
    {
      "absoluteTicks": 71760,
      "channel": 13,
      "type": "noteOff",
      "note": 82,
      "velocity": 97,
      "rel": 0.76378,
      "time": 73.66643332195005
    },
    {
      "absoluteTicks": 72000,
      "channel": 13,
      "type": "noteOn",
      "note": 98,
      "velocity": 89,
      "vel": 0.708661,
      "time": 73.90836832195102
    },
    {
      "absoluteTicks": 72000,
      "channel": 13,
      "type": "noteOn",
      "note": 92,
      "velocity": 89,
      "vel": 0.708661,
      "time": 73.90836832195102
    },
    {
      "absoluteTicks": 72000,
      "channel": 13,
      "type": "noteOn",
      "note": 89,
      "velocity": 106,
      "vel": 0.834646,
      "time": 73.90836832195102
    },
    {
      "absoluteTicks": 72000,
      "channel": 13,
      "type": "noteOn",
      "note": 83,
      "velocity": 106,
      "vel": 0.834646,
      "time": 73.90836832195102
    },
    {
      "absoluteTicks": 72120,
      "channel": 13,
      "type": "noteOff",
      "note": 98,
      "velocity": 89,
      "rel": 0.708661,
      "time": 74.02933582195149
    },
    {
      "absoluteTicks": 72120,
      "channel": 13,
      "type": "noteOff",
      "note": 92,
      "velocity": 89,
      "rel": 0.708661,
      "time": 74.02933582195149
    },
    {
      "absoluteTicks": 72120,
      "channel": 13,
      "type": "noteOff",
      "note": 89,
      "velocity": 106,
      "rel": 0.834646,
      "time": 74.02933582195149
    },
    {
      "absoluteTicks": 72120,
      "channel": 13,
      "type": "noteOff",
      "note": 83,
      "velocity": 106,
      "rel": 0.834646,
      "time": 74.02933582195149
    },
    {
      "absoluteTicks": 72240,
      "channel": 13,
      "type": "noteOn",
      "note": 98,
      "velocity": 96,
      "vel": 0.755906,
      "time": 74.15030332195198
    },
    {
      "absoluteTicks": 72240,
      "channel": 13,
      "type": "noteOn",
      "note": 92,
      "velocity": 96,
      "vel": 0.755906,
      "time": 74.15030332195198
    },
    {
      "absoluteTicks": 72240,
      "channel": 13,
      "type": "noteOn",
      "note": 89,
      "velocity": 94,
      "vel": 0.748031,
      "time": 74.15030332195198
    },
    {
      "absoluteTicks": 72240,
      "channel": 13,
      "type": "noteOn",
      "note": 83,
      "velocity": 94,
      "vel": 0.748031,
      "time": 74.15030332195198
    },
    {
      "absoluteTicks": 72360,
      "channel": 13,
      "type": "noteOff",
      "note": 98,
      "velocity": 96,
      "rel": 0.755906,
      "time": 74.27127082195247
    },
    {
      "absoluteTicks": 72360,
      "channel": 13,
      "type": "noteOff",
      "note": 92,
      "velocity": 96,
      "rel": 0.755906,
      "time": 74.27127082195247
    },
    {
      "absoluteTicks": 72360,
      "channel": 13,
      "type": "noteOff",
      "note": 89,
      "velocity": 94,
      "rel": 0.748031,
      "time": 74.27127082195247
    },
    {
      "absoluteTicks": 72360,
      "channel": 13,
      "type": "noteOff",
      "note": 83,
      "velocity": 94,
      "rel": 0.748031,
      "time": 74.27127082195247
    },
    {
      "absoluteTicks": 72480,
      "channel": 13,
      "type": "noteOn",
      "note": 98,
      "velocity": 96,
      "vel": 0.755906,
      "time": 74.39223832195295
    },
    {
      "absoluteTicks": 72480,
      "channel": 13,
      "type": "noteOn",
      "note": 92,
      "velocity": 96,
      "vel": 0.755906,
      "time": 74.39223832195295
    },
    {
      "absoluteTicks": 72480,
      "channel": 13,
      "type": "noteOn",
      "note": 89,
      "velocity": 93,
      "vel": 0.740157,
      "time": 74.39223832195295
    },
    {
      "absoluteTicks": 72480,
      "channel": 13,
      "type": "noteOn",
      "note": 83,
      "velocity": 93,
      "vel": 0.740157,
      "time": 74.39223832195295
    },
    {
      "absoluteTicks": 72720,
      "channel": 13,
      "type": "noteOff",
      "note": 98,
      "velocity": 96,
      "rel": 0.755906,
      "time": 74.63417332195392
    },
    {
      "absoluteTicks": 72720,
      "channel": 13,
      "type": "noteOff",
      "note": 92,
      "velocity": 96,
      "rel": 0.755906,
      "time": 74.63417332195392
    },
    {
      "absoluteTicks": 72720,
      "channel": 13,
      "type": "noteOff",
      "note": 89,
      "velocity": 93,
      "rel": 0.740157,
      "time": 74.63417332195392
    },
    {
      "absoluteTicks": 72720,
      "channel": 13,
      "type": "noteOff",
      "note": 83,
      "velocity": 93,
      "rel": 0.740157,
      "time": 74.63417332195392
    },
    {
      "absoluteTicks": 72960,
      "channel": 13,
      "type": "noteOn",
      "note": 97,
      "velocity": 93,
      "vel": 0.740157,
      "time": 74.87610832195489
    },
    {
      "absoluteTicks": 72960,
      "channel": 13,
      "type": "noteOn",
      "note": 91,
      "velocity": 93,
      "vel": 0.740157,
      "time": 74.87610832195489
    },
    {
      "absoluteTicks": 72960,
      "channel": 13,
      "type": "noteOn",
      "note": 88,
      "velocity": 91,
      "vel": 0.724409,
      "time": 74.87610832195489
    },
    {
      "absoluteTicks": 72960,
      "channel": 13,
      "type": "noteOn",
      "note": 82,
      "velocity": 91,
      "vel": 0.724409,
      "time": 74.87610832195489
    },
    {
      "absoluteTicks": 73080,
      "channel": 13,
      "type": "noteOff",
      "note": 97,
      "velocity": 93,
      "rel": 0.740157,
      "time": 74.99707582195536
    },
    {
      "absoluteTicks": 73080,
      "channel": 13,
      "type": "noteOff",
      "note": 91,
      "velocity": 93,
      "rel": 0.740157,
      "time": 74.99707582195536
    },
    {
      "absoluteTicks": 73080,
      "channel": 13,
      "type": "noteOff",
      "note": 88,
      "velocity": 91,
      "rel": 0.724409,
      "time": 74.99707582195536
    },
    {
      "absoluteTicks": 73080,
      "channel": 13,
      "type": "noteOff",
      "note": 82,
      "velocity": 91,
      "rel": 0.724409,
      "time": 74.99707582195536
    },
    {
      "absoluteTicks": 73200,
      "channel": 13,
      "type": "noteOn",
      "note": 97,
      "velocity": 96,
      "vel": 0.755906,
      "time": 75.11804332195585
    },
    {
      "absoluteTicks": 73200,
      "channel": 13,
      "type": "noteOn",
      "note": 91,
      "velocity": 96,
      "vel": 0.755906,
      "time": 75.11804332195585
    },
    {
      "absoluteTicks": 73200,
      "channel": 13,
      "type": "noteOn",
      "note": 88,
      "velocity": 93,
      "vel": 0.740157,
      "time": 75.11804332195585
    },
    {
      "absoluteTicks": 73200,
      "channel": 13,
      "type": "noteOn",
      "note": 82,
      "velocity": 93,
      "vel": 0.740157,
      "time": 75.11804332195585
    },
    {
      "absoluteTicks": 73320,
      "channel": 13,
      "type": "noteOff",
      "note": 97,
      "velocity": 96,
      "rel": 0.755906,
      "time": 75.23901082195634
    },
    {
      "absoluteTicks": 73320,
      "channel": 13,
      "type": "noteOff",
      "note": 91,
      "velocity": 96,
      "rel": 0.755906,
      "time": 75.23901082195634
    },
    {
      "absoluteTicks": 73320,
      "channel": 13,
      "type": "noteOff",
      "note": 88,
      "velocity": 93,
      "rel": 0.740157,
      "time": 75.23901082195634
    },
    {
      "absoluteTicks": 73320,
      "channel": 13,
      "type": "noteOff",
      "note": 82,
      "velocity": 93,
      "rel": 0.740157,
      "time": 75.23901082195634
    },
    {
      "absoluteTicks": 73440,
      "channel": 13,
      "type": "noteOn",
      "note": 97,
      "velocity": 94,
      "vel": 0.748031,
      "time": 75.35997832195682
    },
    {
      "absoluteTicks": 73440,
      "channel": 13,
      "type": "noteOn",
      "note": 91,
      "velocity": 94,
      "vel": 0.748031,
      "time": 75.35997832195682
    },
    {
      "absoluteTicks": 73440,
      "channel": 13,
      "type": "noteOn",
      "note": 88,
      "velocity": 99,
      "vel": 0.779528,
      "time": 75.35997832195682
    },
    {
      "absoluteTicks": 73440,
      "channel": 13,
      "type": "noteOn",
      "note": 82,
      "velocity": 99,
      "vel": 0.779528,
      "time": 75.35997832195682
    },
    {
      "absoluteTicks": 73680,
      "channel": 13,
      "type": "noteOff",
      "note": 97,
      "velocity": 94,
      "rel": 0.748031,
      "time": 75.6019133219578
    },
    {
      "absoluteTicks": 73680,
      "channel": 13,
      "type": "noteOff",
      "note": 91,
      "velocity": 94,
      "rel": 0.748031,
      "time": 75.6019133219578
    },
    {
      "absoluteTicks": 73680,
      "channel": 13,
      "type": "noteOff",
      "note": 88,
      "velocity": 99,
      "rel": 0.779528,
      "time": 75.6019133219578
    },
    {
      "absoluteTicks": 73680,
      "channel": 13,
      "type": "noteOff",
      "note": 82,
      "velocity": 99,
      "rel": 0.779528,
      "time": 75.6019133219578
    },
    {
      "absoluteTicks": 73920,
      "channel": 13,
      "type": "noteOn",
      "note": 96,
      "velocity": 90,
      "vel": 0.716535,
      "time": 75.84384832195876
    },
    {
      "absoluteTicks": 73920,
      "channel": 13,
      "type": "noteOn",
      "note": 90,
      "velocity": 90,
      "vel": 0.716535,
      "time": 75.84384832195876
    },
    {
      "absoluteTicks": 73920,
      "channel": 13,
      "type": "noteOn",
      "note": 87,
      "velocity": 91,
      "vel": 0.724409,
      "time": 75.84384832195876
    },
    {
      "absoluteTicks": 73920,
      "channel": 13,
      "type": "noteOn",
      "note": 81,
      "velocity": 91,
      "vel": 0.724409,
      "time": 75.84384832195876
    },
    {
      "absoluteTicks": 74040,
      "channel": 13,
      "type": "noteOff",
      "note": 96,
      "velocity": 90,
      "rel": 0.716535,
      "time": 75.96481582195923
    },
    {
      "absoluteTicks": 74040,
      "channel": 13,
      "type": "noteOff",
      "note": 90,
      "velocity": 90,
      "rel": 0.716535,
      "time": 75.96481582195923
    },
    {
      "absoluteTicks": 74040,
      "channel": 13,
      "type": "noteOff",
      "note": 87,
      "velocity": 91,
      "rel": 0.724409,
      "time": 75.96481582195923
    },
    {
      "absoluteTicks": 74040,
      "channel": 13,
      "type": "noteOff",
      "note": 81,
      "velocity": 91,
      "rel": 0.724409,
      "time": 75.96481582195923
    },
    {
      "absoluteTicks": 74160,
      "channel": 13,
      "type": "noteOn",
      "note": 96,
      "velocity": 91,
      "vel": 0.724409,
      "time": 76.08578332195972
    },
    {
      "absoluteTicks": 74160,
      "channel": 13,
      "type": "noteOn",
      "note": 90,
      "velocity": 91,
      "vel": 0.724409,
      "time": 76.08578332195972
    },
    {
      "absoluteTicks": 74160,
      "channel": 13,
      "type": "noteOn",
      "note": 87,
      "velocity": 97,
      "vel": 0.76378,
      "time": 76.08578332195972
    },
    {
      "absoluteTicks": 74160,
      "channel": 13,
      "type": "noteOn",
      "note": 81,
      "velocity": 97,
      "vel": 0.76378,
      "time": 76.08578332195972
    },
    {
      "absoluteTicks": 74280,
      "channel": 13,
      "type": "noteOff",
      "note": 96,
      "velocity": 91,
      "rel": 0.724409,
      "time": 76.20675082196021
    },
    {
      "absoluteTicks": 74280,
      "channel": 13,
      "type": "noteOff",
      "note": 90,
      "velocity": 91,
      "rel": 0.724409,
      "time": 76.20675082196021
    },
    {
      "absoluteTicks": 74280,
      "channel": 13,
      "type": "noteOff",
      "note": 87,
      "velocity": 97,
      "rel": 0.76378,
      "time": 76.20675082196021
    },
    {
      "absoluteTicks": 74280,
      "channel": 13,
      "type": "noteOff",
      "note": 81,
      "velocity": 97,
      "rel": 0.76378,
      "time": 76.20675082196021
    },
    {
      "absoluteTicks": 74400,
      "channel": 13,
      "type": "noteOn",
      "note": 96,
      "velocity": 94,
      "vel": 0.748031,
      "time": 76.32771832196069
    },
    {
      "absoluteTicks": 74400,
      "channel": 13,
      "type": "noteOn",
      "note": 90,
      "velocity": 94,
      "vel": 0.748031,
      "time": 76.32771832196069
    },
    {
      "absoluteTicks": 74400,
      "channel": 13,
      "type": "noteOn",
      "note": 87,
      "velocity": 96,
      "vel": 0.755906,
      "time": 76.32771832196069
    },
    {
      "absoluteTicks": 74400,
      "channel": 13,
      "type": "noteOn",
      "note": 81,
      "velocity": 96,
      "vel": 0.755906,
      "time": 76.32771832196069
    },
    {
      "absoluteTicks": 74640,
      "channel": 13,
      "type": "noteOff",
      "note": 96,
      "velocity": 94,
      "rel": 0.748031,
      "time": 76.56965332196165
    },
    {
      "absoluteTicks": 74640,
      "channel": 13,
      "type": "noteOff",
      "note": 90,
      "velocity": 94,
      "rel": 0.748031,
      "time": 76.56965332196165
    },
    {
      "absoluteTicks": 74640,
      "channel": 13,
      "type": "noteOff",
      "note": 87,
      "velocity": 96,
      "rel": 0.755906,
      "time": 76.56965332196165
    },
    {
      "absoluteTicks": 74640,
      "channel": 13,
      "type": "noteOff",
      "note": 81,
      "velocity": 96,
      "rel": 0.755906,
      "time": 76.56965332196165
    },
    {
      "absoluteTicks": 74880,
      "channel": 13,
      "type": "noteOn",
      "note": 95,
      "velocity": 88,
      "vel": 0.700787,
      "time": 76.81158832196263
    },
    {
      "absoluteTicks": 74880,
      "channel": 13,
      "type": "noteOn",
      "note": 88,
      "velocity": 99,
      "vel": 0.779528,
      "time": 76.81158832196263
    },
    {
      "absoluteTicks": 74880,
      "channel": 13,
      "type": "noteOn",
      "note": 79,
      "velocity": 99,
      "vel": 0.779528,
      "time": 76.81158832196263
    },
    {
      "absoluteTicks": 75000,
      "channel": 13,
      "type": "noteOff",
      "note": 95,
      "velocity": 88,
      "rel": 0.700787,
      "time": 76.9325558219631
    },
    {
      "absoluteTicks": 75000,
      "channel": 13,
      "type": "noteOff",
      "note": 88,
      "velocity": 99,
      "rel": 0.779528,
      "time": 76.9325558219631
    },
    {
      "absoluteTicks": 75000,
      "channel": 13,
      "type": "noteOff",
      "note": 79,
      "velocity": 99,
      "rel": 0.779528,
      "time": 76.9325558219631
    },
    {
      "absoluteTicks": 75120,
      "channel": 13,
      "type": "noteOn",
      "note": 100,
      "velocity": 107,
      "vel": 0.84252,
      "time": 77.0535233219636
    },
    {
      "absoluteTicks": 75120,
      "channel": 13,
      "type": "noteOn",
      "note": 91,
      "velocity": 107,
      "vel": 0.84252,
      "time": 77.0535233219636
    },
    {
      "absoluteTicks": 75120,
      "channel": 13,
      "type": "noteOn",
      "note": 83,
      "velocity": 79,
      "vel": 0.629921,
      "time": 77.0535233219636
    },
    {
      "absoluteTicks": 75240,
      "channel": 13,
      "type": "noteOff",
      "note": 100,
      "velocity": 107,
      "rel": 0.84252,
      "time": 77.17449082196408
    },
    {
      "absoluteTicks": 75240,
      "channel": 13,
      "type": "noteOff",
      "note": 91,
      "velocity": 107,
      "rel": 0.84252,
      "time": 77.17449082196408
    },
    {
      "absoluteTicks": 75240,
      "channel": 13,
      "type": "noteOff",
      "note": 83,
      "velocity": 79,
      "rel": 0.629921,
      "time": 77.17449082196408
    },
    {
      "absoluteTicks": 75360,
      "channel": 13,
      "type": "noteOn",
      "note": 96,
      "velocity": 89,
      "vel": 0.708661,
      "time": 77.29545832196456
    },
    {
      "absoluteTicks": 75360,
      "channel": 13,
      "type": "noteOn",
      "note": 88,
      "velocity": 109,
      "vel": 0.858268,
      "time": 77.29545832196456
    },
    {
      "absoluteTicks": 75360,
      "channel": 13,
      "type": "noteOn",
      "note": 81,
      "velocity": 109,
      "vel": 0.858268,
      "time": 77.29545832196456
    },
    {
      "absoluteTicks": 75480,
      "channel": 13,
      "type": "noteOff",
      "note": 96,
      "velocity": 89,
      "rel": 0.708661,
      "time": 77.41642582196505
    },
    {
      "absoluteTicks": 75480,
      "channel": 13,
      "type": "noteOff",
      "note": 88,
      "velocity": 109,
      "rel": 0.858268,
      "time": 77.41642582196505
    },
    {
      "absoluteTicks": 75480,
      "channel": 13,
      "type": "noteOff",
      "note": 81,
      "velocity": 109,
      "rel": 0.858268,
      "time": 77.41642582196505
    },
    {
      "absoluteTicks": 75600,
      "channel": 13,
      "type": "noteOn",
      "note": 100,
      "velocity": 104,
      "vel": 0.818898,
      "time": 77.53739332196552
    },
    {
      "absoluteTicks": 75600,
      "channel": 13,
      "type": "noteOn",
      "note": 90,
      "velocity": 104,
      "vel": 0.818898,
      "time": 77.53739332196552
    },
    {
      "absoluteTicks": 75600,
      "channel": 13,
      "type": "noteOn",
      "note": 84,
      "velocity": 87,
      "vel": 0.692913,
      "time": 77.53739332196552
    },
    {
      "absoluteTicks": 75720,
      "channel": 13,
      "type": "noteOff",
      "note": 100,
      "velocity": 104,
      "rel": 0.818898,
      "time": 77.65836082196601
    },
    {
      "absoluteTicks": 75720,
      "channel": 13,
      "type": "noteOff",
      "note": 90,
      "velocity": 104,
      "rel": 0.818898,
      "time": 77.65836082196601
    },
    {
      "absoluteTicks": 75720,
      "channel": 13,
      "type": "noteOff",
      "note": 84,
      "velocity": 87,
      "rel": 0.692913,
      "time": 77.65836082196601
    },
    {
      "absoluteTicks": 75840,
      "channel": 13,
      "type": "noteOn",
      "note": 95,
      "velocity": 85,
      "vel": 0.677165,
      "time": 77.7793283219665
    },
    {
      "absoluteTicks": 75840,
      "channel": 13,
      "type": "noteOn",
      "note": 88,
      "velocity": 109,
      "vel": 0.858268,
      "time": 77.7793283219665
    },
    {
      "absoluteTicks": 75840,
      "channel": 13,
      "type": "noteOn",
      "note": 79,
      "velocity": 109,
      "vel": 0.858268,
      "time": 77.7793283219665
    },
    {
      "absoluteTicks": 76080,
      "channel": 13,
      "type": "noteOff",
      "note": 95,
      "velocity": 85,
      "rel": 0.677165,
      "time": 78.02126332196747
    },
    {
      "absoluteTicks": 76080,
      "channel": 13,
      "type": "noteOff",
      "note": 88,
      "velocity": 109,
      "rel": 0.858268,
      "time": 78.02126332196747
    },
    {
      "absoluteTicks": 76080,
      "channel": 13,
      "type": "noteOff",
      "note": 79,
      "velocity": 109,
      "rel": 0.858268,
      "time": 78.02126332196747
    },
    {
      "absoluteTicks": 77280,
      "channel": 13,
      "type": "noteOn",
      "note": 91,
      "velocity": 90,
      "vel": 0.716535,
      "time": 79.2309383219723
    },
    {
      "absoluteTicks": 77280,
      "channel": 13,
      "type": "noteOn",
      "note": 88,
      "velocity": 85,
      "vel": 0.677165,
      "time": 79.2309383219723
    },
    {
      "absoluteTicks": 77280,
      "channel": 13,
      "type": "noteOn",
      "note": 84,
      "velocity": 90,
      "vel": 0.716535,
      "time": 79.2309383219723
    },
    {
      "absoluteTicks": 77400,
      "channel": 13,
      "type": "noteOff",
      "note": 91,
      "velocity": 90,
      "rel": 0.716535,
      "time": 79.35190582197279
    },
    {
      "absoluteTicks": 77400,
      "channel": 13,
      "type": "noteOff",
      "note": 88,
      "velocity": 85,
      "rel": 0.677165,
      "time": 79.35190582197279
    },
    {
      "absoluteTicks": 77400,
      "channel": 13,
      "type": "noteOff",
      "note": 84,
      "velocity": 90,
      "rel": 0.716535,
      "time": 79.35190582197279
    },
    {
      "absoluteTicks": 77520,
      "channel": 13,
      "type": "noteOn",
      "note": 91,
      "velocity": 102,
      "vel": 0.80315,
      "time": 79.47287332197327
    },
    {
      "absoluteTicks": 77520,
      "channel": 13,
      "type": "noteOn",
      "note": 88,
      "velocity": 85,
      "vel": 0.677165,
      "time": 79.47287332197327
    },
    {
      "absoluteTicks": 77640,
      "channel": 13,
      "type": "noteOff",
      "note": 91,
      "velocity": 102,
      "rel": 0.80315,
      "time": 79.59384082197376
    },
    {
      "absoluteTicks": 77640,
      "channel": 13,
      "type": "noteOff",
      "note": 88,
      "velocity": 85,
      "rel": 0.677165,
      "time": 79.59384082197376
    },
    {
      "absoluteTicks": 77760,
      "channel": 13,
      "type": "noteOn",
      "note": 91,
      "velocity": 103,
      "vel": 0.811024,
      "time": 79.71480832197425
    },
    {
      "absoluteTicks": 77760,
      "channel": 13,
      "type": "noteOn",
      "note": 88,
      "velocity": 87,
      "vel": 0.692913,
      "time": 79.71480832197425
    },
    {
      "absoluteTicks": 77760,
      "channel": 13,
      "type": "noteOn",
      "note": 84,
      "velocity": 103,
      "vel": 0.811024,
      "time": 79.71480832197425
    },
    {
      "absoluteTicks": 78000,
      "channel": 13,
      "type": "noteOff",
      "note": 91,
      "velocity": 103,
      "rel": 0.811024,
      "time": 79.95674332197521
    },
    {
      "absoluteTicks": 78000,
      "channel": 13,
      "type": "noteOff",
      "note": 88,
      "velocity": 87,
      "rel": 0.692913,
      "time": 79.95674332197521
    },
    {
      "absoluteTicks": 78000,
      "channel": 13,
      "type": "noteOff",
      "note": 84,
      "velocity": 103,
      "rel": 0.811024,
      "time": 79.95674332197521
    },
    {
      "absoluteTicks": 78240,
      "channel": 13,
      "type": "noteOn",
      "note": 90,
      "velocity": 86,
      "vel": 0.685039,
      "time": 80.19867832197617
    },
    {
      "absoluteTicks": 78240,
      "channel": 13,
      "type": "noteOn",
      "note": 87,
      "velocity": 88,
      "vel": 0.700787,
      "time": 80.19867832197617
    },
    {
      "absoluteTicks": 78240,
      "channel": 13,
      "type": "noteOn",
      "note": 84,
      "velocity": 86,
      "vel": 0.685039,
      "time": 80.19867832197617
    },
    {
      "absoluteTicks": 78480,
      "channel": 13,
      "type": "noteOff",
      "note": 90,
      "velocity": 86,
      "rel": 0.685039,
      "time": 80.44061332197714
    },
    {
      "absoluteTicks": 78480,
      "channel": 13,
      "type": "noteOff",
      "note": 87,
      "velocity": 88,
      "rel": 0.700787,
      "time": 80.44061332197714
    },
    {
      "absoluteTicks": 78480,
      "channel": 13,
      "type": "noteOff",
      "note": 84,
      "velocity": 86,
      "rel": 0.685039,
      "time": 80.44061332197714
    },
    {
      "absoluteTicks": 78720,
      "channel": 13,
      "type": "noteOn",
      "note": 96,
      "velocity": 112,
      "vel": 0.88189,
      "time": 80.68254832197812
    },
    {
      "absoluteTicks": 78720,
      "channel": 13,
      "type": "noteOn",
      "note": 93,
      "velocity": 109,
      "vel": 0.858268,
      "time": 80.68254832197812
    },
    {
      "absoluteTicks": 78720,
      "channel": 13,
      "type": "noteOn",
      "note": 90,
      "velocity": 112,
      "vel": 0.88189,
      "time": 80.68254832197812
    },
    {
      "absoluteTicks": 78720,
      "channel": 13,
      "type": "noteOn",
      "note": 87,
      "velocity": 112,
      "vel": 0.88189,
      "time": 80.68254832197812
    },
    {
      "absoluteTicks": 78960,
      "channel": 13,
      "type": "noteOff",
      "note": 96,
      "velocity": 112,
      "rel": 0.88189,
      "time": 80.92448332197908
    },
    {
      "absoluteTicks": 78960,
      "channel": 13,
      "type": "noteOff",
      "note": 93,
      "velocity": 109,
      "rel": 0.858268,
      "time": 80.92448332197908
    },
    {
      "absoluteTicks": 78960,
      "channel": 13,
      "type": "noteOff",
      "note": 90,
      "velocity": 112,
      "rel": 0.88189,
      "time": 80.92448332197908
    },
    {
      "absoluteTicks": 78960,
      "channel": 13,
      "type": "noteOff",
      "note": 87,
      "velocity": 112,
      "rel": 0.88189,
      "time": 80.92448332197908
    },
    {
      "absoluteTicks": 79200,
      "channel": 13,
      "type": "noteOn",
      "note": 95,
      "velocity": 94,
      "vel": 0.748031,
      "time": 81.16641832198005
    },
    {
      "absoluteTicks": 79200,
      "channel": 13,
      "type": "noteOn",
      "note": 91,
      "velocity": 92,
      "vel": 0.732283,
      "time": 81.16641832198005
    },
    {
      "absoluteTicks": 79200,
      "channel": 13,
      "type": "noteOn",
      "note": 88,
      "velocity": 94,
      "vel": 0.748031,
      "time": 81.16641832198005
    },
    {
      "absoluteTicks": 79440,
      "channel": 13,
      "type": "noteOff",
      "note": 95,
      "velocity": 94,
      "rel": 0.748031,
      "time": 81.40835332198101
    },
    {
      "absoluteTicks": 79440,
      "channel": 13,
      "type": "noteOff",
      "note": 91,
      "velocity": 92,
      "rel": 0.732283,
      "time": 81.40835332198101
    },
    {
      "absoluteTicks": 79440,
      "channel": 13,
      "type": "noteOff",
      "note": 88,
      "velocity": 94,
      "rel": 0.748031,
      "time": 81.40835332198101
    },
    {
      "absoluteTicks": 79680,
      "channel": 13,
      "type": "noteOn",
      "note": 103,
      "velocity": 117,
      "vel": 0.92126,
      "time": 81.65028832198198
    },
    {
      "absoluteTicks": 79680,
      "channel": 13,
      "type": "noteOn",
      "note": 97,
      "velocity": 117,
      "vel": 0.92126,
      "time": 81.65028832198198
    },
    {
      "absoluteTicks": 79680,
      "channel": 13,
      "type": "noteOn",
      "note": 94,
      "velocity": 101,
      "vel": 0.795276,
      "time": 81.65028832198198
    },
    {
      "absoluteTicks": 79680,
      "channel": 13,
      "type": "noteOn",
      "note": 88,
      "velocity": 101,
      "vel": 0.795276,
      "time": 81.65028832198198
    },
    {
      "absoluteTicks": 79800,
      "channel": 13,
      "type": "noteOff",
      "note": 103,
      "velocity": 117,
      "rel": 0.92126,
      "time": 81.77125582198246
    },
    {
      "absoluteTicks": 79800,
      "channel": 13,
      "type": "noteOff",
      "note": 97,
      "velocity": 117,
      "rel": 0.92126,
      "time": 81.77125582198246
    },
    {
      "absoluteTicks": 79800,
      "channel": 13,
      "type": "noteOff",
      "note": 94,
      "velocity": 101,
      "rel": 0.795276,
      "time": 81.77125582198246
    },
    {
      "absoluteTicks": 79800,
      "channel": 13,
      "type": "noteOff",
      "note": 88,
      "velocity": 101,
      "rel": 0.795276,
      "time": 81.77125582198246
    },
    {
      "absoluteTicks": 79920,
      "channel": 13,
      "type": "noteOn",
      "note": 103,
      "velocity": 104,
      "vel": 0.818898,
      "time": 81.89222332198295
    },
    {
      "absoluteTicks": 79920,
      "channel": 13,
      "type": "noteOn",
      "note": 97,
      "velocity": 104,
      "vel": 0.818898,
      "time": 81.89222332198295
    },
    {
      "absoluteTicks": 79920,
      "channel": 13,
      "type": "noteOn",
      "note": 94,
      "velocity": 100,
      "vel": 0.787402,
      "time": 81.89222332198295
    },
    {
      "absoluteTicks": 79920,
      "channel": 13,
      "type": "noteOn",
      "note": 88,
      "velocity": 100,
      "vel": 0.787402,
      "time": 81.89222332198295
    },
    {
      "absoluteTicks": 80040,
      "channel": 13,
      "type": "noteOff",
      "note": 103,
      "velocity": 104,
      "rel": 0.818898,
      "time": 82.01319082198343
    },
    {
      "absoluteTicks": 80040,
      "channel": 13,
      "type": "noteOff",
      "note": 97,
      "velocity": 104,
      "rel": 0.818898,
      "time": 82.01319082198343
    },
    {
      "absoluteTicks": 80040,
      "channel": 13,
      "type": "noteOff",
      "note": 94,
      "velocity": 100,
      "rel": 0.787402,
      "time": 82.01319082198343
    },
    {
      "absoluteTicks": 80040,
      "channel": 13,
      "type": "noteOff",
      "note": 88,
      "velocity": 100,
      "rel": 0.787402,
      "time": 82.01319082198343
    },
    {
      "absoluteTicks": 80160,
      "channel": 13,
      "type": "noteOn",
      "note": 103,
      "velocity": 99,
      "vel": 0.779528,
      "time": 82.13415832198392
    },
    {
      "absoluteTicks": 80160,
      "channel": 13,
      "type": "noteOn",
      "note": 97,
      "velocity": 99,
      "vel": 0.779528,
      "time": 82.13415832198392
    },
    {
      "absoluteTicks": 80160,
      "channel": 13,
      "type": "noteOn",
      "note": 94,
      "velocity": 99,
      "vel": 0.779528,
      "time": 82.13415832198392
    },
    {
      "absoluteTicks": 80160,
      "channel": 13,
      "type": "noteOn",
      "note": 88,
      "velocity": 99,
      "vel": 0.779528,
      "time": 82.13415832198392
    },
    {
      "absoluteTicks": 80400,
      "channel": 13,
      "type": "noteOff",
      "note": 103,
      "velocity": 99,
      "rel": 0.779528,
      "time": 82.37609332198488
    },
    {
      "absoluteTicks": 80400,
      "channel": 13,
      "type": "noteOff",
      "note": 97,
      "velocity": 99,
      "rel": 0.779528,
      "time": 82.37609332198488
    },
    {
      "absoluteTicks": 80400,
      "channel": 13,
      "type": "noteOff",
      "note": 94,
      "velocity": 99,
      "rel": 0.779528,
      "time": 82.37609332198488
    },
    {
      "absoluteTicks": 80400,
      "channel": 13,
      "type": "noteOff",
      "note": 88,
      "velocity": 99,
      "rel": 0.779528,
      "time": 82.37609332198488
    },
    {
      "absoluteTicks": 80640,
      "channel": 13,
      "type": "noteOn",
      "note": 102,
      "velocity": 92,
      "vel": 0.732283,
      "time": 82.61802832198586
    },
    {
      "absoluteTicks": 80640,
      "channel": 13,
      "type": "noteOn",
      "note": 98,
      "velocity": 92,
      "vel": 0.732283,
      "time": 82.61802832198586
    },
    {
      "absoluteTicks": 80640,
      "channel": 13,
      "type": "noteOn",
      "note": 95,
      "velocity": 92,
      "vel": 0.732283,
      "time": 82.61802832198586
    },
    {
      "absoluteTicks": 80640,
      "channel": 13,
      "type": "noteOn",
      "note": 92,
      "velocity": 83,
      "vel": 0.661417,
      "time": 82.61802832198586
    },
    {
      "absoluteTicks": 80640,
      "channel": 13,
      "type": "noteOn",
      "note": 90,
      "velocity": 83,
      "vel": 0.661417,
      "time": 82.61802832198586
    },
    {
      "absoluteTicks": 80640,
      "channel": 13,
      "type": "noteOn",
      "note": 86,
      "velocity": 83,
      "vel": 0.661417,
      "time": 82.61802832198586
    },
    {
      "absoluteTicks": 80760,
      "channel": 13,
      "type": "noteOff",
      "note": 102,
      "velocity": 92,
      "rel": 0.732283,
      "time": 82.73899582198634
    },
    {
      "absoluteTicks": 80760,
      "channel": 13,
      "type": "noteOff",
      "note": 98,
      "velocity": 92,
      "rel": 0.732283,
      "time": 82.73899582198634
    },
    {
      "absoluteTicks": 80760,
      "channel": 13,
      "type": "noteOff",
      "note": 95,
      "velocity": 92,
      "rel": 0.732283,
      "time": 82.73899582198634
    },
    {
      "absoluteTicks": 80760,
      "channel": 13,
      "type": "noteOff",
      "note": 92,
      "velocity": 83,
      "rel": 0.661417,
      "time": 82.73899582198634
    },
    {
      "absoluteTicks": 80760,
      "channel": 13,
      "type": "noteOff",
      "note": 90,
      "velocity": 83,
      "rel": 0.661417,
      "time": 82.73899582198634
    },
    {
      "absoluteTicks": 80760,
      "channel": 13,
      "type": "noteOff",
      "note": 86,
      "velocity": 83,
      "rel": 0.661417,
      "time": 82.73899582198634
    },
    {
      "absoluteTicks": 80880,
      "channel": 13,
      "type": "noteOn",
      "note": 102,
      "velocity": 100,
      "vel": 0.787402,
      "time": 82.85996332198683
    },
    {
      "absoluteTicks": 80880,
      "channel": 13,
      "type": "noteOn",
      "note": 98,
      "velocity": 100,
      "vel": 0.787402,
      "time": 82.85996332198683
    },
    {
      "absoluteTicks": 80880,
      "channel": 13,
      "type": "noteOn",
      "note": 95,
      "velocity": 100,
      "vel": 0.787402,
      "time": 82.85996332198683
    },
    {
      "absoluteTicks": 80880,
      "channel": 13,
      "type": "noteOn",
      "note": 92,
      "velocity": 96,
      "vel": 0.755906,
      "time": 82.85996332198683
    },
    {
      "absoluteTicks": 80880,
      "channel": 13,
      "type": "noteOn",
      "note": 90,
      "velocity": 96,
      "vel": 0.755906,
      "time": 82.85996332198683
    },
    {
      "absoluteTicks": 80880,
      "channel": 13,
      "type": "noteOn",
      "note": 86,
      "velocity": 96,
      "vel": 0.755906,
      "time": 82.85996332198683
    },
    {
      "absoluteTicks": 81000,
      "channel": 13,
      "type": "noteOff",
      "note": 102,
      "velocity": 100,
      "rel": 0.787402,
      "time": 82.9809308219873
    },
    {
      "absoluteTicks": 81000,
      "channel": 13,
      "type": "noteOff",
      "note": 98,
      "velocity": 100,
      "rel": 0.787402,
      "time": 82.9809308219873
    },
    {
      "absoluteTicks": 81000,
      "channel": 13,
      "type": "noteOff",
      "note": 95,
      "velocity": 100,
      "rel": 0.787402,
      "time": 82.9809308219873
    },
    {
      "absoluteTicks": 81000,
      "channel": 13,
      "type": "noteOff",
      "note": 92,
      "velocity": 96,
      "rel": 0.755906,
      "time": 82.9809308219873
    },
    {
      "absoluteTicks": 81000,
      "channel": 13,
      "type": "noteOff",
      "note": 90,
      "velocity": 96,
      "rel": 0.755906,
      "time": 82.9809308219873
    },
    {
      "absoluteTicks": 81000,
      "channel": 13,
      "type": "noteOff",
      "note": 86,
      "velocity": 96,
      "rel": 0.755906,
      "time": 82.9809308219873
    },
    {
      "absoluteTicks": 81120,
      "channel": 13,
      "type": "noteOn",
      "note": 102,
      "velocity": 99,
      "vel": 0.779528,
      "time": 83.10189832198779
    },
    {
      "absoluteTicks": 81120,
      "channel": 13,
      "type": "noteOn",
      "note": 98,
      "velocity": 99,
      "vel": 0.779528,
      "time": 83.10189832198779
    },
    {
      "absoluteTicks": 81120,
      "channel": 13,
      "type": "noteOn",
      "note": 95,
      "velocity": 99,
      "vel": 0.779528,
      "time": 83.10189832198779
    },
    {
      "absoluteTicks": 81120,
      "channel": 13,
      "type": "noteOn",
      "note": 92,
      "velocity": 92,
      "vel": 0.732283,
      "time": 83.10189832198779
    },
    {
      "absoluteTicks": 81120,
      "channel": 13,
      "type": "noteOn",
      "note": 90,
      "velocity": 92,
      "vel": 0.732283,
      "time": 83.10189832198779
    },
    {
      "absoluteTicks": 81120,
      "channel": 13,
      "type": "noteOn",
      "note": 86,
      "velocity": 92,
      "vel": 0.732283,
      "time": 83.10189832198779
    },
    {
      "absoluteTicks": 81360,
      "channel": 13,
      "type": "noteOff",
      "note": 102,
      "velocity": 99,
      "rel": 0.779528,
      "time": 83.34383332198875
    },
    {
      "absoluteTicks": 81360,
      "channel": 13,
      "type": "noteOff",
      "note": 98,
      "velocity": 99,
      "rel": 0.779528,
      "time": 83.34383332198875
    },
    {
      "absoluteTicks": 81360,
      "channel": 13,
      "type": "noteOff",
      "note": 95,
      "velocity": 99,
      "rel": 0.779528,
      "time": 83.34383332198875
    },
    {
      "absoluteTicks": 81360,
      "channel": 13,
      "type": "noteOff",
      "note": 92,
      "velocity": 92,
      "rel": 0.732283,
      "time": 83.34383332198875
    },
    {
      "absoluteTicks": 81360,
      "channel": 13,
      "type": "noteOff",
      "note": 90,
      "velocity": 92,
      "rel": 0.732283,
      "time": 83.34383332198875
    },
    {
      "absoluteTicks": 81360,
      "channel": 13,
      "type": "noteOff",
      "note": 86,
      "velocity": 92,
      "rel": 0.732283,
      "time": 83.34383332198875
    },
    {
      "absoluteTicks": 81600,
      "channel": 13,
      "type": "noteOn",
      "note": 100,
      "velocity": 91,
      "vel": 0.724409,
      "time": 83.58576832198972
    },
    {
      "absoluteTicks": 81600,
      "channel": 13,
      "type": "noteOn",
      "note": 94,
      "velocity": 91,
      "vel": 0.724409,
      "time": 83.58576832198972
    },
    {
      "absoluteTicks": 81600,
      "channel": 13,
      "type": "noteOn",
      "note": 90,
      "velocity": 88,
      "vel": 0.700787,
      "time": 83.58576832198972
    },
    {
      "absoluteTicks": 81600,
      "channel": 13,
      "type": "noteOn",
      "note": 85,
      "velocity": 88,
      "vel": 0.700787,
      "time": 83.58576832198972
    },
    {
      "absoluteTicks": 81720,
      "channel": 13,
      "type": "noteOff",
      "note": 100,
      "velocity": 91,
      "rel": 0.724409,
      "time": 83.70673582199021
    },
    {
      "absoluteTicks": 81720,
      "channel": 13,
      "type": "noteOff",
      "note": 94,
      "velocity": 91,
      "rel": 0.724409,
      "time": 83.70673582199021
    },
    {
      "absoluteTicks": 81720,
      "channel": 13,
      "type": "noteOff",
      "note": 90,
      "velocity": 88,
      "rel": 0.700787,
      "time": 83.70673582199021
    },
    {
      "absoluteTicks": 81720,
      "channel": 13,
      "type": "noteOff",
      "note": 85,
      "velocity": 88,
      "rel": 0.700787,
      "time": 83.70673582199021
    },
    {
      "absoluteTicks": 81840,
      "channel": 13,
      "type": "noteOn",
      "note": 100,
      "velocity": 94,
      "vel": 0.748031,
      "time": 83.8277033219907
    },
    {
      "absoluteTicks": 81840,
      "channel": 13,
      "type": "noteOn",
      "note": 94,
      "velocity": 94,
      "vel": 0.748031,
      "time": 83.8277033219907
    },
    {
      "absoluteTicks": 81840,
      "channel": 13,
      "type": "noteOn",
      "note": 90,
      "velocity": 94,
      "vel": 0.748031,
      "time": 83.8277033219907
    },
    {
      "absoluteTicks": 81840,
      "channel": 13,
      "type": "noteOn",
      "note": 85,
      "velocity": 94,
      "vel": 0.748031,
      "time": 83.8277033219907
    },
    {
      "absoluteTicks": 81960,
      "channel": 13,
      "type": "noteOff",
      "note": 100,
      "velocity": 94,
      "rel": 0.748031,
      "time": 83.94867082199117
    },
    {
      "absoluteTicks": 81960,
      "channel": 13,
      "type": "noteOff",
      "note": 94,
      "velocity": 94,
      "rel": 0.748031,
      "time": 83.94867082199117
    },
    {
      "absoluteTicks": 81960,
      "channel": 13,
      "type": "noteOff",
      "note": 90,
      "velocity": 94,
      "rel": 0.748031,
      "time": 83.94867082199117
    },
    {
      "absoluteTicks": 81960,
      "channel": 13,
      "type": "noteOff",
      "note": 85,
      "velocity": 94,
      "rel": 0.748031,
      "time": 83.94867082199117
    },
    {
      "absoluteTicks": 82080,
      "channel": 13,
      "type": "noteOn",
      "note": 100,
      "velocity": 97,
      "vel": 0.76378,
      "time": 84.06963832199166
    },
    {
      "absoluteTicks": 82080,
      "channel": 13,
      "type": "noteOn",
      "note": 94,
      "velocity": 97,
      "vel": 0.76378,
      "time": 84.06963832199166
    },
    {
      "absoluteTicks": 82080,
      "channel": 13,
      "type": "noteOn",
      "note": 90,
      "velocity": 97,
      "vel": 0.76378,
      "time": 84.06963832199166
    },
    {
      "absoluteTicks": 82080,
      "channel": 13,
      "type": "noteOn",
      "note": 85,
      "velocity": 97,
      "vel": 0.76378,
      "time": 84.06963832199166
    },
    {
      "absoluteTicks": 82320,
      "channel": 13,
      "type": "noteOff",
      "note": 100,
      "velocity": 97,
      "rel": 0.76378,
      "time": 84.31157332199263
    },
    {
      "absoluteTicks": 82320,
      "channel": 13,
      "type": "noteOff",
      "note": 94,
      "velocity": 97,
      "rel": 0.76378,
      "time": 84.31157332199263
    },
    {
      "absoluteTicks": 82320,
      "channel": 13,
      "type": "noteOff",
      "note": 90,
      "velocity": 97,
      "rel": 0.76378,
      "time": 84.31157332199263
    },
    {
      "absoluteTicks": 82320,
      "channel": 13,
      "type": "noteOff",
      "note": 85,
      "velocity": 97,
      "rel": 0.76378,
      "time": 84.31157332199263
    },
    {
      "absoluteTicks": 82560,
      "channel": 13,
      "type": "noteOn",
      "note": 99,
      "velocity": 92,
      "vel": 0.732283,
      "time": 84.55350832199359
    },
    {
      "absoluteTicks": 82560,
      "channel": 13,
      "type": "noteOn",
      "note": 95,
      "velocity": 92,
      "vel": 0.732283,
      "time": 84.55350832199359
    },
    {
      "absoluteTicks": 82560,
      "channel": 13,
      "type": "noteOn",
      "note": 90,
      "velocity": 98,
      "vel": 0.771654,
      "time": 84.55350832199359
    },
    {
      "absoluteTicks": 82560,
      "channel": 13,
      "type": "noteOn",
      "note": 83,
      "velocity": 98,
      "vel": 0.771654,
      "time": 84.55350832199359
    },
    {
      "absoluteTicks": 82680,
      "channel": 13,
      "type": "noteOff",
      "note": 99,
      "velocity": 92,
      "rel": 0.732283,
      "time": 84.67447582199408
    },
    {
      "absoluteTicks": 82680,
      "channel": 13,
      "type": "noteOff",
      "note": 95,
      "velocity": 92,
      "rel": 0.732283,
      "time": 84.67447582199408
    },
    {
      "absoluteTicks": 82680,
      "channel": 13,
      "type": "noteOff",
      "note": 90,
      "velocity": 98,
      "rel": 0.771654,
      "time": 84.67447582199408
    },
    {
      "absoluteTicks": 82680,
      "channel": 13,
      "type": "noteOff",
      "note": 83,
      "velocity": 98,
      "rel": 0.771654,
      "time": 84.67447582199408
    },
    {
      "absoluteTicks": 82800,
      "channel": 13,
      "type": "noteOn",
      "note": 102,
      "velocity": 104,
      "vel": 0.818898,
      "time": 84.79544332199457
    },
    {
      "absoluteTicks": 82800,
      "channel": 13,
      "type": "noteOn",
      "note": 87,
      "velocity": 88,
      "vel": 0.700787,
      "time": 84.79544332199457
    },
    {
      "absoluteTicks": 82920,
      "channel": 13,
      "type": "noteOff",
      "note": 102,
      "velocity": 104,
      "rel": 0.818898,
      "time": 84.91641082199504
    },
    {
      "absoluteTicks": 82920,
      "channel": 13,
      "type": "noteOff",
      "note": 87,
      "velocity": 88,
      "rel": 0.700787,
      "time": 84.91641082199504
    },
    {
      "absoluteTicks": 83040,
      "channel": 13,
      "type": "noteOn",
      "note": 100,
      "velocity": 93,
      "vel": 0.740157,
      "time": 85.03737832199553
    },
    {
      "absoluteTicks": 83040,
      "channel": 13,
      "type": "noteOn",
      "note": 94,
      "velocity": 93,
      "vel": 0.740157,
      "time": 85.03737832199553
    },
    {
      "absoluteTicks": 83040,
      "channel": 13,
      "type": "noteOn",
      "note": 90,
      "velocity": 105,
      "vel": 0.826772,
      "time": 85.03737832199553
    },
    {
      "absoluteTicks": 83160,
      "channel": 13,
      "type": "noteOff",
      "note": 100,
      "velocity": 93,
      "rel": 0.740157,
      "time": 85.15834582199602
    },
    {
      "absoluteTicks": 83160,
      "channel": 13,
      "type": "noteOff",
      "note": 94,
      "velocity": 93,
      "rel": 0.740157,
      "time": 85.15834582199602
    },
    {
      "absoluteTicks": 83160,
      "channel": 13,
      "type": "noteOff",
      "note": 90,
      "velocity": 105,
      "rel": 0.826772,
      "time": 85.15834582199602
    },
    {
      "absoluteTicks": 83280,
      "channel": 13,
      "type": "noteOn",
      "note": 102,
      "velocity": 102,
      "vel": 0.80315,
      "time": 85.2793133219965
    },
    {
      "absoluteTicks": 83280,
      "channel": 13,
      "type": "noteOn",
      "note": 78,
      "velocity": 72,
      "vel": 0.574803,
      "time": 85.2793133219965
    },
    {
      "absoluteTicks": 83400,
      "channel": 13,
      "type": "noteOff",
      "note": 102,
      "velocity": 102,
      "rel": 0.80315,
      "time": 85.40028082199699
    },
    {
      "absoluteTicks": 83400,
      "channel": 13,
      "type": "noteOff",
      "note": 78,
      "velocity": 72,
      "rel": 0.574803,
      "time": 85.40028082199699
    },
    {
      "absoluteTicks": 83520,
      "channel": 13,
      "type": "noteOn",
      "note": 99,
      "velocity": 89,
      "vel": 0.708661,
      "time": 85.52124832199746
    },
    {
      "absoluteTicks": 83520,
      "channel": 13,
      "type": "noteOn",
      "note": 95,
      "velocity": 89,
      "vel": 0.708661,
      "time": 85.52124832199746
    },
    {
      "absoluteTicks": 83520,
      "channel": 13,
      "type": "noteOn",
      "note": 90,
      "velocity": 114,
      "vel": 0.897638,
      "time": 85.52124832199746
    },
    {
      "absoluteTicks": 83520,
      "channel": 13,
      "type": "noteOn",
      "note": 83,
      "velocity": 114,
      "vel": 0.897638,
      "time": 85.52124832199746
    },
    {
      "absoluteTicks": 83760,
      "channel": 13,
      "type": "noteOff",
      "note": 99,
      "velocity": 89,
      "rel": 0.708661,
      "time": 85.76318332199844
    },
    {
      "absoluteTicks": 83760,
      "channel": 13,
      "type": "noteOff",
      "note": 95,
      "velocity": 89,
      "rel": 0.708661,
      "time": 85.76318332199844
    },
    {
      "absoluteTicks": 83760,
      "channel": 13,
      "type": "noteOff",
      "note": 90,
      "velocity": 114,
      "rel": 0.897638,
      "time": 85.76318332199844
    },
    {
      "absoluteTicks": 83760,
      "channel": 13,
      "type": "noteOff",
      "note": 83,
      "velocity": 114,
      "rel": 0.897638,
      "time": 85.76318332199844
    },
    {
      "absoluteTicks": 84960,
      "channel": 13,
      "type": "noteOn",
      "note": 103,
      "velocity": 86,
      "vel": 0.685039,
      "time": 86.97285832200328
    },
    {
      "absoluteTicks": 84960,
      "channel": 13,
      "type": "noteOn",
      "note": 95,
      "velocity": 86,
      "vel": 0.685039,
      "time": 86.97285832200328
    },
    {
      "absoluteTicks": 84960,
      "channel": 13,
      "type": "noteOn",
      "note": 88,
      "velocity": 93,
      "vel": 0.740157,
      "time": 86.97285832200328
    },
    {
      "absoluteTicks": 85080,
      "channel": 13,
      "type": "noteOff",
      "note": 103,
      "velocity": 86,
      "rel": 0.685039,
      "time": 87.09382582200375
    },
    {
      "absoluteTicks": 85080,
      "channel": 13,
      "type": "noteOff",
      "note": 95,
      "velocity": 86,
      "rel": 0.685039,
      "time": 87.09382582200375
    },
    {
      "absoluteTicks": 85080,
      "channel": 13,
      "type": "noteOff",
      "note": 88,
      "velocity": 93,
      "rel": 0.740157,
      "time": 87.09382582200375
    },
    {
      "absoluteTicks": 85200,
      "channel": 13,
      "type": "noteOn",
      "note": 100,
      "velocity": 88,
      "vel": 0.700787,
      "time": 87.21479332200424
    },
    {
      "absoluteTicks": 85200,
      "channel": 13,
      "type": "noteOn",
      "note": 91,
      "velocity": 105,
      "vel": 0.826772,
      "time": 87.21479332200424
    },
    {
      "absoluteTicks": 85200,
      "channel": 13,
      "type": "noteOn",
      "note": 83,
      "velocity": 105,
      "vel": 0.826772,
      "time": 87.21479332200424
    },
    {
      "absoluteTicks": 85320,
      "channel": 13,
      "type": "noteOff",
      "note": 100,
      "velocity": 88,
      "rel": 0.700787,
      "time": 87.33576082200472
    },
    {
      "absoluteTicks": 85320,
      "channel": 13,
      "type": "noteOff",
      "note": 91,
      "velocity": 105,
      "rel": 0.826772,
      "time": 87.33576082200472
    },
    {
      "absoluteTicks": 85320,
      "channel": 13,
      "type": "noteOff",
      "note": 83,
      "velocity": 105,
      "rel": 0.826772,
      "time": 87.33576082200472
    },
    {
      "absoluteTicks": 85440,
      "channel": 13,
      "type": "noteOn",
      "note": 103,
      "velocity": 110,
      "vel": 0.866142,
      "time": 87.4567283220052
    },
    {
      "absoluteTicks": 85440,
      "channel": 13,
      "type": "noteOn",
      "note": 95,
      "velocity": 110,
      "vel": 0.866142,
      "time": 87.4567283220052
    },
    {
      "absoluteTicks": 85440,
      "channel": 13,
      "type": "noteOn",
      "note": 88,
      "velocity": 89,
      "vel": 0.708661,
      "time": 87.4567283220052
    },
    {
      "absoluteTicks": 85680,
      "channel": 13,
      "type": "noteOff",
      "note": 103,
      "velocity": 110,
      "rel": 0.866142,
      "time": 87.69866332200618
    },
    {
      "absoluteTicks": 85680,
      "channel": 13,
      "type": "noteOff",
      "note": 95,
      "velocity": 110,
      "rel": 0.866142,
      "time": 87.69866332200618
    },
    {
      "absoluteTicks": 85680,
      "channel": 13,
      "type": "noteOff",
      "note": 88,
      "velocity": 89,
      "rel": 0.708661,
      "time": 87.69866332200618
    },
    {
      "absoluteTicks": 85920,
      "channel": 13,
      "type": "noteOn",
      "note": 102,
      "velocity": 90,
      "vel": 0.716535,
      "time": 87.94059832200715
    },
    {
      "absoluteTicks": 85920,
      "channel": 13,
      "type": "noteOn",
      "note": 93,
      "velocity": 90,
      "vel": 0.716535,
      "time": 87.94059832200715
    },
    {
      "absoluteTicks": 85920,
      "channel": 13,
      "type": "noteOn",
      "note": 88,
      "velocity": 93,
      "vel": 0.740157,
      "time": 87.94059832200715
    },
    {
      "absoluteTicks": 85920,
      "channel": 13,
      "type": "noteOn",
      "note": 84,
      "velocity": 93,
      "vel": 0.740157,
      "time": 87.94059832200715
    },
    {
      "absoluteTicks": 86160,
      "channel": 13,
      "type": "noteOff",
      "note": 102,
      "velocity": 90,
      "rel": 0.716535,
      "time": 88.18253332200811
    },
    {
      "absoluteTicks": 86160,
      "channel": 13,
      "type": "noteOff",
      "note": 93,
      "velocity": 90,
      "rel": 0.716535,
      "time": 88.18253332200811
    },
    {
      "absoluteTicks": 86160,
      "channel": 13,
      "type": "noteOff",
      "note": 88,
      "velocity": 93,
      "rel": 0.740157,
      "time": 88.18253332200811
    },
    {
      "absoluteTicks": 86160,
      "channel": 13,
      "type": "noteOff",
      "note": 84,
      "velocity": 93,
      "rel": 0.740157,
      "time": 88.18253332200811
    },
    {
      "absoluteTicks": 86400,
      "channel": 13,
      "type": "noteOn",
      "note": 99,
      "velocity": 84,
      "vel": 0.669291,
      "time": 88.42446832200908
    },
    {
      "absoluteTicks": 86400,
      "channel": 13,
      "type": "noteOn",
      "note": 90,
      "velocity": 84,
      "vel": 0.669291,
      "time": 88.42446832200908
    },
    {
      "absoluteTicks": 86400,
      "channel": 13,
      "type": "noteOn",
      "note": 84,
      "velocity": 87,
      "vel": 0.692913,
      "time": 88.42446832200908
    },
    {
      "absoluteTicks": 86400,
      "channel": 13,
      "type": "noteOn",
      "note": 81,
      "velocity": 87,
      "vel": 0.692913,
      "time": 88.42446832200908
    },
    {
      "absoluteTicks": 86640,
      "channel": 13,
      "type": "noteOff",
      "note": 99,
      "velocity": 84,
      "rel": 0.669291,
      "time": 88.66640332201004
    },
    {
      "absoluteTicks": 86640,
      "channel": 13,
      "type": "noteOff",
      "note": 90,
      "velocity": 84,
      "rel": 0.669291,
      "time": 88.66640332201004
    },
    {
      "absoluteTicks": 86640,
      "channel": 13,
      "type": "noteOff",
      "note": 84,
      "velocity": 87,
      "rel": 0.692913,
      "time": 88.66640332201004
    },
    {
      "absoluteTicks": 86640,
      "channel": 13,
      "type": "noteOff",
      "note": 81,
      "velocity": 87,
      "rel": 0.692913,
      "time": 88.66640332201004
    },
    {
      "absoluteTicks": 86880,
      "channel": 13,
      "type": "noteOn",
      "note": 100,
      "velocity": 100,
      "vel": 0.787402,
      "time": 88.90833832201102
    },
    {
      "absoluteTicks": 86880,
      "channel": 13,
      "type": "noteOn",
      "note": 91,
      "velocity": 100,
      "vel": 0.787402,
      "time": 88.90833832201102
    },
    {
      "absoluteTicks": 86880,
      "channel": 13,
      "type": "noteOn",
      "note": 85,
      "velocity": 102,
      "vel": 0.80315,
      "time": 88.90833832201102
    },
    {
      "absoluteTicks": 86880,
      "channel": 13,
      "type": "noteOn",
      "note": 82,
      "velocity": 102,
      "vel": 0.80315,
      "time": 88.90833832201102
    },
    {
      "absoluteTicks": 87120,
      "channel": 13,
      "type": "noteOff",
      "note": 100,
      "velocity": 100,
      "rel": 0.787402,
      "time": 89.15027332201198
    },
    {
      "absoluteTicks": 87120,
      "channel": 13,
      "type": "noteOff",
      "note": 91,
      "velocity": 100,
      "rel": 0.787402,
      "time": 89.15027332201198
    },
    {
      "absoluteTicks": 87120,
      "channel": 13,
      "type": "noteOff",
      "note": 85,
      "velocity": 102,
      "rel": 0.80315,
      "time": 89.15027332201198
    },
    {
      "absoluteTicks": 87120,
      "channel": 13,
      "type": "noteOff",
      "note": 82,
      "velocity": 102,
      "rel": 0.80315,
      "time": 89.15027332201198
    },
    {
      "absoluteTicks": 87360,
      "channel": 13,
      "type": "noteOn",
      "note": 98,
      "velocity": 88,
      "vel": 0.700787,
      "time": 89.39220832201295
    },
    {
      "absoluteTicks": 87360,
      "channel": 13,
      "type": "noteOn",
      "note": 92,
      "velocity": 88,
      "vel": 0.700787,
      "time": 89.39220832201295
    },
    {
      "absoluteTicks": 87360,
      "channel": 13,
      "type": "noteOn",
      "note": 89,
      "velocity": 100,
      "vel": 0.787402,
      "time": 89.39220832201295
    },
    {
      "absoluteTicks": 87360,
      "channel": 13,
      "type": "noteOn",
      "note": 83,
      "velocity": 100,
      "vel": 0.787402,
      "time": 89.39220832201295
    },
    {
      "absoluteTicks": 87480,
      "channel": 13,
      "type": "noteOff",
      "note": 98,
      "velocity": 88,
      "rel": 0.700787,
      "time": 89.51317582201344
    },
    {
      "absoluteTicks": 87480,
      "channel": 13,
      "type": "noteOff",
      "note": 92,
      "velocity": 88,
      "rel": 0.700787,
      "time": 89.51317582201344
    },
    {
      "absoluteTicks": 87480,
      "channel": 13,
      "type": "noteOff",
      "note": 89,
      "velocity": 100,
      "rel": 0.787402,
      "time": 89.51317582201344
    },
    {
      "absoluteTicks": 87480,
      "channel": 13,
      "type": "noteOff",
      "note": 83,
      "velocity": 100,
      "rel": 0.787402,
      "time": 89.51317582201344
    },
    {
      "absoluteTicks": 87600,
      "channel": 13,
      "type": "noteOn",
      "note": 98,
      "velocity": 91,
      "vel": 0.724409,
      "time": 89.63414332201391
    },
    {
      "absoluteTicks": 87600,
      "channel": 13,
      "type": "noteOn",
      "note": 92,
      "velocity": 91,
      "vel": 0.724409,
      "time": 89.63414332201391
    },
    {
      "absoluteTicks": 87600,
      "channel": 13,
      "type": "noteOn",
      "note": 89,
      "velocity": 96,
      "vel": 0.755906,
      "time": 89.63414332201391
    },
    {
      "absoluteTicks": 87600,
      "channel": 13,
      "type": "noteOn",
      "note": 83,
      "velocity": 96,
      "vel": 0.755906,
      "time": 89.63414332201391
    },
    {
      "absoluteTicks": 87720,
      "channel": 13,
      "type": "noteOff",
      "note": 98,
      "velocity": 91,
      "rel": 0.724409,
      "time": 89.7551108220144
    },
    {
      "absoluteTicks": 87720,
      "channel": 13,
      "type": "noteOff",
      "note": 92,
      "velocity": 91,
      "rel": 0.724409,
      "time": 89.7551108220144
    },
    {
      "absoluteTicks": 87720,
      "channel": 13,
      "type": "noteOff",
      "note": 89,
      "velocity": 96,
      "rel": 0.755906,
      "time": 89.7551108220144
    },
    {
      "absoluteTicks": 87720,
      "channel": 13,
      "type": "noteOff",
      "note": 83,
      "velocity": 96,
      "rel": 0.755906,
      "time": 89.7551108220144
    },
    {
      "absoluteTicks": 87840,
      "channel": 13,
      "type": "noteOn",
      "note": 98,
      "velocity": 98,
      "vel": 0.771654,
      "time": 89.87607832201488
    },
    {
      "absoluteTicks": 87840,
      "channel": 13,
      "type": "noteOn",
      "note": 92,
      "velocity": 98,
      "vel": 0.771654,
      "time": 89.87607832201488
    },
    {
      "absoluteTicks": 87840,
      "channel": 13,
      "type": "noteOn",
      "note": 89,
      "velocity": 102,
      "vel": 0.80315,
      "time": 89.87607832201488
    },
    {
      "absoluteTicks": 87840,
      "channel": 13,
      "type": "noteOn",
      "note": 83,
      "velocity": 102,
      "vel": 0.80315,
      "time": 89.87607832201488
    },
    {
      "absoluteTicks": 88080,
      "channel": 13,
      "type": "noteOff",
      "note": 98,
      "velocity": 98,
      "rel": 0.771654,
      "time": 90.11801332201586
    },
    {
      "absoluteTicks": 88080,
      "channel": 13,
      "type": "noteOff",
      "note": 92,
      "velocity": 98,
      "rel": 0.771654,
      "time": 90.11801332201586
    },
    {
      "absoluteTicks": 88080,
      "channel": 13,
      "type": "noteOff",
      "note": 89,
      "velocity": 102,
      "rel": 0.80315,
      "time": 90.11801332201586
    },
    {
      "absoluteTicks": 88080,
      "channel": 13,
      "type": "noteOff",
      "note": 83,
      "velocity": 102,
      "rel": 0.80315,
      "time": 90.11801332201586
    },
    {
      "absoluteTicks": 88320,
      "channel": 13,
      "type": "noteOn",
      "note": 97,
      "velocity": 87,
      "vel": 0.692913,
      "time": 90.35994832201682
    },
    {
      "absoluteTicks": 88320,
      "channel": 13,
      "type": "noteOn",
      "note": 91,
      "velocity": 87,
      "vel": 0.692913,
      "time": 90.35994832201682
    },
    {
      "absoluteTicks": 88320,
      "channel": 13,
      "type": "noteOn",
      "note": 88,
      "velocity": 91,
      "vel": 0.724409,
      "time": 90.35994832201682
    },
    {
      "absoluteTicks": 88320,
      "channel": 13,
      "type": "noteOn",
      "note": 82,
      "velocity": 91,
      "vel": 0.724409,
      "time": 90.35994832201682
    },
    {
      "absoluteTicks": 88440,
      "channel": 13,
      "type": "noteOff",
      "note": 97,
      "velocity": 87,
      "rel": 0.692913,
      "time": 90.48091582201731
    },
    {
      "absoluteTicks": 88440,
      "channel": 13,
      "type": "noteOff",
      "note": 91,
      "velocity": 87,
      "rel": 0.692913,
      "time": 90.48091582201731
    },
    {
      "absoluteTicks": 88440,
      "channel": 13,
      "type": "noteOff",
      "note": 88,
      "velocity": 91,
      "rel": 0.724409,
      "time": 90.48091582201731
    },
    {
      "absoluteTicks": 88440,
      "channel": 13,
      "type": "noteOff",
      "note": 82,
      "velocity": 91,
      "rel": 0.724409,
      "time": 90.48091582201731
    },
    {
      "absoluteTicks": 88560,
      "channel": 13,
      "type": "noteOn",
      "note": 97,
      "velocity": 96,
      "vel": 0.755906,
      "time": 90.60188332201778
    },
    {
      "absoluteTicks": 88560,
      "channel": 13,
      "type": "noteOn",
      "note": 91,
      "velocity": 96,
      "vel": 0.755906,
      "time": 90.60188332201778
    },
    {
      "absoluteTicks": 88560,
      "channel": 13,
      "type": "noteOn",
      "note": 88,
      "velocity": 97,
      "vel": 0.76378,
      "time": 90.60188332201778
    },
    {
      "absoluteTicks": 88560,
      "channel": 13,
      "type": "noteOn",
      "note": 82,
      "velocity": 97,
      "vel": 0.76378,
      "time": 90.60188332201778
    },
    {
      "absoluteTicks": 88680,
      "channel": 13,
      "type": "noteOff",
      "note": 97,
      "velocity": 96,
      "rel": 0.755906,
      "time": 90.72285082201827
    },
    {
      "absoluteTicks": 88680,
      "channel": 13,
      "type": "noteOff",
      "note": 91,
      "velocity": 96,
      "rel": 0.755906,
      "time": 90.72285082201827
    },
    {
      "absoluteTicks": 88680,
      "channel": 13,
      "type": "noteOff",
      "note": 88,
      "velocity": 97,
      "rel": 0.76378,
      "time": 90.72285082201827
    },
    {
      "absoluteTicks": 88680,
      "channel": 13,
      "type": "noteOff",
      "note": 82,
      "velocity": 97,
      "rel": 0.76378,
      "time": 90.72285082201827
    },
    {
      "absoluteTicks": 88800,
      "channel": 13,
      "type": "noteOn",
      "note": 97,
      "velocity": 99,
      "vel": 0.779528,
      "time": 90.84381832201876
    },
    {
      "absoluteTicks": 88800,
      "channel": 13,
      "type": "noteOn",
      "note": 91,
      "velocity": 99,
      "vel": 0.779528,
      "time": 90.84381832201876
    },
    {
      "absoluteTicks": 88800,
      "channel": 13,
      "type": "noteOn",
      "note": 88,
      "velocity": 99,
      "vel": 0.779528,
      "time": 90.84381832201876
    },
    {
      "absoluteTicks": 88800,
      "channel": 13,
      "type": "noteOn",
      "note": 82,
      "velocity": 99,
      "vel": 0.779528,
      "time": 90.84381832201876
    },
    {
      "absoluteTicks": 89040,
      "channel": 13,
      "type": "noteOff",
      "note": 97,
      "velocity": 99,
      "rel": 0.779528,
      "time": 91.08575332201973
    },
    {
      "absoluteTicks": 89040,
      "channel": 13,
      "type": "noteOff",
      "note": 91,
      "velocity": 99,
      "rel": 0.779528,
      "time": 91.08575332201973
    },
    {
      "absoluteTicks": 89040,
      "channel": 13,
      "type": "noteOff",
      "note": 88,
      "velocity": 99,
      "rel": 0.779528,
      "time": 91.08575332201973
    },
    {
      "absoluteTicks": 89040,
      "channel": 13,
      "type": "noteOff",
      "note": 82,
      "velocity": 99,
      "rel": 0.779528,
      "time": 91.08575332201973
    },
    {
      "absoluteTicks": 89280,
      "channel": 13,
      "type": "noteOn",
      "note": 96,
      "velocity": 90,
      "vel": 0.716535,
      "time": 91.32768832202069
    },
    {
      "absoluteTicks": 89280,
      "channel": 13,
      "type": "noteOn",
      "note": 90,
      "velocity": 90,
      "vel": 0.716535,
      "time": 91.32768832202069
    },
    {
      "absoluteTicks": 89280,
      "channel": 13,
      "type": "noteOn",
      "note": 87,
      "velocity": 94,
      "vel": 0.748031,
      "time": 91.32768832202069
    },
    {
      "absoluteTicks": 89280,
      "channel": 13,
      "type": "noteOn",
      "note": 81,
      "velocity": 94,
      "vel": 0.748031,
      "time": 91.32768832202069
    },
    {
      "absoluteTicks": 89400,
      "channel": 13,
      "type": "noteOff",
      "note": 96,
      "velocity": 90,
      "rel": 0.716535,
      "time": 91.44865582202118
    },
    {
      "absoluteTicks": 89400,
      "channel": 13,
      "type": "noteOff",
      "note": 90,
      "velocity": 90,
      "rel": 0.716535,
      "time": 91.44865582202118
    },
    {
      "absoluteTicks": 89400,
      "channel": 13,
      "type": "noteOff",
      "note": 87,
      "velocity": 94,
      "rel": 0.748031,
      "time": 91.44865582202118
    },
    {
      "absoluteTicks": 89400,
      "channel": 13,
      "type": "noteOff",
      "note": 81,
      "velocity": 94,
      "rel": 0.748031,
      "time": 91.44865582202118
    },
    {
      "absoluteTicks": 89520,
      "channel": 13,
      "type": "noteOn",
      "note": 96,
      "velocity": 96,
      "vel": 0.755906,
      "time": 91.56962332202166
    },
    {
      "absoluteTicks": 89520,
      "channel": 13,
      "type": "noteOn",
      "note": 90,
      "velocity": 96,
      "vel": 0.755906,
      "time": 91.56962332202166
    },
    {
      "absoluteTicks": 89520,
      "channel": 13,
      "type": "noteOn",
      "note": 87,
      "velocity": 99,
      "vel": 0.779528,
      "time": 91.56962332202166
    },
    {
      "absoluteTicks": 89520,
      "channel": 13,
      "type": "noteOn",
      "note": 81,
      "velocity": 99,
      "vel": 0.779528,
      "time": 91.56962332202166
    },
    {
      "absoluteTicks": 89640,
      "channel": 13,
      "type": "noteOff",
      "note": 96,
      "velocity": 96,
      "rel": 0.755906,
      "time": 91.69059082202214
    },
    {
      "absoluteTicks": 89640,
      "channel": 13,
      "type": "noteOff",
      "note": 90,
      "velocity": 96,
      "rel": 0.755906,
      "time": 91.69059082202214
    },
    {
      "absoluteTicks": 89640,
      "channel": 13,
      "type": "noteOff",
      "note": 87,
      "velocity": 99,
      "rel": 0.779528,
      "time": 91.69059082202214
    },
    {
      "absoluteTicks": 89640,
      "channel": 13,
      "type": "noteOff",
      "note": 81,
      "velocity": 99,
      "rel": 0.779528,
      "time": 91.69059082202214
    },
    {
      "absoluteTicks": 89760,
      "channel": 13,
      "type": "noteOn",
      "note": 96,
      "velocity": 93,
      "vel": 0.740157,
      "time": 91.81155832202262
    },
    {
      "absoluteTicks": 89760,
      "channel": 13,
      "type": "noteOn",
      "note": 90,
      "velocity": 93,
      "vel": 0.740157,
      "time": 91.81155832202262
    },
    {
      "absoluteTicks": 89760,
      "channel": 13,
      "type": "noteOn",
      "note": 87,
      "velocity": 94,
      "vel": 0.748031,
      "time": 91.81155832202262
    },
    {
      "absoluteTicks": 89760,
      "channel": 13,
      "type": "noteOn",
      "note": 81,
      "velocity": 94,
      "vel": 0.748031,
      "time": 91.81155832202262
    },
    {
      "absoluteTicks": 90000,
      "channel": 13,
      "type": "noteOff",
      "note": 96,
      "velocity": 93,
      "rel": 0.740157,
      "time": 92.0534933220236
    },
    {
      "absoluteTicks": 90000,
      "channel": 13,
      "type": "noteOff",
      "note": 90,
      "velocity": 93,
      "rel": 0.740157,
      "time": 92.0534933220236
    },
    {
      "absoluteTicks": 90000,
      "channel": 13,
      "type": "noteOff",
      "note": 87,
      "velocity": 94,
      "rel": 0.748031,
      "time": 92.0534933220236
    },
    {
      "absoluteTicks": 90000,
      "channel": 13,
      "type": "noteOff",
      "note": 81,
      "velocity": 94,
      "rel": 0.748031,
      "time": 92.0534933220236
    },
    {
      "absoluteTicks": 90240,
      "channel": 13,
      "type": "noteOn",
      "note": 95,
      "velocity": 92,
      "vel": 0.732283,
      "time": 92.29542832202456
    },
    {
      "absoluteTicks": 90240,
      "channel": 13,
      "type": "noteOn",
      "note": 88,
      "velocity": 94,
      "vel": 0.748031,
      "time": 92.29542832202456
    },
    {
      "absoluteTicks": 90240,
      "channel": 13,
      "type": "noteOn",
      "note": 79,
      "velocity": 94,
      "vel": 0.748031,
      "time": 92.29542832202456
    },
    {
      "absoluteTicks": 90360,
      "channel": 13,
      "type": "noteOff",
      "note": 95,
      "velocity": 92,
      "rel": 0.732283,
      "time": 92.41639582202504
    },
    {
      "absoluteTicks": 90360,
      "channel": 13,
      "type": "noteOff",
      "note": 88,
      "velocity": 94,
      "rel": 0.748031,
      "time": 92.41639582202504
    },
    {
      "absoluteTicks": 90360,
      "channel": 13,
      "type": "noteOff",
      "note": 79,
      "velocity": 94,
      "rel": 0.748031,
      "time": 92.41639582202504
    },
    {
      "absoluteTicks": 90480,
      "channel": 13,
      "type": "noteOn",
      "note": 100,
      "velocity": 107,
      "vel": 0.84252,
      "time": 92.53736332202553
    },
    {
      "absoluteTicks": 90480,
      "channel": 13,
      "type": "noteOn",
      "note": 91,
      "velocity": 107,
      "vel": 0.84252,
      "time": 92.53736332202553
    },
    {
      "absoluteTicks": 90480,
      "channel": 13,
      "type": "noteOn",
      "note": 83,
      "velocity": 80,
      "vel": 0.637795,
      "time": 92.53736332202553
    },
    {
      "absoluteTicks": 90600,
      "channel": 13,
      "type": "noteOff",
      "note": 100,
      "velocity": 107,
      "rel": 0.84252,
      "time": 92.65833082202602
    },
    {
      "absoluteTicks": 90600,
      "channel": 13,
      "type": "noteOff",
      "note": 91,
      "velocity": 107,
      "rel": 0.84252,
      "time": 92.65833082202602
    },
    {
      "absoluteTicks": 90600,
      "channel": 13,
      "type": "noteOff",
      "note": 83,
      "velocity": 80,
      "rel": 0.637795,
      "time": 92.65833082202602
    },
    {
      "absoluteTicks": 90720,
      "channel": 13,
      "type": "noteOn",
      "note": 96,
      "velocity": 83,
      "vel": 0.661417,
      "time": 92.7792983220265
    },
    {
      "absoluteTicks": 90720,
      "channel": 13,
      "type": "noteOn",
      "note": 88,
      "velocity": 100,
      "vel": 0.787402,
      "time": 92.7792983220265
    },
    {
      "absoluteTicks": 90720,
      "channel": 13,
      "type": "noteOn",
      "note": 81,
      "velocity": 100,
      "vel": 0.787402,
      "time": 92.7792983220265
    },
    {
      "absoluteTicks": 90840,
      "channel": 13,
      "type": "noteOff",
      "note": 96,
      "velocity": 83,
      "rel": 0.661417,
      "time": 92.90026582202698
    },
    {
      "absoluteTicks": 90840,
      "channel": 13,
      "type": "noteOff",
      "note": 88,
      "velocity": 100,
      "rel": 0.787402,
      "time": 92.90026582202698
    },
    {
      "absoluteTicks": 90840,
      "channel": 13,
      "type": "noteOff",
      "note": 81,
      "velocity": 100,
      "rel": 0.787402,
      "time": 92.90026582202698
    },
    {
      "absoluteTicks": 90960,
      "channel": 13,
      "type": "noteOn",
      "note": 100,
      "velocity": 102,
      "vel": 0.80315,
      "time": 93.02123332202747
    },
    {
      "absoluteTicks": 90960,
      "channel": 13,
      "type": "noteOn",
      "note": 90,
      "velocity": 102,
      "vel": 0.80315,
      "time": 93.02123332202747
    },
    {
      "absoluteTicks": 90960,
      "channel": 13,
      "type": "noteOn",
      "note": 84,
      "velocity": 89,
      "vel": 0.708661,
      "time": 93.02123332202747
    },
    {
      "absoluteTicks": 91080,
      "channel": 13,
      "type": "noteOff",
      "note": 100,
      "velocity": 102,
      "rel": 0.80315,
      "time": 93.14220082202795
    },
    {
      "absoluteTicks": 91080,
      "channel": 13,
      "type": "noteOff",
      "note": 90,
      "velocity": 102,
      "rel": 0.80315,
      "time": 93.14220082202795
    },
    {
      "absoluteTicks": 91080,
      "channel": 13,
      "type": "noteOff",
      "note": 84,
      "velocity": 89,
      "rel": 0.708661,
      "time": 93.14220082202795
    },
    {
      "absoluteTicks": 91200,
      "channel": 13,
      "type": "noteOn",
      "note": 95,
      "velocity": 79,
      "vel": 0.629921,
      "time": 93.26316832202843
    },
    {
      "absoluteTicks": 91200,
      "channel": 13,
      "type": "noteOn",
      "note": 88,
      "velocity": 108,
      "vel": 0.850394,
      "time": 93.26316832202843
    },
    {
      "absoluteTicks": 91200,
      "channel": 13,
      "type": "noteOn",
      "note": 79,
      "velocity": 108,
      "vel": 0.850394,
      "time": 93.26316832202843
    },
    {
      "absoluteTicks": 91440,
      "channel": 13,
      "type": "noteOff",
      "note": 95,
      "velocity": 79,
      "rel": 0.629921,
      "time": 93.5051033220294
    },
    {
      "absoluteTicks": 91440,
      "channel": 13,
      "type": "noteOff",
      "note": 88,
      "velocity": 108,
      "rel": 0.850394,
      "time": 93.5051033220294
    },
    {
      "absoluteTicks": 91440,
      "channel": 13,
      "type": "noteOff",
      "note": 79,
      "velocity": 108,
      "rel": 0.850394,
      "time": 93.5051033220294
    },
    {
      "absoluteTicks": 92640,
      "channel": 13,
      "type": "noteOn",
      "note": 100,
      "velocity": 90,
      "vel": 0.716535,
      "time": 94.71477832203425
    },
    {
      "absoluteTicks": 92640,
      "channel": 13,
      "type": "noteOn",
      "note": 94,
      "velocity": 90,
      "vel": 0.716535,
      "time": 94.71477832203425
    },
    {
      "absoluteTicks": 92640,
      "channel": 13,
      "type": "noteOn",
      "note": 85,
      "velocity": 84,
      "vel": 0.669291,
      "time": 94.71477832203425
    },
    {
      "absoluteTicks": 92640,
      "channel": 13,
      "type": "noteOn",
      "note": 78,
      "velocity": 84,
      "vel": 0.669291,
      "time": 94.71477832203425
    },
    {
      "absoluteTicks": 92760,
      "channel": 13,
      "type": "noteOff",
      "note": 100,
      "velocity": 90,
      "rel": 0.716535,
      "time": 94.83574582203472
    },
    {
      "absoluteTicks": 92760,
      "channel": 13,
      "type": "noteOff",
      "note": 94,
      "velocity": 90,
      "rel": 0.716535,
      "time": 94.83574582203472
    },
    {
      "absoluteTicks": 92760,
      "channel": 13,
      "type": "noteOff",
      "note": 85,
      "velocity": 84,
      "rel": 0.669291,
      "time": 94.83574582203472
    },
    {
      "absoluteTicks": 92760,
      "channel": 13,
      "type": "noteOff",
      "note": 78,
      "velocity": 84,
      "rel": 0.669291,
      "time": 94.83574582203472
    },
    {
      "absoluteTicks": 92880,
      "channel": 13,
      "type": "noteOn",
      "note": 97,
      "velocity": 85,
      "vel": 0.677165,
      "time": 94.9567133220352
    },
    {
      "absoluteTicks": 92880,
      "channel": 13,
      "type": "noteOn",
      "note": 90,
      "velocity": 85,
      "vel": 0.677165,
      "time": 94.9567133220352
    },
    {
      "absoluteTicks": 92880,
      "channel": 13,
      "type": "noteOn",
      "note": 88,
      "velocity": 107,
      "vel": 0.84252,
      "time": 94.9567133220352
    },
    {
      "absoluteTicks": 92880,
      "channel": 13,
      "type": "noteOn",
      "note": 82,
      "velocity": 107,
      "vel": 0.84252,
      "time": 94.9567133220352
    },
    {
      "absoluteTicks": 93000,
      "channel": 13,
      "type": "noteOff",
      "note": 97,
      "velocity": 85,
      "rel": 0.677165,
      "time": 95.07768082203569
    },
    {
      "absoluteTicks": 93000,
      "channel": 13,
      "type": "noteOff",
      "note": 90,
      "velocity": 85,
      "rel": 0.677165,
      "time": 95.07768082203569
    },
    {
      "absoluteTicks": 93000,
      "channel": 13,
      "type": "noteOff",
      "note": 88,
      "velocity": 107,
      "rel": 0.84252,
      "time": 95.07768082203569
    },
    {
      "absoluteTicks": 93000,
      "channel": 13,
      "type": "noteOff",
      "note": 82,
      "velocity": 107,
      "rel": 0.84252,
      "time": 95.07768082203569
    },
    {
      "absoluteTicks": 93120,
      "channel": 13,
      "type": "noteOn",
      "note": 100,
      "velocity": 102,
      "vel": 0.80315,
      "time": 95.19864832203618
    },
    {
      "absoluteTicks": 93120,
      "channel": 13,
      "type": "noteOn",
      "note": 94,
      "velocity": 102,
      "vel": 0.80315,
      "time": 95.19864832203618
    },
    {
      "absoluteTicks": 93120,
      "channel": 13,
      "type": "noteOn",
      "note": 85,
      "velocity": 86,
      "vel": 0.685039,
      "time": 95.19864832203618
    },
    {
      "absoluteTicks": 93120,
      "channel": 13,
      "type": "noteOn",
      "note": 78,
      "velocity": 86,
      "vel": 0.685039,
      "time": 95.19864832203618
    },
    {
      "absoluteTicks": 93360,
      "channel": 13,
      "type": "noteOff",
      "note": 100,
      "velocity": 102,
      "rel": 0.80315,
      "time": 95.44058332203714
    },
    {
      "absoluteTicks": 93360,
      "channel": 13,
      "type": "noteOff",
      "note": 94,
      "velocity": 102,
      "rel": 0.80315,
      "time": 95.44058332203714
    },
    {
      "absoluteTicks": 93360,
      "channel": 13,
      "type": "noteOff",
      "note": 85,
      "velocity": 86,
      "rel": 0.685039,
      "time": 95.44058332203714
    },
    {
      "absoluteTicks": 93360,
      "channel": 13,
      "type": "noteOff",
      "note": 78,
      "velocity": 86,
      "rel": 0.685039,
      "time": 95.44058332203714
    },
    {
      "absoluteTicks": 93600,
      "channel": 13,
      "type": "noteOn",
      "note": 99,
      "velocity": 93,
      "vel": 0.740157,
      "time": 95.6825183220381
    },
    {
      "absoluteTicks": 93600,
      "channel": 13,
      "type": "noteOn",
      "note": 95,
      "velocity": 93,
      "vel": 0.740157,
      "time": 95.6825183220381
    },
    {
      "absoluteTicks": 93600,
      "channel": 13,
      "type": "noteOn",
      "note": 90,
      "velocity": 112,
      "vel": 0.88189,
      "time": 95.6825183220381
    },
    {
      "absoluteTicks": 93600,
      "channel": 13,
      "type": "noteOn",
      "note": 83,
      "velocity": 112,
      "vel": 0.88189,
      "time": 95.6825183220381
    },
    {
      "absoluteTicks": 93840,
      "channel": 13,
      "type": "noteOff",
      "note": 99,
      "velocity": 93,
      "rel": 0.740157,
      "time": 95.92445332203908
    },
    {
      "absoluteTicks": 93840,
      "channel": 13,
      "type": "noteOff",
      "note": 95,
      "velocity": 93,
      "rel": 0.740157,
      "time": 95.92445332203908
    },
    {
      "absoluteTicks": 93840,
      "channel": 13,
      "type": "noteOff",
      "note": 90,
      "velocity": 112,
      "rel": 0.88189,
      "time": 95.92445332203908
    },
    {
      "absoluteTicks": 93840,
      "channel": 13,
      "type": "noteOff",
      "note": 83,
      "velocity": 112,
      "rel": 0.88189,
      "time": 95.92445332203908
    },
    {
      "absoluteTicks": 94560,
      "channel": 13,
      "type": "noteOn",
      "note": 98,
      "velocity": 84,
      "vel": 0.669291,
      "time": 96.65025832204198
    },
    {
      "absoluteTicks": 94560,
      "channel": 13,
      "type": "noteOn",
      "note": 92,
      "velocity": 84,
      "vel": 0.669291,
      "time": 96.65025832204198
    },
    {
      "absoluteTicks": 94560,
      "channel": 13,
      "type": "noteOn",
      "note": 83,
      "velocity": 85,
      "vel": 0.677165,
      "time": 96.65025832204198
    },
    {
      "absoluteTicks": 94560,
      "channel": 13,
      "type": "noteOn",
      "note": 76,
      "velocity": 85,
      "vel": 0.677165,
      "time": 96.65025832204198
    },
    {
      "absoluteTicks": 94680,
      "channel": 13,
      "type": "noteOff",
      "note": 98,
      "velocity": 84,
      "rel": 0.669291,
      "time": 96.77122582204247
    },
    {
      "absoluteTicks": 94680,
      "channel": 13,
      "type": "noteOff",
      "note": 92,
      "velocity": 84,
      "rel": 0.669291,
      "time": 96.77122582204247
    },
    {
      "absoluteTicks": 94680,
      "channel": 13,
      "type": "noteOff",
      "note": 83,
      "velocity": 85,
      "rel": 0.677165,
      "time": 96.77122582204247
    },
    {
      "absoluteTicks": 94680,
      "channel": 13,
      "type": "noteOff",
      "note": 76,
      "velocity": 85,
      "rel": 0.677165,
      "time": 96.77122582204247
    },
    {
      "absoluteTicks": 94800,
      "channel": 13,
      "type": "noteOn",
      "note": 95,
      "velocity": 84,
      "vel": 0.669291,
      "time": 96.89219332204294
    },
    {
      "absoluteTicks": 94800,
      "channel": 13,
      "type": "noteOn",
      "note": 88,
      "velocity": 84,
      "vel": 0.669291,
      "time": 96.89219332204294
    },
    {
      "absoluteTicks": 94800,
      "channel": 13,
      "type": "noteOn",
      "note": 86,
      "velocity": 105,
      "vel": 0.826772,
      "time": 96.89219332204294
    },
    {
      "absoluteTicks": 94800,
      "channel": 13,
      "type": "noteOn",
      "note": 80,
      "velocity": 105,
      "vel": 0.826772,
      "time": 96.89219332204294
    },
    {
      "absoluteTicks": 94920,
      "channel": 13,
      "type": "noteOff",
      "note": 95,
      "velocity": 84,
      "rel": 0.669291,
      "time": 97.01316082204343
    },
    {
      "absoluteTicks": 94920,
      "channel": 13,
      "type": "noteOff",
      "note": 88,
      "velocity": 84,
      "rel": 0.669291,
      "time": 97.01316082204343
    },
    {
      "absoluteTicks": 94920,
      "channel": 13,
      "type": "noteOff",
      "note": 86,
      "velocity": 105,
      "rel": 0.826772,
      "time": 97.01316082204343
    },
    {
      "absoluteTicks": 94920,
      "channel": 13,
      "type": "noteOff",
      "note": 80,
      "velocity": 105,
      "rel": 0.826772,
      "time": 97.01316082204343
    },
    {
      "absoluteTicks": 95040,
      "channel": 13,
      "type": "noteOn",
      "note": 98,
      "velocity": 102,
      "vel": 0.80315,
      "time": 97.13412832204392
    },
    {
      "absoluteTicks": 95040,
      "channel": 13,
      "type": "noteOn",
      "note": 92,
      "velocity": 102,
      "vel": 0.80315,
      "time": 97.13412832204392
    },
    {
      "absoluteTicks": 95040,
      "channel": 13,
      "type": "noteOn",
      "note": 83,
      "velocity": 89,
      "vel": 0.708661,
      "time": 97.13412832204392
    },
    {
      "absoluteTicks": 95040,
      "channel": 13,
      "type": "noteOn",
      "note": 76,
      "velocity": 89,
      "vel": 0.708661,
      "time": 97.13412832204392
    },
    {
      "absoluteTicks": 95280,
      "channel": 13,
      "type": "noteOff",
      "note": 98,
      "velocity": 102,
      "rel": 0.80315,
      "time": 97.37606332204489
    },
    {
      "absoluteTicks": 95280,
      "channel": 13,
      "type": "noteOff",
      "note": 92,
      "velocity": 102,
      "rel": 0.80315,
      "time": 97.37606332204489
    },
    {
      "absoluteTicks": 95280,
      "channel": 13,
      "type": "noteOff",
      "note": 83,
      "velocity": 89,
      "rel": 0.708661,
      "time": 97.37606332204489
    },
    {
      "absoluteTicks": 95280,
      "channel": 13,
      "type": "noteOff",
      "note": 76,
      "velocity": 89,
      "rel": 0.708661,
      "time": 97.37606332204489
    },
    {
      "absoluteTicks": 95520,
      "channel": 13,
      "type": "noteOn",
      "note": 97,
      "velocity": 90,
      "vel": 0.716535,
      "time": 97.61799832204585
    },
    {
      "absoluteTicks": 95520,
      "channel": 13,
      "type": "noteOn",
      "note": 93,
      "velocity": 90,
      "vel": 0.716535,
      "time": 97.61799832204585
    },
    {
      "absoluteTicks": 95520,
      "channel": 13,
      "type": "noteOn",
      "note": 88,
      "velocity": 105,
      "vel": 0.826772,
      "time": 97.61799832204585
    },
    {
      "absoluteTicks": 95520,
      "channel": 13,
      "type": "noteOn",
      "note": 81,
      "velocity": 105,
      "vel": 0.826772,
      "time": 97.61799832204585
    },
    {
      "absoluteTicks": 95760,
      "channel": 13,
      "type": "noteOff",
      "note": 97,
      "velocity": 90,
      "rel": 0.716535,
      "time": 97.85993332204683
    },
    {
      "absoluteTicks": 95760,
      "channel": 13,
      "type": "noteOff",
      "note": 93,
      "velocity": 90,
      "rel": 0.716535,
      "time": 97.85993332204683
    },
    {
      "absoluteTicks": 95760,
      "channel": 13,
      "type": "noteOff",
      "note": 88,
      "velocity": 105,
      "rel": 0.826772,
      "time": 97.85993332204683
    },
    {
      "absoluteTicks": 95760,
      "channel": 13,
      "type": "noteOff",
      "note": 81,
      "velocity": 105,
      "rel": 0.826772,
      "time": 97.85993332204683
    },
    {
      "absoluteTicks": 96480,
      "channel": 13,
      "type": "noteOn",
      "note": 96,
      "velocity": 90,
      "vel": 0.716535,
      "time": 98.58573832204972
    },
    {
      "absoluteTicks": 96480,
      "channel": 13,
      "type": "noteOn",
      "note": 90,
      "velocity": 90,
      "vel": 0.716535,
      "time": 98.58573832204972
    },
    {
      "absoluteTicks": 96480,
      "channel": 13,
      "type": "noteOn",
      "note": 81,
      "velocity": 84,
      "vel": 0.669291,
      "time": 98.58573832204972
    },
    {
      "absoluteTicks": 96480,
      "channel": 13,
      "type": "noteOn",
      "note": 74,
      "velocity": 84,
      "vel": 0.669291,
      "time": 98.58573832204972
    },
    {
      "absoluteTicks": 96600,
      "channel": 13,
      "type": "noteOff",
      "note": 96,
      "velocity": 90,
      "rel": 0.716535,
      "time": 98.70670582205021
    },
    {
      "absoluteTicks": 96600,
      "channel": 13,
      "type": "noteOff",
      "note": 90,
      "velocity": 90,
      "rel": 0.716535,
      "time": 98.70670582205021
    },
    {
      "absoluteTicks": 96600,
      "channel": 13,
      "type": "noteOff",
      "note": 81,
      "velocity": 84,
      "rel": 0.669291,
      "time": 98.70670582205021
    },
    {
      "absoluteTicks": 96600,
      "channel": 13,
      "type": "noteOff",
      "note": 74,
      "velocity": 84,
      "rel": 0.669291,
      "time": 98.70670582205021
    },
    {
      "absoluteTicks": 96720,
      "channel": 13,
      "type": "noteOn",
      "note": 93,
      "velocity": 85,
      "vel": 0.677165,
      "time": 98.82767332205069
    },
    {
      "absoluteTicks": 96720,
      "channel": 13,
      "type": "noteOn",
      "note": 86,
      "velocity": 85,
      "vel": 0.677165,
      "time": 98.82767332205069
    },
    {
      "absoluteTicks": 96720,
      "channel": 13,
      "type": "noteOn",
      "note": 84,
      "velocity": 103,
      "vel": 0.811024,
      "time": 98.82767332205069
    },
    {
      "absoluteTicks": 96720,
      "channel": 13,
      "type": "noteOn",
      "note": 78,
      "velocity": 103,
      "vel": 0.811024,
      "time": 98.82767332205069
    },
    {
      "absoluteTicks": 96840,
      "channel": 13,
      "type": "noteOff",
      "note": 93,
      "velocity": 85,
      "rel": 0.677165,
      "time": 98.94864082205117
    },
    {
      "absoluteTicks": 96840,
      "channel": 13,
      "type": "noteOff",
      "note": 86,
      "velocity": 85,
      "rel": 0.677165,
      "time": 98.94864082205117
    },
    {
      "absoluteTicks": 96840,
      "channel": 13,
      "type": "noteOff",
      "note": 84,
      "velocity": 103,
      "rel": 0.811024,
      "time": 98.94864082205117
    },
    {
      "absoluteTicks": 96840,
      "channel": 13,
      "type": "noteOff",
      "note": 78,
      "velocity": 103,
      "rel": 0.811024,
      "time": 98.94864082205117
    },
    {
      "absoluteTicks": 96960,
      "channel": 13,
      "type": "noteOn",
      "note": 96,
      "velocity": 105,
      "vel": 0.826772,
      "time": 99.06960832205166
    },
    {
      "absoluteTicks": 96960,
      "channel": 13,
      "type": "noteOn",
      "note": 90,
      "velocity": 105,
      "vel": 0.826772,
      "time": 99.06960832205166
    },
    {
      "absoluteTicks": 96960,
      "channel": 13,
      "type": "noteOn",
      "note": 81,
      "velocity": 85,
      "vel": 0.677165,
      "time": 99.06960832205166
    },
    {
      "absoluteTicks": 96960,
      "channel": 13,
      "type": "noteOn",
      "note": 74,
      "velocity": 85,
      "vel": 0.677165,
      "time": 99.06960832205166
    },
    {
      "absoluteTicks": 97200,
      "channel": 13,
      "type": "noteOff",
      "note": 96,
      "velocity": 105,
      "rel": 0.826772,
      "time": 99.31154332205263
    },
    {
      "absoluteTicks": 97200,
      "channel": 13,
      "type": "noteOff",
      "note": 90,
      "velocity": 105,
      "rel": 0.826772,
      "time": 99.31154332205263
    },
    {
      "absoluteTicks": 97200,
      "channel": 13,
      "type": "noteOff",
      "note": 81,
      "velocity": 85,
      "rel": 0.677165,
      "time": 99.31154332205263
    },
    {
      "absoluteTicks": 97200,
      "channel": 13,
      "type": "noteOff",
      "note": 74,
      "velocity": 85,
      "rel": 0.677165,
      "time": 99.31154332205263
    },
    {
      "absoluteTicks": 97440,
      "channel": 13,
      "type": "noteOn",
      "note": 95,
      "velocity": 89,
      "vel": 0.708661,
      "time": 99.55347832205359
    },
    {
      "absoluteTicks": 97440,
      "channel": 13,
      "type": "noteOn",
      "note": 91,
      "velocity": 89,
      "vel": 0.708661,
      "time": 99.55347832205359
    },
    {
      "absoluteTicks": 97440,
      "channel": 13,
      "type": "noteOn",
      "note": 86,
      "velocity": 111,
      "vel": 0.874016,
      "time": 99.55347832205359
    },
    {
      "absoluteTicks": 97440,
      "channel": 13,
      "type": "noteOn",
      "note": 79,
      "velocity": 111,
      "vel": 0.874016,
      "time": 99.55347832205359
    },
    {
      "absoluteTicks": 97680,
      "channel": 13,
      "type": "noteOff",
      "note": 95,
      "velocity": 89,
      "rel": 0.708661,
      "time": 99.79541332205457
    },
    {
      "absoluteTicks": 97680,
      "channel": 13,
      "type": "noteOff",
      "note": 91,
      "velocity": 89,
      "rel": 0.708661,
      "time": 99.79541332205457
    },
    {
      "absoluteTicks": 97680,
      "channel": 13,
      "type": "noteOff",
      "note": 86,
      "velocity": 111,
      "rel": 0.874016,
      "time": 99.79541332205457
    },
    {
      "absoluteTicks": 97680,
      "channel": 13,
      "type": "noteOff",
      "note": 79,
      "velocity": 111,
      "rel": 0.874016,
      "time": 99.79541332205457
    },
    {
      "absoluteTicks": 98400,
      "channel": 13,
      "type": "noteOn",
      "note": 95,
      "velocity": 104,
      "vel": 0.818898,
      "time": 100.52915131856201
    },
    {
      "absoluteTicks": 98400,
      "channel": 13,
      "type": "noteOn",
      "note": 93,
      "velocity": 86,
      "vel": 0.685039,
      "time": 100.52915131856201
    },
    {
      "absoluteTicks": 98520,
      "channel": 13,
      "type": "noteOn",
      "note": 99,
      "velocity": 119,
      "vel": 0.937008,
      "time": 100.65210206768863
    },
    {
      "absoluteTicks": 98520,
      "channel": 13,
      "type": "noteOn",
      "note": 90,
      "velocity": 85,
      "vel": 0.677165,
      "time": 100.65210206768863
    },
    {
      "absoluteTicks": 98520,
      "channel": 13,
      "type": "noteOff",
      "note": 95,
      "velocity": 104,
      "rel": 0.818898,
      "time": 100.65210206768863
    },
    {
      "absoluteTicks": 98520,
      "channel": 13,
      "type": "noteOff",
      "note": 93,
      "velocity": 86,
      "rel": 0.685039,
      "time": 100.65210206768863
    },
    {
      "absoluteTicks": 98640,
      "channel": 13,
      "type": "noteOn",
      "note": 102,
      "velocity": 127,
      "vel": 1.0,
      "time": 100.77505281681525
    },
    {
      "absoluteTicks": 98640,
      "channel": 13,
      "type": "noteOn",
      "note": 87,
      "velocity": 87,
      "vel": 0.692913,
      "time": 100.77505281681525
    },
    {
      "absoluteTicks": 98640,
      "channel": 13,
      "type": "noteOff",
      "note": 99,
      "velocity": 119,
      "rel": 0.937008,
      "time": 100.77505281681525
    },
    {
      "absoluteTicks": 98640,
      "channel": 13,
      "type": "noteOff",
      "note": 90,
      "velocity": 85,
      "rel": 0.677165,
      "time": 100.77505281681525
    },
    {
      "absoluteTicks": 98760,
      "channel": 13,
      "type": "noteOn",
      "note": 107,
      "velocity": 127,
      "vel": 1.0,
      "time": 100.89800356594188
    },
    {
      "absoluteTicks": 98760,
      "channel": 13,
      "type": "noteOn",
      "note": 83,
      "velocity": 79,
      "vel": 0.629921,
      "time": 100.89800356594188
    },
    {
      "absoluteTicks": 98760,
      "channel": 13,
      "type": "noteOff",
      "note": 102,
      "velocity": 127,
      "rel": 1.0,
      "time": 100.89800356594188
    },
    {
      "absoluteTicks": 98760,
      "channel": 13,
      "type": "noteOff",
      "note": 87,
      "velocity": 87,
      "rel": 0.692913,
      "time": 100.89800356594188
    },
    {
      "absoluteTicks": 98880,
      "channel": 13,
      "type": "noteOn",
      "note": 100,
      "velocity": 98,
      "vel": 0.771654,
      "time": 101.02300356594188
    },
    {
      "absoluteTicks": 98880,
      "channel": 13,
      "type": "noteOn",
      "note": 95,
      "velocity": 98,
      "vel": 0.771654,
      "time": 101.02300356594188
    },
    {
      "absoluteTicks": 98880,
      "channel": 13,
      "type": "noteOn",
      "note": 91,
      "velocity": 115,
      "vel": 0.905512,
      "time": 101.02300356594188
    },
    {
      "absoluteTicks": 98880,
      "channel": 13,
      "type": "noteOn",
      "note": 88,
      "velocity": 115,
      "vel": 0.905512,
      "time": 101.02300356594188
    },
    {
      "absoluteTicks": 98880,
      "channel": 13,
      "type": "noteOff",
      "note": 107,
      "velocity": 127,
      "rel": 1.0,
      "time": 101.02300356594188
    },
    {
      "absoluteTicks": 98880,
      "channel": 13,
      "type": "noteOff",
      "note": 83,
      "velocity": 79,
      "rel": 0.629921,
      "time": 101.02300356594188
    },
    {
      "absoluteTicks": 99333,
      "channel": 13,
      "type": "noteOff",
      "note": 100,
      "velocity": 98,
      "rel": 0.771654,
      "time": 101.49565956594188
    },
    {
      "absoluteTicks": 99333,
      "channel": 13,
      "type": "noteOff",
      "note": 95,
      "velocity": 98,
      "rel": 0.771654,
      "time": 101.49565956594188
    },
    {
      "absoluteTicks": 99333,
      "channel": 13,
      "type": "noteOff",
      "note": 91,
      "velocity": 115,
      "rel": 0.905512,
      "time": 101.49565956594188
    },
    {
      "absoluteTicks": 99333,
      "channel": 13,
      "type": "noteOff",
      "note": 88,
      "velocity": 115,
      "rel": 0.905512,
      "time": 101.49565956594188
    },
    {
      "absoluteTicks": 99333,
      "channel": 15,
      "type": "meta",
      "metaType": 47,
      "subType": "endOfTrack",
      "time": 101.49565956594188
    }
  ],
  [
    {
      "absoluteTicks": 0,
      "channel": 15,
      "type": "meta",
      "metaType": 3,
      "subType": "trackName",
      "text": "FX 1",
      "time": 0.0
    },
    {
      "absoluteTicks": 0,
      "channel": 15,
      "type": "meta",
      "metaType": 47,
      "subType": "endOfTrack",
      "time": 0.0
    }
  ],
  [
    {
      "absoluteTicks": 0,
      "channel": 15,
      "type": "meta",
      "metaType": 3,
      "subType": "trackName",
      "text": "Master",
      "time": 0.0
    },
    {
      "absoluteTicks": 0,
      "channel": 15,
      "type": "meta",
      "metaType": 47,
      "subType": "endOfTrack",
      "time": 0.0
    }
  ]
]