[
  [
    {
      "absoluteTicks": 0,
      "channel": 15,
      "type": "meta",
      "metaType": 3,
      "subType": "trackName",
      "text": "Violin I",
      "time": 0.0
    },
    {
      "absoluteTicks": 480,
      "channel": 13,
      "type": "noteOn",
      "note": 64,
      "velocity": 33,
      "vel": 0.259843,
      "time": 0.4838700000019355
    },
    {
      "absoluteTicks": 960,
      "channel": 13,
      "type": "noteOff",
      "note": 64,
      "velocity": 33,
      "rel": 0.259843,
      "time": 0.967740000003871
    },
    {
      "absoluteTicks": 1440,
      "channel": 13,
      "type": "noteOn",
      "note": 66,
      "velocity": 32,
      "vel": 0.251969,
      "time": 1.4516100000058065
    },
    {
      "absoluteTicks": 1920,
      "channel": 13,
      "type": "noteOff",
      "note": 66,
      "velocity": 32,
      "rel": 0.251969,
      "time": 1.935480000007742
    },
    {
      "absoluteTicks": 2400,
      "channel": 13,
      "type": "noteOn",
      "note": 67,
      "velocity": 35,
      "vel": 0.275591,
      "time": 2.4193500000096773
    },
    {
      "absoluteTicks": 2880,
      "channel": 13,
      "type": "noteOff",
      "note": 67,
      "velocity": 35,
      "rel": 0.275591,
      "time": 2.903220000011613
    },
    {
      "absoluteTicks": 3360,
      "channel": 13,
      "type": "noteOn",
      "note": 63,
      "velocity": 34,
      "vel": 0.267717,
      "time": 3.3870900000135484
    },
    {
      "absoluteTicks": 3840,
      "channel": 13,
      "type": "noteOff",
      "note": 63,
      "velocity": 34,
      "rel": 0.267717,
      "time": 3.870960000015484
    },
    {
      "absoluteTicks": 4320,
      "channel": 13,
      "type": "noteOn",
      "note": 64,
      "velocity": 33,
      "vel": 0.259843,
      "time": 4.35483000001742
    },
    {
      "absoluteTicks": 4800,
      "channel": 13,
      "type": "noteOff",
      "note": 64,
      "velocity": 33,
      "rel": 0.259843,
      "time": 4.8387000000193545
    },
    {
      "absoluteTicks": 5280,
      "channel": 13,
      "type": "noteOn",
      "note": 66,
      "velocity": 26,
      "vel": 0.212598,
      "time": 5.32257000002129
    },
    {
      "absoluteTicks": 5760,
      "channel": 13,
      "type": "noteOff",
      "note": 66,
      "velocity": 26,
      "rel": 0.212598,
      "time": 5.806440000023226
    },
    {
      "absoluteTicks": 6240,
      "channel": 13,
      "type": "noteOn",
      "note": 67,
      "velocity": 33,
      "vel": 0.259843,
      "time": 6.290310000025161
    },
    {
      "absoluteTicks": 6720,
      "channel": 13,
      "type": "noteOff",
      "note": 67,
      "velocity": 33,
      "rel": 0.259843,
      "time": 6.774180000027097
    },
    {
      "absoluteTicks": 7200,
      "channel": 13,
      "type": "noteOn",
      "note": 63,
      "velocity": 34,
      "vel": 0.267717,
      "time": 7.258050000029033
    },
    {
      "absoluteTicks": 7680,
      "channel": 13,
      "type": "noteOff",
      "note": 63,
      "velocity": 34,
      "rel": 0.267717,
      "time": 7.741920000030968
    },
    {
      "absoluteTicks": 8160,
      "channel": 13,
      "type": "noteOn",
      "note": 64,
      "velocity": 33,
      "vel": 0.259843,
      "time": 8.225790000032903
    },
    {
      "absoluteTicks": 8640,
      "channel": 13,
      "type": "noteOff",
      "note": 64,
      "velocity": 33,
      "rel": 0.259843,
      "time": 8.70966000003484
    },
    {
      "absoluteTicks": 9120,
      "channel": 13,
      "type": "noteOn",
      "note": 66,
      "velocity": 28,
      "vel": 0.228346,
      "time": 9.193530000036775
    },
    {
      "absoluteTicks": 9600,
      "channel": 13,
      "type": "noteOff",
      "note": 66,
      "velocity": 28,
      "rel": 0.228346,
      "time": 9.677400000038709
    },
    {
      "absoluteTicks": 10080,
      "channel": 13,
      "type": "noteOn",
      "note": 67,
      "velocity": 34,
      "vel": 0.267717,
      "time": 10.161270000040645
    },
    {
      "absoluteTicks": 10560,
      "channel": 13,
      "type": "noteOff",
      "note": 67,
      "velocity": 34,
      "rel": 0.267717,
      "time": 10.64514000004258
    },
    {
      "absoluteTicks": 11040,
      "channel": 13,
      "type": "noteOn",
      "note": 68,
      "velocity": 34,
      "vel": 0.267717,
      "time": 11.129010000044516
    },
    {
      "absoluteTicks": 11520,
      "channel": 13,
      "type": "noteOff",
      "note": 68,
      "velocity": 34,
      "rel": 0.267717,
      "time": 11.612880000046452
    },
    {
      "absoluteTicks": 12000,
      "channel": 13,
      "type": "noteOn",
      "note": 70,
      "velocity": 25,
      "vel": 0.204724,
      "time": 12.096750000048386
    },
    {
      "absoluteTicks": 12480,
      "channel": 13,
      "type": "noteOff",
      "note": 70,
      "velocity": 25,
      "rel": 0.204724,
      "time": 12.580620000050322
    },
    {
      "absoluteTicks": 12960,
      "channel": 13,
      "type": "noteOn",
      "note": 72,
      "velocity": 29,
      "vel": 0.23622,
      "time": 13.064490000052258
    },
    {
      "absoluteTicks": 13440,
      "channel": 13,
      "type": "noteOn",
      "note": 71,
      "velocity": 29,
      "vel": 0.23622,
      "time": 13.548360000054194
    },
    {
      "absoluteTicks": 13440,
      "channel": 13,
      "type": "noteOff",
      "note": 72,
      "velocity": 29,
      "rel": 0.23622,
      "time": 13.548360000054194
    },
    {
      "absoluteTicks": 13920,
      "channel": 13,
      "type": "noteOn",
      "note": 72,
      "velocity": 38,
      "vel": 0.299213,
      "time": 14.03223000005613
    },
    {
      "absoluteTicks": 13920,
      "channel": 13,
      "type": "noteOff",
      "note": 71,
      "velocity": 29,
      "rel": 0.23622,
      "time": 14.03223000005613
    },
    {
      "absoluteTicks": 14400,
      "channel": 13,
      "type": "noteOn",
      "note": 71,
      "velocity": 32,
      "vel": 0.251969,
      "time": 14.516100000058065
    },
    {
      "absoluteTicks": 14400,
      "channel": 13,
      "type": "noteOff",
      "note": 72,
      "velocity": 38,
      "rel": 0.299213,
      "time": 14.516100000058065
    },
    {
      "absoluteTicks": 14880,
      "channel": 13,
      "type": "noteOff",
      "note": 71,
      "velocity": 32,
      "rel": 0.251969,
      "time": 14.99997000006
    },
    {
      "absoluteTicks": 15840,
      "channel": 13,
      "type": "noteOn",
      "note": 60,
      "velocity": 36,
      "vel": 0.283465,
      "time": 15.967710000063871
    },
    {
      "absoluteTicks": 16320,
      "channel": 13,
      "type": "noteOff",
      "note": 60,
      "velocity": 36,
      "rel": 0.283465,
      "time": 16.451580000065807
    },
    {
      "absoluteTicks": 16800,
      "channel": 13,
      "type": "noteOn",
      "note": 63,
      "velocity": 39,
      "vel": 0.307087,
      "time": 16.935450000067743
    },
    {
      "absoluteTicks": 17280,
      "channel": 13,
      "type": "noteOff",
      "note": 63,
      "velocity": 39,
      "rel": 0.307087,
      "time": 17.41932000006968
    },
    {
      "absoluteTicks": 17760,
      "channel": 13,
      "type": "noteOn",
      "note": 64,
      "velocity": 39,
      "vel": 0.307087,
      "time": 17.903190000071614
    },
    {
      "absoluteTicks": 17760,
      "channel": 13,
      "type": "noteOn",
      "note": 55,
      "velocity": 39,
      "vel": 0.307087,
      "time": 17.903190000071614
    },
    {
      "absoluteTicks": 18240,
      "channel": 13,
      "type": "noteOff",
      "note": 64,
      "velocity": 39,
      "rel": 0.307087,
      "time": 18.38706000007355
    },
    {
      "absoluteTicks": 18240,
      "channel": 13,
      "type": "noteOff",
      "note": 55,
      "velocity": 39,
      "rel": 0.307087,
      "time": 18.38706000007355
    },
    {
      "absoluteTicks": 18720,
      "channel": 13,
      "type": "noteOn",
      "note": 64,
      "velocity": 45,
      "vel": 0.354331,
      "time": 18.870930000075482
    },
    {
      "absoluteTicks": 18720,
      "channel": 13,
      "type": "noteOn",
      "note": 61,
      "velocity": 45,
      "vel": 0.354331,
      "time": 18.870930000075482
    },
    {
      "absoluteTicks": 19200,
      "channel": 13,
      "type": "noteOff",
      "note": 64,
      "velocity": 45,
      "rel": 0.354331,
      "time": 19.354800000077418
    },
    {
      "absoluteTicks": 19200,
      "channel": 13,
      "type": "noteOff",
      "note": 61,
      "velocity": 45,
      "rel": 0.354331,
      "time": 19.354800000077418
    },
    {
      "absoluteTicks": 19680,
      "channel": 13,
      "type": "noteOn",
      "note": 62,
      "velocity": 41,
      "vel": 0.322835,
      "time": 19.838670000079354
    },
    {
      "absoluteTicks": 19680,
      "channel": 13,
      "type": "noteOn",
      "note": 59,
      "velocity": 41,
      "vel": 0.322835,
      "time": 19.838670000079354
    },
    {
      "absoluteTicks": 20160,
      "channel": 13,
      "type": "noteOff",
      "note": 62,
      "velocity": 41,
      "rel": 0.322835,
      "time": 20.32254000008129
    },
    {
      "absoluteTicks": 20160,
      "channel": 13,
      "type": "noteOff",
      "note": 59,
      "velocity": 41,
      "rel": 0.322835,
      "time": 20.32254000008129
    },
    {
      "absoluteTicks": 20640,
      "channel": 13,
      "type": "noteOn",
      "note": 64,
      "velocity": 41,
      "vel": 0.322835,
      "time": 20.806410000083225
    },
    {
      "absoluteTicks": 20640,
      "channel": 13,
      "type": "noteOn",
      "note": 61,
      "velocity": 41,
      "vel": 0.322835,
      "time": 20.806410000083225
    },
    {
      "absoluteTicks": 21120,
      "channel": 13,
      "type": "noteOn",
      "note": 63,
      "velocity": 35,
      "vel": 0.275591,
      "time": 21.29028000008516
    },
    {
      "absoluteTicks": 21120,
      "channel": 13,
      "type": "noteOff",
      "note": 64,
      "velocity": 41,
      "rel": 0.322835,
      "time": 21.29028000008516
    },
    {
      "absoluteTicks": 21120,
      "channel": 13,
      "type": "noteOff",
      "note": 61,
      "velocity": 41,
      "rel": 0.322835,
      "time": 21.29028000008516
    },
    {
      "absoluteTicks": 21600,
      "channel": 13,
      "type": "noteOn",
      "note": 64,
      "velocity": 42,
      "vel": 0.330709,
      "time": 21.774150000087097
    },
    {
      "absoluteTicks": 21600,
      "channel": 13,
      "type": "noteOff",
      "note": 63,
      "velocity": 35,
      "rel": 0.275591,
      "time": 21.774150000087097
    },
    {
      "absoluteTicks": 22080,
      "channel": 13,
      "type": "noteOn",
      "note": 63,
      "velocity": 34,
      "vel": 0.267717,
      "time": 22.258020000089033
    },
    {
      "absoluteTicks": 22080,
      "channel": 13,
      "type": "noteOff",
      "note": 64,
      "velocity": 42,
      "rel": 0.330709,
      "time": 22.258020000089033
    },
    {
      "absoluteTicks": 22560,
      "channel": 13,
      "type": "noteOff",
      "note": 63,
      "velocity": 34,
      "rel": 0.267717,
      "time": 22.74189000009097
    },
    {
      "absoluteTicks": 23520,
      "channel": 13,
      "type": "noteOn",
      "note": 64,
      "velocity": 46,
      "vel": 0.362205,
      "time": 23.70963000009484
    },
    {
      "absoluteTicks": 24000,
      "channel": 13,
      "type": "noteOff",
      "note": 64,
      "velocity": 46,
      "rel": 0.362205,
      "time": 24.193500000096773
    },
    {
      "absoluteTicks": 24480,
      "channel": 13,
      "type": "noteOn",
      "note": 66,
      "velocity": 45,
      "vel": 0.354331,
      "time": 24.67737000009871
    },
    {
      "absoluteTicks": 24960,
      "channel": 13,
      "type": "noteOff",
      "note": 66,
      "velocity": 45,
      "rel": 0.354331,
      "time": 25.161240000100644
    },
    {
      "absoluteTicks": 25440,
      "channel": 13,
      "type": "noteOn",
      "note": 67,
      "velocity": 42,
      "vel": 0.330709,
      "time": 25.64511000010258
    },
    {
      "absoluteTicks": 25920,
      "channel": 13,
      "type": "noteOff",
      "note": 67,
      "velocity": 42,
      "rel": 0.330709,
      "time": 26.128980000104516
    },
    {
      "absoluteTicks": 26400,
      "channel": 13,
      "type": "noteOn",
      "note": 68,
      "velocity": 48,
      "vel": 0.377953,
      "time": 26.61285000010645
    },
    {
      "absoluteTicks": 26880,
      "channel": 13,
      "type": "noteOff",
      "note": 68,
      "velocity": 48,
      "rel": 0.377953,
      "time": 27.096720000108387
    },
    {
      "absoluteTicks": 27360,
      "channel": 13,
      "type": "noteOn",
      "note": 70,
      "velocity": 45,
      "vel": 0.354331,
      "time": 27.580590000110323
    },
    {
      "absoluteTicks": 27840,
      "channel": 13,
      "type": "noteOff",
      "note": 70,
      "velocity": 45,
      "rel": 0.354331,
      "time": 28.06446000011226
    },
    {
      "absoluteTicks": 28320,
      "channel": 13,
      "type": "noteOn",
      "note": 72,
      "velocity": 43,
      "vel": 0.338583,
      "time": 28.548330000114195
    },
    {
      "absoluteTicks": 28800,
      "channel": 13,
      "type": "noteOn",
      "note": 71,
      "velocity": 46,
      "vel": 0.362205,
      "time": 29.03220000011613
    },
    {
      "absoluteTicks": 28800,
      "channel": 13,
      "type": "noteOff",
      "note": 72,
      "velocity": 43,
      "rel": 0.338583,
      "time": 29.03220000011613
    },
    {
      "absoluteTicks": 29280,
      "channel": 13,
      "type": "noteOn",
      "note": 72,
      "velocity": 48,
      "vel": 0.377953,
      "time": 29.516070000118063
    },
    {
      "absoluteTicks": 29280,
      "channel": 13,
      "type": "noteOff",
      "note": 71,
      "velocity": 46,
      "rel": 0.362205,
      "time": 29.516070000118063
    },
    {
      "absoluteTicks": 29760,
      "channel": 13,
      "type": "noteOn",
      "note": 71,
      "velocity": 42,
      "vel": 0.330709,
      "time": 29.99994000012
    },
    {
      "absoluteTicks": 29760,
      "channel": 13,
      "type": "noteOff",
      "note": 72,
      "velocity": 48,
      "rel": 0.377953,
      "time": 29.99994000012
    },
    {
      "absoluteTicks": 30240,
      "channel": 13,
      "type": "noteOff",
      "note": 71,
      "velocity": 42,
      "rel": 0.330709,
      "time": 30.483810000121935
    },
    {
      "absoluteTicks": 31200,
      "channel": 13,
      "type": "noteOn",
      "note": 78,
      "velocity": 40,
      "vel": 0.314961,
      "time": 31.451550000125806
    },
    {
      "absoluteTicks": 31200,
      "channel": 13,
      "type": "noteOn",
      "note": 66,
      "velocity": 45,
      "vel": 0.354331,
      "time": 31.451550000125806
    },
    {
      "absoluteTicks": 31680,
      "channel": 13,
      "type": "noteOn",
      "note": 90,
      "velocity": 64,
      "vel": 0.511811,
      "time": 31.935420000127742
    },
    {
      "absoluteTicks": 31680,
      "channel": 13,
      "type": "noteOn",
      "note": 78,
      "velocity": 63,
      "vel": 0.496063,
      "time": 31.935420000127742
    },
    {
      "absoluteTicks": 31680,
      "channel": 13,
      "type": "noteOff",
      "note": 78,
      "velocity": 40,
      "rel": 0.314961,
      "time": 31.935420000127742
    },
    {
      "absoluteTicks": 31680,
      "channel": 13,
      "type": "noteOff",
      "note": 66,
      "velocity": 45,
      "rel": 0.354331,
      "time": 31.935420000127742
    },
    {
      "absoluteTicks": 32160,
      "channel": 13,
      "type": "noteOn",
      "note": 78,
      "velocity": 41,
      "vel": 0.322835,
      "time": 32.41929000012968
    },
    {
      "absoluteTicks": 32160,
      "channel": 13,
      "type": "noteOn",
      "note": 66,
      "velocity": 37,
      "vel": 0.291339,
      "time": 32.41929000012968
    },
    {
      "absoluteTicks": 32160,
      "channel": 13,
      "type": "noteOff",
      "note": 90,
      "velocity": 64,
      "rel": 0.511811,
      "time": 32.41929000012968
    },
    {
      "absoluteTicks": 32160,
      "channel": 13,
      "type": "noteOff",
      "note": 78,
      "velocity": 63,
      "rel": 0.496063,
      "time": 32.41929000012968
    },
    {
      "absoluteTicks": 32640,
      "channel": 13,
      "type": "noteOff",
      "note": 78,
      "velocity": 41,
      "rel": 0.322835,
      "time": 32.903160000131614
    },
    {
      "absoluteTicks": 32640,
      "channel": 13,
      "type": "noteOff",
      "note": 66,
      "velocity": 37,
      "rel": 0.291339,
      "time": 32.903160000131614
    },
    {
      "absoluteTicks": 33120,
      "channel": 13,
      "type": "noteOn",
      "note": 76,
      "velocity": 44,
      "vel": 0.346457,
      "time": 33.38703000013355
    },
    {
      "absoluteTicks": 33120,
      "channel": 13,
      "type": "noteOn",
      "note": 64,
      "velocity": 41,
      "vel": 0.322835,
      "time": 33.38703000013355
    },
    {
      "absoluteTicks": 33600,
      "channel": 13,
      "type": "noteOn",
      "note": 88,
      "velocity": 62,
      "vel": 0.488189,
      "time": 33.870900000135485
    },
    {
      "absoluteTicks": 33600,
      "channel": 13,
      "type": "noteOn",
      "note": 76,
      "velocity": 60,
      "vel": 0.472441,
      "time": 33.870900000135485
    },
    {
      "absoluteTicks": 33600,
      "channel": 13,
      "type": "noteOff",
      "note": 76,
      "velocity": 44,
      "rel": 0.346457,
      "time": 33.870900000135485
    },
    {
      "absoluteTicks": 33600,
      "channel": 13,
      "type": "noteOff",
      "note": 64,
      "velocity": 41,
      "rel": 0.322835,
      "time": 33.870900000135485
    },
    {
      "absoluteTicks": 34080,
      "channel": 13,
      "type": "noteOn",
      "note": 76,
      "velocity": 36,
      "vel": 0.283465,
      "time": 34.35477000013742
    },
    {
      "absoluteTicks": 34080,
      "channel": 13,
      "type": "noteOn",
      "note": 64,
      "velocity": 40,
      "vel": 0.314961,
      "time": 34.35477000013742
    },
    {
      "absoluteTicks": 34080,
      "channel": 13,
      "type": "noteOff",
      "note": 88,
      "velocity": 62,
      "rel": 0.488189,
      "time": 34.35477000013742
    },
    {
      "absoluteTicks": 34080,
      "channel": 13,
      "type": "noteOff",
      "note": 76,
      "velocity": 60,
      "rel": 0.472441,
      "time": 34.35477000013742
    },
    {
      "absoluteTicks": 34560,
      "channel": 13,
      "type": "noteOff",
      "note": 76,
      "velocity": 36,
      "rel": 0.283465,
      "time": 34.83864000013936
    },
    {
      "absoluteTicks": 34560,
      "channel": 13,
      "type": "noteOff",
      "note": 64,
      "velocity": 40,
      "rel": 0.314961,
      "time": 34.83864000013936
    },
    {
      "absoluteTicks": 35040,
      "channel": 13,
      "type": "noteOn",
      "note": 74,
      "velocity": 48,
      "vel": 0.377953,
      "time": 35.32251000014129
    },
    {
      "absoluteTicks": 35040,
      "channel": 13,
      "type": "noteOn",
      "note": 62,
      "velocity": 47,
      "vel": 0.370079,
      "time": 35.32251000014129
    },
    {
      "absoluteTicks": 35520,
      "channel": 13,
      "type": "noteOn",
      "note": 86,
      "velocity": 68,
      "vel": 0.543307,
      "time": 35.80638000014323
    },
    {
      "absoluteTicks": 35520,
      "channel": 13,
      "type": "noteOn",
      "note": 74,
      "velocity": 63,
      "vel": 0.503937,
      "time": 35.80638000014323
    },
    {
      "absoluteTicks": 35520,
      "channel": 13,
      "type": "noteOff",
      "note": 74,
      "velocity": 48,
      "rel": 0.377953,
      "time": 35.80638000014323
    },
    {
      "absoluteTicks": 35520,
      "channel": 13,
      "type": "noteOff",
      "note": 62,
      "velocity": 47,
      "rel": 0.370079,
      "time": 35.80638000014323
    },
    {
      "absoluteTicks": 36000,
      "channel": 13,
      "type": "noteOn",
      "note": 74,
      "velocity": 42,
      "vel": 0.330709,
      "time": 36.290250000145164
    },
    {
      "absoluteTicks": 36000,
      "channel": 13,
      "type": "noteOn",
      "note": 62,
      "velocity": 39,
      "vel": 0.307087,
      "time": 36.290250000145164
    },
    {
      "absoluteTicks": 36000,
      "channel": 13,
      "type": "noteOff",
      "note": 86,
      "velocity": 68,
      "rel": 0.543307,
      "time": 36.290250000145164
    },
    {
      "absoluteTicks": 36000,
      "channel": 13,
      "type": "noteOff",
      "note": 74,
      "velocity": 63,
      "rel": 0.503937,
      "time": 36.290250000145164
    },
    {
      "absoluteTicks": 36480,
      "channel": 13,
      "type": "noteOn",
      "note": 87,
      "velocity": 75,
      "vel": 0.598425,
      "time": 36.7741200001471
    },
    {
      "absoluteTicks": 36480,
      "channel": 13,
      "type": "noteOn",
      "note": 75,
      "velocity": 77,
      "vel": 0.614173,
      "time": 36.7741200001471
    },
    {
      "absoluteTicks": 36480,
      "channel": 13,
      "type": "noteOff",
      "note": 74,
      "velocity": 42,
      "rel": 0.330709,
      "time": 36.7741200001471
    },
    {
      "absoluteTicks": 36480,
      "channel": 13,
      "type": "noteOff",
      "note": 62,
      "velocity": 39,
      "rel": 0.307087,
      "time": 36.7741200001471
    },
    {
      "absoluteTicks": 36960,
      "channel": 13,
      "type": "noteOn",
      "note": 75,
      "velocity": 51,
      "vel": 0.401575,
      "time": 37.25799000014903
    },
    {
      "absoluteTicks": 36960,
      "channel": 13,
      "type": "noteOn",
      "note": 63,
      "velocity": 51,
      "vel": 0.401575,
      "time": 37.25799000014903
    },
    {
      "absoluteTicks": 36960,
      "channel": 13,
      "type": "noteOff",
      "note": 87,
      "velocity": 75,
      "rel": 0.598425,
      "time": 37.25799000014903
    },
    {
      "absoluteTicks": 36960,
      "channel": 13,
      "type": "noteOff",
      "note": 75,
      "velocity": 77,
      "rel": 0.614173,
      "time": 37.25799000014903
    },
    {
      "absoluteTicks": 37440,
      "channel": 13,
      "type": "noteOn",
      "note": 88,
      "velocity": 74,
      "vel": 0.590551,
      "time": 37.741860000150965
    },
    {
      "absoluteTicks": 37440,
      "channel": 13,
      "type": "noteOn",
      "note": 76,
      "velocity": 92,
      "vel": 0.732283,
      "time": 37.741860000150965
    },
    {
      "absoluteTicks": 37440,
      "channel": 13,
      "type": "noteOff",
      "note": 75,
      "velocity": 51,
      "rel": 0.401575,
      "time": 37.741860000150965
    },
    {
      "absoluteTicks": 37440,
      "channel": 13,
      "type": "noteOff",
      "note": 63,
      "velocity": 51,
      "rel": 0.401575,
      "time": 37.741860000150965
    },
    {
      "absoluteTicks": 37920,
      "channel": 13,
      "type": "noteOff",
      "note": 88,
      "velocity": 74,
      "rel": 0.590551,
      "time": 38.2257300001529
    },
    {
      "absoluteTicks": 37920,
      "channel": 13,
      "type": "noteOff",
      "note": 76,
      "velocity": 92,
      "rel": 0.732283,
      "time": 38.2257300001529
    },
    {
      "absoluteTicks": 45600,
      "channel": 13,
      "type": "noteOn",
      "note": 83,
      "velocity": 44,
      "vel": 0.346457,
      "time": 45.96765000018387
    },
    {
      "absoluteTicks": 45600,
      "channel": 13,
      "type": "noteOn",
      "note": 71,
      "velocity": 44,
      "vel": 0.346457,
      "time": 45.96765000018387
    },
    {
      "absoluteTicks": 49920,
      "channel": 13,
      "type": "noteOff",
      "note": 83,
      "velocity": 44,
      "rel": 0.346457,
      "time": 50.32248000020129
    },
    {
      "absoluteTicks": 49920,
      "channel": 13,
      "type": "noteOff",
      "note": 71,
      "velocity": 44,
      "rel": 0.346457,
      "time": 50.32248000020129
    },
    {
      "absoluteTicks": 53280,
      "channel": 13,
      "type": "noteOn",
      "note": 83,
      "velocity": 45,
      "vel": 0.354331,
      "time": 53.70957000021484
    },
    {
      "absoluteTicks": 55200,
      "channel": 13,
      "type": "noteOn",
      "note": 83,
      "velocity": 72,
      "vel": 0.574803,
      "time": 55.64505000022258
    },
    {
      "absoluteTicks": 55200,
      "channel": 13,
      "type": "noteOff",
      "note": 83,
      "velocity": 45,
      "rel": 0.354331,
      "time": 55.64505000022258
    },
    {
      "absoluteTicks": 57120,
      "channel": 13,
      "type": "noteOn",
      "note": 83,
      "velocity": 72,
      "vel": 0.574803,
      "time": 57.580530000230326
    },
    {
      "absoluteTicks": 57120,
      "channel": 13,
      "type": "noteOff",
      "note": 83,
      "velocity": 72,
      "rel": 0.574803,
      "time": 57.580530000230326
    },
    {
      "absoluteTicks": 59040,
      "channel": 13,
      "type": "noteOn",
      "note": 83,
      "velocity": 71,
      "vel": 0.566929,
      "time": 59.51601000023806
    },
    {
      "absoluteTicks": 59040,
      "channel": 13,
      "type": "noteOff",
      "note": 83,
      "velocity": 72,
      "rel": 0.574803,
      "time": 59.51601000023806
    },
    {
      "absoluteTicks": 60000,
      "channel": 13,
      "type": "noteOn",
      "note": 83,
      "velocity": 70,
      "vel": 0.559055,
      "time": 60.48375000024193
    },
    {
      "absoluteTicks": 60000,
      "channel": 13,
      "type": "noteOff",
      "note": 83,
      "velocity": 71,
      "rel": 0.566929,
      "time": 60.48375000024193
    },
    {
      "absoluteTicks": 60960,
      "channel": 13,
      "type": "noteOff",
      "note": 83,
      "velocity": 70,
      "rel": 0.559055,
      "time": 61.605917505902745
    },
    {
      "absoluteTicks": 69600,
      "channel": 13,
      "type": "noteOn",
      "note": 76,
      "velocity": 29,
      "vel": 0.23622,
      "time": 71.48901832194133
    },
    {
      "absoluteTicks": 69600,
      "channel": 13,
      "type": "noteOn",
      "note": 71,
      "velocity": 29,
      "vel": 0.23622,
      "time": 71.48901832194133
    },
    {
      "absoluteTicks": 69720,
      "channel": 13,
      "type": "noteOff",
      "note": 76,
      "velocity": 29,
      "rel": 0.23622,
      "time": 71.60998582194182
    },
    {
      "absoluteTicks": 69720,
      "channel": 13,
      "type": "noteOff",
      "note": 71,
      "velocity": 29,
      "rel": 0.23622,
      "time": 71.60998582194182
    },
    {
      "absoluteTicks": 69840,
      "channel": 13,
      "type": "noteOn",
      "note": 76,
      "velocity": 36,
      "vel": 0.283465,
      "time": 71.73095332194231
    },
    {
      "absoluteTicks": 69840,
      "channel": 13,
      "type": "noteOn",
      "note": 71,
      "velocity": 36,
      "vel": 0.283465,
      "time": 71.73095332194231
    },
    {
      "absoluteTicks": 69960,
      "channel": 13,
      "type": "noteOff",
      "note": 76,
      "velocity": 36,
      "rel": 0.283465,
      "time": 71.85192082194278
    },
    {
      "absoluteTicks": 69960,
      "channel": 13,
      "type": "noteOff",
      "note": 71,
      "velocity": 36,
      "rel": 0.283465,
      "time": 71.85192082194278
    },
    {
      "absoluteTicks": 70560,
      "channel": 13,
      "type": "noteOn",
      "note": 78,
      "velocity": 33,
      "vel": 0.259843,
      "time": 72.4567583219452
    },
    {
      "absoluteTicks": 70560,
      "channel": 13,
      "type": "noteOn",
      "note": 69,
      "velocity": 33,
      "vel": 0.259843,
      "time": 72.4567583219452
    },
    {
      "absoluteTicks": 70680,
      "channel": 13,
      "type": "noteOff",
      "note": 78,
      "velocity": 33,
      "rel": 0.259843,
      "time": 72.57772582194569
    },
    {
      "absoluteTicks": 70680,
      "channel": 13,
      "type": "noteOff",
      "note": 69,
      "velocity": 33,
      "rel": 0.259843,
      "time": 72.57772582194569
    },
    {
      "absoluteTicks": 70800,
      "channel": 13,
      "type": "noteOn",
      "note": 78,
      "velocity": 34,
      "vel": 0.267717,
      "time": 72.69869332194618
    },
    {
      "absoluteTicks": 70800,
      "channel": 13,
      "type": "noteOn",
      "note": 69,
      "velocity": 34,
      "vel": 0.267717,
      "time": 72.69869332194618
    },
    {
      "absoluteTicks": 70920,
      "channel": 13,
      "type": "noteOff",
      "note": 78,
      "velocity": 34,
      "rel": 0.267717,
      "time": 72.81966082194666
    },
    {
      "absoluteTicks": 70920,
      "channel": 13,
      "type": "noteOff",
      "note": 69,
      "velocity": 34,
      "rel": 0.267717,
      "time": 72.81966082194666
    },
    {
      "absoluteTicks": 71520,
      "channel": 13,
      "type": "noteOn",
      "note": 79,
      "velocity": 33,
      "vel": 0.259843,
      "time": 73.42449832194907
    },
    {
      "absoluteTicks": 71520,
      "channel": 13,
      "type": "noteOn",
      "note": 70,
      "velocity": 33,
      "vel": 0.259843,
      "time": 73.42449832194907
    },
    {
      "absoluteTicks": 71640,
      "channel": 13,
      "type": "noteOff",
      "note": 79,
      "velocity": 33,
      "rel": 0.259843,
      "time": 73.54546582194956
    },
    {
      "absoluteTicks": 71640,
      "channel": 13,
      "type": "noteOff",
      "note": 70,
      "velocity": 33,
      "rel": 0.259843,
      "time": 73.54546582194956
    },
    {
      "absoluteTicks": 71760,
      "channel": 13,
      "type": "noteOn",
      "note": 79,
      "velocity": 39,
      "vel": 0.307087,
      "time": 73.66643332195005
    },
    {
      "absoluteTicks": 71760,
      "channel": 13,
      "type": "noteOn",
      "note": 70,
      "velocity": 39,
      "vel": 0.307087,
      "time": 73.66643332195005
    },
    {
      "absoluteTicks": 71880,
      "channel": 13,
      "type": "noteOff",
      "note": 79,
      "velocity": 39,
      "rel": 0.307087,
      "time": 73.78740082195053
    },
    {
      "absoluteTicks": 71880,
      "channel": 13,
      "type": "noteOff",
      "note": 70,
      "velocity": 39,
      "rel": 0.307087,
      "time": 73.78740082195053
    },
    {
      "absoluteTicks": 72480,
      "channel": 13,
      "type": "noteOn",
      "note": 80,
      "velocity": 27,
      "vel": 0.220472,
      "time": 74.39223832195295
    },
    {
      "absoluteTicks": 72480,
      "channel": 13,
      "type": "noteOn",
      "note": 71,
      "velocity": 27,
      "vel": 0.220472,
      "time": 74.39223832195295
    },
    {
      "absoluteTicks": 72600,
      "channel": 13,
      "type": "noteOff",
      "note": 80,
      "velocity": 27,
      "rel": 0.220472,
      "time": 74.51320582195343
    },
    {
      "absoluteTicks": 72600,
      "channel": 13,
      "type": "noteOff",
      "note": 71,
      "velocity": 27,
      "rel": 0.220472,
      "time": 74.51320582195343
    },
    {
      "absoluteTicks": 72720,
      "channel": 13,
      "type": "noteOn",
      "note": 80,
      "velocity": 33,
      "vel": 0.259843,
      "time": 74.63417332195392
    },
    {
      "absoluteTicks": 72720,
      "channel": 13,
      "type": "noteOn",
      "note": 71,
      "velocity": 33,
      "vel": 0.259843,
      "time": 74.63417332195392
    },
    {
      "absoluteTicks": 72840,
      "channel": 13,
      "type": "noteOff",
      "note": 80,
      "velocity": 33,
      "rel": 0.259843,
      "time": 74.7551408219544
    },
    {
      "absoluteTicks": 72840,
      "channel": 13,
      "type": "noteOff",
      "note": 71,
      "velocity": 33,
      "rel": 0.259843,
      "time": 74.7551408219544
    },
    {
      "absoluteTicks": 73440,
      "channel": 13,
      "type": "noteOn",
      "note": 82,
      "velocity": 38,
      "vel": 0.299213,
      "time": 75.35997832195682
    },
    {
      "absoluteTicks": 73440,
      "channel": 13,
      "type": "noteOn",
      "note": 73,
      "velocity": 38,
      "vel": 0.299213,
      "time": 75.35997832195682
    },
    {
      "absoluteTicks": 73560,
      "channel": 13,
      "type": "noteOff",
      "note": 82,
      "velocity": 38,
      "rel": 0.299213,
      "time": 75.4809458219573
    },
    {
      "absoluteTicks": 73560,
      "channel": 13,
      "type": "noteOff",
      "note": 73,
      "velocity": 38,
      "rel": 0.299213,
      "time": 75.4809458219573
    },
    {
      "absoluteTicks": 73680,
      "channel": 13,
      "type": "noteOn",
      "note": 82,
      "velocity": 35,
      "vel": 0.275591,
      "time": 75.6019133219578
    },
    {
      "absoluteTicks": 73680,
      "channel": 13,
      "type": "noteOn",
      "note": 73,
      "velocity": 35,
      "vel": 0.275591,
      "time": 75.6019133219578
    },
    {
      "absoluteTicks": 73800,
      "channel": 13,
      "type": "noteOff",
      "note": 82,
      "velocity": 35,
      "rel": 0.275591,
      "time": 75.72288082195827
    },
    {
      "absoluteTicks": 73800,
      "channel": 13,
      "type": "noteOff",
      "note": 73,
      "velocity": 35,
      "rel": 0.275591,
      "time": 75.72288082195827
    },
    {
      "absoluteTicks": 74400,
      "channel": 13,
      "type": "noteOn",
      "note": 84,
      "velocity": 29,
      "vel": 0.23622,
      "time": 76.32771832196069
    },
    {
      "absoluteTicks": 74400,
      "channel": 13,
      "type": "noteOn",
      "note": 75,
      "velocity": 29,
      "vel": 0.23622,
      "time": 76.32771832196069
    },
    {
      "absoluteTicks": 74520,
      "channel": 13,
      "type": "noteOff",
      "note": 84,
      "velocity": 29,
      "rel": 0.23622,
      "time": 76.44868582196118
    },
    {
      "absoluteTicks": 74520,
      "channel": 13,
      "type": "noteOff",
      "note": 75,
      "velocity": 29,
      "rel": 0.23622,
      "time": 76.44868582196118
    },
    {
      "absoluteTicks": 74640,
      "channel": 13,
      "type": "noteOn",
      "note": 84,
      "velocity": 32,
      "vel": 0.251969,
      "time": 76.56965332196165
    },
    {
      "absoluteTicks": 74640,
      "channel": 13,
      "type": "noteOn",
      "note": 75,
      "velocity": 32,
      "vel": 0.251969,
      "time": 76.56965332196165
    },
    {
      "absoluteTicks": 74760,
      "channel": 13,
      "type": "noteOff",
      "note": 84,
      "velocity": 32,
      "rel": 0.251969,
      "time": 76.69062082196214
    },
    {
      "absoluteTicks": 74760,
      "channel": 13,
      "type": "noteOff",
      "note": 75,
      "velocity": 32,
      "rel": 0.251969,
      "time": 76.69062082196214
    },
    {
      "absoluteTicks": 74880,
      "channel": 13,
      "type": "noteOn",
      "note": 83,
      "velocity": 33,
      "vel": 0.259843,
      "time": 76.81158832196263
    },
    {
      "absoluteTicks": 75000,
      "channel": 13,
      "type": "noteOff",
      "note": 83,
      "velocity": 33,
      "rel": 0.259843,
      "time": 76.9325558219631
    },
    {
      "absoluteTicks": 75360,
      "channel": 13,
      "type": "noteOn",
      "note": 84,
      "velocity": 33,
      "vel": 0.259843,
      "time": 77.29545832196456
    },
    {
      "absoluteTicks": 75480,
      "channel": 13,
      "type": "noteOff",
      "note": 84,
      "velocity": 33,
      "rel": 0.259843,
      "time": 77.41642582196505
    },
    {
      "absoluteTicks": 75840,
      "channel": 13,
      "type": "noteOn",
      "note": 83,
      "velocity": 33,
      "vel": 0.259843,
      "time": 77.7793283219665
    },
    {
      "absoluteTicks": 75960,
      "channel": 13,
      "type": "noteOff",
      "note": 83,
      "velocity": 33,
      "rel": 0.259843,
      "time": 77.90029582196698
    },
    {
      "absoluteTicks": 76080,
      "channel": 13,
      "type": "noteOn",
      "note": 83,
      "velocity": 35,
      "vel": 0.275591,
      "time": 78.02126332196747
    },
    {
      "absoluteTicks": 76200,
      "channel": 13,
      "type": "noteOff",
      "note": 83,
      "velocity": 35,
      "rel": 0.275591,
      "time": 78.14223082196796
    },
    {
      "absoluteTicks": 77280,
      "channel": 13,
      "type": "noteOn",
      "note": 72,
      "velocity": 33,
      "vel": 0.259843,
      "time": 79.2309383219723
    },
    {
      "absoluteTicks": 77400,
      "channel": 13,
      "type": "noteOff",
      "note": 72,
      "velocity": 33,
      "rel": 0.259843,
      "time": 79.35190582197279
    },
    {
      "absoluteTicks": 77520,
      "channel": 13,
      "type": "noteOn",
      "note": 72,
      "velocity": 32,
      "vel": 0.251969,
      "time": 79.47287332197327
    },
    {
      "absoluteTicks": 77640,
      "channel": 13,
      "type": "noteOff",
      "note": 72,
      "velocity": 32,
      "rel": 0.251969,
      "time": 79.59384082197376
    },
    {
      "absoluteTicks": 78240,
      "channel": 13,
      "type": "noteOn",
      "note": 75,
      "velocity": 35,
      "vel": 0.275591,
      "time": 80.19867832197617
    },
    {
      "absoluteTicks": 78360,
      "channel": 13,
      "type": "noteOff",
      "note": 75,
      "velocity": 35,
      "rel": 0.275591,
      "time": 80.31964582197666
    },
    {
      "absoluteTicks": 78480,
      "channel": 13,
      "type": "noteOn",
      "note": 75,
      "velocity": 35,
      "vel": 0.275591,
      "time": 80.44061332197714
    },
    {
      "absoluteTicks": 78600,
      "channel": 13,
      "type": "noteOff",
      "note": 75,
      "velocity": 35,
      "rel": 0.275591,
      "time": 80.56158082197763
    },
    {
      "absoluteTicks": 79200,
      "channel": 13,
      "type": "noteOn",
      "note": 76,
      "velocity": 40,
      "vel": 0.314961,
      "time": 81.16641832198005
    },
    {
      "absoluteTicks": 79200,
      "channel": 13,
      "type": "noteOn",
      "note": 71,
      "velocity": 40,
      "vel": 0.314961,
      "time": 81.16641832198005
    },
    {
      "absoluteTicks": 79320,
      "channel": 13,
      "type": "noteOff",
      "note": 76,
      "velocity": 40,
      "rel": 0.314961,
      "time": 81.28738582198054
    },
    {
      "absoluteTicks": 79320,
      "channel": 13,
      "type": "noteOff",
      "note": 71,
      "velocity": 40,
      "rel": 0.314961,
      "time": 81.28738582198054
    },
    {
      "absoluteTicks": 79440,
      "channel": 13,
      "type": "noteOn",
      "note": 76,
      "velocity": 48,
      "vel": 0.377953,
      "time": 81.40835332198101
    },
    {
      "absoluteTicks": 79440,
      "channel": 13,
      "type": "noteOn",
      "note": 71,
      "velocity": 48,
      "vel": 0.377953,
      "time": 81.40835332198101
    },
    {
      "absoluteTicks": 79560,
      "channel": 13,
      "type": "noteOff",
      "note": 76,
      "velocity": 48,
      "rel": 0.377953,
      "time": 81.5293208219815
    },
    {
      "absoluteTicks": 79560,
      "channel": 13,
      "type": "noteOff",
      "note": 71,
      "velocity": 48,
      "rel": 0.377953,
      "time": 81.5293208219815
    },
    {
      "absoluteTicks": 80160,
      "channel": 13,
      "type": "noteOn",
      "note": 76,
      "velocity": 43,
      "vel": 0.338583,
      "time": 82.13415832198392
    },
    {
      "absoluteTicks": 80160,
      "channel": 13,
      "type": "noteOn",
      "note": 73,
      "velocity": 43,
      "vel": 0.338583,
      "time": 82.13415832198392
    },
    {
      "absoluteTicks": 80280,
      "channel": 13,
      "type": "noteOff",
      "note": 76,
      "velocity": 43,
      "rel": 0.338583,
      "time": 82.25512582198441
    },
    {
      "absoluteTicks": 80280,
      "channel": 13,
      "type": "noteOff",
      "note": 73,
      "velocity": 43,
      "rel": 0.338583,
      "time": 82.25512582198441
    },
    {
      "absoluteTicks": 80400,
      "channel": 13,
      "type": "noteOn",
      "note": 76,
      "velocity": 47,
      "vel": 0.370079,
      "time": 82.37609332198488
    },
    {
      "absoluteTicks": 80400,
      "channel": 13,
      "type": "noteOn",
      "note": 73,
      "velocity": 47,
      "vel": 0.370079,
      "time": 82.37609332198488
    },
    {
      "absoluteTicks": 80520,
      "channel": 13,
      "type": "noteOff",
      "note": 76,
      "velocity": 47,
      "rel": 0.370079,
      "time": 82.49706082198537
    },
    {
      "absoluteTicks": 80520,
      "channel": 13,
      "type": "noteOff",
      "note": 73,
      "velocity": 47,
      "rel": 0.370079,
      "time": 82.49706082198537
    },
    {
      "absoluteTicks": 81120,
      "channel": 13,
      "type": "noteOn",
      "note": 78,
      "velocity": 43,
      "vel": 0.338583,
      "time": 83.10189832198779
    },
    {
      "absoluteTicks": 81120,
      "channel": 13,
      "type": "noteOn",
      "note": 74,
      "velocity": 43,
      "vel": 0.338583,
      "time": 83.10189832198779
    },
    {
      "absoluteTicks": 81240,
      "channel": 13,
      "type": "noteOff",
      "note": 78,
      "velocity": 43,
      "rel": 0.338583,
      "time": 83.22286582198828
    },
    {
      "absoluteTicks": 81240,
      "channel": 13,
      "type": "noteOff",
      "note": 74,
      "velocity": 43,
      "rel": 0.338583,
      "time": 83.22286582198828
    },
    {
      "absoluteTicks": 81360,
      "channel": 13,
      "type": "noteOn",
      "note": 78,
      "velocity": 50,
      "vel": 0.393701,
      "time": 83.34383332198875
    },
    {
      "absoluteTicks": 81360,
      "channel": 13,
      "type": "noteOn",
      "note": 74,
      "velocity": 50,
      "vel": 0.393701,
      "time": 83.34383332198875
    },
    {
      "absoluteTicks": 81480,
      "channel": 13,
      "type": "noteOff",
      "note": 78,
      "velocity": 50,
      "rel": 0.393701,
      "time": 83.46480082198924
    },
    {
      "absoluteTicks": 81480,
      "channel": 13,
      "type": "noteOff",
      "note": 74,
      "velocity": 50,
      "rel": 0.393701,
      "time": 83.46480082198924
    },
    {
      "absoluteTicks": 82080,
      "channel": 13,
      "type": "noteOn",
      "note": 76,
      "velocity": 38,
      "vel": 0.299213,
      "time": 84.06963832199166
    },
    {
      "absoluteTicks": 82080,
      "channel": 13,
      "type": "noteOn",
      "note": 73,
      "velocity": 38,
      "vel": 0.299213,
      "time": 84.06963832199166
    },
    {
      "absoluteTicks": 82200,
      "channel": 13,
      "type": "noteOff",
      "note": 76,
      "velocity": 38,
      "rel": 0.299213,
      "time": 84.19060582199214
    },
    {
      "absoluteTicks": 82200,
      "channel": 13,
      "type": "noteOff",
      "note": 73,
      "velocity": 38,
      "rel": 0.299213,
      "time": 84.19060582199214
    },
    {
      "absoluteTicks": 82320,
      "channel": 13,
      "type": "noteOn",
      "note": 76,
      "velocity": 45,
      "vel": 0.354331,
      "time": 84.31157332199263
    },
    {
      "absoluteTicks": 82320,
      "channel": 13,
      "type": "noteOn",
      "note": 73,
      "velocity": 45,
      "vel": 0.354331,
      "time": 84.31157332199263
    },
    {
      "absoluteTicks": 82440,
      "channel": 13,
      "type": "noteOff",
      "note": 76,
      "velocity": 45,
      "rel": 0.354331,
      "time": 84.43254082199311
    },
    {
      "absoluteTicks": 82440,
      "channel": 13,
      "type": "noteOff",
      "note": 73,
      "velocity": 45,
      "rel": 0.354331,
      "time": 84.43254082199311
    },
    {
      "absoluteTicks": 82560,
      "channel": 13,
      "type": "noteOn",
      "note": 75,
      "velocity": 40,
      "vel": 0.314961,
      "time": 84.55350832199359
    },
    {
      "absoluteTicks": 82680,
      "channel": 13,
      "type": "noteOff",
      "note": 75,
      "velocity": 40,
      "rel": 0.314961,
      "time": 84.67447582199408
    },
    {
      "absoluteTicks": 83040,
      "channel": 13,
      "type": "noteOn",
      "note": 76,
      "velocity": 33,
      "vel": 0.259843,
      "time": 85.03737832199553
    },
    {
      "absoluteTicks": 83160,
      "channel": 13,
      "type": "noteOff",
      "note": 76,
      "velocity": 33,
      "rel": 0.259843,
      "time": 85.15834582199602
    },
    {
      "absoluteTicks": 83520,
      "channel": 13,
      "type": "noteOn",
      "note": 75,
      "velocity": 35,
      "vel": 0.275591,
      "time": 85.52124832199746
    },
    {
      "absoluteTicks": 83640,
      "channel": 13,
      "type": "noteOff",
      "note": 75,
      "velocity": 35,
      "rel": 0.275591,
      "time": 85.64221582199795
    },
    {
      "absoluteTicks": 83760,
      "channel": 13,
      "type": "noteOn",
      "note": 75,
      "velocity": 28,
      "vel": 0.228346,
      "time": 85.76318332199844
    },
    {
      "absoluteTicks": 83880,
      "channel": 13,
      "type": "noteOff",
      "note": 75,
      "velocity": 28,
      "rel": 0.228346,
      "time": 85.88415082199892
    },
    {
      "absoluteTicks": 84960,
      "channel": 13,
      "type": "noteOn",
      "note": 76,
      "velocity": 32,
      "vel": 0.251969,
      "time": 86.97285832200328
    },
    {
      "absoluteTicks": 84960,
      "channel": 13,
      "type": "noteOn",
      "note": 71,
      "velocity": 32,
      "vel": 0.251969,
      "time": 86.97285832200328
    },
    {
      "absoluteTicks": 85080,
      "channel": 13,
      "type": "noteOff",
      "note": 76,
      "velocity": 32,
      "rel": 0.251969,
      "time": 87.09382582200375
    },
    {
      "absoluteTicks": 85080,
      "channel": 13,
      "type": "noteOff",
      "note": 71,
      "velocity": 32,
      "rel": 0.251969,
      "time": 87.09382582200375
    },
    {
      "absoluteTicks": 85200,
      "channel": 13,
      "type": "noteOn",
      "note": 76,
      "velocity": 36,
      "vel": 0.283465,
      "time": 87.21479332200424
    },
    {
      "absoluteTicks": 85200,
      "channel": 13,
      "type": "noteOn",
      "note": 71,
      "velocity": 36,
      "vel": 0.283465,
      "time": 87.21479332200424
    },
    {
      "absoluteTicks": 85320,
      "channel": 13,
      "type": "noteOff",
      "note": 76,
      "velocity": 36,
      "rel": 0.283465,
      "time": 87.33576082200472
    },
    {
      "absoluteTicks": 85320,
      "channel": 13,
      "type": "noteOff",
      "note": 71,
      "velocity": 36,
      "rel": 0.283465,
      "time": 87.33576082200472
    },
    {
      "absoluteTicks": 85920,
      "channel": 13,
      "type": "noteOn",
      "note": 78,
      "velocity": 32,
      "vel": 0.251969,
      "time": 87.94059832200715
    },
    {
      "absoluteTicks": 85920,
      "channel": 13,
      "type": "noteOn",
      "note": 69,
      "velocity": 32,
      "vel": 0.251969,
      "time": 87.94059832200715
    },
    {
      "absoluteTicks": 86040,
      "channel": 13,
      "type": "noteOff",
      "note": 78,
      "velocity": 32,
      "rel": 0.251969,
      "time": 88.06156582200762
    },
    {
      "absoluteTicks": 86040,
      "channel": 13,
      "type": "noteOff",
      "note": 69,
      "velocity": 32,
      "rel": 0.251969,
      "time": 88.06156582200762
    },
    {
      "absoluteTicks": 86160,
      "channel": 13,
      "type": "noteOn",
      "note": 78,
      "velocity": 37,
      "vel": 0.291339,
      "time": 88.18253332200811
    },
    {
      "absoluteTicks": 86160,
      "channel": 13,
      "type": "noteOn",
      "note": 69,
      "velocity": 37,
      "vel": 0.291339,
      "time": 88.18253332200811
    },
    {
      "absoluteTicks": 86280,
      "channel": 13,
      "type": "noteOff",
      "note": 78,
      "velocity": 37,
      "rel": 0.291339,
      "time": 88.3035008220086
    },
    {
      "absoluteTicks": 86280,
      "channel": 13,
      "type": "noteOff",
      "note": 69,
      "velocity": 37,
      "rel": 0.291339,
      "time": 88.3035008220086
    },
    {
      "absoluteTicks": 86880,
      "channel": 13,
      "type": "noteOn",
      "note": 79,
      "velocity": 29,
      "vel": 0.23622,
      "time": 88.90833832201102
    },
    {
      "absoluteTicks": 86880,
      "channel": 13,
      "type": "noteOn",
      "note": 70,
      "velocity": 29,
      "vel": 0.23622,
      "time": 88.90833832201102
    },
    {
      "absoluteTicks": 87000,
      "channel": 13,
      "type": "noteOff",
      "note": 79,
      "velocity": 29,
      "rel": 0.23622,
      "time": 89.0293058220115
    },
    {
      "absoluteTicks": 87000,
      "channel": 13,
      "type": "noteOff",
      "note": 70,
      "velocity": 29,
      "rel": 0.23622,
      "time": 89.0293058220115
    },
    {
      "absoluteTicks": 87120,
      "channel": 13,
      "type": "noteOn",
      "note": 79,
      "velocity": 36,
      "vel": 0.283465,
      "time": 89.15027332201198
    },
    {
      "absoluteTicks": 87120,
      "channel": 13,
      "type": "noteOn",
      "note": 70,
      "velocity": 36,
      "vel": 0.283465,
      "time": 89.15027332201198
    },
    {
      "absoluteTicks": 87240,
      "channel": 13,
      "type": "noteOff",
      "note": 79,
      "velocity": 36,
      "rel": 0.283465,
      "time": 89.27124082201246
    },
    {
      "absoluteTicks": 87240,
      "channel": 13,
      "type": "noteOff",
      "note": 70,
      "velocity": 36,
      "rel": 0.283465,
      "time": 89.27124082201246
    },
    {
      "absoluteTicks": 87840,
      "channel": 13,
      "type": "noteOn",
      "note": 80,
      "velocity": 32,
      "vel": 0.251969,
      "time": 89.87607832201488
    },
    {
      "absoluteTicks": 87840,
      "channel": 13,
      "type": "noteOn",
      "note": 71,
      "velocity": 32,
      "vel": 0.251969,
      "time": 89.87607832201488
    },
    {
      "absoluteTicks": 87960,
      "channel": 13,
      "type": "noteOff",
      "note": 80,
      "velocity": 32,
      "rel": 0.251969,
      "time": 89.99704582201537
    },
    {
      "absoluteTicks": 87960,
      "channel": 13,
      "type": "noteOff",
      "note": 71,
      "velocity": 32,
      "rel": 0.251969,
      "time": 89.99704582201537
    },
    {
      "absoluteTicks": 88080,
      "channel": 13,
      "type": "noteOn",
      "note": 80,
      "velocity": 36,
      "vel": 0.283465,
      "time": 90.11801332201586
    },
    {
      "absoluteTicks": 88080,
      "channel": 13,
      "type": "noteOn",
      "note": 71,
      "velocity": 36,
      "vel": 0.283465,
      "time": 90.11801332201586
    },
    {
      "absoluteTicks": 88200,
      "channel": 13,
      "type": "noteOff",
      "note": 80,
      "velocity": 36,
      "rel": 0.283465,
      "time": 90.23898082201634
    },
    {
      "absoluteTicks": 88200,
      "channel": 13,
      "type": "noteOff",
      "note": 71,
      "velocity": 36,
      "rel": 0.283465,
      "time": 90.23898082201634
    },
    {
      "absoluteTicks": 88800,
      "channel": 13,
      "type": "noteOn",
      "note": 82,
      "velocity": 25,
      "vel": 0.204724,
      "time": 90.84381832201876
    },
    {
      "absoluteTicks": 88800,
      "channel": 13,
      "type": "noteOn",
      "note": 73,
      "velocity": 25,
      "vel": 0.204724,
      "time": 90.84381832201876
    },
    {
      "absoluteTicks": 88920,
      "channel": 13,
      "type": "noteOff",
      "note": 82,
      "velocity": 25,
      "rel": 0.204724,
      "time": 90.96478582201924
    },
    {
      "absoluteTicks": 88920,
      "channel": 13,
      "type": "noteOff",
      "note": 73,
      "velocity": 25,
      "rel": 0.204724,
      "time": 90.96478582201924
    },
    {
      "absoluteTicks": 89040,
      "channel": 13,
      "type": "noteOn",
      "note": 82,
      "velocity": 35,
      "vel": 0.275591,
      "time": 91.08575332201973
    },
    {
      "absoluteTicks": 89040,
      "channel": 13,
      "type": "noteOn",
      "note": 73,
      "velocity": 35,
      "vel": 0.275591,
      "time": 91.08575332201973
    },
    {
      "absoluteTicks": 89160,
      "channel": 13,
      "type": "noteOff",
      "note": 82,
      "velocity": 35,
      "rel": 0.275591,
      "time": 91.2067208220202
    },
    {
      "absoluteTicks": 89160,
      "channel": 13,
      "type": "noteOff",
      "note": 73,
      "velocity": 35,
      "rel": 0.275591,
      "time": 91.2067208220202
    },
    {
      "absoluteTicks": 89760,
      "channel": 13,
      "type": "noteOn",
      "note": 84,
      "velocity": 30,
      "vel": 0.244094,
      "time": 91.81155832202262
    },
    {
      "absoluteTicks": 89760,
      "channel": 13,
      "type": "noteOn",
      "note": 75,
      "velocity": 30,
      "vel": 0.244094,
      "time": 91.81155832202262
    },
    {
      "absoluteTicks": 89880,
      "channel": 13,
      "type": "noteOff",
      "note": 84,
      "velocity": 30,
      "rel": 0.244094,
      "time": 91.93252582202311
    },
    {
      "absoluteTicks": 89880,
      "channel": 13,
      "type": "noteOff",
      "note": 75,
      "velocity": 30,
      "rel": 0.244094,
      "time": 91.93252582202311
    },
    {
      "absoluteTicks": 90000,
      "channel": 13,
      "type": "noteOn",
      "note": 84,
      "velocity": 32,
      "vel": 0.251969,
      "time": 92.0534933220236
    },
    {
      "absoluteTicks": 90000,
      "channel": 13,
      "type": "noteOn",
      "note": 75,
      "velocity": 32,
      "vel": 0.251969,
      "time": 92.0534933220236
    },
    {
      "absoluteTicks": 90120,
      "channel": 13,
      "type": "noteOff",
      "note": 84,
      "velocity": 32,
      "rel": 0.251969,
      "time": 92.17446082202409
    },
    {
      "absoluteTicks": 90120,
      "channel": 13,
      "type": "noteOff",
      "note": 75,
      "velocity": 32,
      "rel": 0.251969,
      "time": 92.17446082202409
    },
    {
      "absoluteTicks": 90240,
      "channel": 13,
      "type": "noteOn",
      "note": 83,
      "velocity": 33,
      "vel": 0.259843,
      "time": 92.29542832202456
    },
    {
      "absoluteTicks": 90360,
      "channel": 13,
      "type": "noteOff",
      "note": 83,
      "velocity": 33,
      "rel": 0.259843,
      "time": 92.41639582202504
    },
    {
      "absoluteTicks": 90720,
      "channel": 13,
      "type": "noteOn",
      "note": 84,
      "velocity": 32,
      "vel": 0.251969,
      "time": 92.7792983220265
    },
    {
      "absoluteTicks": 90840,
      "channel": 13,
      "type": "noteOff",
      "note": 84,
      "velocity": 32,
      "rel": 0.251969,
      "time": 92.90026582202698
    },
    {
      "absoluteTicks": 91200,
      "channel": 13,
      "type": "noteOn",
      "note": 83,
      "velocity": 34,
      "vel": 0.267717,
      "time": 93.26316832202843
    },
    {
      "absoluteTicks": 91320,
      "channel": 13,
      "type": "noteOff",
      "note": 83,
      "velocity": 34,
      "rel": 0.267717,
      "time": 93.38413582202892
    },
    {
      "absoluteTicks": 92640,
      "channel": 13,
      "type": "noteOn",
      "note": 78,
      "velocity": 34,
      "vel": 0.267717,
      "time": 94.71477832203425
    },
    {
      "absoluteTicks": 92640,
      "channel": 13,
      "type": "noteOn",
      "note": 66,
      "velocity": 34,
      "vel": 0.267717,
      "time": 94.71477832203425
    },
    {
      "absoluteTicks": 92760,
      "channel": 13,
      "type": "noteOff",
      "note": 78,
      "velocity": 34,
      "rel": 0.267717,
      "time": 94.83574582203472
    },
    {
      "absoluteTicks": 92760,
      "channel": 13,
      "type": "noteOff",
      "note": 66,
      "velocity": 34,
      "rel": 0.267717,
      "time": 94.83574582203472
    },
    {
      "absoluteTicks": 92880,
      "channel": 13,
      "type": "noteOn",
      "note": 78,
      "velocity": 33,
      "vel": 0.259843,
      "time": 94.9567133220352
    },
    {
      "absoluteTicks": 92880,
      "channel": 13,
      "type": "noteOn",
      "note": 66,
      "velocity": 33,
      "vel": 0.259843,
      "time": 94.9567133220352
    },
    {
      "absoluteTicks": 93000,
      "channel": 13,
      "type": "noteOff",
      "note": 78,
      "velocity": 33,
      "rel": 0.259843,
      "time": 95.07768082203569
    },
    {
      "absoluteTicks": 93000,
      "channel": 13,
      "type": "noteOff",
      "note": 66,
      "velocity": 33,
      "rel": 0.259843,
      "time": 95.07768082203569
    },
    {
      "absoluteTicks": 93120,
      "channel": 13,
      "type": "noteOn",
      "note": 90,
      "velocity": 44,
      "vel": 0.346457,
      "time": 95.19864832203618
    },
    {
      "absoluteTicks": 93120,
      "channel": 13,
      "type": "noteOn",
      "note": 78,
      "velocity": 44,
      "vel": 0.346457,
      "time": 95.19864832203618
    },
    {
      "absoluteTicks": 93240,
      "channel": 13,
      "type": "noteOff",
      "note": 90,
      "velocity": 44,
      "rel": 0.346457,
      "time": 95.31961582203667
    },
    {
      "absoluteTicks": 93240,
      "channel": 13,
      "type": "noteOff",
      "note": 78,
      "velocity": 44,
      "rel": 0.346457,
      "time": 95.31961582203667
    },
    {
      "absoluteTicks": 93360,
      "channel": 13,
      "type": "noteOn",
      "note": 90,
      "velocity": 36,
      "vel": 0.283465,
      "time": 95.44058332203714
    },
    {
      "absoluteTicks": 93360,
      "channel": 13,
      "type": "noteOn",
      "note": 78,
      "velocity": 36,
      "vel": 0.283465,
      "time": 95.44058332203714
    },
    {
      "absoluteTicks": 93480,
      "channel": 13,
      "type": "noteOff",
      "note": 90,
      "velocity": 36,
      "rel": 0.283465,
      "time": 95.56155082203763
    },
    {
      "absoluteTicks": 93480,
      "channel": 13,
      "type": "noteOff",
      "note": 78,
      "velocity": 36,
      "rel": 0.283465,
      "time": 95.56155082203763
    },
    {
      "absoluteTicks": 93600,
      "channel": 13,
      "type": "noteOn",
      "note": 90,
      "velocity": 30,
      "vel": 0.244094,
      "time": 95.6825183220381
    },
    {
      "absoluteTicks": 93600,
      "channel": 13,
      "type": "noteOn",
      "note": 78,
      "velocity": 30,
      "vel": 0.244094,
      "time": 95.6825183220381
    },
    {
      "absoluteTicks": 93720,
      "channel": 13,
      "type": "noteOff",
      "note": 90,
      "velocity": 30,
      "rel": 0.244094,
      "time": 95.8034858220386
    },
    {
      "absoluteTicks": 93720,
      "channel": 13,
      "type": "noteOff",
      "note": 78,
      "velocity": 30,
      "rel": 0.244094,
      "time": 95.8034858220386
    },
    {
      "absoluteTicks": 93840,
      "channel": 13,
      "type": "noteOn",
      "note": 90,
      "velocity": 40,
      "vel": 0.314961,
      "time": 95.92445332203908
    },
    {
      "absoluteTicks": 93840,
      "channel": 13,
      "type": "noteOn",
      "note": 78,
      "velocity": 40,
      "vel": 0.314961,
      "time": 95.92445332203908
    },
    {
      "absoluteTicks": 93960,
      "channel": 13,
      "type": "noteOff",
      "note": 90,
      "velocity": 40,
      "rel": 0.314961,
      "time": 96.04542082203956
    },
    {
      "absoluteTicks": 93960,
      "channel": 13,
      "type": "noteOff",
      "note": 78,
      "velocity": 40,
      "rel": 0.314961,
      "time": 96.04542082203956
    },
    {
      "absoluteTicks": 94560,
      "channel": 13,
      "type": "noteOn",
      "note": 76,
      "velocity": 32,
      "vel": 0.251969,
      "time": 96.65025832204198
    },
    {
      "absoluteTicks": 94560,
      "channel": 13,
      "type": "noteOn",
      "note": 64,
      "velocity": 32,
      "vel": 0.251969,
      "time": 96.65025832204198
    },
    {
      "absoluteTicks": 94680,
      "channel": 13,
      "type": "noteOff",
      "note": 76,
      "velocity": 32,
      "rel": 0.251969,
      "time": 96.77122582204247
    },
    {
      "absoluteTicks": 94680,
      "channel": 13,
      "type": "noteOff",
      "note": 64,
      "velocity": 32,
      "rel": 0.251969,
      "time": 96.77122582204247
    },
    {
      "absoluteTicks": 94800,
      "channel": 13,
      "type": "noteOn",
      "note": 76,
      "velocity": 38,
      "vel": 0.299213,
      "time": 96.89219332204294
    },
    {
      "absoluteTicks": 94800,
      "channel": 13,
      "type": "noteOn",
      "note": 64,
      "velocity": 38,
      "vel": 0.299213,
      "time": 96.89219332204294
    },
    {
      "absoluteTicks": 94920,
      "channel": 13,
      "type": "noteOff",
      "note": 76,
      "velocity": 38,
      "rel": 0.299213,
      "time": 97.01316082204343
    },
    {
      "absoluteTicks": 94920,
      "channel": 13,
      "type": "noteOff",
      "note": 64,
      "velocity": 38,
      "rel": 0.299213,
      "time": 97.01316082204343
    },
    {
      "absoluteTicks": 95040,
      "channel": 13,
      "type": "noteOn",
      "note": 88,
      "velocity": 43,
      "vel": 0.338583,
      "time": 97.13412832204392
    },
    {
      "absoluteTicks": 95040,
      "channel": 13,
      "type": "noteOn",
      "note": 76,
      "velocity": 43,
      "vel": 0.338583,
      "time": 97.13412832204392
    },
    {
      "absoluteTicks": 95160,
      "channel": 13,
      "type": "noteOff",
      "note": 88,
      "velocity": 43,
      "rel": 0.338583,
      "time": 97.25509582204441
    },
    {
      "absoluteTicks": 95160,
      "channel": 13,
      "type": "noteOff",
      "note": 76,
      "velocity": 43,
      "rel": 0.338583,
      "time": 97.25509582204441
    },
    {
      "absoluteTicks": 95280,
      "channel": 13,
      "type": "noteOn",
      "note": 88,
      "velocity": 39,
      "vel": 0.307087,
      "time": 97.37606332204489
    },
    {
      "absoluteTicks": 95280,
      "channel": 13,
      "type": "noteOn",
      "note": 76,
      "velocity": 39,
      "vel": 0.307087,
      "time": 97.37606332204489
    },
    {
      "absoluteTicks": 95400,
      "channel": 13,
      "type": "noteOff",
      "note": 88,
      "velocity": 39,
      "rel": 0.307087,
      "time": 97.49703082204537
    },
    {
      "absoluteTicks": 95400,
      "channel": 13,
      "type": "noteOff",
      "note": 76,
      "velocity": 39,
      "rel": 0.307087,
      "time": 97.49703082204537
    },
    {
      "absoluteTicks": 95520,
      "channel": 13,
      "type": "noteOn",
      "note": 88,
      "velocity": 33,
      "vel": 0.259843,
      "time": 97.61799832204585
    },
    {
      "absoluteTicks": 95520,
      "channel": 13,
      "type": "noteOn",
      "note": 76,
      "velocity": 33,
      "vel": 0.259843,
      "time": 97.61799832204585
    },
    {
      "absoluteTicks": 95640,
      "channel": 13,
      "type": "noteOff",
      "note": 88,
      "velocity": 33,
      "rel": 0.259843,
      "time": 97.73896582204634
    },
    {
      "absoluteTicks": 95640,
      "channel": 13,
      "type": "noteOff",
      "note": 76,
      "velocity": 33,
      "rel": 0.259843,
      "time": 97.73896582204634
    },
    {
      "absoluteTicks": 95760,
      "channel": 13,
      "type": "noteOn",
      "note": 88,
      "velocity": 39,
      "vel": 0.307087,
      "time": 97.85993332204683
    },
    {
      "absoluteTicks": 95760,
      "channel": 13,
      "type": "noteOn",
      "note": 76,
      "velocity": 39,
      "vel": 0.307087,
      "time": 97.85993332204683
    },
    {
      "absoluteTicks": 95880,
      "channel": 13,
      "type": "noteOff",
      "note": 88,
      "velocity": 39,
      "rel": 0.307087,
      "time": 97.9809008220473
    },
    {
      "absoluteTicks": 95880,
      "channel": 13,
      "type": "noteOff",
      "note": 76,
      "velocity": 39,
      "rel": 0.307087,
      "time": 97.9809008220473
    },
    {
      "absoluteTicks": 96480,
      "channel": 13,
      "type": "noteOn",
      "note": 74,
      "velocity": 32,
      "vel": 0.251969,
      "time": 98.58573832204972
    },
    {
      "absoluteTicks": 96480,
      "channel": 13,
      "type": "noteOn",
      "note": 62,
      "velocity": 32,
      "vel": 0.251969,
      "time": 98.58573832204972
    },
    {
      "absoluteTicks": 96600,
      "channel": 13,
      "type": "noteOff",
      "note": 74,
      "velocity": 32,
      "rel": 0.251969,
      "time": 98.70670582205021
    },
    {
      "absoluteTicks": 96600,
      "channel": 13,
      "type": "noteOff",
      "note": 62,
      "velocity": 32,
      "rel": 0.251969,
      "time": 98.70670582205021
    },
    {
      "absoluteTicks": 96720,
      "channel": 13,
      "type": "noteOn",
      "note": 74,
      "velocity": 45,
      "vel": 0.354331,
      "time": 98.82767332205069
    },
    {
      "absoluteTicks": 96720,
      "channel": 13,
      "type": "noteOn",
      "note": 62,
      "velocity": 45,
      "vel": 0.354331,
      "time": 98.82767332205069
    },
    {
      "absoluteTicks": 96840,
      "channel": 13,
      "type": "noteOff",
      "note": 74,
      "velocity": 45,
      "rel": 0.354331,
      "time": 98.94864082205117
    },
    {
      "absoluteTicks": 96840,
      "channel": 13,
      "type": "noteOff",
      "note": 62,
      "velocity": 45,
      "rel": 0.354331,
      "time": 98.94864082205117
    },
    {
      "absoluteTicks": 96960,
      "channel": 13,
      "type": "noteOn",
      "note": 86,
      "velocity": 60,
      "vel": 0.472441,
      "time": 99.06960832205166
    },
    {
      "absoluteTicks": 96960,
      "channel": 13,
      "type": "noteOn",
      "note": 74,
      "velocity": 60,
      "vel": 0.472441,
      "time": 99.06960832205166
    },
    {
      "absoluteTicks": 97080,
      "channel": 13,
      "type": "noteOff",
      "note": 86,
      "velocity": 60,
      "rel": 0.472441,
      "time": 99.19057582205214
    },
    {
      "absoluteTicks": 97080,
      "channel": 13,
      "type": "noteOff",
      "note": 74,
      "velocity": 60,
      "rel": 0.472441,
      "time": 99.19057582205214
    },
    {
      "absoluteTicks": 97200,
      "channel": 13,
      "type": "noteOn",
      "note": 86,
      "velocity": 54,
      "vel": 0.425197,
      "time": 99.31154332205263
    },
    {
      "absoluteTicks": 97200,
      "channel": 13,
      "type": "noteOn",
      "note": 74,
      "velocity": 54,
      "vel": 0.425197,
      "time": 99.31154332205263
    },
    {
      "absoluteTicks": 97320,
      "channel": 13,
      "type": "noteOff",
      "note": 86,
      "velocity": 54,
      "rel": 0.425197,
      "time": 99.4325108220531
    },
    {
      "absoluteTicks": 97320,
      "channel": 13,
      "type": "noteOff",
      "note": 74,
      "velocity": 54,
      "rel": 0.425197,
      "time": 99.4325108220531
    },
    {
      "absoluteTicks": 97440,
      "channel": 13,
      "type": "noteOn",
      "note": 86,
      "velocity": 52,
      "vel": 0.409449,
      "time": 99.55347832205359
    },
    {
      "absoluteTicks": 97440,
      "channel": 13,
      "type": "noteOn",
      "note": 74,
      "velocity": 52,
      "vel": 0.409449,
      "time": 99.55347832205359
    },
    {
      "absoluteTicks": 97560,
      "channel": 13,
      "type": "noteOff",
      "note": 86,
      "velocity": 52,
      "rel": 0.409449,
      "time": 99.67444582205408
    },
    {
      "absoluteTicks": 97560,
      "channel": 13,
      "type": "noteOff",
      "note": 74,
      "velocity": 52,
      "rel": 0.409449,
      "time": 99.67444582205408
    },
    {
      "absoluteTicks": 97680,
      "channel": 13,
      "type": "noteOn",
      "note": 86,
      "velocity": 57,
      "vel": 0.448819,
      "time": 99.79541332205457
    },
    {
      "absoluteTicks": 97680,
      "channel": 13,
      "type": "noteOn",
      "note": 74,
      "velocity": 57,
      "vel": 0.448819,
      "time": 99.79541332205457
    },
    {
      "absoluteTicks": 97800,
      "channel": 13,
      "type": "noteOff",
      "note": 86,
      "velocity": 57,
      "rel": 0.448819,
      "time": 99.91638082205505
    },
    {
      "absoluteTicks": 97800,
      "channel": 13,
      "type": "noteOff",
      "note": 74,
      "velocity": 57,
      "rel": 0.448819,
      "time": 99.91638082205505
    },
    {
      "absoluteTicks": 97920,
      "channel": 13,
      "type": "noteOn",
      "note": 87,
      "velocity": 61,
      "vel": 0.480315,
      "time": 100.03734832205554
    },
    {
      "absoluteTicks": 97920,
      "channel": 13,
      "type": "noteOn",
      "note": 75,
      "velocity": 61,
      "vel": 0.480315,
      "time": 100.03734832205554
    },
    {
      "absoluteTicks": 98040,
      "channel": 13,
      "type": "noteOff",
      "note": 87,
      "velocity": 61,
      "rel": 0.480315,
      "time": 100.16029907118215
    },
    {
      "absoluteTicks": 98040,
      "channel": 13,
      "type": "noteOff",
      "note": 75,
      "velocity": 61,
      "rel": 0.480315,
      "time": 100.16029907118215
    },
    {
      "absoluteTicks": 98160,
      "channel": 13,
      "type": "noteOn",
      "note": 87,
      "velocity": 57,
      "vel": 0.448819,
      "time": 100.28324982030877
    },
    {
      "absoluteTicks": 98160,
      "channel": 13,
      "type": "noteOn",
      "note": 75,
      "velocity": 57,
      "vel": 0.448819,
      "time": 100.28324982030877
    },
    {
      "absoluteTicks": 98280,
      "channel": 13,
      "type": "noteOff",
      "note": 87,
      "velocity": 57,
      "rel": 0.448819,
      "time": 100.4062005694354
    },
    {
      "absoluteTicks": 98280,
      "channel": 13,
      "type": "noteOff",
      "note": 75,
      "velocity": 57,
      "rel": 0.448819,
      "time": 100.4062005694354
    },
    {
      "absoluteTicks": 98400,
      "channel": 13,
      "type": "noteOn",
      "note": 87,
      "velocity": 63,
      "vel": 0.496063,
      "time": 100.52915131856201
    },
    {
      "absoluteTicks": 98400,
      "channel": 13,
      "type": "noteOn",
      "note": 75,
      "velocity": 63,
      "vel": 0.496063,
      "time": 100.52915131856201
    },
    {
      "absoluteTicks": 98520,
      "channel": 13,
      "type": "noteOff",
      "note": 87,
      "velocity": 63,
      "rel": 0.496063,
      "time": 100.65210206768863
    },
    {
      "absoluteTicks": 98520,
      "channel": 13,
      "type": "noteOff",
      "note": 75,
      "velocity": 63,
      "rel": 0.496063,
      "time": 100.65210206768863
    },
    {
      "absoluteTicks": 98640,
      "channel": 13,
      "type": "noteOn",
      "note": 87,
      "velocity": 62,
      "vel": 0.488189,
      "time": 100.77505281681525
    },
    {
      "absoluteTicks": 98640,
      "channel": 13,
      "type": "noteOn",
      "note": 75,
      "velocity": 62,
      "vel": 0.488189,
      "time": 100.77505281681525
    },
    {
      "absoluteTicks": 98760,
      "channel": 13,
      "type": "noteOff",
      "note": 87,
      "velocity": 62,
      "rel": 0.488189,
      "time": 100.89800356594188
    },
    {
      "absoluteTicks": 98760,
      "channel": 13,
      "type": "noteOff",
      "note": 75,
      "velocity": 62,
      "rel": 0.488189,
      "time": 100.89800356594188
    },
    {
      "absoluteTicks": 98880,
      "channel": 13,
      "type": "noteOn",
      "note": 88,
      "velocity": 67,
      "vel": 0.535433,
      "time": 101.02300356594188
    },
    {
      "absoluteTicks": 98880,
      "channel": 13,
      "type": "noteOn",
      "note": 76,
      "velocity": 67,
      "vel": 0.535433,
      "time": 101.02300356594188
    },
    {
      "absoluteTicks": 99120,
      "channel": 13,
      "type": "noteOff",
      "note": 88,
      "velocity": 67,
      "rel": 0.535433,
      "time": 101.27300356594188
    },
    {
      "absoluteTicks": 99120,
      "channel": 13,
      "type": "noteOff",
      "note": 76,
      "velocity": 67,
      "rel": 0.535433,
      "time": 101.27300356594188
    },
    {
      "absoluteTicks": 99120,
      "channel": 15,
      "type": "meta",
      "metaType": 47,
      "subType": "endOfTrack",
      "time": 101.27300356594188
    }
  ],
  [
    {
      "absoluteTicks": 0,
      "channel": 15,
      "type": "meta",
      "metaType": 3,
      "subType": "trackName",
      "text": "Violin II",
      "time": 0.0
    },
    {
      "absoluteTicks": 480,
      "channel": 13,
      "type": "noteOn",
      "note": 59,
      "velocity": 33,
      "vel": 0.259843,
      "time": 0.4838700000019355
    },
    {
      "absoluteTicks": 960,
      "channel": 13,
      "type": "noteOff",
      "note": 59,
      "velocity": 33,
      "rel": 0.259843,
      "time": 0.967740000003871
    },
    {
      "absoluteTicks": 1440,
      "channel": 13,
      "type": "noteOn",
      "note": 60,
      "velocity": 29,
      "vel": 0.23622,
      "time": 1.4516100000058065
    },
    {
      "absoluteTicks": 1920,
      "channel": 13,
      "type": "noteOff",
      "note": 60,
      "velocity": 29,
      "rel": 0.23622,
      "time": 1.935480000007742
    },
    {
      "absoluteTicks": 2400,
      "channel": 13,
      "type": "noteOn",
      "note": 61,
      "velocity": 35,
      "vel": 0.275591,
      "time": 2.4193500000096773
    },
    {
      "absoluteTicks": 2880,
      "channel": 13,
      "type": "noteOff",
      "note": 61,
      "velocity": 35,
      "rel": 0.275591,
      "time": 2.903220000011613
    },
    {
      "absoluteTicks": 3360,
      "channel": 13,
      "type": "noteOn",
      "note": 60,
      "velocity": 33,
      "vel": 0.259843,
      "time": 3.3870900000135484
    },
    {
      "absoluteTicks": 3840,
      "channel": 13,
      "type": "noteOff",
      "note": 60,
      "velocity": 33,
      "rel": 0.259843,
      "time": 3.870960000015484
    },
    {
      "absoluteTicks": 4320,
      "channel": 13,
      "type": "noteOn",
      "note": 59,
      "velocity": 27,
      "vel": 0.220472,
      "time": 4.35483000001742
    },
    {
      "absoluteTicks": 4800,
      "channel": 13,
      "type": "noteOff",
      "note": 59,
      "velocity": 27,
      "rel": 0.220472,
      "time": 4.8387000000193545
    },
    {
      "absoluteTicks": 5280,
      "channel": 13,
      "type": "noteOn",
      "note": 60,
      "velocity": 29,
      "vel": 0.23622,
      "time": 5.32257000002129
    },
    {
      "absoluteTicks": 5760,
      "channel": 13,
      "type": "noteOff",
      "note": 60,
      "velocity": 29,
      "rel": 0.23622,
      "time": 5.806440000023226
    },
    {
      "absoluteTicks": 6240,
      "channel": 13,
      "type": "noteOn",
      "note": 61,
      "velocity": 33,
      "vel": 0.259843,
      "time": 6.290310000025161
    },
    {
      "absoluteTicks": 6720,
      "channel": 13,
      "type": "noteOff",
      "note": 61,
      "velocity": 33,
      "rel": 0.259843,
      "time": 6.774180000027097
    },
    {
      "absoluteTicks": 7200,
      "channel": 13,
      "type": "noteOn",
      "note": 60,
      "velocity": 29,
      "vel": 0.23622,
      "time": 7.258050000029033
    },
    {
      "absoluteTicks": 7680,
      "channel": 13,
      "type": "noteOff",
      "note": 60,
      "velocity": 29,
      "rel": 0.23622,
      "time": 7.741920000030968
    },
    {
      "absoluteTicks": 8160,
      "channel": 13,
      "type": "noteOn",
      "note": 59,
      "velocity": 35,
      "vel": 0.275591,
      "time": 8.225790000032903
    },
    {
      "absoluteTicks": 8640,
      "channel": 13,
      "type": "noteOff",
      "note": 59,
      "velocity": 35,
      "rel": 0.275591,
      "time": 8.70966000003484
    },
    {
      "absoluteTicks": 9120,
      "channel": 13,
      "type": "noteOn",
      "note": 60,
      "velocity": 30,
      "vel": 0.244094,
      "time": 9.193530000036775
    },
    {
      "absoluteTicks": 9600,
      "channel": 13,
      "type": "noteOff",
      "note": 60,
      "velocity": 30,
      "rel": 0.244094,
      "time": 9.677400000038709
    },
    {
      "absoluteTicks": 10080,
      "channel": 13,
      "type": "noteOn",
      "note": 61,
      "velocity": 34,
      "vel": 0.267717,
      "time": 10.161270000040645
    },
    {
      "absoluteTicks": 10560,
      "channel": 13,
      "type": "noteOff",
      "note": 61,
      "velocity": 34,
      "rel": 0.267717,
      "time": 10.64514000004258
    },
    {
      "absoluteTicks": 11040,
      "channel": 13,
      "type": "noteOn",
      "note": 62,
      "velocity": 35,
      "vel": 0.275591,
      "time": 11.129010000044516
    },
    {
      "absoluteTicks": 11520,
      "channel": 13,
      "type": "noteOff",
      "note": 62,
      "velocity": 35,
      "rel": 0.275591,
      "time": 11.612880000046452
    },
    {
      "absoluteTicks": 12000,
      "channel": 13,
      "type": "noteOn",
      "note": 64,
      "velocity": 36,
      "vel": 0.283465,
      "time": 12.096750000048386
    },
    {
      "absoluteTicks": 12480,
      "channel": 13,
      "type": "noteOff",
      "note": 64,
      "velocity": 36,
      "rel": 0.283465,
      "time": 12.580620000050322
    },
    {
      "absoluteTicks": 12960,
      "channel": 13,
      "type": "noteOn",
      "note": 66,
      "velocity": 28,
      "vel": 0.228346,
      "time": 13.064490000052258
    },
    {
      "absoluteTicks": 13440,
      "channel": 13,
      "type": "noteOn",
      "note": 67,
      "velocity": 37,
      "vel": 0.291339,
      "time": 13.548360000054194
    },
    {
      "absoluteTicks": 13440,
      "channel": 13,
      "type": "noteOff",
      "note": 66,
      "velocity": 28,
      "rel": 0.228346,
      "time": 13.548360000054194
    },
    {
      "absoluteTicks": 13920,
      "channel": 13,
      "type": "noteOn",
      "note": 66,
      "velocity": 36,
      "vel": 0.283465,
      "time": 14.03223000005613
    },
    {
      "absoluteTicks": 13920,
      "channel": 13,
      "type": "noteOff",
      "note": 67,
      "velocity": 37,
      "rel": 0.291339,
      "time": 14.03223000005613
    },
    {
      "absoluteTicks": 14400,
      "channel": 13,
      "type": "noteOn",
      "note": 67,
      "velocity": 38,
      "vel": 0.299213,
      "time": 14.516100000058065
    },
    {
      "absoluteTicks": 14400,
      "channel": 13,
      "type": "noteOff",
      "note": 66,
      "velocity": 36,
      "rel": 0.283465,
      "time": 14.516100000058065
    },
    {
      "absoluteTicks": 14880,
      "channel": 13,
      "type": "noteOff",
      "note": 67,
      "velocity": 38,
      "rel": 0.299213,
      "time": 14.99997000006
    },
    {
      "absoluteTicks": 15840,
      "channel": 13,
      "type": "noteOn",
      "note": 55,
      "velocity": 29,
      "vel": 0.23622,
      "time": 15.967710000063871
    },
    {
      "absoluteTicks": 16320,
      "channel": 13,
      "type": "noteOff",
      "note": 55,
      "velocity": 29,
      "rel": 0.23622,
      "time": 16.451580000065807
    },
    {
      "absoluteTicks": 16800,
      "channel": 13,
      "type": "noteOn",
      "note": 60,
      "velocity": 30,
      "vel": 0.244094,
      "time": 16.935450000067743
    },
    {
      "absoluteTicks": 17280,
      "channel": 13,
      "type": "noteOff",
      "note": 60,
      "velocity": 30,
      "rel": 0.244094,
      "time": 17.41932000006968
    },
    {
      "absoluteTicks": 17760,
      "channel": 13,
      "type": "noteOn",
      "note": 59,
      "velocity": 26,
      "vel": 0.212598,
      "time": 17.903190000071614
    },
    {
      "absoluteTicks": 18240,
      "channel": 13,
      "type": "noteOff",
      "note": 59,
      "velocity": 26,
      "rel": 0.212598,
      "time": 18.38706000007355
    },
    {
      "absoluteTicks": 18720,
      "channel": 13,
      "type": "noteOn",
      "note": 58,
      "velocity": 30,
      "vel": 0.244094,
      "time": 18.870930000075482
    },
    {
      "absoluteTicks": 19200,
      "channel": 13,
      "type": "noteOff",
      "note": 58,
      "velocity": 30,
      "rel": 0.244094,
      "time": 19.354800000077418
    },
    {
      "absoluteTicks": 19680,
      "channel": 13,
      "type": "noteOn",
      "note": 66,
      "velocity": 34,
      "vel": 0.267717,
      "time": 19.838670000079354
    },
    {
      "absoluteTicks": 20160,
      "channel": 13,
      "type": "noteOff",
      "note": 66,
      "velocity": 34,
      "rel": 0.267717,
      "time": 20.32254000008129
    },
    {
      "absoluteTicks": 20640,
      "channel": 13,
      "type": "noteOn",
      "note": 66,
      "velocity": 25,
      "vel": 0.204724,
      "time": 20.806410000083225
    },
    {
      "absoluteTicks": 20640,
      "channel": 13,
      "type": "noteOn",
      "note": 58,
      "velocity": 25,
      "vel": 0.204724,
      "time": 20.806410000083225
    },
    {
      "absoluteTicks": 21120,
      "channel": 13,
      "type": "noteOn",
      "note": 66,
      "velocity": 29,
      "vel": 0.23622,
      "time": 21.29028000008516
    },
    {
      "absoluteTicks": 21120,
      "channel": 13,
      "type": "noteOn",
      "note": 59,
      "velocity": 29,
      "vel": 0.23622,
      "time": 21.29028000008516
    },
    {
      "absoluteTicks": 21120,
      "channel": 13,
      "type": "noteOff",
      "note": 66,
      "velocity": 25,
      "rel": 0.204724,
      "time": 21.29028000008516
    },
    {
      "absoluteTicks": 21120,
      "channel": 13,
      "type": "noteOff",
      "note": 58,
      "velocity": 25,
      "rel": 0.204724,
      "time": 21.29028000008516
    },
    {
      "absoluteTicks": 21600,
      "channel": 13,
      "type": "noteOn",
      "note": 66,
      "velocity": 25,
      "vel": 0.204724,
      "time": 21.774150000087097
    },
    {
      "absoluteTicks": 21600,
      "channel": 13,
      "type": "noteOn",
      "note": 57,
      "velocity": 25,
      "vel": 0.204724,
      "time": 21.774150000087097
    },
    {
      "absoluteTicks": 21600,
      "channel": 13,
      "type": "noteOff",
      "note": 66,
      "velocity": 29,
      "rel": 0.23622,
      "time": 21.774150000087097
    },
    {
      "absoluteTicks": 21600,
      "channel": 13,
      "type": "noteOff",
      "note": 59,
      "velocity": 29,
      "rel": 0.23622,
      "time": 21.774150000087097
    },
    {
      "absoluteTicks": 22080,
      "channel": 13,
      "type": "noteOn",
      "note": 66,
      "velocity": 22,
      "vel": 0.181102,
      "time": 22.258020000089033
    },
    {
      "absoluteTicks": 22080,
      "channel": 13,
      "type": "noteOn",
      "note": 59,
      "velocity": 22,
      "vel": 0.181102,
      "time": 22.258020000089033
    },
    {
      "absoluteTicks": 22080,
      "channel": 13,
      "type": "noteOff",
      "note": 66,
      "velocity": 25,
      "rel": 0.204724,
      "time": 22.258020000089033
    },
    {
      "absoluteTicks": 22080,
      "channel": 13,
      "type": "noteOff",
      "note": 57,
      "velocity": 25,
      "rel": 0.204724,
      "time": 22.258020000089033
    },
    {
      "absoluteTicks": 22560,
      "channel": 13,
      "type": "noteOff",
      "note": 66,
      "velocity": 22,
      "rel": 0.181102,
      "time": 22.74189000009097
    },
    {
      "absoluteTicks": 22560,
      "channel": 13,
      "type": "noteOff",
      "note": 59,
      "velocity": 22,
      "rel": 0.181102,
      "time": 22.74189000009097
    },
    {
      "absoluteTicks": 23520,
      "channel": 13,
      "type": "noteOn",
      "note": 59,
      "velocity": 47,
      "vel": 0.370079,
      "time": 23.70963000009484
    },
    {
      "absoluteTicks": 24000,
      "channel": 13,
      "type": "noteOff",
      "note": 59,
      "velocity": 47,
      "rel": 0.370079,
      "time": 24.193500000096773
    },
    {
      "absoluteTicks": 24480,
      "channel": 13,
      "type": "noteOn",
      "note": 60,
      "velocity": 47,
      "vel": 0.370079,
      "time": 24.67737000009871
    },
    {
      "absoluteTicks": 24960,
      "channel": 13,
      "type": "noteOff",
      "note": 60,
      "velocity": 47,
      "rel": 0.370079,
      "time": 25.161240000100644
    },
    {
      "absoluteTicks": 25440,
      "channel": 13,
      "type": "noteOn",
      "note": 61,
      "velocity": 39,
      "vel": 0.307087,
      "time": 25.64511000010258
    },
    {
      "absoluteTicks": 25920,
      "channel": 13,
      "type": "noteOff",
      "note": 61,
      "velocity": 39,
      "rel": 0.307087,
      "time": 26.128980000104516
    },
    {
      "absoluteTicks": 26400,
      "channel": 13,
      "type": "noteOn",
      "note": 62,
      "velocity": 41,
      "vel": 0.322835,
      "time": 26.61285000010645
    },
    {
      "absoluteTicks": 26880,
      "channel": 13,
      "type": "noteOff",
      "note": 62,
      "velocity": 41,
      "rel": 0.322835,
      "time": 27.096720000108387
    },
    {
      "absoluteTicks": 27360,
      "channel": 13,
      "type": "noteOn",
      "note": 64,
      "velocity": 44,
      "vel": 0.346457,
      "time": 27.580590000110323
    },
    {
      "absoluteTicks": 27840,
      "channel": 13,
      "type": "noteOff",
      "note": 64,
      "velocity": 44,
      "rel": 0.346457,
      "time": 28.06446000011226
    },
    {
      "absoluteTicks": 28320,
      "channel": 13,
      "type": "noteOn",
      "note": 66,
      "velocity": 42,
      "vel": 0.330709,
      "time": 28.548330000114195
    },
    {
      "absoluteTicks": 28800,
      "channel": 13,
      "type": "noteOn",
      "note": 67,
      "velocity": 49,
      "vel": 0.385827,
      "time": 29.03220000011613
    },
    {
      "absoluteTicks": 28800,
      "channel": 13,
      "type": "noteOff",
      "note": 66,
      "velocity": 42,
      "rel": 0.330709,
      "time": 29.03220000011613
    },
    {
      "absoluteTicks": 29280,
      "channel": 13,
      "type": "noteOn",
      "note": 66,
      "velocity": 45,
      "vel": 0.354331,
      "time": 29.516070000118063
    },
    {
      "absoluteTicks": 29280,
      "channel": 13,
      "type": "noteOff",
      "note": 67,
      "velocity": 49,
      "rel": 0.385827,
      "time": 29.516070000118063
    },
    {
      "absoluteTicks": 29760,
      "channel": 13,
      "type": "noteOn",
      "note": 67,
      "velocity": 50,
      "vel": 0.393701,
      "time": 29.99994000012
    },
    {
      "absoluteTicks": 29760,
      "channel": 13,
      "type": "noteOff",
      "note": 66,
      "velocity": 45,
      "rel": 0.354331,
      "time": 29.99994000012
    },
    {
      "absoluteTicks": 30240,
      "channel": 13,
      "type": "noteOff",
      "note": 67,
      "velocity": 50,
      "rel": 0.393701,
      "time": 30.483810000121935
    },
    {
      "absoluteTicks": 37920,
      "channel": 13,
      "type": "noteOn",
      "note": 83,
      "velocity": 50,
      "vel": 0.393701,
      "time": 38.2257300001529
    },
    {
      "absoluteTicks": 37920,
      "channel": 13,
      "type": "noteOn",
      "note": 71,
      "velocity": 50,
      "vel": 0.393701,
      "time": 38.2257300001529
    },
    {
      "absoluteTicks": 41760,
      "channel": 13,
      "type": "noteOff",
      "note": 83,
      "velocity": 50,
      "rel": 0.393701,
      "time": 42.09669000016839
    },
    {
      "absoluteTicks": 41760,
      "channel": 13,
      "type": "noteOff",
      "note": 71,
      "velocity": 50,
      "rel": 0.393701,
      "time": 42.09669000016839
    },
    {
      "absoluteTicks": 45600,
      "channel": 13,
      "type": "noteOn",
      "note": 59,
      "velocity": 41,
      "vel": 0.322835,
      "time": 45.96765000018387
    },
    {
      "absoluteTicks": 49920,
      "channel": 13,
      "type": "noteOff",
      "note": 59,
      "velocity": 41,
      "rel": 0.322835,
      "time": 50.32248000020129
    },
    {
      "absoluteTicks": 53280,
      "channel": 13,
      "type": "noteOn",
      "note": 71,
      "velocity": 47,
      "vel": 0.370079,
      "time": 53.70957000021484
    },
    {
      "absoluteTicks": 55200,
      "channel": 13,
      "type": "noteOn",
      "note": 71,
      "velocity": 87,
      "vel": 0.692913,
      "time": 55.64505000022258
    },
    {
      "absoluteTicks": 55200,
      "channel": 13,
      "type": "noteOff",
      "note": 71,
      "velocity": 47,
      "rel": 0.370079,
      "time": 55.64505000022258
    },
    {
      "absoluteTicks": 57120,
      "channel": 13,
      "type": "noteOn",
      "note": 71,
      "velocity": 87,
      "vel": 0.692913,
      "time": 57.580530000230326
    },
    {
      "absoluteTicks": 57120,
      "channel": 13,
      "type": "noteOff",
      "note": 71,
      "velocity": 87,
      "rel": 0.692913,
      "time": 57.580530000230326
    },
    {
      "absoluteTicks": 59040,
      "channel": 13,
      "type": "noteOn",
      "note": 71,
      "velocity": 87,
      "vel": 0.692913,
      "time": 59.51601000023806
    },
    {
      "absoluteTicks": 59040,
      "channel": 13,
      "type": "noteOff",
      "note": 71,
      "velocity": 87,
      "rel": 0.692913,
      "time": 59.51601000023806
    },
    {
      "absoluteTicks": 60000,
      "channel": 13,
      "type": "noteOn",
      "note": 71,
      "velocity": 73,
      "vel": 0.582677,
      "time": 60.48375000024193
    },
    {
      "absoluteTicks": 60000,
      "channel": 13,
      "type": "noteOff",
      "note": 71,
      "velocity": 87,
      "rel": 0.692913,
      "time": 60.48375000024193
    },
    {
      "absoluteTicks": 60960,
      "channel": 13,
      "type": "noteOff",
      "note": 71,
      "velocity": 73,
      "rel": 0.582677,
      "time": 61.605917505902745
    },
    {
      "absoluteTicks": 69600,
      "channel": 13,
      "type": "noteOn",
      "note": 67,
      "velocity": 32,
      "vel": 0.251969,
      "time": 71.48901832194133
    },
    {
      "absoluteTicks": 69720,
      "channel": 13,
      "type": "noteOff",
      "note": 67,
      "velocity": 32,
      "rel": 0.251969,
      "time": 71.60998582194182
    },
    {
      "absoluteTicks": 69840,
      "channel": 13,
      "type": "noteOn",
      "note": 67,
      "velocity": 34,
      "vel": 0.267717,
      "time": 71.73095332194231
    },
    {
      "absoluteTicks": 69960,
      "channel": 13,
      "type": "noteOff",
      "note": 67,
      "velocity": 34,
      "rel": 0.267717,
      "time": 71.85192082194278
    },
    {
      "absoluteTicks": 70560,
      "channel": 13,
      "type": "noteOn",
      "note": 72,
      "velocity": 33,
      "vel": 0.259843,
      "time": 72.4567583219452
    },
    {
      "absoluteTicks": 70680,
      "channel": 13,
      "type": "noteOff",
      "note": 72,
      "velocity": 33,
      "rel": 0.259843,
      "time": 72.57772582194569
    },
    {
      "absoluteTicks": 70800,
      "channel": 13,
      "type": "noteOn",
      "note": 72,
      "velocity": 37,
      "vel": 0.291339,
      "time": 72.69869332194618
    },
    {
      "absoluteTicks": 70920,
      "channel": 13,
      "type": "noteOff",
      "note": 72,
      "velocity": 37,
      "rel": 0.291339,
      "time": 72.81966082194666
    },
    {
      "absoluteTicks": 71520,
      "channel": 13,
      "type": "noteOn",
      "note": 73,
      "velocity": 33,
      "vel": 0.259843,
      "time": 73.42449832194907
    },
    {
      "absoluteTicks": 71640,
      "channel": 13,
      "type": "noteOff",
      "note": 73,
      "velocity": 33,
      "rel": 0.259843,
      "time": 73.54546582194956
    },
    {
      "absoluteTicks": 71760,
      "channel": 13,
      "type": "noteOn",
      "note": 73,
      "velocity": 37,
      "vel": 0.291339,
      "time": 73.66643332195005
    },
    {
      "absoluteTicks": 71880,
      "channel": 13,
      "type": "noteOff",
      "note": 73,
      "velocity": 37,
      "rel": 0.291339,
      "time": 73.78740082195053
    },
    {
      "absoluteTicks": 72480,
      "channel": 13,
      "type": "noteOn",
      "note": 74,
      "velocity": 37,
      "vel": 0.291339,
      "time": 74.39223832195295
    },
    {
      "absoluteTicks": 72600,
      "channel": 13,
      "type": "noteOff",
      "note": 74,
      "velocity": 37,
      "rel": 0.291339,
      "time": 74.51320582195343
    },
    {
      "absoluteTicks": 72720,
      "channel": 13,
      "type": "noteOn",
      "note": 74,
      "velocity": 39,
      "vel": 0.307087,
      "time": 74.63417332195392
    },
    {
      "absoluteTicks": 72840,
      "channel": 13,
      "type": "noteOff",
      "note": 74,
      "velocity": 39,
      "rel": 0.307087,
      "time": 74.7551408219544
    },
    {
      "absoluteTicks": 73440,
      "channel": 13,
      "type": "noteOn",
      "note": 76,
      "velocity": 33,
      "vel": 0.259843,
      "time": 75.35997832195682
    },
    {
      "absoluteTicks": 73560,
      "channel": 13,
      "type": "noteOff",
      "note": 76,
      "velocity": 33,
      "rel": 0.259843,
      "time": 75.4809458219573
    },
    {
      "absoluteTicks": 73680,
      "channel": 13,
      "type": "noteOn",
      "note": 76,
      "velocity": 34,
      "vel": 0.267717,
      "time": 75.6019133219578
    },
    {
      "absoluteTicks": 73800,
      "channel": 13,
      "type": "noteOff",
      "note": 76,
      "velocity": 34,
      "rel": 0.267717,
      "time": 75.72288082195827
    },
    {
      "absoluteTicks": 74400,
      "channel": 13,
      "type": "noteOn",
      "note": 78,
      "velocity": 29,
      "vel": 0.23622,
      "time": 76.32771832196069
    },
    {
      "absoluteTicks": 74520,
      "channel": 13,
      "type": "noteOff",
      "note": 78,
      "velocity": 29,
      "rel": 0.23622,
      "time": 76.44868582196118
    },
    {
      "absoluteTicks": 74640,
      "channel": 13,
      "type": "noteOn",
      "note": 78,
      "velocity": 32,
      "vel": 0.251969,
      "time": 76.56965332196165
    },
    {
      "absoluteTicks": 74760,
      "channel": 13,
      "type": "noteOff",
      "note": 78,
      "velocity": 32,
      "rel": 0.251969,
      "time": 76.69062082196214
    },
    {
      "absoluteTicks": 74880,
      "channel": 13,
      "type": "noteOn",
      "note": 76,
      "velocity": 30,
      "vel": 0.244094,
      "time": 76.81158832196263
    },
    {
      "absoluteTicks": 74880,
      "channel": 13,
      "type": "noteOn",
      "note": 71,
      "velocity": 30,
      "vel": 0.244094,
      "time": 76.81158832196263
    },
    {
      "absoluteTicks": 75000,
      "channel": 13,
      "type": "noteOff",
      "note": 76,
      "velocity": 30,
      "rel": 0.244094,
      "time": 76.9325558219631
    },
    {
      "absoluteTicks": 75000,
      "channel": 13,
      "type": "noteOff",
      "note": 71,
      "velocity": 30,
      "rel": 0.244094,
      "time": 76.9325558219631
    },
    {
      "absoluteTicks": 75360,
      "channel": 13,
      "type": "noteOn",
      "note": 76,
      "velocity": 32,
      "vel": 0.251969,
      "time": 77.29545832196456
    },
    {
      "absoluteTicks": 75360,
      "channel": 13,
      "type": "noteOn",
      "note": 69,
      "velocity": 32,
      "vel": 0.251969,
      "time": 77.29545832196456
    },
    {
      "absoluteTicks": 75480,
      "channel": 13,
      "type": "noteOff",
      "note": 76,
      "velocity": 32,
      "rel": 0.251969,
      "time": 77.41642582196505
    },
    {
      "absoluteTicks": 75480,
      "channel": 13,
      "type": "noteOff",
      "note": 69,
      "velocity": 32,
      "rel": 0.251969,
      "time": 77.41642582196505
    },
    {
      "absoluteTicks": 75840,
      "channel": 13,
      "type": "noteOn",
      "note": 76,
      "velocity": 33,
      "vel": 0.259843,
      "time": 77.7793283219665
    },
    {
      "absoluteTicks": 75840,
      "channel": 13,
      "type": "noteOn",
      "note": 71,
      "velocity": 33,
      "vel": 0.259843,
      "time": 77.7793283219665
    },
    {
      "absoluteTicks": 75960,
      "channel": 13,
      "type": "noteOff",
      "note": 76,
      "velocity": 33,
      "rel": 0.259843,
      "time": 77.90029582196698
    },
    {
      "absoluteTicks": 75960,
      "channel": 13,
      "type": "noteOff",
      "note": 71,
      "velocity": 33,
      "rel": 0.259843,
      "time": 77.90029582196698
    },
    {
      "absoluteTicks": 76080,
      "channel": 13,
      "type": "noteOn",
      "note": 76,
      "velocity": 30,
      "vel": 0.244094,
      "time": 78.02126332196747
    },
    {
      "absoluteTicks": 76080,
      "channel": 13,
      "type": "noteOn",
      "note": 71,
      "velocity": 30,
      "vel": 0.244094,
      "time": 78.02126332196747
    },
    {
      "absoluteTicks": 76200,
      "channel": 13,
      "type": "noteOff",
      "note": 76,
      "velocity": 30,
      "rel": 0.244094,
      "time": 78.14223082196796
    },
    {
      "absoluteTicks": 76200,
      "channel": 13,
      "type": "noteOff",
      "note": 71,
      "velocity": 30,
      "rel": 0.244094,
      "time": 78.14223082196796
    },
    {
      "absoluteTicks": 77280,
      "channel": 13,
      "type": "noteOn",
      "note": 67,
      "velocity": 30,
      "vel": 0.244094,
      "time": 79.2309383219723
    },
    {
      "absoluteTicks": 77400,
      "channel": 13,
      "type": "noteOff",
      "note": 67,
      "velocity": 30,
      "rel": 0.244094,
      "time": 79.35190582197279
    },
    {
      "absoluteTicks": 77520,
      "channel": 13,
      "type": "noteOn",
      "note": 67,
      "velocity": 39,
      "vel": 0.307087,
      "time": 79.47287332197327
    },
    {
      "absoluteTicks": 77640,
      "channel": 13,
      "type": "noteOff",
      "note": 67,
      "velocity": 39,
      "rel": 0.307087,
      "time": 79.59384082197376
    },
    {
      "absoluteTicks": 78240,
      "channel": 13,
      "type": "noteOn",
      "note": 72,
      "velocity": 37,
      "vel": 0.291339,
      "time": 80.19867832197617
    },
    {
      "absoluteTicks": 78360,
      "channel": 13,
      "type": "noteOff",
      "note": 72,
      "velocity": 37,
      "rel": 0.291339,
      "time": 80.31964582197666
    },
    {
      "absoluteTicks": 78480,
      "channel": 13,
      "type": "noteOn",
      "note": 72,
      "velocity": 40,
      "vel": 0.314961,
      "time": 80.44061332197714
    },
    {
      "absoluteTicks": 78600,
      "channel": 13,
      "type": "noteOff",
      "note": 72,
      "velocity": 40,
      "rel": 0.314961,
      "time": 80.56158082197763
    },
    {
      "absoluteTicks": 79200,
      "channel": 13,
      "type": "noteOn",
      "note": 64,
      "velocity": 35,
      "vel": 0.275591,
      "time": 81.16641832198005
    },
    {
      "absoluteTicks": 79320,
      "channel": 13,
      "type": "noteOff",
      "note": 64,
      "velocity": 35,
      "rel": 0.275591,
      "time": 81.28738582198054
    },
    {
      "absoluteTicks": 79440,
      "channel": 13,
      "type": "noteOn",
      "note": 64,
      "velocity": 42,
      "vel": 0.330709,
      "time": 81.40835332198101
    },
    {
      "absoluteTicks": 79560,
      "channel": 13,
      "type": "noteOff",
      "note": 64,
      "velocity": 42,
      "rel": 0.330709,
      "time": 81.5293208219815
    },
    {
      "absoluteTicks": 80160,
      "channel": 13,
      "type": "noteOn",
      "note": 70,
      "velocity": 44,
      "vel": 0.346457,
      "time": 82.13415832198392
    },
    {
      "absoluteTicks": 80280,
      "channel": 13,
      "type": "noteOff",
      "note": 70,
      "velocity": 44,
      "rel": 0.346457,
      "time": 82.25512582198441
    },
    {
      "absoluteTicks": 80400,
      "channel": 13,
      "type": "noteOn",
      "note": 70,
      "velocity": 52,
      "vel": 0.409449,
      "time": 82.37609332198488
    },
    {
      "absoluteTicks": 80520,
      "channel": 13,
      "type": "noteOff",
      "note": 70,
      "velocity": 52,
      "rel": 0.409449,
      "time": 82.49706082198537
    },
    {
      "absoluteTicks": 81120,
      "channel": 13,
      "type": "noteOn",
      "note": 71,
      "velocity": 42,
      "vel": 0.330709,
      "time": 83.10189832198779
    },
    {
      "absoluteTicks": 81240,
      "channel": 13,
      "type": "noteOff",
      "note": 71,
      "velocity": 42,
      "rel": 0.330709,
      "time": 83.22286582198828
    },
    {
      "absoluteTicks": 81360,
      "channel": 13,
      "type": "noteOn",
      "note": 71,
      "velocity": 45,
      "vel": 0.354331,
      "time": 83.34383332198875
    },
    {
      "absoluteTicks": 81480,
      "channel": 13,
      "type": "noteOff",
      "note": 71,
      "velocity": 45,
      "rel": 0.354331,
      "time": 83.46480082198924
    },
    {
      "absoluteTicks": 82080,
      "channel": 13,
      "type": "noteOn",
      "note": 78,
      "velocity": 42,
      "vel": 0.330709,
      "time": 84.06963832199166
    },
    {
      "absoluteTicks": 82080,
      "channel": 13,
      "type": "noteOn",
      "note": 70,
      "velocity": 42,
      "vel": 0.330709,
      "time": 84.06963832199166
    },
    {
      "absoluteTicks": 82200,
      "channel": 13,
      "type": "noteOff",
      "note": 78,
      "velocity": 42,
      "rel": 0.330709,
      "time": 84.19060582199214
    },
    {
      "absoluteTicks": 82200,
      "channel": 13,
      "type": "noteOff",
      "note": 70,
      "velocity": 42,
      "rel": 0.330709,
      "time": 84.19060582199214
    },
    {
      "absoluteTicks": 82320,
      "channel": 13,
      "type": "noteOn",
      "note": 78,
      "velocity": 38,
      "vel": 0.299213,
      "time": 84.31157332199263
    },
    {
      "absoluteTicks": 82320,
      "channel": 13,
      "type": "noteOn",
      "note": 70,
      "velocity": 38,
      "vel": 0.299213,
      "time": 84.31157332199263
    },
    {
      "absoluteTicks": 82440,
      "channel": 13,
      "type": "noteOff",
      "note": 78,
      "velocity": 38,
      "rel": 0.299213,
      "time": 84.43254082199311
    },
    {
      "absoluteTicks": 82440,
      "channel": 13,
      "type": "noteOff",
      "note": 70,
      "velocity": 38,
      "rel": 0.299213,
      "time": 84.43254082199311
    },
    {
      "absoluteTicks": 82560,
      "channel": 13,
      "type": "noteOn",
      "note": 78,
      "velocity": 44,
      "vel": 0.346457,
      "time": 84.55350832199359
    },
    {
      "absoluteTicks": 82560,
      "channel": 13,
      "type": "noteOn",
      "note": 71,
      "velocity": 44,
      "vel": 0.346457,
      "time": 84.55350832199359
    },
    {
      "absoluteTicks": 82680,
      "channel": 13,
      "type": "noteOff",
      "note": 78,
      "velocity": 44,
      "rel": 0.346457,
      "time": 84.67447582199408
    },
    {
      "absoluteTicks": 82680,
      "channel": 13,
      "type": "noteOff",
      "note": 71,
      "velocity": 44,
      "rel": 0.346457,
      "time": 84.67447582199408
    },
    {
      "absoluteTicks": 83040,
      "channel": 13,
      "type": "noteOn",
      "note": 78,
      "velocity": 36,
      "vel": 0.283465,
      "time": 85.03737832199553
    },
    {
      "absoluteTicks": 83040,
      "channel": 13,
      "type": "noteOn",
      "note": 70,
      "velocity": 36,
      "vel": 0.283465,
      "time": 85.03737832199553
    },
    {
      "absoluteTicks": 83160,
      "channel": 13,
      "type": "noteOff",
      "note": 78,
      "velocity": 36,
      "rel": 0.283465,
      "time": 85.15834582199602
    },
    {
      "absoluteTicks": 83160,
      "channel": 13,
      "type": "noteOff",
      "note": 70,
      "velocity": 36,
      "rel": 0.283465,
      "time": 85.15834582199602
    },
    {
      "absoluteTicks": 83520,
      "channel": 13,
      "type": "noteOn",
      "note": 78,
      "velocity": 29,
      "vel": 0.23622,
      "time": 85.52124832199746
    },
    {
      "absoluteTicks": 83520,
      "channel": 13,
      "type": "noteOn",
      "note": 71,
      "velocity": 29,
      "vel": 0.23622,
      "time": 85.52124832199746
    },
    {
      "absoluteTicks": 83640,
      "channel": 13,
      "type": "noteOff",
      "note": 78,
      "velocity": 29,
      "rel": 0.23622,
      "time": 85.64221582199795
    },
    {
      "absoluteTicks": 83640,
      "channel": 13,
      "type": "noteOff",
      "note": 71,
      "velocity": 29,
      "rel": 0.23622,
      "time": 85.64221582199795
    },
    {
      "absoluteTicks": 83760,
      "channel": 13,
      "type": "noteOn",
      "note": 78,
      "velocity": 40,
      "vel": 0.314961,
      "time": 85.76318332199844
    },
    {
      "absoluteTicks": 83760,
      "channel": 13,
      "type": "noteOn",
      "note": 71,
      "velocity": 40,
      "vel": 0.314961,
      "time": 85.76318332199844
    },
    {
      "absoluteTicks": 83880,
      "channel": 13,
      "type": "noteOff",
      "note": 78,
      "velocity": 40,
      "rel": 0.314961,
      "time": 85.88415082199892
    },
    {
      "absoluteTicks": 83880,
      "channel": 13,
      "type": "noteOff",
      "note": 71,
      "velocity": 40,
      "rel": 0.314961,
      "time": 85.88415082199892
    },
    {
      "absoluteTicks": 84960,
      "channel": 13,
      "type": "noteOn",
      "note": 67,
      "velocity": 28,
      "vel": 0.228346,
      "time": 86.97285832200328
    },
    {
      "absoluteTicks": 85080,
      "channel": 13,
      "type": "noteOff",
      "note": 67,
      "velocity": 28,
      "rel": 0.228346,
      "time": 87.09382582200375
    },
    {
      "absoluteTicks": 85200,
      "channel": 13,
      "type": "noteOn",
      "note": 67,
      "velocity": 36,
      "vel": 0.283465,
      "time": 87.21479332200424
    },
    {
      "absoluteTicks": 85320,
      "channel": 13,
      "type": "noteOff",
      "note": 67,
      "velocity": 36,
      "rel": 0.283465,
      "time": 87.33576082200472
    },
    {
      "absoluteTicks": 85920,
      "channel": 13,
      "type": "noteOn",
      "note": 72,
      "velocity": 32,
      "vel": 0.251969,
      "time": 87.94059832200715
    },
    {
      "absoluteTicks": 86040,
      "channel": 13,
      "type": "noteOff",
      "note": 72,
      "velocity": 32,
      "rel": 0.251969,
      "time": 88.06156582200762
    },
    {
      "absoluteTicks": 86160,
      "channel": 13,
      "type": "noteOn",
      "note": 72,
      "velocity": 39,
      "vel": 0.307087,
      "time": 88.18253332200811
    },
    {
      "absoluteTicks": 86280,
      "channel": 13,
      "type": "noteOff",
      "note": 72,
      "velocity": 39,
      "rel": 0.307087,
      "time": 88.3035008220086
    },
    {
      "absoluteTicks": 86880,
      "channel": 13,
      "type": "noteOn",
      "note": 73,
      "velocity": 33,
      "vel": 0.259843,
      "time": 88.90833832201102
    },
    {
      "absoluteTicks": 87000,
      "channel": 13,
      "type": "noteOff",
      "note": 73,
      "velocity": 33,
      "rel": 0.259843,
      "time": 89.0293058220115
    },
    {
      "absoluteTicks": 87120,
      "channel": 13,
      "type": "noteOn",
      "note": 73,
      "velocity": 34,
      "vel": 0.267717,
      "time": 89.15027332201198
    },
    {
      "absoluteTicks": 87240,
      "channel": 13,
      "type": "noteOff",
      "note": 73,
      "velocity": 34,
      "rel": 0.267717,
      "time": 89.27124082201246
    },
    {
      "absoluteTicks": 87840,
      "channel": 13,
      "type": "noteOn",
      "note": 74,
      "velocity": 33,
      "vel": 0.259843,
      "time": 89.87607832201488
    },
    {
      "absoluteTicks": 87960,
      "channel": 13,
      "type": "noteOff",
      "note": 74,
      "velocity": 33,
      "rel": 0.259843,
      "time": 89.99704582201537
    },
    {
      "absoluteTicks": 88080,
      "channel": 13,
      "type": "noteOn",
      "note": 74,
      "velocity": 32,
      "vel": 0.251969,
      "time": 90.11801332201586
    },
    {
      "absoluteTicks": 88200,
      "channel": 13,
      "type": "noteOff",
      "note": 74,
      "velocity": 32,
      "rel": 0.251969,
      "time": 90.23898082201634
    },
    {
      "absoluteTicks": 88800,
      "channel": 13,
      "type": "noteOn",
      "note": 76,
      "velocity": 33,
      "vel": 0.259843,
      "time": 90.84381832201876
    },
    {
      "absoluteTicks": 88920,
      "channel": 13,
      "type": "noteOff",
      "note": 76,
      "velocity": 33,
      "rel": 0.259843,
      "time": 90.96478582201924
    },
    {
      "absoluteTicks": 89040,
      "channel": 13,
      "type": "noteOn",
      "note": 76,
      "velocity": 32,
      "vel": 0.251969,
      "time": 91.08575332201973
    },
    {
      "absoluteTicks": 89160,
      "channel": 13,
      "type": "noteOff",
      "note": 76,
      "velocity": 32,
      "rel": 0.251969,
      "time": 91.2067208220202
    },
    {
      "absoluteTicks": 89760,
      "channel": 13,
      "type": "noteOn",
      "note": 78,
      "velocity": 36,
      "vel": 0.283465,
      "time": 91.81155832202262
    },
    {
      "absoluteTicks": 89880,
      "channel": 13,
      "type": "noteOff",
      "note": 78,
      "velocity": 36,
      "rel": 0.283465,
      "time": 91.93252582202311
    },
    {
      "absoluteTicks": 90000,
      "channel": 13,
      "type": "noteOn",
      "note": 78,
      "velocity": 27,
      "vel": 0.220472,
      "time": 92.0534933220236
    },
    {
      "absoluteTicks": 90120,
      "channel": 13,
      "type": "noteOff",
      "note": 78,
      "velocity": 27,
      "rel": 0.220472,
      "time": 92.17446082202409
    },
    {
      "absoluteTicks": 90240,
      "channel": 13,
      "type": "noteOn",
      "note": 76,
      "velocity": 37,
      "vel": 0.291339,
      "time": 92.29542832202456
    },
    {
      "absoluteTicks": 90240,
      "channel": 13,
      "type": "noteOn",
      "note": 71,
      "velocity": 37,
      "vel": 0.291339,
      "time": 92.29542832202456
    },
    {
      "absoluteTicks": 90360,
      "channel": 13,
      "type": "noteOff",
      "note": 76,
      "velocity": 37,
      "rel": 0.291339,
      "time": 92.41639582202504
    },
    {
      "absoluteTicks": 90360,
      "channel": 13,
      "type": "noteOff",
      "note": 71,
      "velocity": 37,
      "rel": 0.291339,
      "time": 92.41639582202504
    },
    {
      "absoluteTicks": 90720,
      "channel": 13,
      "type": "noteOn",
      "note": 76,
      "velocity": 32,
      "vel": 0.251969,
      "time": 92.7792983220265
    },
    {
      "absoluteTicks": 90720,
      "channel": 13,
      "type": "noteOn",
      "note": 69,
      "velocity": 32,
      "vel": 0.251969,
      "time": 92.7792983220265
    },
    {
      "absoluteTicks": 90840,
      "channel": 13,
      "type": "noteOff",
      "note": 76,
      "velocity": 32,
      "rel": 0.251969,
      "time": 92.90026582202698
    },
    {
      "absoluteTicks": 90840,
      "channel": 13,
      "type": "noteOff",
      "note": 69,
      "velocity": 32,
      "rel": 0.251969,
      "time": 92.90026582202698
    },
    {
      "absoluteTicks": 91200,
      "channel": 13,
      "type": "noteOn",
      "note": 76,
      "velocity": 32,
      "vel": 0.251969,
      "time": 93.26316832202843
    },
    {
      "absoluteTicks": 91200,
      "channel": 13,
      "type": "noteOn",
      "note": 71,
      "velocity": 32,
      "vel": 0.251969,
      "time": 93.26316832202843
    },
    {
      "absoluteTicks": 91320,
      "channel": 13,
      "type": "noteOff",
      "note": 76,
      "velocity": 32,
      "rel": 0.251969,
      "time": 93.38413582202892
    },
    {
      "absoluteTicks": 91320,
      "channel": 13,
      "type": "noteOff",
      "note": 71,
      "velocity": 32,
      "rel": 0.251969,
      "time": 93.38413582202892
    },
    {
      "absoluteTicks": 99360,
      "channel": 13,
      "type": "noteOn",
      "note": 76,
      "velocity": 89,
      "vel": 0.708661,
      "time": 101.52300356594188
    },
    {
      "absoluteTicks": 99360,
      "channel": 13,
      "type": "noteOn",
      "note": 71,
      "velocity": 89,
      "vel": 0.708661,
      "time": 101.52300356594188
    },
    {
      "absoluteTicks": 99360,
      "channel": 13,
      "type": "noteOn",
      "note": 64,
      "velocity": 89,
      "vel": 0.708661,
      "time": 101.52300356594188
    },
    {
      "absoluteTicks": 99840,
      "channel": 13,
      "type": "noteOff",
      "note": 76,
      "velocity": 89,
      "rel": 0.708661,
      "time": 102.02300356594188
    },
    {
      "absoluteTicks": 99840,
      "channel": 13,
      "type": "noteOff",
      "note": 71,
      "velocity": 89,
      "rel": 0.708661,
      "time": 102.02300356594188
    },
    {
      "absoluteTicks": 99840,
      "channel": 13,
      "type": "noteOff",
      "note": 64,
      "velocity": 89,
      "rel": 0.708661,
      "time": 102.02300356594188
    },
    {
      "absoluteTicks": 99840,
      "channel": 15,
      "type": "meta",
      "metaType": 47,
      "subType": "endOfTrack",
      "time": 102.02300356594188
    }
  ],
  [
    {
      "absoluteTicks": 0,
      "channel": 15,
      "type": "meta",
      "metaType": 3,
      "subType": "trackName",
      "text": "Viola",
      "time": 0.0
    },
    {
      "absoluteTicks": 480,
      "channel": 13,
      "type": "noteOn",
      "note": 55,
      "velocity": 34,
      "vel": 0.267717,
      "time": 0.4838700000019355
    },
    {
      "absoluteTicks": 960,
      "channel": 13,
      "type": "noteOff",
      "note": 55,
      "velocity": 34,
      "rel": 0.267717,
      "time": 0.967740000003871
    },
    {
      "absoluteTicks": 1440,
      "channel": 13,
      "type": "noteOn",
      "note": 57,
      "velocity": 36,
      "vel": 0.283465,
      "time": 1.4516100000058065
    },
    {
      "absoluteTicks": 1920,
      "channel": 13,
      "type": "noteOff",
      "note": 57,
      "velocity": 36,
      "rel": 0.283465,
      "time": 1.935480000007742
    },
    {
      "absoluteTicks": 2400,
      "channel": 13,
      "type": "noteOn",
      "note": 58,
      "velocity": 34,
      "vel": 0.267717,
      "time": 2.4193500000096773
    },
    {
      "absoluteTicks": 2880,
      "channel": 13,
      "type": "noteOff",
      "note": 58,
      "velocity": 34,
      "rel": 0.267717,
      "time": 2.903220000011613
    },
    {
      "absoluteTicks": 3360,
      "channel": 13,
      "type": "noteOn",
      "note": 57,
      "velocity": 32,
      "vel": 0.251969,
      "time": 3.3870900000135484
    },
    {
      "absoluteTicks": 3840,
      "channel": 13,
      "type": "noteOff",
      "note": 57,
      "velocity": 32,
      "rel": 0.251969,
      "time": 3.870960000015484
    },
    {
      "absoluteTicks": 4320,
      "channel": 13,
      "type": "noteOn",
      "note": 55,
      "velocity": 32,
      "vel": 0.251969,
      "time": 4.35483000001742
    },
    {
      "absoluteTicks": 4800,
      "channel": 13,
      "type": "noteOff",
      "note": 55,
      "velocity": 32,
      "rel": 0.251969,
      "time": 4.8387000000193545
    },
    {
      "absoluteTicks": 5280,
      "channel": 13,
      "type": "noteOn",
      "note": 57,
      "velocity": 34,
      "vel": 0.267717,
      "time": 5.32257000002129
    },
    {
      "absoluteTicks": 5760,
      "channel": 13,
      "type": "noteOff",
      "note": 57,
      "velocity": 34,
      "rel": 0.267717,
      "time": 5.806440000023226
    },
    {
      "absoluteTicks": 6240,
      "channel": 13,
      "type": "noteOn",
      "note": 58,
      "velocity": 30,
      "vel": 0.244094,
      "time": 6.290310000025161
    },
    {
      "absoluteTicks": 6720,
      "channel": 13,
      "type": "noteOff",
      "note": 58,
      "velocity": 30,
      "rel": 0.244094,
      "time": 6.774180000027097
    },
    {
      "absoluteTicks": 7200,
      "channel": 13,
      "type": "noteOn",
      "note": 57,
      "velocity": 36,
      "vel": 0.283465,
      "time": 7.258050000029033
    },
    {
      "absoluteTicks": 7680,
      "channel": 13,
      "type": "noteOff",
      "note": 57,
      "velocity": 36,
      "rel": 0.283465,
      "time": 7.741920000030968
    },
    {
      "absoluteTicks": 8160,
      "channel": 13,
      "type": "noteOn",
      "note": 55,
      "velocity": 34,
      "vel": 0.267717,
      "time": 8.225790000032903
    },
    {
      "absoluteTicks": 8640,
      "channel": 13,
      "type": "noteOff",
      "note": 55,
      "velocity": 34,
      "rel": 0.267717,
      "time": 8.70966000003484
    },
    {
      "absoluteTicks": 9120,
      "channel": 13,
      "type": "noteOn",
      "note": 57,
      "velocity": 32,
      "vel": 0.251969,
      "time": 9.193530000036775
    },
    {
      "absoluteTicks": 9600,
      "channel": 13,
      "type": "noteOff",
      "note": 57,
      "velocity": 32,
      "rel": 0.251969,
      "time": 9.677400000038709
    },
    {
      "absoluteTicks": 10080,
      "channel": 13,
      "type": "noteOn",
      "note": 58,
      "velocity": 30,
      "vel": 0.244094,
      "time": 10.161270000040645
    },
    {
      "absoluteTicks": 10560,
      "channel": 13,
      "type": "noteOff",
      "note": 58,
      "velocity": 30,
      "rel": 0.244094,
      "time": 10.64514000004258
    },
    {
      "absoluteTicks": 11040,
      "channel": 13,
      "type": "noteOn",
      "note": 59,
      "velocity": 33,
      "vel": 0.259843,
      "time": 11.129010000044516
    },
    {
      "absoluteTicks": 11520,
      "channel": 13,
      "type": "noteOff",
      "note": 59,
      "velocity": 33,
      "rel": 0.259843,
      "time": 11.612880000046452
    },
    {
      "absoluteTicks": 12000,
      "channel": 13,
      "type": "noteOn",
      "note": 61,
      "velocity": 30,
      "vel": 0.244094,
      "time": 12.096750000048386
    },
    {
      "absoluteTicks": 12480,
      "channel": 13,
      "type": "noteOff",
      "note": 61,
      "velocity": 30,
      "rel": 0.244094,
      "time": 12.580620000050322
    },
    {
      "absoluteTicks": 12960,
      "channel": 13,
      "type": "noteOn",
      "note": 63,
      "velocity": 30,
      "vel": 0.244094,
      "time": 13.064490000052258
    },
    {
      "absoluteTicks": 13440,
      "channel": 13,
      "type": "noteOn",
      "note": 59,
      "velocity": 33,
      "vel": 0.259843,
      "time": 13.548360000054194
    },
    {
      "absoluteTicks": 13440,
      "channel": 13,
      "type": "noteOff",
      "note": 63,
      "velocity": 30,
      "rel": 0.244094,
      "time": 13.548360000054194
    },
    {
      "absoluteTicks": 13920,
      "channel": 13,
      "type": "noteOn",
      "note": 57,
      "velocity": 27,
      "vel": 0.220472,
      "time": 14.03223000005613
    },
    {
      "absoluteTicks": 13920,
      "channel": 13,
      "type": "noteOff",
      "note": 59,
      "velocity": 33,
      "rel": 0.259843,
      "time": 14.03223000005613
    },
    {
      "absoluteTicks": 14400,
      "channel": 13,
      "type": "noteOn",
      "note": 59,
      "velocity": 40,
      "vel": 0.314961,
      "time": 14.516100000058065
    },
    {
      "absoluteTicks": 14400,
      "channel": 13,
      "type": "noteOff",
      "note": 57,
      "velocity": 27,
      "rel": 0.220472,
      "time": 14.516100000058065
    },
    {
      "absoluteTicks": 14880,
      "channel": 13,
      "type": "noteOff",
      "note": 59,
      "velocity": 40,
      "rel": 0.314961,
      "time": 14.99997000006
    },
    {
      "absoluteTicks": 15840,
      "channel": 13,
      "type": "noteOn",
      "note": 52,
      "velocity": 35,
      "vel": 0.275591,
      "time": 15.967710000063871
    },
    {
      "absoluteTicks": 16320,
      "channel": 13,
      "type": "noteOff",
      "note": 52,
      "velocity": 35,
      "rel": 0.275591,
      "time": 16.451580000065807
    },
    {
      "absoluteTicks": 16800,
      "channel": 13,
      "type": "noteOn",
      "note": 54,
      "velocity": 35,
      "vel": 0.275591,
      "time": 16.935450000067743
    },
    {
      "absoluteTicks": 17280,
      "channel": 13,
      "type": "noteOff",
      "note": 54,
      "velocity": 35,
      "rel": 0.275591,
      "time": 17.41932000006968
    },
    {
      "absoluteTicks": 17760,
      "channel": 13,
      "type": "noteOn",
      "note": 52,
      "velocity": 43,
      "vel": 0.338583,
      "time": 17.903190000071614
    },
    {
      "absoluteTicks": 18240,
      "channel": 13,
      "type": "noteOff",
      "note": 52,
      "velocity": 43,
      "rel": 0.338583,
      "time": 18.38706000007355
    },
    {
      "absoluteTicks": 18720,
      "channel": 13,
      "type": "noteOn",
      "note": 54,
      "velocity": 42,
      "vel": 0.330709,
      "time": 18.870930000075482
    },
    {
      "absoluteTicks": 19200,
      "channel": 13,
      "type": "noteOff",
      "note": 54,
      "velocity": 42,
      "rel": 0.330709,
      "time": 19.354800000077418
    },
    {
      "absoluteTicks": 19680,
      "channel": 13,
      "type": "noteOn",
      "note": 56,
      "velocity": 45,
      "vel": 0.354331,
      "time": 19.838670000079354
    },
    {
      "absoluteTicks": 20160,
      "channel": 13,
      "type": "noteOff",
      "note": 56,
      "velocity": 45,
      "rel": 0.354331,
      "time": 20.32254000008129
    },
    {
      "absoluteTicks": 20640,
      "channel": 13,
      "type": "noteOn",
      "note": 54,
      "velocity": 39,
      "vel": 0.307087,
      "time": 20.806410000083225
    },
    {
      "absoluteTicks": 21120,
      "channel": 13,
      "type": "noteOn",
      "note": 54,
      "velocity": 40,
      "vel": 0.314961,
      "time": 21.29028000008516
    },
    {
      "absoluteTicks": 21120,
      "channel": 13,
      "type": "noteOff",
      "note": 54,
      "velocity": 39,
      "rel": 0.307087,
      "time": 21.29028000008516
    },
    {
      "absoluteTicks": 21600,
      "channel": 13,
      "type": "noteOn",
      "note": 54,
      "velocity": 41,
      "vel": 0.322835,
      "time": 21.774150000087097
    },
    {
      "absoluteTicks": 21600,
      "channel": 13,
      "type": "noteOff",
      "note": 54,
      "velocity": 40,
      "rel": 0.314961,
      "time": 21.774150000087097
    },
    {
      "absoluteTicks": 22080,
      "channel": 13,
      "type": "noteOn",
      "note": 54,
      "velocity": 34,
      "vel": 0.267717,
      "time": 22.258020000089033
    },
    {
      "absoluteTicks": 22080,
      "channel": 13,
      "type": "noteOff",
      "note": 54,
      "velocity": 41,
      "rel": 0.322835,
      "time": 22.258020000089033
    },
    {
      "absoluteTicks": 22560,
      "channel": 13,
      "type": "noteOff",
      "note": 54,
      "velocity": 34,
      "rel": 0.267717,
      "time": 22.74189000009097
    },
    {
      "absoluteTicks": 23520,
      "channel": 13,
      "type": "noteOn",
      "note": 55,
      "velocity": 43,
      "vel": 0.338583,
      "time": 23.70963000009484
    },
    {
      "absoluteTicks": 24000,
      "channel": 13,
      "type": "noteOff",
      "note": 55,
      "velocity": 43,
      "rel": 0.338583,
      "time": 24.193500000096773
    },
    {
      "absoluteTicks": 24480,
      "channel": 13,
      "type": "noteOn",
      "note": 57,
      "velocity": 43,
      "vel": 0.338583,
      "time": 24.67737000009871
    },
    {
      "absoluteTicks": 24960,
      "channel": 13,
      "type": "noteOff",
      "note": 57,
      "velocity": 43,
      "rel": 0.338583,
      "time": 25.161240000100644
    },
    {
      "absoluteTicks": 25440,
      "channel": 13,
      "type": "noteOn",
      "note": 58,
      "velocity": 47,
      "vel": 0.370079,
      "time": 25.64511000010258
    },
    {
      "absoluteTicks": 25920,
      "channel": 13,
      "type": "noteOff",
      "note": 58,
      "velocity": 47,
      "rel": 0.370079,
      "time": 26.128980000104516
    },
    {
      "absoluteTicks": 26400,
      "channel": 13,
      "type": "noteOn",
      "note": 59,
      "velocity": 38,
      "vel": 0.299213,
      "time": 26.61285000010645
    },
    {
      "absoluteTicks": 26880,
      "channel": 13,
      "type": "noteOff",
      "note": 59,
      "velocity": 38,
      "rel": 0.299213,
      "time": 27.096720000108387
    },
    {
      "absoluteTicks": 27360,
      "channel": 13,
      "type": "noteOn",
      "note": 61,
      "velocity": 44,
      "vel": 0.346457,
      "time": 27.580590000110323
    },
    {
      "absoluteTicks": 27840,
      "channel": 13,
      "type": "noteOff",
      "note": 61,
      "velocity": 44,
      "rel": 0.346457,
      "time": 28.06446000011226
    },
    {
      "absoluteTicks": 28320,
      "channel": 13,
      "type": "noteOn",
      "note": 63,
      "velocity": 44,
      "vel": 0.346457,
      "time": 28.548330000114195
    },
    {
      "absoluteTicks": 28800,
      "channel": 13,
      "type": "noteOn",
      "note": 59,
      "velocity": 45,
      "vel": 0.354331,
      "time": 29.03220000011613
    },
    {
      "absoluteTicks": 28800,
      "channel": 13,
      "type": "noteOff",
      "note": 63,
      "velocity": 44,
      "rel": 0.346457,
      "time": 29.03220000011613
    },
    {
      "absoluteTicks": 29280,
      "channel": 13,
      "type": "noteOn",
      "note": 57,
      "velocity": 46,
      "vel": 0.362205,
      "time": 29.516070000118063
    },
    {
      "absoluteTicks": 29280,
      "channel": 13,
      "type": "noteOff",
      "note": 59,
      "velocity": 45,
      "rel": 0.354331,
      "time": 29.516070000118063
    },
    {
      "absoluteTicks": 29760,
      "channel": 13,
      "type": "noteOn",
      "note": 59,
      "velocity": 51,
      "vel": 0.401575,
      "time": 29.99994000012
    },
    {
      "absoluteTicks": 29760,
      "channel": 13,
      "type": "noteOff",
      "note": 57,
      "velocity": 46,
      "rel": 0.362205,
      "time": 29.99994000012
    },
    {
      "absoluteTicks": 30240,
      "channel": 13,
      "type": "noteOff",
      "note": 59,
      "velocity": 51,
      "rel": 0.401575,
      "time": 30.483810000121935
    },
    {
      "absoluteTicks": 37920,
      "channel": 13,
      "type": "noteOn",
      "note": 59,
      "velocity": 52,
      "vel": 0.409449,
      "time": 38.2257300001529
    },
    {
      "absoluteTicks": 41760,
      "channel": 13,
      "type": "noteOn",
      "note": 59,
      "velocity": 50,
      "vel": 0.393701,
      "time": 42.09669000016839
    },
    {
      "absoluteTicks": 41760,
      "channel": 13,
      "type": "noteOff",
      "note": 59,
      "velocity": 52,
      "rel": 0.409449,
      "time": 42.09669000016839
    },
    {
      "absoluteTicks": 41838,
      "channel": 13,
      "type": "noteOff",
      "note": 59,
      "velocity": 50,
      "rel": 0.393701,
      "time": 42.176074680108705
    },
    {
      "absoluteTicks": 41917,
      "channel": 13,
      "type": "noteOn",
      "note": 61,
      "velocity": 53,
      "vel": 0.417323,
      "time": 42.255460327789024
    },
    {
      "absoluteTicks": 41996,
      "channel": 13,
      "type": "noteOff",
      "note": 61,
      "velocity": 53,
      "rel": 0.417323,
      "time": 42.33484500772934
    },
    {
      "absoluteTicks": 42078,
      "channel": 13,
      "type": "noteOn",
      "note": 59,
      "velocity": 48,
      "vel": 0.377953,
      "time": 42.41800968010967
    },
    {
      "absoluteTicks": 42157,
      "channel": 13,
      "type": "noteOff",
      "note": 59,
      "velocity": 48,
      "rel": 0.377953,
      "time": 42.49739436004999
    },
    {
      "absoluteTicks": 42240,
      "channel": 13,
      "type": "noteOn",
      "note": 57,
      "velocity": 55,
      "vel": 0.433071,
      "time": 42.58056000017032
    },
    {
      "absoluteTicks": 42397,
      "channel": 13,
      "type": "noteOn",
      "note": 55,
      "velocity": 49,
      "vel": 0.385827,
      "time": 42.73933032779096
    },
    {
      "absoluteTicks": 42397,
      "channel": 13,
      "type": "noteOff",
      "note": 57,
      "velocity": 55,
      "rel": 0.433071,
      "time": 42.73933032779096
    },
    {
      "absoluteTicks": 42547,
      "channel": 13,
      "type": "noteOff",
      "note": 55,
      "velocity": 49,
      "rel": 0.385827,
      "time": 42.890539702791564
    },
    {
      "absoluteTicks": 42558,
      "channel": 13,
      "type": "noteOn",
      "note": 55,
      "velocity": 52,
      "vel": 0.409449,
      "time": 42.901879680111605
    },
    {
      "absoluteTicks": 42637,
      "channel": 13,
      "type": "noteOff",
      "note": 55,
      "velocity": 52,
      "rel": 0.409449,
      "time": 42.981264360051924
    },
    {
      "absoluteTicks": 42720,
      "channel": 13,
      "type": "noteOn",
      "note": 55,
      "velocity": 45,
      "vel": 0.354331,
      "time": 43.06443000017226
    },
    {
      "absoluteTicks": 42798,
      "channel": 13,
      "type": "noteOff",
      "note": 55,
      "velocity": 45,
      "rel": 0.354331,
      "time": 43.14381468011258
    },
    {
      "absoluteTicks": 42877,
      "channel": 13,
      "type": "noteOn",
      "note": 55,
      "velocity": 51,
      "vel": 0.401575,
      "time": 43.223200327792895
    },
    {
      "absoluteTicks": 42956,
      "channel": 13,
      "type": "noteOff",
      "note": 55,
      "velocity": 51,
      "rel": 0.401575,
      "time": 43.302585007733214
    },
    {
      "absoluteTicks": 43038,
      "channel": 13,
      "type": "noteOn",
      "note": 55,
      "velocity": 46,
      "vel": 0.362205,
      "time": 43.38574968011354
    },
    {
      "absoluteTicks": 43117,
      "channel": 13,
      "type": "noteOff",
      "note": 55,
      "velocity": 46,
      "rel": 0.362205,
      "time": 43.46513436005386
    },
    {
      "absoluteTicks": 43200,
      "channel": 13,
      "type": "noteOn",
      "note": 55,
      "velocity": 45,
      "vel": 0.354331,
      "time": 43.548300000174194
    },
    {
      "absoluteTicks": 43278,
      "channel": 13,
      "type": "noteOff",
      "note": 55,
      "velocity": 45,
      "rel": 0.354331,
      "time": 43.62768468011451
    },
    {
      "absoluteTicks": 43357,
      "channel": 13,
      "type": "noteOn",
      "note": 55,
      "velocity": 47,
      "vel": 0.370079,
      "time": 43.70707032779483
    },
    {
      "absoluteTicks": 43436,
      "channel": 13,
      "type": "noteOff",
      "note": 55,
      "velocity": 47,
      "rel": 0.370079,
      "time": 43.78645500773515
    },
    {
      "absoluteTicks": 43518,
      "channel": 13,
      "type": "noteOn",
      "note": 55,
      "velocity": 46,
      "vel": 0.362205,
      "time": 43.86961968011548
    },
    {
      "absoluteTicks": 43597,
      "channel": 13,
      "type": "noteOff",
      "note": 55,
      "velocity": 46,
      "rel": 0.362205,
      "time": 43.949004360055795
    },
    {
      "absoluteTicks": 43680,
      "channel": 13,
      "type": "noteOn",
      "note": 55,
      "velocity": 49,
      "vel": 0.385827,
      "time": 44.03217000017613
    },
    {
      "absoluteTicks": 43758,
      "channel": 13,
      "type": "noteOff",
      "note": 55,
      "velocity": 49,
      "rel": 0.385827,
      "time": 44.11155468011645
    },
    {
      "absoluteTicks": 43837,
      "channel": 13,
      "type": "noteOn",
      "note": 59,
      "velocity": 53,
      "vel": 0.417323,
      "time": 44.19094032779677
    },
    {
      "absoluteTicks": 43916,
      "channel": 13,
      "type": "noteOff",
      "note": 59,
      "velocity": 53,
      "rel": 0.417323,
      "time": 44.270325007737085
    },
    {
      "absoluteTicks": 43998,
      "channel": 13,
      "type": "noteOn",
      "note": 57,
      "velocity": 46,
      "vel": 0.362205,
      "time": 44.35348968011741
    },
    {
      "absoluteTicks": 44077,
      "channel": 13,
      "type": "noteOff",
      "note": 57,
      "velocity": 46,
      "rel": 0.362205,
      "time": 44.43287436005773
    },
    {
      "absoluteTicks": 44160,
      "channel": 13,
      "type": "noteOn",
      "note": 55,
      "velocity": 55,
      "vel": 0.433071,
      "time": 44.516040000178066
    },
    {
      "absoluteTicks": 44317,
      "channel": 13,
      "type": "noteOn",
      "note": 54,
      "velocity": 50,
      "vel": 0.393701,
      "time": 44.6748103277987
    },
    {
      "absoluteTicks": 44317,
      "channel": 13,
      "type": "noteOff",
      "note": 55,
      "velocity": 55,
      "rel": 0.433071,
      "time": 44.6748103277987
    },
    {
      "absoluteTicks": 44467,
      "channel": 13,
      "type": "noteOff",
      "note": 54,
      "velocity": 50,
      "rel": 0.393701,
      "time": 44.82601970279931
    },
    {
      "absoluteTicks": 44478,
      "channel": 13,
      "type": "noteOn",
      "note": 54,
      "velocity": 50,
      "vel": 0.393701,
      "time": 44.83735968011935
    },
    {
      "absoluteTicks": 44557,
      "channel": 13,
      "type": "noteOff",
      "note": 54,
      "velocity": 50,
      "rel": 0.393701,
      "time": 44.91674436005967
    },
    {
      "absoluteTicks": 44640,
      "channel": 13,
      "type": "noteOn",
      "note": 54,
      "velocity": 46,
      "vel": 0.362205,
      "time": 44.99991000018
    },
    {
      "absoluteTicks": 44718,
      "channel": 13,
      "type": "noteOff",
      "note": 54,
      "velocity": 46,
      "rel": 0.362205,
      "time": 45.07929468012031
    },
    {
      "absoluteTicks": 44797,
      "channel": 13,
      "type": "noteOn",
      "note": 54,
      "velocity": 47,
      "vel": 0.370079,
      "time": 45.15868032780064
    },
    {
      "absoluteTicks": 44876,
      "channel": 13,
      "type": "noteOff",
      "note": 54,
      "velocity": 47,
      "rel": 0.370079,
      "time": 45.23806500774096
    },
    {
      "absoluteTicks": 44958,
      "channel": 13,
      "type": "noteOn",
      "note": 54,
      "velocity": 48,
      "vel": 0.377953,
      "time": 45.321229680121284
    },
    {
      "absoluteTicks": 45037,
      "channel": 13,
      "type": "noteOff",
      "note": 54,
      "velocity": 48,
      "rel": 0.377953,
      "time": 45.4006143600616
    },
    {
      "absoluteTicks": 45120,
      "channel": 13,
      "type": "noteOn",
      "note": 54,
      "velocity": 45,
      "vel": 0.354331,
      "time": 45.48378000018194
    },
    {
      "absoluteTicks": 45198,
      "channel": 13,
      "type": "noteOff",
      "note": 54,
      "velocity": 45,
      "rel": 0.354331,
      "time": 45.56316468012225
    },
    {
      "absoluteTicks": 45277,
      "channel": 13,
      "type": "noteOn",
      "note": 54,
      "velocity": 48,
      "vel": 0.377953,
      "time": 45.642550327802574
    },
    {
      "absoluteTicks": 45356,
      "channel": 13,
      "type": "noteOff",
      "note": 54,
      "velocity": 48,
      "rel": 0.377953,
      "time": 45.72193500774289
    },
    {
      "absoluteTicks": 45438,
      "channel": 13,
      "type": "noteOn",
      "note": 54,
      "velocity": 49,
      "vel": 0.385827,
      "time": 45.80509968012322
    },
    {
      "absoluteTicks": 45517,
      "channel": 13,
      "type": "noteOff",
      "note": 54,
      "velocity": 49,
      "rel": 0.385827,
      "time": 45.88448436006354
    },
    {
      "absoluteTicks": 49440,
      "channel": 13,
      "type": "noteOn",
      "note": 59,
      "velocity": 71,
      "vel": 0.566929,
      "time": 49.83861000019935
    },
    {
      "absoluteTicks": 49518,
      "channel": 13,
      "type": "noteOff",
      "note": 59,
      "velocity": 71,
      "rel": 0.566929,
      "time": 49.91799468013967
    },
    {
      "absoluteTicks": 49597,
      "channel": 13,
      "type": "noteOn",
      "note": 61,
      "velocity": 82,
      "vel": 0.653543,
      "time": 49.99738032781999
    },
    {
      "absoluteTicks": 49676,
      "channel": 13,
      "type": "noteOff",
      "note": 61,
      "velocity": 82,
      "rel": 0.653543,
      "time": 50.07676500776031
    },
    {
      "absoluteTicks": 49758,
      "channel": 13,
      "type": "noteOn",
      "note": 59,
      "velocity": 73,
      "vel": 0.582677,
      "time": 50.159929680140635
    },
    {
      "absoluteTicks": 49837,
      "channel": 13,
      "type": "noteOff",
      "note": 59,
      "velocity": 73,
      "rel": 0.582677,
      "time": 50.239314360080954
    },
    {
      "absoluteTicks": 49920,
      "channel": 13,
      "type": "noteOn",
      "note": 57,
      "velocity": 94,
      "vel": 0.748031,
      "time": 50.32248000020129
    },
    {
      "absoluteTicks": 50077,
      "channel": 13,
      "type": "noteOn",
      "note": 55,
      "velocity": 82,
      "vel": 0.653543,
      "time": 50.481250327821925
    },
    {
      "absoluteTicks": 50077,
      "channel": 13,
      "type": "noteOff",
      "note": 57,
      "velocity": 94,
      "rel": 0.748031,
      "time": 50.481250327821925
    },
    {
      "absoluteTicks": 50227,
      "channel": 13,
      "type": "noteOff",
      "note": 55,
      "velocity": 82,
      "rel": 0.653543,
      "time": 50.63245970282253
    },
    {
      "absoluteTicks": 50238,
      "channel": 13,
      "type": "noteOn",
      "note": 55,
      "velocity": 78,
      "vel": 0.622047,
      "time": 50.64379968014257
    },
    {
      "absoluteTicks": 50317,
      "channel": 13,
      "type": "noteOff",
      "note": 55,
      "velocity": 78,
      "rel": 0.622047,
      "time": 50.72318436008289
    },
    {
      "absoluteTicks": 50400,
      "channel": 13,
      "type": "noteOn",
      "note": 55,
      "velocity": 76,
      "vel": 0.606299,
      "time": 50.806350000203224
    },
    {
      "absoluteTicks": 50478,
      "channel": 13,
      "type": "noteOff",
      "note": 55,
      "velocity": 76,
      "rel": 0.606299,
      "time": 50.88573468014354
    },
    {
      "absoluteTicks": 50557,
      "channel": 13,
      "type": "noteOn",
      "note": 55,
      "velocity": 75,
      "vel": 0.598425,
      "time": 50.96512032782386
    },
    {
      "absoluteTicks": 50636,
      "channel": 13,
      "type": "noteOff",
      "note": 55,
      "velocity": 75,
      "rel": 0.598425,
      "time": 51.04450500776418
    },
    {
      "absoluteTicks": 50718,
      "channel": 13,
      "type": "noteOn",
      "note": 55,
      "velocity": 81,
      "vel": 0.645669,
      "time": 51.12766968014451
    },
    {
      "absoluteTicks": 50797,
      "channel": 13,
      "type": "noteOff",
      "note": 55,
      "velocity": 81,
      "rel": 0.645669,
      "time": 51.207054360084825
    },
    {
      "absoluteTicks": 50880,
      "channel": 13,
      "type": "noteOn",
      "note": 55,
      "velocity": 79,
      "vel": 0.629921,
      "time": 51.29022000020516
    },
    {
      "absoluteTicks": 50958,
      "channel": 13,
      "type": "noteOff",
      "note": 55,
      "velocity": 79,
      "rel": 0.629921,
      "time": 51.36960468014548
    },
    {
      "absoluteTicks": 51037,
      "channel": 13,
      "type": "noteOn",
      "note": 55,
      "velocity": 79,
      "vel": 0.629921,
      "time": 51.4489903278258
    },
    {
      "absoluteTicks": 51116,
      "channel": 13,
      "type": "noteOff",
      "note": 55,
      "velocity": 79,
      "rel": 0.629921,
      "time": 51.528375007766115
    },
    {
      "absoluteTicks": 51198,
      "channel": 13,
      "type": "noteOn",
      "note": 55,
      "velocity": 83,
      "vel": 0.661417,
      "time": 51.61153968014644
    },
    {
      "absoluteTicks": 51277,
      "channel": 13,
      "type": "noteOff",
      "note": 55,
      "velocity": 83,
      "rel": 0.661417,
      "time": 51.69092436008676
    },
    {
      "absoluteTicks": 51360,
      "channel": 13,
      "type": "noteOn",
      "note": 55,
      "velocity": 76,
      "vel": 0.606299,
      "time": 51.774090000207096
    },
    {
      "absoluteTicks": 51438,
      "channel": 13,
      "type": "noteOff",
      "note": 55,
      "velocity": 76,
      "rel": 0.606299,
      "time": 51.853474680147414
    },
    {
      "absoluteTicks": 51517,
      "channel": 13,
      "type": "noteOn",
      "note": 59,
      "velocity": 81,
      "vel": 0.645669,
      "time": 51.93286032782773
    },
    {
      "absoluteTicks": 51596,
      "channel": 13,
      "type": "noteOff",
      "note": 59,
      "velocity": 81,
      "rel": 0.645669,
      "time": 52.01224500776805
    },
    {
      "absoluteTicks": 51678,
      "channel": 13,
      "type": "noteOn",
      "note": 57,
      "velocity": 78,
      "vel": 0.622047,
      "time": 52.09540968014838
    },
    {
      "absoluteTicks": 51757,
      "channel": 13,
      "type": "noteOff",
      "note": 57,
      "velocity": 78,
      "rel": 0.622047,
      "time": 52.1747943600887
    },
    {
      "absoluteTicks": 51840,
      "channel": 13,
      "type": "noteOn",
      "note": 55,
      "velocity": 100,
      "vel": 0.787402,
      "time": 52.25796000020903
    },
    {
      "absoluteTicks": 51997,
      "channel": 13,
      "type": "noteOn",
      "note": 54,
      "velocity": 81,
      "vel": 0.645669,
      "time": 52.41673032782967
    },
    {
      "absoluteTicks": 51997,
      "channel": 13,
      "type": "noteOff",
      "note": 55,
      "velocity": 100,
      "rel": 0.787402,
      "time": 52.41673032782967
    },
    {
      "absoluteTicks": 52147,
      "channel": 13,
      "type": "noteOff",
      "note": 54,
      "velocity": 81,
      "rel": 0.645669,
      "time": 52.56793970283027
    },
    {
      "absoluteTicks": 52158,
      "channel": 13,
      "type": "noteOn",
      "note": 54,
      "velocity": 81,
      "vel": 0.645669,
      "time": 52.579279680150314
    },
    {
      "absoluteTicks": 52237,
      "channel": 13,
      "type": "noteOff",
      "note": 54,
      "velocity": 81,
      "rel": 0.645669,
      "time": 52.65866436009063
    },
    {
      "absoluteTicks": 52320,
      "channel": 13,
      "type": "noteOn",
      "note": 54,
      "velocity": 80,
      "vel": 0.637795,
      "time": 52.74183000021097
    },
    {
      "absoluteTicks": 52398,
      "channel": 13,
      "type": "noteOff",
      "note": 54,
      "velocity": 80,
      "rel": 0.637795,
      "time": 52.821214680151286
    },
    {
      "absoluteTicks": 52477,
      "channel": 13,
      "type": "noteOn",
      "note": 54,
      "velocity": 79,
      "vel": 0.629921,
      "time": 52.900600327831604
    },
    {
      "absoluteTicks": 52556,
      "channel": 13,
      "type": "noteOff",
      "note": 54,
      "velocity": 79,
      "rel": 0.629921,
      "time": 52.97998500777192
    },
    {
      "absoluteTicks": 52638,
      "channel": 13,
      "type": "noteOn",
      "note": 54,
      "velocity": 80,
      "vel": 0.637795,
      "time": 53.06314968015225
    },
    {
      "absoluteTicks": 52717,
      "channel": 13,
      "type": "noteOff",
      "note": 54,
      "velocity": 80,
      "rel": 0.637795,
      "time": 53.14253436009257
    },
    {
      "absoluteTicks": 52800,
      "channel": 13,
      "type": "noteOn",
      "note": 54,
      "velocity": 83,
      "vel": 0.661417,
      "time": 53.2257000002129
    },
    {
      "absoluteTicks": 52878,
      "channel": 13,
      "type": "noteOff",
      "note": 54,
      "velocity": 83,
      "rel": 0.661417,
      "time": 53.30508468015322
    },
    {
      "absoluteTicks": 52957,
      "channel": 13,
      "type": "noteOn",
      "note": 54,
      "velocity": 77,
      "vel": 0.614173,
      "time": 53.38447032783354
    },
    {
      "absoluteTicks": 53036,
      "channel": 13,
      "type": "noteOff",
      "note": 54,
      "velocity": 77,
      "rel": 0.614173,
      "time": 53.46385500777386
    },
    {
      "absoluteTicks": 53118,
      "channel": 13,
      "type": "noteOn",
      "note": 54,
      "velocity": 78,
      "vel": 0.622047,
      "time": 53.547019680154186
    },
    {
      "absoluteTicks": 53197,
      "channel": 13,
      "type": "noteOff",
      "note": 54,
      "velocity": 78,
      "rel": 0.622047,
      "time": 53.626404360094504
    },
    {
      "absoluteTicks": 53280,
      "channel": 13,
      "type": "noteOn",
      "note": 59,
      "velocity": 62,
      "vel": 0.488189,
      "time": 53.70957000021484
    },
    {
      "absoluteTicks": 55200,
      "channel": 13,
      "type": "noteOn",
      "note": 59,
      "velocity": 90,
      "vel": 0.716535,
      "time": 55.64505000022258
    },
    {
      "absoluteTicks": 55200,
      "channel": 13,
      "type": "noteOff",
      "note": 59,
      "velocity": 62,
      "rel": 0.488189,
      "time": 55.64505000022258
    },
    {
      "absoluteTicks": 57120,
      "channel": 13,
      "type": "noteOn",
      "note": 59,
      "velocity": 87,
      "vel": 0.692913,
      "time": 57.580530000230326
    },
    {
      "absoluteTicks": 57120,
      "channel": 13,
      "type": "noteOff",
      "note": 59,
      "velocity": 90,
      "rel": 0.716535,
      "time": 57.580530000230326
    },
    {
      "absoluteTicks": 59040,
      "channel": 13,
      "type": "noteOn",
      "note": 59,
      "velocity": 88,
      "vel": 0.700787,
      "time": 59.51601000023806
    },
    {
      "absoluteTicks": 59040,
      "channel": 13,
      "type": "noteOff",
      "note": 59,
      "velocity": 87,
      "rel": 0.692913,
      "time": 59.51601000023806
    },
    {
      "absoluteTicks": 60000,
      "channel": 13,
      "type": "noteOn",
      "note": 59,
      "velocity": 93,
      "vel": 0.740157,
      "time": 60.48375000024193
    },
    {
      "absoluteTicks": 60000,
      "channel": 13,
      "type": "noteOff",
      "note": 59,
      "velocity": 88,
      "rel": 0.700787,
      "time": 60.48375000024193
    },
    {
      "absoluteTicks": 60960,
      "channel": 13,
      "type": "noteOff",
      "note": 59,
      "velocity": 93,
      "rel": 0.740157,
      "time": 61.605917505902745
    },
    {
      "absoluteTicks": 69120,
      "channel": 13,
      "type": "noteOn",
      "note": 64,
      "velocity": 29,
      "vel": 0.23622,
      "time": 71.0051483219394
    },
    {
      "absoluteTicks": 69240,
      "channel": 13,
      "type": "noteOff",
      "note": 64,
      "velocity": 29,
      "rel": 0.23622,
      "time": 71.12611582193989
    },
    {
      "absoluteTicks": 69360,
      "channel": 13,
      "type": "noteOn",
      "note": 64,
      "velocity": 36,
      "vel": 0.283465,
      "time": 71.24708332194037
    },
    {
      "absoluteTicks": 69480,
      "channel": 13,
      "type": "noteOff",
      "note": 64,
      "velocity": 36,
      "rel": 0.283465,
      "time": 71.36805082194086
    },
    {
      "absoluteTicks": 70080,
      "channel": 13,
      "type": "noteOn",
      "note": 64,
      "velocity": 32,
      "vel": 0.251969,
      "time": 71.97288832194327
    },
    {
      "absoluteTicks": 70200,
      "channel": 13,
      "type": "noteOff",
      "note": 64,
      "velocity": 32,
      "rel": 0.251969,
      "time": 72.09385582194376
    },
    {
      "absoluteTicks": 70320,
      "channel": 13,
      "type": "noteOn",
      "note": 64,
      "velocity": 37,
      "vel": 0.291339,
      "time": 72.21482332194424
    },
    {
      "absoluteTicks": 70440,
      "channel": 13,
      "type": "noteOff",
      "note": 64,
      "velocity": 37,
      "rel": 0.291339,
      "time": 72.33579082194473
    },
    {
      "absoluteTicks": 71040,
      "channel": 13,
      "type": "noteOn",
      "note": 64,
      "velocity": 29,
      "vel": 0.23622,
      "time": 72.94062832194714
    },
    {
      "absoluteTicks": 71160,
      "channel": 13,
      "type": "noteOff",
      "note": 64,
      "velocity": 29,
      "rel": 0.23622,
      "time": 73.06159582194763
    },
    {
      "absoluteTicks": 71280,
      "channel": 13,
      "type": "noteOn",
      "note": 64,
      "velocity": 37,
      "vel": 0.291339,
      "time": 73.18256332194811
    },
    {
      "absoluteTicks": 71400,
      "channel": 13,
      "type": "noteOff",
      "note": 64,
      "velocity": 37,
      "rel": 0.291339,
      "time": 73.3035308219486
    },
    {
      "absoluteTicks": 72000,
      "channel": 13,
      "type": "noteOn",
      "note": 64,
      "velocity": 33,
      "vel": 0.259843,
      "time": 73.90836832195102
    },
    {
      "absoluteTicks": 72120,
      "channel": 13,
      "type": "noteOff",
      "note": 64,
      "velocity": 33,
      "rel": 0.259843,
      "time": 74.02933582195149
    },
    {
      "absoluteTicks": 72240,
      "channel": 13,
      "type": "noteOn",
      "note": 64,
      "velocity": 33,
      "vel": 0.259843,
      "time": 74.15030332195198
    },
    {
      "absoluteTicks": 72360,
      "channel": 13,
      "type": "noteOff",
      "note": 64,
      "velocity": 33,
      "rel": 0.259843,
      "time": 74.27127082195247
    },
    {
      "absoluteTicks": 72960,
      "channel": 13,
      "type": "noteOn",
      "note": 64,
      "velocity": 33,
      "vel": 0.259843,
      "time": 74.87610832195489
    },
    {
      "absoluteTicks": 73080,
      "channel": 13,
      "type": "noteOff",
      "note": 64,
      "velocity": 33,
      "rel": 0.259843,
      "time": 74.99707582195536
    },
    {
      "absoluteTicks": 73200,
      "channel": 13,
      "type": "noteOn",
      "note": 64,
      "velocity": 35,
      "vel": 0.275591,
      "time": 75.11804332195585
    },
    {
      "absoluteTicks": 73320,
      "channel": 13,
      "type": "noteOff",
      "note": 64,
      "velocity": 35,
      "rel": 0.275591,
      "time": 75.23901082195634
    },
    {
      "absoluteTicks": 73920,
      "channel": 13,
      "type": "noteOn",
      "note": 64,
      "velocity": 28,
      "vel": 0.228346,
      "time": 75.84384832195876
    },
    {
      "absoluteTicks": 74040,
      "channel": 13,
      "type": "noteOff",
      "note": 64,
      "velocity": 28,
      "rel": 0.228346,
      "time": 75.96481582195923
    },
    {
      "absoluteTicks": 74160,
      "channel": 13,
      "type": "noteOn",
      "note": 64,
      "velocity": 30,
      "vel": 0.244094,
      "time": 76.08578332195972
    },
    {
      "absoluteTicks": 74280,
      "channel": 13,
      "type": "noteOff",
      "note": 64,
      "velocity": 30,
      "rel": 0.244094,
      "time": 76.20675082196021
    },
    {
      "absoluteTicks": 74880,
      "channel": 13,
      "type": "noteOn",
      "note": 79,
      "velocity": 34,
      "vel": 0.267717,
      "time": 76.81158832196263
    },
    {
      "absoluteTicks": 75000,
      "channel": 13,
      "type": "noteOff",
      "note": 79,
      "velocity": 34,
      "rel": 0.267717,
      "time": 76.9325558219631
    },
    {
      "absoluteTicks": 75360,
      "channel": 13,
      "type": "noteOn",
      "note": 78,
      "velocity": 32,
      "vel": 0.251969,
      "time": 77.29545832196456
    },
    {
      "absoluteTicks": 75480,
      "channel": 13,
      "type": "noteOff",
      "note": 78,
      "velocity": 32,
      "rel": 0.251969,
      "time": 77.41642582196505
    },
    {
      "absoluteTicks": 75840,
      "channel": 13,
      "type": "noteOn",
      "note": 79,
      "velocity": 30,
      "vel": 0.244094,
      "time": 77.7793283219665
    },
    {
      "absoluteTicks": 75960,
      "channel": 13,
      "type": "noteOff",
      "note": 79,
      "velocity": 30,
      "rel": 0.244094,
      "time": 77.90029582196698
    },
    {
      "absoluteTicks": 76080,
      "channel": 13,
      "type": "noteOn",
      "note": 79,
      "velocity": 36,
      "vel": 0.283465,
      "time": 78.02126332196747
    },
    {
      "absoluteTicks": 76200,
      "channel": 13,
      "type": "noteOff",
      "note": 79,
      "velocity": 36,
      "rel": 0.283465,
      "time": 78.14223082196796
    },
    {
      "absoluteTicks": 77280,
      "channel": 13,
      "type": "noteOn",
      "note": 64,
      "velocity": 29,
      "vel": 0.23622,
      "time": 79.2309383219723
    },
    {
      "absoluteTicks": 77400,
      "channel": 13,
      "type": "noteOff",
      "note": 64,
      "velocity": 29,
      "rel": 0.23622,
      "time": 79.35190582197279
    },
    {
      "absoluteTicks": 77520,
      "channel": 13,
      "type": "noteOn",
      "note": 64,
      "velocity": 37,
      "vel": 0.291339,
      "time": 79.47287332197327
    },
    {
      "absoluteTicks": 77640,
      "channel": 13,
      "type": "noteOff",
      "note": 64,
      "velocity": 37,
      "rel": 0.291339,
      "time": 79.59384082197376
    },
    {
      "absoluteTicks": 78240,
      "channel": 13,
      "type": "noteOn",
      "note": 66,
      "velocity": 39,
      "vel": 0.307087,
      "time": 80.19867832197617
    },
    {
      "absoluteTicks": 78360,
      "channel": 13,
      "type": "noteOff",
      "note": 66,
      "velocity": 39,
      "rel": 0.307087,
      "time": 80.31964582197666
    },
    {
      "absoluteTicks": 78480,
      "channel": 13,
      "type": "noteOn",
      "note": 66,
      "velocity": 42,
      "vel": 0.330709,
      "time": 80.44061332197714
    },
    {
      "absoluteTicks": 78600,
      "channel": 13,
      "type": "noteOff",
      "note": 66,
      "velocity": 42,
      "rel": 0.330709,
      "time": 80.56158082197763
    },
    {
      "absoluteTicks": 79200,
      "channel": 13,
      "type": "noteOn",
      "note": 67,
      "velocity": 37,
      "vel": 0.291339,
      "time": 81.16641832198005
    },
    {
      "absoluteTicks": 79320,
      "channel": 13,
      "type": "noteOff",
      "note": 67,
      "velocity": 37,
      "rel": 0.291339,
      "time": 81.28738582198054
    },
    {
      "absoluteTicks": 79440,
      "channel": 13,
      "type": "noteOn",
      "note": 67,
      "velocity": 41,
      "vel": 0.322835,
      "time": 81.40835332198101
    },
    {
      "absoluteTicks": 79560,
      "channel": 13,
      "type": "noteOff",
      "note": 67,
      "velocity": 41,
      "rel": 0.322835,
      "time": 81.5293208219815
    },
    {
      "absoluteTicks": 80160,
      "channel": 13,
      "type": "noteOn",
      "note": 66,
      "velocity": 44,
      "vel": 0.346457,
      "time": 82.13415832198392
    },
    {
      "absoluteTicks": 80280,
      "channel": 13,
      "type": "noteOff",
      "note": 66,
      "velocity": 44,
      "rel": 0.346457,
      "time": 82.25512582198441
    },
    {
      "absoluteTicks": 80400,
      "channel": 13,
      "type": "noteOn",
      "note": 66,
      "velocity": 44,
      "vel": 0.346457,
      "time": 82.37609332198488
    },
    {
      "absoluteTicks": 80520,
      "channel": 13,
      "type": "noteOff",
      "note": 66,
      "velocity": 44,
      "rel": 0.346457,
      "time": 82.49706082198537
    },
    {
      "absoluteTicks": 81120,
      "channel": 13,
      "type": "noteOn",
      "note": 68,
      "velocity": 44,
      "vel": 0.346457,
      "time": 83.10189832198779
    },
    {
      "absoluteTicks": 81240,
      "channel": 13,
      "type": "noteOff",
      "note": 68,
      "velocity": 44,
      "rel": 0.346457,
      "time": 83.22286582198828
    },
    {
      "absoluteTicks": 81360,
      "channel": 13,
      "type": "noteOn",
      "note": 68,
      "velocity": 46,
      "vel": 0.362205,
      "time": 83.34383332198875
    },
    {
      "absoluteTicks": 81480,
      "channel": 13,
      "type": "noteOff",
      "note": 68,
      "velocity": 46,
      "rel": 0.362205,
      "time": 83.46480082198924
    },
    {
      "absoluteTicks": 82080,
      "channel": 13,
      "type": "noteOn",
      "note": 66,
      "velocity": 42,
      "vel": 0.330709,
      "time": 84.06963832199166
    },
    {
      "absoluteTicks": 82200,
      "channel": 13,
      "type": "noteOff",
      "note": 66,
      "velocity": 42,
      "rel": 0.330709,
      "time": 84.19060582199214
    },
    {
      "absoluteTicks": 82320,
      "channel": 13,
      "type": "noteOn",
      "note": 66,
      "velocity": 44,
      "vel": 0.346457,
      "time": 84.31157332199263
    },
    {
      "absoluteTicks": 82440,
      "channel": 13,
      "type": "noteOff",
      "note": 66,
      "velocity": 44,
      "rel": 0.346457,
      "time": 84.43254082199311
    },
    {
      "absoluteTicks": 82560,
      "channel": 13,
      "type": "noteOn",
      "note": 66,
      "velocity": 41,
      "vel": 0.322835,
      "time": 84.55350832199359
    },
    {
      "absoluteTicks": 82680,
      "channel": 13,
      "type": "noteOff",
      "note": 66,
      "velocity": 41,
      "rel": 0.322835,
      "time": 84.67447582199408
    },
    {
      "absoluteTicks": 83040,
      "channel": 13,
      "type": "noteOn",
      "note": 66,
      "velocity": 37,
      "vel": 0.291339,
      "time": 85.03737832199553
    },
    {
      "absoluteTicks": 83160,
      "channel": 13,
      "type": "noteOff",
      "note": 66,
      "velocity": 37,
      "rel": 0.291339,
      "time": 85.15834582199602
    },
    {
      "absoluteTicks": 83520,
      "channel": 13,
      "type": "noteOn",
      "note": 66,
      "velocity": 34,
      "vel": 0.267717,
      "time": 85.52124832199746
    },
    {
      "absoluteTicks": 83640,
      "channel": 13,
      "type": "noteOff",
      "note": 66,
      "velocity": 34,
      "rel": 0.267717,
      "time": 85.64221582199795
    },
    {
      "absoluteTicks": 83760,
      "channel": 13,
      "type": "noteOn",
      "note": 66,
      "velocity": 33,
      "vel": 0.259843,
      "time": 85.76318332199844
    },
    {
      "absoluteTicks": 83880,
      "channel": 13,
      "type": "noteOff",
      "note": 66,
      "velocity": 33,
      "rel": 0.259843,
      "time": 85.88415082199892
    },
    {
      "absoluteTicks": 84480,
      "channel": 13,
      "type": "noteOn",
      "note": 64,
      "velocity": 27,
      "vel": 0.220472,
      "time": 86.48898832200133
    },
    {
      "absoluteTicks": 84600,
      "channel": 13,
      "type": "noteOff",
      "note": 64,
      "velocity": 27,
      "rel": 0.220472,
      "time": 86.60995582200182
    },
    {
      "absoluteTicks": 84720,
      "channel": 13,
      "type": "noteOn",
      "note": 64,
      "velocity": 34,
      "vel": 0.267717,
      "time": 86.7309233220023
    },
    {
      "absoluteTicks": 84840,
      "channel": 13,
      "type": "noteOff",
      "note": 64,
      "velocity": 34,
      "rel": 0.267717,
      "time": 86.85189082200279
    },
    {
      "absoluteTicks": 85440,
      "channel": 13,
      "type": "noteOn",
      "note": 64,
      "velocity": 33,
      "vel": 0.259843,
      "time": 87.4567283220052
    },
    {
      "absoluteTicks": 85560,
      "channel": 13,
      "type": "noteOff",
      "note": 64,
      "velocity": 33,
      "rel": 0.259843,
      "time": 87.5776958220057
    },
    {
      "absoluteTicks": 85680,
      "channel": 13,
      "type": "noteOn",
      "note": 64,
      "velocity": 34,
      "vel": 0.267717,
      "time": 87.69866332200618
    },
    {
      "absoluteTicks": 85800,
      "channel": 13,
      "type": "noteOff",
      "note": 64,
      "velocity": 34,
      "rel": 0.267717,
      "time": 87.81963082200666
    },
    {
      "absoluteTicks": 86400,
      "channel": 13,
      "type": "noteOn",
      "note": 64,
      "velocity": 29,
      "vel": 0.23622,
      "time": 88.42446832200908
    },
    {
      "absoluteTicks": 86520,
      "channel": 13,
      "type": "noteOff",
      "note": 64,
      "velocity": 29,
      "rel": 0.23622,
      "time": 88.54543582200957
    },
    {
      "absoluteTicks": 86640,
      "channel": 13,
      "type": "noteOn",
      "note": 64,
      "velocity": 35,
      "vel": 0.275591,
      "time": 88.66640332201004
    },
    {
      "absoluteTicks": 86760,
      "channel": 13,
      "type": "noteOff",
      "note": 64,
      "velocity": 35,
      "rel": 0.275591,
      "time": 88.78737082201053
    },
    {
      "absoluteTicks": 87360,
      "channel": 13,
      "type": "noteOn",
      "note": 64,
      "velocity": 30,
      "vel": 0.244094,
      "time": 89.39220832201295
    },
    {
      "absoluteTicks": 87480,
      "channel": 13,
      "type": "noteOff",
      "note": 64,
      "velocity": 30,
      "rel": 0.244094,
      "time": 89.51317582201344
    },
    {
      "absoluteTicks": 87600,
      "channel": 13,
      "type": "noteOn",
      "note": 64,
      "velocity": 33,
      "vel": 0.259843,
      "time": 89.63414332201391
    },
    {
      "absoluteTicks": 87720,
      "channel": 13,
      "type": "noteOff",
      "note": 64,
      "velocity": 33,
      "rel": 0.259843,
      "time": 89.7551108220144
    },
    {
      "absoluteTicks": 88320,
      "channel": 13,
      "type": "noteOn",
      "note": 64,
      "velocity": 27,
      "vel": 0.220472,
      "time": 90.35994832201682
    },
    {
      "absoluteTicks": 88440,
      "channel": 13,
      "type": "noteOff",
      "note": 64,
      "velocity": 27,
      "rel": 0.220472,
      "time": 90.48091582201731
    },
    {
      "absoluteTicks": 88560,
      "channel": 13,
      "type": "noteOn",
      "note": 64,
      "velocity": 32,
      "vel": 0.251969,
      "time": 90.60188332201778
    },
    {
      "absoluteTicks": 88680,
      "channel": 13,
      "type": "noteOff",
      "note": 64,
      "velocity": 32,
      "rel": 0.251969,
      "time": 90.72285082201827
    },
    {
      "absoluteTicks": 89280,
      "channel": 13,
      "type": "noteOn",
      "note": 64,
      "velocity": 37,
      "vel": 0.291339,
      "time": 91.32768832202069
    },
    {
      "absoluteTicks": 89400,
      "channel": 13,
      "type": "noteOff",
      "note": 64,
      "velocity": 37,
      "rel": 0.291339,
      "time": 91.44865582202118
    },
    {
      "absoluteTicks": 89520,
      "channel": 13,
      "type": "noteOn",
      "note": 64,
      "velocity": 33,
      "vel": 0.259843,
      "time": 91.56962332202166
    },
    {
      "absoluteTicks": 89640,
      "channel": 13,
      "type": "noteOff",
      "note": 64,
      "velocity": 33,
      "rel": 0.259843,
      "time": 91.69059082202214
    },
    {
      "absoluteTicks": 90240,
      "channel": 13,
      "type": "noteOn",
      "note": 79,
      "velocity": 32,
      "vel": 0.251969,
      "time": 92.29542832202456
    },
    {
      "absoluteTicks": 90360,
      "channel": 13,
      "type": "noteOff",
      "note": 79,
      "velocity": 32,
      "rel": 0.251969,
      "time": 92.41639582202504
    },
    {
      "absoluteTicks": 90720,
      "channel": 13,
      "type": "noteOn",
      "note": 78,
      "velocity": 33,
      "vel": 0.259843,
      "time": 92.7792983220265
    },
    {
      "absoluteTicks": 90840,
      "channel": 13,
      "type": "noteOff",
      "note": 78,
      "velocity": 33,
      "rel": 0.259843,
      "time": 92.90026582202698
    },
    {
      "absoluteTicks": 91200,
      "channel": 13,
      "type": "noteOn",
      "note": 79,
      "velocity": 35,
      "vel": 0.275591,
      "time": 93.26316832202843
    },
    {
      "absoluteTicks": 91320,
      "channel": 13,
      "type": "noteOff",
      "note": 79,
      "velocity": 35,
      "rel": 0.275591,
      "time": 93.38413582202892
    },
    {
      "absoluteTicks": 99360,
      "channel": 13,
      "type": "noteOn",
      "note": 67,
      "velocity": 86,
      "vel": 0.685039,
      "time": 101.52300356594188
    },
    {
      "absoluteTicks": 99360,
      "channel": 13,
      "type": "noteOn",
      "note": 59,
      "velocity": 86,
      "vel": 0.685039,
      "time": 101.52300356594188
    },
    {
      "absoluteTicks": 99840,
      "channel": 13,
      "type": "noteOff",
      "note": 67,
      "velocity": 86,
      "rel": 0.685039,
      "time": 102.02300356594188
    },
    {
      "absoluteTicks": 99840,
      "channel": 13,
      "type": "noteOff",
      "note": 59,
      "velocity": 86,
      "rel": 0.685039,
      "time": 102.02300356594188
    },
    {
      "absoluteTicks": 99840,
      "channel": 15,
      "type": "meta",
      "metaType": 47,
      "subType": "endOfTrack",
      "time": 102.02300356594188
    }
  ],
  [
    {
      "absoluteTicks": 0,
      "channel": 15,
      "type": "meta",
      "metaType": 3,
      "subType": "trackName",
      "text": "Violoncello",
      "time": 0.0
    },
    {
      "absoluteTicks": 0,
      "channel": 13,
      "type": "noteOn",
      "note": 52,
      "velocity": 32,
      "vel": 0.251969,
      "time": 0.0
    },
    {
      "absoluteTicks": 480,
      "channel": 13,
      "type": "noteOff",
      "note": 52,
      "velocity": 32,
      "rel": 0.251969,
      "time": 0.4838700000019355
    },
    {
      "absoluteTicks": 960,
      "channel": 13,
      "type": "noteOn",
      "note": 52,
      "velocity": 30,
      "vel": 0.244094,
      "time": 0.967740000003871
    },
    {
      "absoluteTicks": 1440,
      "channel": 13,
      "type": "noteOff",
      "note": 52,
      "velocity": 30,
      "rel": 0.244094,
      "time": 1.4516100000058065
    },
    {
      "absoluteTicks": 1920,
      "channel": 13,
      "type": "noteOn",
      "note": 52,
      "velocity": 30,
      "vel": 0.244094,
      "time": 1.935480000007742
    },
    {
      "absoluteTicks": 2400,
      "channel": 13,
      "type": "noteOff",
      "note": 52,
      "velocity": 30,
      "rel": 0.244094,
      "time": 2.4193500000096773
    },
    {
      "absoluteTicks": 2880,
      "channel": 13,
      "type": "noteOn",
      "note": 52,
      "velocity": 32,
      "vel": 0.251969,
      "time": 2.903220000011613
    },
    {
      "absoluteTicks": 3360,
      "channel": 13,
      "type": "noteOff",
      "note": 52,
      "velocity": 32,
      "rel": 0.251969,
      "time": 3.3870900000135484
    },
    {
      "absoluteTicks": 3840,
      "channel": 13,
      "type": "noteOn",
      "note": 52,
      "velocity": 30,
      "vel": 0.244094,
      "time": 3.870960000015484
    },
    {
      "absoluteTicks": 4320,
      "channel": 13,
      "type": "noteOff",
      "note": 52,
      "velocity": 30,
      "rel": 0.244094,
      "time": 4.35483000001742
    },
    {
      "absoluteTicks": 4800,
      "channel": 13,
      "type": "noteOn",
      "note": 52,
      "velocity": 32,
      "vel": 0.251969,
      "time": 4.8387000000193545
    },
    {
      "absoluteTicks": 5280,
      "channel": 13,
      "type": "noteOff",
      "note": 52,
      "velocity": 32,
      "rel": 0.251969,
      "time": 5.32257000002129
    },
    {
      "absoluteTicks": 5760,
      "channel": 13,
      "type": "noteOn",
      "note": 52,
      "velocity": 27,
      "vel": 0.220472,
      "time": 5.806440000023226
    },
    {
      "absoluteTicks": 6240,
      "channel": 13,
      "type": "noteOff",
      "note": 52,
      "velocity": 27,
      "rel": 0.220472,
      "time": 6.290310000025161
    },
    {
      "absoluteTicks": 6720,
      "channel": 13,
      "type": "noteOn",
      "note": 52,
      "velocity": 30,
      "vel": 0.244094,
      "time": 6.774180000027097
    },
    {
      "absoluteTicks": 7200,
      "channel": 13,
      "type": "noteOff",
      "note": 52,
      "velocity": 30,
      "rel": 0.244094,
      "time": 7.258050000029033
    },
    {
      "absoluteTicks": 7680,
      "channel": 13,
      "type": "noteOn",
      "note": 52,
      "velocity": 29,
      "vel": 0.23622,
      "time": 7.741920000030968
    },
    {
      "absoluteTicks": 8160,
      "channel": 13,
      "type": "noteOff",
      "note": 52,
      "velocity": 29,
      "rel": 0.23622,
      "time": 8.225790000032903
    },
    {
      "absoluteTicks": 8640,
      "channel": 13,
      "type": "noteOn",
      "note": 52,
      "velocity": 29,
      "vel": 0.23622,
      "time": 8.70966000003484
    },
    {
      "absoluteTicks": 9120,
      "channel": 13,
      "type": "noteOff",
      "note": 52,
      "velocity": 29,
      "rel": 0.23622,
      "time": 9.193530000036775
    },
    {
      "absoluteTicks": 9600,
      "channel": 13,
      "type": "noteOn",
      "note": 52,
      "velocity": 33,
      "vel": 0.259843,
      "time": 9.677400000038709
    },
    {
      "absoluteTicks": 10080,
      "channel": 13,
      "type": "noteOff",
      "note": 52,
      "velocity": 33,
      "rel": 0.259843,
      "time": 10.161270000040645
    },
    {
      "absoluteTicks": 10560,
      "channel": 13,
      "type": "noteOn",
      "note": 52,
      "velocity": 34,
      "vel": 0.267717,
      "time": 10.64514000004258
    },
    {
      "absoluteTicks": 11040,
      "channel": 13,
      "type": "noteOff",
      "note": 52,
      "velocity": 34,
      "rel": 0.267717,
      "time": 11.129010000044516
    },
    {
      "absoluteTicks": 11520,
      "channel": 13,
      "type": "noteOn",
      "note": 52,
      "velocity": 39,
      "vel": 0.307087,
      "time": 11.612880000046452
    },
    {
      "absoluteTicks": 12000,
      "channel": 13,
      "type": "noteOff",
      "note": 52,
      "velocity": 39,
      "rel": 0.307087,
      "time": 12.096750000048386
    },
    {
      "absoluteTicks": 12480,
      "channel": 13,
      "type": "noteOn",
      "note": 52,
      "velocity": 34,
      "vel": 0.267717,
      "time": 12.580620000050322
    },
    {
      "absoluteTicks": 12960,
      "channel": 13,
      "type": "noteOff",
      "note": 52,
      "velocity": 34,
      "rel": 0.267717,
      "time": 13.064490000052258
    },
    {
      "absoluteTicks": 13440,
      "channel": 13,
      "type": "noteOn",
      "note": 64,
      "velocity": 32,
      "vel": 0.251969,
      "time": 13.548360000054194
    },
    {
      "absoluteTicks": 13920,
      "channel": 13,
      "type": "noteOn",
      "note": 64,
      "velocity": 36,
      "vel": 0.283465,
      "time": 14.03223000005613
    },
    {
      "absoluteTicks": 13920,
      "channel": 13,
      "type": "noteOff",
      "note": 64,
      "velocity": 32,
      "rel": 0.251969,
      "time": 14.03223000005613
    },
    {
      "absoluteTicks": 14400,
      "channel": 13,
      "type": "noteOn",
      "note": 64,
      "velocity": 36,
      "vel": 0.283465,
      "time": 14.516100000058065
    },
    {
      "absoluteTicks": 14400,
      "channel": 13,
      "type": "noteOff",
      "note": 64,
      "velocity": 36,
      "rel": 0.283465,
      "time": 14.516100000058065
    },
    {
      "absoluteTicks": 14880,
      "channel": 13,
      "type": "noteOff",
      "note": 64,
      "velocity": 36,
      "rel": 0.283465,
      "time": 14.99997000006
    },
    {
      "absoluteTicks": 15360,
      "channel": 13,
      "type": "noteOn",
      "note": 46,
      "velocity": 33,
      "vel": 0.259843,
      "time": 15.483840000061935
    },
    {
      "absoluteTicks": 15840,
      "channel": 13,
      "type": "noteOff",
      "note": 46,
      "velocity": 33,
      "rel": 0.259843,
      "time": 15.967710000063871
    },
    {
      "absoluteTicks": 16320,
      "channel": 13,
      "type": "noteOn",
      "note": 45,
      "velocity": 37,
      "vel": 0.291339,
      "time": 16.451580000065807
    },
    {
      "absoluteTicks": 16800,
      "channel": 13,
      "type": "noteOff",
      "note": 45,
      "velocity": 37,
      "rel": 0.291339,
      "time": 16.935450000067743
    },
    {
      "absoluteTicks": 17280,
      "channel": 13,
      "type": "noteOn",
      "note": 43,
      "velocity": 38,
      "vel": 0.299213,
      "time": 17.41932000006968
    },
    {
      "absoluteTicks": 17760,
      "channel": 13,
      "type": "noteOff",
      "note": 43,
      "velocity": 38,
      "rel": 0.299213,
      "time": 17.903190000071614
    },
    {
      "absoluteTicks": 18240,
      "channel": 13,
      "type": "noteOn",
      "note": 42,
      "velocity": 40,
      "vel": 0.314961,
      "time": 18.38706000007355
    },
    {
      "absoluteTicks": 18720,
      "channel": 13,
      "type": "noteOff",
      "note": 42,
      "velocity": 40,
      "rel": 0.314961,
      "time": 18.870930000075482
    },
    {
      "absoluteTicks": 19200,
      "channel": 13,
      "type": "noteOn",
      "note": 54,
      "velocity": 44,
      "vel": 0.346457,
      "time": 19.354800000077418
    },
    {
      "absoluteTicks": 19680,
      "channel": 13,
      "type": "noteOff",
      "note": 54,
      "velocity": 44,
      "rel": 0.346457,
      "time": 19.838670000079354
    },
    {
      "absoluteTicks": 20160,
      "channel": 13,
      "type": "noteOn",
      "note": 42,
      "velocity": 44,
      "vel": 0.346457,
      "time": 20.32254000008129
    },
    {
      "absoluteTicks": 20640,
      "channel": 13,
      "type": "noteOff",
      "note": 42,
      "velocity": 44,
      "rel": 0.346457,
      "time": 20.806410000083225
    },
    {
      "absoluteTicks": 21120,
      "channel": 13,
      "type": "noteOn",
      "note": 47,
      "velocity": 37,
      "vel": 0.291339,
      "time": 21.29028000008516
    },
    {
      "absoluteTicks": 21600,
      "channel": 13,
      "type": "noteOn",
      "note": 48,
      "velocity": 39,
      "vel": 0.307087,
      "time": 21.774150000087097
    },
    {
      "absoluteTicks": 21600,
      "channel": 13,
      "type": "noteOff",
      "note": 47,
      "velocity": 37,
      "rel": 0.291339,
      "time": 21.774150000087097
    },
    {
      "absoluteTicks": 22080,
      "channel": 13,
      "type": "noteOn",
      "note": 47,
      "velocity": 35,
      "vel": 0.275591,
      "time": 22.258020000089033
    },
    {
      "absoluteTicks": 22080,
      "channel": 13,
      "type": "noteOff",
      "note": 48,
      "velocity": 39,
      "rel": 0.307087,
      "time": 22.258020000089033
    },
    {
      "absoluteTicks": 22560,
      "channel": 13,
      "type": "noteOff",
      "note": 47,
      "velocity": 35,
      "rel": 0.275591,
      "time": 22.74189000009097
    },
    {
      "absoluteTicks": 23040,
      "channel": 13,
      "type": "noteOn",
      "note": 52,
      "velocity": 45,
      "vel": 0.354331,
      "time": 23.225760000092905
    },
    {
      "absoluteTicks": 23520,
      "channel": 13,
      "type": "noteOff",
      "note": 52,
      "velocity": 45,
      "rel": 0.354331,
      "time": 23.70963000009484
    },
    {
      "absoluteTicks": 24000,
      "channel": 13,
      "type": "noteOn",
      "note": 52,
      "velocity": 45,
      "vel": 0.354331,
      "time": 24.193500000096773
    },
    {
      "absoluteTicks": 24480,
      "channel": 13,
      "type": "noteOff",
      "note": 52,
      "velocity": 45,
      "rel": 0.354331,
      "time": 24.67737000009871
    },
    {
      "absoluteTicks": 24960,
      "channel": 13,
      "type": "noteOn",
      "note": 52,
      "velocity": 47,
      "vel": 0.370079,
      "time": 25.161240000100644
    },
    {
      "absoluteTicks": 25440,
      "channel": 13,
      "type": "noteOff",
      "note": 52,
      "velocity": 47,
      "rel": 0.370079,
      "time": 25.64511000010258
    },
    {
      "absoluteTicks": 25920,
      "channel": 13,
      "type": "noteOn",
      "note": 52,
      "velocity": 46,
      "vel": 0.362205,
      "time": 26.128980000104516
    },
    {
      "absoluteTicks": 26400,
      "channel": 13,
      "type": "noteOff",
      "note": 52,
      "velocity": 46,
      "rel": 0.362205,
      "time": 26.61285000010645
    },
    {
      "absoluteTicks": 26880,
      "channel": 13,
      "type": "noteOn",
      "note": 52,
      "velocity": 45,
      "vel": 0.354331,
      "time": 27.096720000108387
    },
    {
      "absoluteTicks": 27360,
      "channel": 13,
      "type": "noteOff",
      "note": 52,
      "velocity": 45,
      "rel": 0.354331,
      "time": 27.580590000110323
    },
    {
      "absoluteTicks": 27840,
      "channel": 13,
      "type": "noteOn",
      "note": 52,
      "velocity": 38,
      "vel": 0.299213,
      "time": 28.06446000011226
    },
    {
      "absoluteTicks": 28320,
      "channel": 13,
      "type": "noteOff",
      "note": 52,
      "velocity": 38,
      "rel": 0.299213,
      "time": 28.548330000114195
    },
    {
      "absoluteTicks": 28800,
      "channel": 13,
      "type": "noteOn",
      "note": 64,
      "velocity": 42,
      "vel": 0.330709,
      "time": 29.03220000011613
    },
    {
      "absoluteTicks": 29280,
      "channel": 13,
      "type": "noteOn",
      "note": 64,
      "velocity": 51,
      "vel": 0.401575,
      "time": 29.516070000118063
    },
    {
      "absoluteTicks": 29280,
      "channel": 13,
      "type": "noteOff",
      "note": 64,
      "velocity": 42,
      "rel": 0.330709,
      "time": 29.516070000118063
    },
    {
      "absoluteTicks": 29760,
      "channel": 13,
      "type": "noteOn",
      "note": 64,
      "velocity": 42,
      "vel": 0.330709,
      "time": 29.99994000012
    },
    {
      "absoluteTicks": 29760,
      "channel": 13,
      "type": "noteOff",
      "note": 64,
      "velocity": 51,
      "rel": 0.401575,
      "time": 29.99994000012
    },
    {
      "absoluteTicks": 30240,
      "channel": 13,
      "type": "noteOff",
      "note": 64,
      "velocity": 42,
      "rel": 0.330709,
      "time": 30.483810000121935
    },
    {
      "absoluteTicks": 37920,
      "channel": 13,
      "type": "noteOn",
      "note": 47,
      "velocity": 50,
      "vel": 0.393701,
      "time": 38.2257300001529
    },
    {
      "absoluteTicks": 41760,
      "channel": 13,
      "type": "noteOff",
      "note": 47,
      "velocity": 50,
      "rel": 0.393701,
      "time": 42.09669000016839
    },
    {
      "absoluteTicks": 45600,
      "channel": 13,
      "type": "noteOn",
      "note": 47,
      "velocity": 45,
      "vel": 0.354331,
      "time": 45.96765000018387
    },
    {
      "absoluteTicks": 49920,
      "channel": 13,
      "type": "noteOff",
      "note": 47,
      "velocity": 45,
      "rel": 0.354331,
      "time": 50.32248000020129
    },
    {
      "absoluteTicks": 53280,
      "channel": 13,
      "type": "noteOn",
      "note": 47,
      "velocity": 48,
      "vel": 0.377953,
      "time": 53.70957000021484
    },
    {
      "absoluteTicks": 55200,
      "channel": 13,
      "type": "noteOn",
      "note": 47,
      "velocity": 87,
      "vel": 0.692913,
      "time": 55.64505000022258
    },
    {
      "absoluteTicks": 55200,
      "channel": 13,
      "type": "noteOff",
      "note": 47,
      "velocity": 48,
      "rel": 0.377953,
      "time": 55.64505000022258
    },
    {
      "absoluteTicks": 57120,
      "channel": 13,
      "type": "noteOn",
      "note": 47,
      "velocity": 90,
      "vel": 0.716535,
      "time": 57.580530000230326
    },
    {
      "absoluteTicks": 57120,
      "channel": 13,
      "type": "noteOff",
      "note": 47,
      "velocity": 87,
      "rel": 0.692913,
      "time": 57.580530000230326
    },
    {
      "absoluteTicks": 59040,
      "channel": 13,
      "type": "noteOn",
      "note": 47,
      "velocity": 86,
      "vel": 0.685039,
      "time": 59.51601000023806
    },
    {
      "absoluteTicks": 59040,
      "channel": 13,
      "type": "noteOff",
      "note": 47,
      "velocity": 90,
      "rel": 0.716535,
      "time": 59.51601000023806
    },
    {
      "absoluteTicks": 60000,
      "channel": 13,
      "type": "noteOn",
      "note": 47,
      "velocity": 88,
      "vel": 0.700787,
      "time": 60.48375000024193
    },
    {
      "absoluteTicks": 60000,
      "channel": 13,
      "type": "noteOff",
      "note": 47,
      "velocity": 86,
      "rel": 0.685039,
      "time": 60.48375000024193
    },
    {
      "absoluteTicks": 60960,
      "channel": 13,
      "type": "noteOff",
      "note": 47,
      "velocity": 88,
      "rel": 0.700787,
      "time": 61.605917505902745
    },
    {
      "absoluteTicks": 69120,
      "channel": 13,
      "type": "noteOn",
      "note": 52,
      "velocity": 67,
      "vel": 0.535433,
      "time": 71.0051483219394
    },
    {
      "absoluteTicks": 69240,
      "channel": 13,
      "type": "noteOff",
      "note": 52,
      "velocity": 67,
      "rel": 0.535433,
      "time": 71.12611582193989
    },
    {
      "absoluteTicks": 69360,
      "channel": 13,
      "type": "noteOn",
      "note": 52,
      "velocity": 72,
      "vel": 0.574803,
      "time": 71.24708332194037
    },
    {
      "absoluteTicks": 69480,
      "channel": 13,
      "type": "noteOff",
      "note": 52,
      "velocity": 72,
      "rel": 0.574803,
      "time": 71.36805082194086
    },
    {
      "absoluteTicks": 70080,
      "channel": 13,
      "type": "noteOn",
      "note": 52,
      "velocity": 66,
      "vel": 0.527559,
      "time": 71.97288832194327
    },
    {
      "absoluteTicks": 70200,
      "channel": 13,
      "type": "noteOff",
      "note": 52,
      "velocity": 66,
      "rel": 0.527559,
      "time": 72.09385582194376
    },
    {
      "absoluteTicks": 70320,
      "channel": 13,
      "type": "noteOn",
      "note": 52,
      "velocity": 73,
      "vel": 0.582677,
      "time": 72.21482332194424
    },
    {
      "absoluteTicks": 70440,
      "channel": 13,
      "type": "noteOff",
      "note": 52,
      "velocity": 73,
      "rel": 0.582677,
      "time": 72.33579082194473
    },
    {
      "absoluteTicks": 71040,
      "channel": 13,
      "type": "noteOn",
      "note": 52,
      "velocity": 70,
      "vel": 0.559055,
      "time": 72.94062832194714
    },
    {
      "absoluteTicks": 71160,
      "channel": 13,
      "type": "noteOff",
      "note": 52,
      "velocity": 70,
      "rel": 0.559055,
      "time": 73.06159582194763
    },
    {
      "absoluteTicks": 71280,
      "channel": 13,
      "type": "noteOn",
      "note": 52,
      "velocity": 72,
      "vel": 0.574803,
      "time": 73.18256332194811
    },
    {
      "absoluteTicks": 71400,
      "channel": 13,
      "type": "noteOff",
      "note": 52,
      "velocity": 72,
      "rel": 0.574803,
      "time": 73.3035308219486
    },
    {
      "absoluteTicks": 72000,
      "channel": 13,
      "type": "noteOn",
      "note": 52,
      "velocity": 69,
      "vel": 0.551181,
      "time": 73.90836832195102
    },
    {
      "absoluteTicks": 72120,
      "channel": 13,
      "type": "noteOff",
      "note": 52,
      "velocity": 69,
      "rel": 0.551181,
      "time": 74.02933582195149
    },
    {
      "absoluteTicks": 72240,
      "channel": 13,
      "type": "noteOn",
      "note": 52,
      "velocity": 73,
      "vel": 0.582677,
      "time": 74.15030332195198
    },
    {
      "absoluteTicks": 72360,
      "channel": 13,
      "type": "noteOff",
      "note": 52,
      "velocity": 73,
      "rel": 0.582677,
      "time": 74.27127082195247
    },
    {
      "absoluteTicks": 72960,
      "channel": 13,
      "type": "noteOn",
      "note": 52,
      "velocity": 71,
      "vel": 0.566929,
      "time": 74.87610832195489
    },
    {
      "absoluteTicks": 73080,
      "channel": 13,
      "type": "noteOff",
      "note": 52,
      "velocity": 71,
      "rel": 0.566929,
      "time": 74.99707582195536
    },
    {
      "absoluteTicks": 73200,
      "channel": 13,
      "type": "noteOn",
      "note": 52,
      "velocity": 75,
      "vel": 0.598425,
      "time": 75.11804332195585
    },
    {
      "absoluteTicks": 73320,
      "channel": 13,
      "type": "noteOff",
      "note": 52,
      "velocity": 75,
      "rel": 0.598425,
      "time": 75.23901082195634
    },
    {
      "absoluteTicks": 73920,
      "channel": 13,
      "type": "noteOn",
      "note": 52,
      "velocity": 63,
      "vel": 0.496063,
      "time": 75.84384832195876
    },
    {
      "absoluteTicks": 74040,
      "channel": 13,
      "type": "noteOff",
      "note": 52,
      "velocity": 63,
      "rel": 0.496063,
      "time": 75.96481582195923
    },
    {
      "absoluteTicks": 74160,
      "channel": 13,
      "type": "noteOn",
      "note": 52,
      "velocity": 74,
      "vel": 0.590551,
      "time": 76.08578332195972
    },
    {
      "absoluteTicks": 74280,
      "channel": 13,
      "type": "noteOff",
      "note": 52,
      "velocity": 74,
      "rel": 0.590551,
      "time": 76.20675082196021
    },
    {
      "absoluteTicks": 74880,
      "channel": 13,
      "type": "noteOn",
      "note": 64,
      "velocity": 66,
      "vel": 0.527559,
      "time": 76.81158832196263
    },
    {
      "absoluteTicks": 75000,
      "channel": 13,
      "type": "noteOff",
      "note": 64,
      "velocity": 66,
      "rel": 0.527559,
      "time": 76.9325558219631
    },
    {
      "absoluteTicks": 75360,
      "channel": 13,
      "type": "noteOn",
      "note": 64,
      "velocity": 66,
      "vel": 0.527559,
      "time": 77.29545832196456
    },
    {
      "absoluteTicks": 75480,
      "channel": 13,
      "type": "noteOff",
      "note": 64,
      "velocity": 66,
      "rel": 0.527559,
      "time": 77.41642582196505
    },
    {
      "absoluteTicks": 75840,
      "channel": 13,
      "type": "noteOn",
      "note": 64,
      "velocity": 70,
      "vel": 0.559055,
      "time": 77.7793283219665
    },
    {
      "absoluteTicks": 75960,
      "channel": 13,
      "type": "noteOff",
      "note": 64,
      "velocity": 70,
      "rel": 0.559055,
      "time": 77.90029582196698
    },
    {
      "absoluteTicks": 76080,
      "channel": 13,
      "type": "noteOn",
      "note": 64,
      "velocity": 72,
      "vel": 0.574803,
      "time": 78.02126332196747
    },
    {
      "absoluteTicks": 76200,
      "channel": 13,
      "type": "noteOff",
      "note": 64,
      "velocity": 72,
      "rel": 0.574803,
      "time": 78.14223082196796
    },
    {
      "absoluteTicks": 76800,
      "channel": 13,
      "type": "noteOn",
      "note": 58,
      "velocity": 32,
      "vel": 0.251969,
      "time": 78.74706832197037
    },
    {
      "absoluteTicks": 76920,
      "channel": 13,
      "type": "noteOff",
      "note": 58,
      "velocity": 32,
      "rel": 0.251969,
      "time": 78.86803582197085
    },
    {
      "absoluteTicks": 77040,
      "channel": 13,
      "type": "noteOn",
      "note": 58,
      "velocity": 34,
      "vel": 0.267717,
      "time": 78.98900332197134
    },
    {
      "absoluteTicks": 77160,
      "channel": 13,
      "type": "noteOff",
      "note": 58,
      "velocity": 34,
      "rel": 0.267717,
      "time": 79.10997082197181
    },
    {
      "absoluteTicks": 77760,
      "channel": 13,
      "type": "noteOn",
      "note": 57,
      "velocity": 40,
      "vel": 0.314961,
      "time": 79.71480832197425
    },
    {
      "absoluteTicks": 77880,
      "channel": 13,
      "type": "noteOff",
      "note": 57,
      "velocity": 40,
      "rel": 0.314961,
      "time": 79.83577582197472
    },
    {
      "absoluteTicks": 78000,
      "channel": 13,
      "type": "noteOn",
      "note": 57,
      "velocity": 35,
      "vel": 0.275591,
      "time": 79.95674332197521
    },
    {
      "absoluteTicks": 78120,
      "channel": 13,
      "type": "noteOff",
      "note": 57,
      "velocity": 35,
      "rel": 0.275591,
      "time": 80.0777108219757
    },
    {
      "absoluteTicks": 78720,
      "channel": 13,
      "type": "noteOn",
      "note": 55,
      "velocity": 39,
      "vel": 0.307087,
      "time": 80.68254832197812
    },
    {
      "absoluteTicks": 78840,
      "channel": 13,
      "type": "noteOff",
      "note": 55,
      "velocity": 39,
      "rel": 0.307087,
      "time": 80.80351582197859
    },
    {
      "absoluteTicks": 78960,
      "channel": 13,
      "type": "noteOn",
      "note": 55,
      "velocity": 44,
      "vel": 0.346457,
      "time": 80.92448332197908
    },
    {
      "absoluteTicks": 79080,
      "channel": 13,
      "type": "noteOff",
      "note": 55,
      "velocity": 44,
      "rel": 0.346457,
      "time": 81.04545082197956
    },
    {
      "absoluteTicks": 79680,
      "channel": 13,
      "type": "noteOn",
      "note": 54,
      "velocity": 45,
      "vel": 0.354331,
      "time": 81.65028832198198
    },
    {
      "absoluteTicks": 79800,
      "channel": 13,
      "type": "noteOff",
      "note": 54,
      "velocity": 45,
      "rel": 0.354331,
      "time": 81.77125582198246
    },
    {
      "absoluteTicks": 79920,
      "channel": 13,
      "type": "noteOn",
      "note": 54,
      "velocity": 45,
      "vel": 0.354331,
      "time": 81.89222332198295
    },
    {
      "absoluteTicks": 80040,
      "channel": 13,
      "type": "noteOff",
      "note": 54,
      "velocity": 45,
      "rel": 0.354331,
      "time": 82.01319082198343
    },
    {
      "absoluteTicks": 80640,
      "channel": 13,
      "type": "noteOn",
      "note": 66,
      "velocity": 41,
      "vel": 0.322835,
      "time": 82.61802832198586
    },
    {
      "absoluteTicks": 80760,
      "channel": 13,
      "type": "noteOff",
      "note": 66,
      "velocity": 41,
      "rel": 0.322835,
      "time": 82.73899582198634
    },
    {
      "absoluteTicks": 80880,
      "channel": 13,
      "type": "noteOn",
      "note": 66,
      "velocity": 46,
      "vel": 0.362205,
      "time": 82.85996332198683
    },
    {
      "absoluteTicks": 81000,
      "channel": 13,
      "type": "noteOff",
      "note": 66,
      "velocity": 46,
      "rel": 0.362205,
      "time": 82.9809308219873
    },
    {
      "absoluteTicks": 81600,
      "channel": 13,
      "type": "noteOn",
      "note": 54,
      "velocity": 42,
      "vel": 0.330709,
      "time": 83.58576832198972
    },
    {
      "absoluteTicks": 81720,
      "channel": 13,
      "type": "noteOff",
      "note": 54,
      "velocity": 42,
      "rel": 0.330709,
      "time": 83.70673582199021
    },
    {
      "absoluteTicks": 81840,
      "channel": 13,
      "type": "noteOn",
      "note": 54,
      "velocity": 42,
      "vel": 0.330709,
      "time": 83.8277033219907
    },
    {
      "absoluteTicks": 81960,
      "channel": 13,
      "type": "noteOff",
      "note": 54,
      "velocity": 42,
      "rel": 0.330709,
      "time": 83.94867082199117
    },
    {
      "absoluteTicks": 82560,
      "channel": 13,
      "type": "noteOn",
      "note": 59,
      "velocity": 36,
      "vel": 0.283465,
      "time": 84.55350832199359
    },
    {
      "absoluteTicks": 82680,
      "channel": 13,
      "type": "noteOff",
      "note": 59,
      "velocity": 36,
      "rel": 0.283465,
      "time": 84.67447582199408
    },
    {
      "absoluteTicks": 83040,
      "channel": 13,
      "type": "noteOn",
      "note": 60,
      "velocity": 32,
      "vel": 0.251969,
      "time": 85.03737832199553
    },
    {
      "absoluteTicks": 83160,
      "channel": 13,
      "type": "noteOff",
      "note": 60,
      "velocity": 32,
      "rel": 0.251969,
      "time": 85.15834582199602
    },
    {
      "absoluteTicks": 83520,
      "channel": 13,
      "type": "noteOn",
      "note": 59,
      "velocity": 32,
      "vel": 0.251969,
      "time": 85.52124832199746
    },
    {
      "absoluteTicks": 83640,
      "channel": 13,
      "type": "noteOff",
      "note": 59,
      "velocity": 32,
      "rel": 0.251969,
      "time": 85.64221582199795
    },
    {
      "absoluteTicks": 83760,
      "channel": 13,
      "type": "noteOn",
      "note": 59,
      "velocity": 28,
      "vel": 0.228346,
      "time": 85.76318332199844
    },
    {
      "absoluteTicks": 83880,
      "channel": 13,
      "type": "noteOff",
      "note": 59,
      "velocity": 28,
      "rel": 0.228346,
      "time": 85.88415082199892
    },
    {
      "absoluteTicks": 84480,
      "channel": 13,
      "type": "noteOn",
      "note": 52,
      "velocity": 30,
      "vel": 0.244094,
      "time": 86.48898832200133
    },
    {
      "absoluteTicks": 84600,
      "channel": 13,
      "type": "noteOff",
      "note": 52,
      "velocity": 30,
      "rel": 0.244094,
      "time": 86.60995582200182
    },
    {
      "absoluteTicks": 84720,
      "channel": 13,
      "type": "noteOn",
      "note": 52,
      "velocity": 38,
      "vel": 0.299213,
      "time": 86.7309233220023
    },
    {
      "absoluteTicks": 84840,
      "channel": 13,
      "type": "noteOff",
      "note": 52,
      "velocity": 38,
      "rel": 0.299213,
      "time": 86.85189082200279
    },
    {
      "absoluteTicks": 85440,
      "channel": 13,
      "type": "noteOn",
      "note": 52,
      "velocity": 29,
      "vel": 0.23622,
      "time": 87.4567283220052
    },
    {
      "absoluteTicks": 85560,
      "channel": 13,
      "type": "noteOff",
      "note": 52,
      "velocity": 29,
      "rel": 0.23622,
      "time": 87.5776958220057
    },
    {
      "absoluteTicks": 85680,
      "channel": 13,
      "type": "noteOn",
      "note": 52,
      "velocity": 37,
      "vel": 0.291339,
      "time": 87.69866332200618
    },
    {
      "absoluteTicks": 85800,
      "channel": 13,
      "type": "noteOff",
      "note": 52,
      "velocity": 37,
      "rel": 0.291339,
      "time": 87.81963082200666
    },
    {
      "absoluteTicks": 86400,
      "channel": 13,
      "type": "noteOn",
      "note": 52,
      "velocity": 30,
      "vel": 0.244094,
      "time": 88.42446832200908
    },
    {
      "absoluteTicks": 86520,
      "channel": 13,
      "type": "noteOff",
      "note": 52,
      "velocity": 30,
      "rel": 0.244094,
      "time": 88.54543582200957
    },
    {
      "absoluteTicks": 86640,
      "channel": 13,
      "type": "noteOn",
      "note": 52,
      "velocity": 36,
      "vel": 0.283465,
      "time": 88.66640332201004
    },
    {
      "absoluteTicks": 86760,
      "channel": 13,
      "type": "noteOff",
      "note": 52,
      "velocity": 36,
      "rel": 0.283465,
      "time": 88.78737082201053
    },
    {
      "absoluteTicks": 87360,
      "channel": 13,
      "type": "noteOn",
      "note": 52,
      "velocity": 32,
      "vel": 0.251969,
      "time": 89.39220832201295
    },
    {
      "absoluteTicks": 87480,
      "channel": 13,
      "type": "noteOff",
      "note": 52,
      "velocity": 32,
      "rel": 0.251969,
      "time": 89.51317582201344
    },
    {
      "absoluteTicks": 87600,
      "channel": 13,
      "type": "noteOn",
      "note": 52,
      "velocity": 37,
      "vel": 0.291339,
      "time": 89.63414332201391
    },
    {
      "absoluteTicks": 87720,
      "channel": 13,
      "type": "noteOff",
      "note": 52,
      "velocity": 37,
      "rel": 0.291339,
      "time": 89.7551108220144
    },
    {
      "absoluteTicks": 88320,
      "channel": 13,
      "type": "noteOn",
      "note": 52,
      "velocity": 33,
      "vel": 0.259843,
      "time": 90.35994832201682
    },
    {
      "absoluteTicks": 88440,
      "channel": 13,
      "type": "noteOff",
      "note": 52,
      "velocity": 33,
      "rel": 0.259843,
      "time": 90.48091582201731
    },
    {
      "absoluteTicks": 88560,
      "channel": 13,
      "type": "noteOn",
      "note": 52,
      "velocity": 32,
      "vel": 0.251969,
      "time": 90.60188332201778
    },
    {
      "absoluteTicks": 88680,
      "channel": 13,
      "type": "noteOff",
      "note": 52,
      "velocity": 32,
      "rel": 0.251969,
      "time": 90.72285082201827
    },
    {
      "absoluteTicks": 89280,
      "channel": 13,
      "type": "noteOn",
      "note": 52,
      "velocity": 34,
      "vel": 0.267717,
      "time": 91.32768832202069
    },
    {
      "absoluteTicks": 89400,
      "channel": 13,
      "type": "noteOff",
      "note": 52,
      "velocity": 34,
      "rel": 0.267717,
      "time": 91.44865582202118
    },
    {
      "absoluteTicks": 89520,
      "channel": 13,
      "type": "noteOn",
      "note": 52,
      "velocity": 32,
      "vel": 0.251969,
      "time": 91.56962332202166
    },
    {
      "absoluteTicks": 89640,
      "channel": 13,
      "type": "noteOff",
      "note": 52,
      "velocity": 32,
      "rel": 0.251969,
      "time": 91.69059082202214
    },
    {
      "absoluteTicks": 90240,
      "channel": 13,
      "type": "noteOn",
      "note": 64,
      "velocity": 34,
      "vel": 0.267717,
      "time": 92.29542832202456
    },
    {
      "absoluteTicks": 90360,
      "channel": 13,
      "type": "noteOff",
      "note": 64,
      "velocity": 34,
      "rel": 0.267717,
      "time": 92.41639582202504
    },
    {
      "absoluteTicks": 90720,
      "channel": 13,
      "type": "noteOn",
      "note": 64,
      "velocity": 34,
      "vel": 0.267717,
      "time": 92.7792983220265
    },
    {
      "absoluteTicks": 90840,
      "channel": 13,
      "type": "noteOff",
      "note": 64,
      "velocity": 34,
      "rel": 0.267717,
      "time": 92.90026582202698
    },
    {
      "absoluteTicks": 91200,
      "channel": 13,
      "type": "noteOn",
      "note": 64,
      "velocity": 27,
      "vel": 0.220472,
      "time": 93.26316832202843
    },
    {
      "absoluteTicks": 91320,
      "channel": 13,
      "type": "noteOff",
      "note": 64,
      "velocity": 27,
      "rel": 0.220472,
      "time": 93.38413582202892
    },
    {
      "absoluteTicks": 99360,
      "channel": 13,
      "type": "noteOn",
      "note": 55,
      "velocity": 86,
      "vel": 0.685039,
      "time": 101.52300356594188
    },
    {
      "absoluteTicks": 99840,
      "channel": 13,
      "type": "noteOff",
      "note": 55,
      "velocity": 86,
      "rel": 0.685039,
      "time": 102.02300356594188
    },
    {
      "absoluteTicks": 99840,
      "channel": 15,
      "type": "meta",
      "metaType": 47,
      "subType": "endOfTrack",
      "time": 102.02300356594188
    }
  ],
  [
    {
      "absoluteTicks": 0,
      "channel": 15,
      "type": "meta",
      "metaType": 3,
      "subType": "trackName",
      "text": "Contrabass",
      "time": 0.0
    },
    {
      "absoluteTicks": 0,
      "channel": 13,
      "type": "noteOn",
      "note": 28,
      "velocity": 32,
      "vel": 0.251969,
      "time": 0.0
    },
    {
      "absoluteTicks": 480,
      "channel": 13,
      "type": "noteOff",
      "note": 28,
      "velocity": 32,
      "rel": 0.251969,
      "time": 0.4838700000019355
    },
    {
      "absoluteTicks": 960,
      "channel": 13,
      "type": "noteOn",
      "note": 28,
      "velocity": 29,
      "vel": 0.23622,
      "time": 0.967740000003871
    },
    {
      "absoluteTicks": 1440,
      "channel": 13,
      "type": "noteOff",
      "note": 28,
      "velocity": 29,
      "rel": 0.23622,
      "time": 1.4516100000058065
    },
    {
      "absoluteTicks": 1920,
      "channel": 13,
      "type": "noteOn",
      "note": 28,
      "velocity": 25,
      "vel": 0.204724,
      "time": 1.935480000007742
    },
    {
      "absoluteTicks": 2400,
      "channel": 13,
      "type": "noteOff",
      "note": 28,
      "velocity": 25,
      "rel": 0.204724,
      "time": 2.4193500000096773
    },
    {
      "absoluteTicks": 2880,
      "channel": 13,
      "type": "noteOn",
      "note": 28,
      "velocity": 30,
      "vel": 0.244094,
      "time": 2.903220000011613
    },
    {
      "absoluteTicks": 3360,
      "channel": 13,
      "type": "noteOff",
      "note": 28,
      "velocity": 30,
      "rel": 0.244094,
      "time": 3.3870900000135484
    },
    {
      "absoluteTicks": 3840,
      "channel": 13,
      "type": "noteOn",
      "note": 28,
      "velocity": 34,
      "vel": 0.267717,
      "time": 3.870960000015484
    },
    {
      "absoluteTicks": 4320,
      "channel": 13,
      "type": "noteOff",
      "note": 28,
      "velocity": 34,
      "rel": 0.267717,
      "time": 4.35483000001742
    },
    {
      "absoluteTicks": 4800,
      "channel": 13,
      "type": "noteOn",
      "note": 28,
      "velocity": 30,
      "vel": 0.244094,
      "time": 4.8387000000193545
    },
    {
      "absoluteTicks": 5280,
      "channel": 13,
      "type": "noteOff",
      "note": 28,
      "velocity": 30,
      "rel": 0.244094,
      "time": 5.32257000002129
    },
    {
      "absoluteTicks": 5760,
      "channel": 13,
      "type": "noteOn",
      "note": 28,
      "velocity": 33,
      "vel": 0.259843,
      "time": 5.806440000023226
    },
    {
      "absoluteTicks": 6240,
      "channel": 13,
      "type": "noteOff",
      "note": 28,
      "velocity": 33,
      "rel": 0.259843,
      "time": 6.290310000025161
    },
    {
      "absoluteTicks": 6720,
      "channel": 13,
      "type": "noteOn",
      "note": 28,
      "velocity": 34,
      "vel": 0.267717,
      "time": 6.774180000027097
    },
    {
      "absoluteTicks": 7200,
      "channel": 13,
      "type": "noteOff",
      "note": 28,
      "velocity": 34,
      "rel": 0.267717,
      "time": 7.258050000029033
    },
    {
      "absoluteTicks": 7680,
      "channel": 13,
      "type": "noteOn",
      "note": 28,
      "velocity": 27,
      "vel": 0.220472,
      "time": 7.741920000030968
    },
    {
      "absoluteTicks": 8160,
      "channel": 13,
      "type": "noteOff",
      "note": 28,
      "velocity": 27,
      "rel": 0.220472,
      "time": 8.225790000032903
    },
    {
      "absoluteTicks": 8640,
      "channel": 13,
      "type": "noteOn",
      "note": 28,
      "velocity": 29,
      "vel": 0.23622,
      "time": 8.70966000003484
    },
    {
      "absoluteTicks": 9120,
      "channel": 13,
      "type": "noteOff",
      "note": 28,
      "velocity": 29,
      "rel": 0.23622,
      "time": 9.193530000036775
    },
    {
      "absoluteTicks": 9600,
      "channel": 13,
      "type": "noteOn",
      "note": 28,
      "velocity": 26,
      "vel": 0.212598,
      "time": 9.677400000038709
    },
    {
      "absoluteTicks": 10080,
      "channel": 13,
      "type": "noteOff",
      "note": 28,
      "velocity": 26,
      "rel": 0.212598,
      "time": 10.161270000040645
    },
    {
      "absoluteTicks": 10560,
      "channel": 13,
      "type": "noteOn",
      "note": 28,
      "velocity": 30,
      "vel": 0.244094,
      "time": 10.64514000004258
    },
    {
      "absoluteTicks": 11040,
      "channel": 13,
      "type": "noteOff",
      "note": 28,
      "velocity": 30,
      "rel": 0.244094,
      "time": 11.129010000044516
    },
    {
      "absoluteTicks": 11520,
      "channel": 13,
      "type": "noteOn",
      "note": 28,
      "velocity": 28,
      "vel": 0.228346,
      "time": 11.612880000046452
    },
    {
      "absoluteTicks": 12000,
      "channel": 13,
      "type": "noteOff",
      "note": 28,
      "velocity": 28,
      "rel": 0.228346,
      "time": 12.096750000048386
    },
    {
      "absoluteTicks": 12480,
      "channel": 13,
      "type": "noteOn",
      "note": 28,
      "velocity": 35,
      "vel": 0.275591,
      "time": 12.580620000050322
    },
    {
      "absoluteTicks": 12960,
      "channel": 13,
      "type": "noteOff",
      "note": 28,
      "velocity": 35,
      "rel": 0.275591,
      "time": 13.064490000052258
    },
    {
      "absoluteTicks": 13440,
      "channel": 13,
      "type": "noteOn",
      "note": 40,
      "velocity": 30,
      "vel": 0.244094,
      "time": 13.548360000054194
    },
    {
      "absoluteTicks": 13920,
      "channel": 13,
      "type": "noteOn",
      "note": 40,
      "velocity": 33,
      "vel": 0.259843,
      "time": 14.03223000005613
    },
    {
      "absoluteTicks": 13920,
      "channel": 13,
      "type": "noteOff",
      "note": 40,
      "velocity": 30,
      "rel": 0.244094,
      "time": 14.03223000005613
    },
    {
      "absoluteTicks": 14400,
      "channel": 13,
      "type": "noteOn",
      "note": 40,
      "velocity": 35,
      "vel": 0.275591,
      "time": 14.516100000058065
    },
    {
      "absoluteTicks": 14400,
      "channel": 13,
      "type": "noteOff",
      "note": 40,
      "velocity": 33,
      "rel": 0.259843,
      "time": 14.516100000058065
    },
    {
      "absoluteTicks": 14880,
      "channel": 13,
      "type": "noteOff",
      "note": 40,
      "velocity": 35,
      "rel": 0.275591,
      "time": 14.99997000006
    },
    {
      "absoluteTicks": 15360,
      "channel": 13,
      "type": "noteOn",
      "note": 22,
      "velocity": 29,
      "vel": 0.23622,
      "time": 15.483840000061935
    },
    {
      "absoluteTicks": 15840,
      "channel": 13,
      "type": "noteOff",
      "note": 22,
      "velocity": 29,
      "rel": 0.23622,
      "time": 15.967710000063871
    },
    {
      "absoluteTicks": 16320,
      "channel": 13,
      "type": "noteOn",
      "note": 21,
      "velocity": 37,
      "vel": 0.291339,
      "time": 16.451580000065807
    },
    {
      "absoluteTicks": 16800,
      "channel": 13,
      "type": "noteOff",
      "note": 21,
      "velocity": 37,
      "rel": 0.291339,
      "time": 16.935450000067743
    },
    {
      "absoluteTicks": 17280,
      "channel": 13,
      "type": "noteOn",
      "note": 19,
      "velocity": 36,
      "vel": 0.283465,
      "time": 17.41932000006968
    },
    {
      "absoluteTicks": 17760,
      "channel": 13,
      "type": "noteOff",
      "note": 19,
      "velocity": 36,
      "rel": 0.283465,
      "time": 17.903190000071614
    },
    {
      "absoluteTicks": 18240,
      "channel": 13,
      "type": "noteOn",
      "note": 18,
      "velocity": 45,
      "vel": 0.354331,
      "time": 18.38706000007355
    },
    {
      "absoluteTicks": 18720,
      "channel": 13,
      "type": "noteOff",
      "note": 18,
      "velocity": 45,
      "rel": 0.354331,
      "time": 18.870930000075482
    },
    {
      "absoluteTicks": 19200,
      "channel": 13,
      "type": "noteOn",
      "note": 30,
      "velocity": 44,
      "vel": 0.346457,
      "time": 19.354800000077418
    },
    {
      "absoluteTicks": 19680,
      "channel": 13,
      "type": "noteOff",
      "note": 30,
      "velocity": 44,
      "rel": 0.346457,
      "time": 19.838670000079354
    },
    {
      "absoluteTicks": 20160,
      "channel": 13,
      "type": "noteOn",
      "note": 18,
      "velocity": 39,
      "vel": 0.307087,
      "time": 20.32254000008129
    },
    {
      "absoluteTicks": 20640,
      "channel": 13,
      "type": "noteOff",
      "note": 18,
      "velocity": 39,
      "rel": 0.307087,
      "time": 20.806410000083225
    },
    {
      "absoluteTicks": 21120,
      "channel": 13,
      "type": "noteOn",
      "note": 23,
      "velocity": 37,
      "vel": 0.291339,
      "time": 21.29028000008516
    },
    {
      "absoluteTicks": 21600,
      "channel": 13,
      "type": "noteOn",
      "note": 24,
      "velocity": 40,
      "vel": 0.314961,
      "time": 21.774150000087097
    },
    {
      "absoluteTicks": 21600,
      "channel": 13,
      "type": "noteOff",
      "note": 23,
      "velocity": 37,
      "rel": 0.291339,
      "time": 21.774150000087097
    },
    {
      "absoluteTicks": 22080,
      "channel": 13,
      "type": "noteOn",
      "note": 23,
      "velocity": 35,
      "vel": 0.275591,
      "time": 22.258020000089033
    },
    {
      "absoluteTicks": 22080,
      "channel": 13,
      "type": "noteOff",
      "note": 24,
      "velocity": 40,
      "rel": 0.314961,
      "time": 22.258020000089033
    },
    {
      "absoluteTicks": 22560,
      "channel": 13,
      "type": "noteOff",
      "note": 23,
      "velocity": 35,
      "rel": 0.275591,
      "time": 22.74189000009097
    },
    {
      "absoluteTicks": 23040,
      "channel": 13,
      "type": "noteOn",
      "note": 28,
      "velocity": 42,
      "vel": 0.330709,
      "time": 23.225760000092905
    },
    {
      "absoluteTicks": 23520,
      "channel": 13,
      "type": "noteOff",
      "note": 28,
      "velocity": 42,
      "rel": 0.330709,
      "time": 23.70963000009484
    },
    {
      "absoluteTicks": 24000,
      "channel": 13,
      "type": "noteOn",
      "note": 28,
      "velocity": 39,
      "vel": 0.307087,
      "time": 24.193500000096773
    },
    {
      "absoluteTicks": 24480,
      "channel": 13,
      "type": "noteOff",
      "note": 28,
      "velocity": 39,
      "rel": 0.307087,
      "time": 24.67737000009871
    },
    {
      "absoluteTicks": 24960,
      "channel": 13,
      "type": "noteOn",
      "note": 28,
      "velocity": 41,
      "vel": 0.322835,
      "time": 25.161240000100644
    },
    {
      "absoluteTicks": 25440,
      "channel": 13,
      "type": "noteOff",
      "note": 28,
      "velocity": 41,
      "rel": 0.322835,
      "time": 25.64511000010258
    },
    {
      "absoluteTicks": 25920,
      "channel": 13,
      "type": "noteOn",
      "note": 28,
      "velocity": 42,
      "vel": 0.330709,
      "time": 26.128980000104516
    },
    {
      "absoluteTicks": 26400,
      "channel": 13,
      "type": "noteOff",
      "note": 28,
      "velocity": 42,
      "rel": 0.330709,
      "time": 26.61285000010645
    },
    {
      "absoluteTicks": 26880,
      "channel": 13,
      "type": "noteOn",
      "note": 28,
      "velocity": 41,
      "vel": 0.322835,
      "time": 27.096720000108387
    },
    {
      "absoluteTicks": 27360,
      "channel": 13,
      "type": "noteOff",
      "note": 28,
      "velocity": 41,
      "rel": 0.322835,
      "time": 27.580590000110323
    },
    {
      "absoluteTicks": 27840,
      "channel": 13,
      "type": "noteOn",
      "note": 28,
      "velocity": 43,
      "vel": 0.338583,
      "time": 28.06446000011226
    },
    {
      "absoluteTicks": 28320,
      "channel": 13,
      "type": "noteOff",
      "note": 28,
      "velocity": 43,
      "rel": 0.338583,
      "time": 28.548330000114195
    },
    {
      "absoluteTicks": 28800,
      "channel": 13,
      "type": "noteOn",
      "note": 40,
      "velocity": 44,
      "vel": 0.346457,
      "time": 29.03220000011613
    },
    {
      "absoluteTicks": 29280,
      "channel": 13,
      "type": "noteOn",
      "note": 40,
      "velocity": 48,
      "vel": 0.377953,
      "time": 29.516070000118063
    },
    {
      "absoluteTicks": 29280,
      "channel": 13,
      "type": "noteOff",
      "note": 40,
      "velocity": 44,
      "rel": 0.346457,
      "time": 29.516070000118063
    },
    {
      "absoluteTicks": 29760,
      "channel": 13,
      "type": "noteOn",
      "note": 40,
      "velocity": 44,
      "vel": 0.346457,
      "time": 29.99994000012
    },
    {
      "absoluteTicks": 29760,
      "channel": 13,
      "type": "noteOff",
      "note": 40,
      "velocity": 48,
      "rel": 0.377953,
      "time": 29.99994000012
    },
    {
      "absoluteTicks": 30240,
      "channel": 13,
      "type": "noteOff",
      "note": 40,
      "velocity": 44,
      "rel": 0.346457,
      "time": 30.483810000121935
    },
    {
      "absoluteTicks": 37920,
      "channel": 13,
      "type": "noteOn",
      "note": 23,
      "velocity": 47,
      "vel": 0.370079,
      "time": 38.2257300001529
    },
    {
      "absoluteTicks": 38400,
      "channel": 13,
      "type": "noteOff",
      "note": 23,
      "velocity": 47,
      "rel": 0.370079,
      "time": 38.709600000154836
    },
    {
      "absoluteTicks": 45600,
      "channel": 13,
      "type": "noteOn",
      "note": 23,
      "velocity": 44,
      "vel": 0.346457,
      "time": 45.96765000018387
    },
    {
      "absoluteTicks": 46080,
      "channel": 13,
      "type": "noteOff",
      "note": 23,
      "velocity": 44,
      "rel": 0.346457,
      "time": 46.45152000018581
    },
    {
      "absoluteTicks": 53280,
      "channel": 13,
      "type": "noteOn",
      "note": 23,
      "velocity": 49,
      "vel": 0.385827,
      "time": 53.70957000021484
    },
    {
      "absoluteTicks": 53760,
      "channel": 13,
      "type": "noteOff",
      "note": 23,
      "velocity": 49,
      "rel": 0.385827,
      "time": 54.193440000216775
    },
    {
      "absoluteTicks": 55200,
      "channel": 13,
      "type": "noteOn",
      "note": 23,
      "velocity": 48,
      "vel": 0.377953,
      "time": 55.64505000022258
    },
    {
      "absoluteTicks": 55680,
      "channel": 13,
      "type": "noteOff",
      "note": 23,
      "velocity": 48,
      "rel": 0.377953,
      "time": 56.12892000022452
    },
    {
      "absoluteTicks": 57120,
      "channel": 13,
      "type": "noteOn",
      "note": 23,
      "velocity": 52,
      "vel": 0.409449,
      "time": 57.580530000230326
    },
    {
      "absoluteTicks": 57600,
      "channel": 13,
      "type": "noteOff",
      "note": 23,
      "velocity": 52,
      "rel": 0.409449,
      "time": 58.06440000023226
    },
    {
      "absoluteTicks": 59040,
      "channel": 13,
      "type": "noteOn",
      "note": 23,
      "velocity": 52,
      "vel": 0.409449,
      "time": 59.51601000023806
    },
    {
      "absoluteTicks": 59520,
      "channel": 13,
      "type": "noteOff",
      "note": 23,
      "velocity": 52,
      "rel": 0.409449,
      "time": 59.99988000024
    },
    {
      "absoluteTicks": 60000,
      "channel": 13,
      "type": "noteOn",
      "note": 23,
      "velocity": 50,
      "vel": 0.393701,
      "time": 60.48375000024193
    },
    {
      "absoluteTicks": 60480,
      "channel": 13,
      "type": "noteOff",
      "note": 23,
      "velocity": 50,
      "rel": 0.393701,
      "time": 60.96762000024387
    },
    {
      "absoluteTicks": 76800,
      "channel": 13,
      "type": "noteOn",
      "note": 34,
      "velocity": 35,
      "vel": 0.275591,
      "time": 78.74706832197037
    },
    {
      "absoluteTicks": 76920,
      "channel": 13,
      "type": "noteOff",
      "note": 34,
      "velocity": 35,
      "rel": 0.275591,
      "time": 78.86803582197085
    },
    {
      "absoluteTicks": 77040,
      "channel": 13,
      "type": "noteOn",
      "note": 34,
      "velocity": 37,
      "vel": 0.291339,
      "time": 78.98900332197134
    },
    {
      "absoluteTicks": 77160,
      "channel": 13,
      "type": "noteOff",
      "note": 34,
      "velocity": 37,
      "rel": 0.291339,
      "time": 79.10997082197181
    },
    {
      "absoluteTicks": 77760,
      "channel": 13,
      "type": "noteOn",
      "note": 33,
      "velocity": 36,
      "vel": 0.283465,
      "time": 79.71480832197425
    },
    {
      "absoluteTicks": 77880,
      "channel": 13,
      "type": "noteOff",
      "note": 33,
      "velocity": 36,
      "rel": 0.283465,
      "time": 79.83577582197472
    },
    {
      "absoluteTicks": 78000,
      "channel": 13,
      "type": "noteOn",
      "note": 33,
      "velocity": 41,
      "vel": 0.322835,
      "time": 79.95674332197521
    },
    {
      "absoluteTicks": 78120,
      "channel": 13,
      "type": "noteOff",
      "note": 33,
      "velocity": 41,
      "rel": 0.322835,
      "time": 80.0777108219757
    },
    {
      "absoluteTicks": 78720,
      "channel": 13,
      "type": "noteOn",
      "note": 31,
      "velocity": 40,
      "vel": 0.314961,
      "time": 80.68254832197812
    },
    {
      "absoluteTicks": 78840,
      "channel": 13,
      "type": "noteOff",
      "note": 31,
      "velocity": 40,
      "rel": 0.314961,
      "time": 80.80351582197859
    },
    {
      "absoluteTicks": 78960,
      "channel": 13,
      "type": "noteOn",
      "note": 31,
      "velocity": 41,
      "vel": 0.322835,
      "time": 80.92448332197908
    },
    {
      "absoluteTicks": 79080,
      "channel": 13,
      "type": "noteOff",
      "note": 31,
      "velocity": 41,
      "rel": 0.322835,
      "time": 81.04545082197956
    },
    {
      "absoluteTicks": 79680,
      "channel": 13,
      "type": "noteOn",
      "note": 30,
      "velocity": 39,
      "vel": 0.307087,
      "time": 81.65028832198198
    },
    {
      "absoluteTicks": 79800,
      "channel": 13,
      "type": "noteOff",
      "note": 30,
      "velocity": 39,
      "rel": 0.307087,
      "time": 81.77125582198246
    },
    {
      "absoluteTicks": 79920,
      "channel": 13,
      "type": "noteOn",
      "note": 30,
      "velocity": 49,
      "vel": 0.385827,
      "time": 81.89222332198295
    },
    {
      "absoluteTicks": 80040,
      "channel": 13,
      "type": "noteOff",
      "note": 30,
      "velocity": 49,
      "rel": 0.385827,
      "time": 82.01319082198343
    },
    {
      "absoluteTicks": 80640,
      "channel": 13,
      "type": "noteOn",
      "note": 42,
      "velocity": 40,
      "vel": 0.314961,
      "time": 82.61802832198586
    },
    {
      "absoluteTicks": 80760,
      "channel": 13,
      "type": "noteOff",
      "note": 42,
      "velocity": 40,
      "rel": 0.314961,
      "time": 82.73899582198634
    },
    {
      "absoluteTicks": 80880,
      "channel": 13,
      "type": "noteOn",
      "note": 42,
      "velocity": 46,
      "vel": 0.362205,
      "time": 82.85996332198683
    },
    {
      "absoluteTicks": 81000,
      "channel": 13,
      "type": "noteOff",
      "note": 42,
      "velocity": 46,
      "rel": 0.362205,
      "time": 82.9809308219873
    },
    {
      "absoluteTicks": 81600,
      "channel": 13,
      "type": "noteOn",
      "note": 30,
      "velocity": 42,
      "vel": 0.330709,
      "time": 83.58576832198972
    },
    {
      "absoluteTicks": 81720,
      "channel": 13,
      "type": "noteOff",
      "note": 30,
      "velocity": 42,
      "rel": 0.330709,
      "time": 83.70673582199021
    },
    {
      "absoluteTicks": 81840,
      "channel": 13,
      "type": "noteOn",
      "note": 30,
      "velocity": 42,
      "vel": 0.330709,
      "time": 83.8277033219907
    },
    {
      "absoluteTicks": 81960,
      "channel": 13,
      "type": "noteOff",
      "note": 30,
      "velocity": 42,
      "rel": 0.330709,
      "time": 83.94867082199117
    },
    {
      "absoluteTicks": 82560,
      "channel": 13,
      "type": "noteOn",
      "note": 35,
      "velocity": 33,
      "vel": 0.259843,
      "time": 84.55350832199359
    },
    {
      "absoluteTicks": 82680,
      "channel": 13,
      "type": "noteOff",
      "note": 35,
      "velocity": 33,
      "rel": 0.259843,
      "time": 84.67447582199408
    },
    {
      "absoluteTicks": 83040,
      "channel": 13,
      "type": "noteOn",
      "note": 36,
      "velocity": 32,
      "vel": 0.251969,
      "time": 85.03737832199553
    },
    {
      "absoluteTicks": 83160,
      "channel": 13,
      "type": "noteOff",
      "note": 36,
      "velocity": 32,
      "rel": 0.251969,
      "time": 85.15834582199602
    },
    {
      "absoluteTicks": 83520,
      "channel": 13,
      "type": "noteOn",
      "note": 35,
      "velocity": 35,
      "vel": 0.275591,
      "time": 85.52124832199746
    },
    {
      "absoluteTicks": 83640,
      "channel": 13,
      "type": "noteOff",
      "note": 35,
      "velocity": 35,
      "rel": 0.275591,
      "time": 85.64221582199795
    },
    {
      "absoluteTicks": 83760,
      "channel": 13,
      "type": "noteOn",
      "note": 35,
      "velocity": 36,
      "vel": 0.283465,
      "time": 85.76318332199844
    },
    {
      "absoluteTicks": 83880,
      "channel": 13,
      "type": "noteOff",
      "note": 35,
      "velocity": 36,
      "rel": 0.283465,
      "time": 85.88415082199892
    },
    {
      "absoluteTicks": 99360,
      "channel": 13,
      "type": "noteOn",
      "note": 31,
      "velocity": 86,
      "vel": 0.685039,
      "time": 101.52300356594188
    },
    {
      "absoluteTicks": 99840,
      "channel": 13,
      "type": "noteOff",
      "note": 31,
      "velocity": 86,
      "rel": 0.685039,
      "time": 102.02300356594188
    },
    {
      "absoluteTicks": 99840,
      "channel": 15,
      "type": "meta",
      "metaType": 47,
      "subType": "endOfTrack",
      "time": 102.02300356594188
    }
  ],
  [
    {
      "absoluteTicks": 0,
      "channel": 15,
      "type": "meta",
      "metaType": 3,
      "subType": "trackName",
      "text": "FX 1",
      "time": 0.0
    },
    {
      "absoluteTicks": 0,
      "channel": 15,
      "type": "meta",
      "metaType": 47,
      "subType": "endOfTrack",
      "time": 0.0
    }
  ],
  [
    {
      "absoluteTicks": 0,
      "channel": 15,
      "type": "meta",
      "metaType": 3,
      "subType": "trackName",
      "text": "Master",
      "time": 0.0
    },
    {
      "absoluteTicks": 0,
      "channel": 15,
      "type": "meta",
      "metaType": 47,
      "subType": "endOfTrack",
      "time": 0.0
    }
  ]
]